<svg id="Layer_1" data-name="Layer 1" xmlns="http://www.w3.org/2000/svg" viewBox="0 0 1665 569"><defs><style>.cls-1{fill:#b3b3b3;}.cls-2{fill:#0097a7;}.cls-3{fill:#00838f;}.cls-4{fill:#33bdcd;}.cls-5{fill:#80d5e0;}</style></defs><title>cellularautomaton-how-it-works</title><path class="cls-1" d="M392.93,274.09c7.11-.76,14.21-1.33,21.32-1.88.88-.07,1.77-.16,2.66-.17s1.78,0,2.66,0H542.13c3.55,0,7.1,0,10.66,0a21.52,21.52,0,0,1,2.66.11l2.67.21,5.32.42v2.6l-5.32.42-2.67.21a21.52,21.52,0,0,1-2.66.11c-3.56-.08-7.11,0-10.66,0H419.57c-.88,0-1.77,0-2.66,0s-1.78-.1-2.66-.16C407.14,275.42,400,274.85,392.93,274.09Z"/><path class="cls-1" d="M561.83,274.09c-4.17-4.18-6.17-12.44-6.33-18.18,5.73,7.7,13.18,14.42,22.19,18.18-9,3.61-16.13,10.73-22.19,18.18C556,286.13,557.49,278.68,561.83,274.09Z"/><path class="cls-1" d="M1046.09,274.3c7.11-.76,14.21-1.33,21.32-1.89.88-.06,1.77-.16,2.66-.17s1.78.05,2.67.05h122.55c3.55,0,7.11,0,10.66,0a23.65,23.65,0,0,1,2.66.1l2.67.22,5.33.42v2.6l-5.33.42-2.67.21a21.52,21.52,0,0,1-2.66.11c-3.55-.08-7.11,0-10.66,0H1072.74c-.89,0-1.78.06-2.67.05s-1.78-.1-2.66-.17C1060.3,275.63,1053.2,275.06,1046.09,274.3Z"/><path class="cls-1" d="M1215,274.3c-4.18-4.18-6.18-12.45-6.34-18.18,5.73,7.7,13.18,14.41,22.19,18.18-9,3.6-16.13,10.72-22.19,18.18C1209.15,286.34,1210.65,278.88,1215,274.3Z"/><path d="M732.81,500.05h1.36l9.3,22H741.8l-3.07-7.26H728.22l-3.07,7.26h-1.71Zm5.48,13.45L733.49,502l-4.9,11.53Z"/><path d="M751,522.37q-5.15,0-5.14-7.13v-9.3h1.55V515q0,6,4.06,6a5.58,5.58,0,0,0,2-.35,6.93,6.93,0,0,0,1.8-1,6.69,6.69,0,0,0,1.47-1.53,7.7,7.7,0,0,0,1-2V505.94h1.55v13.95c0,.52.22.77.65.77v1.4l-.28,0h-.18a1.73,1.73,0,0,1-1.11-.39,1.26,1.26,0,0,1-.48-1v-2.41a7.77,7.77,0,0,1-6.88,4.12Z"/><path d="M771.37,521.28l-.42.24a4.41,4.41,0,0,1-.74.32,7.69,7.69,0,0,1-1,.28,5.7,5.7,0,0,1-1.21.12,4,4,0,0,1-1.22-.18,2.93,2.93,0,0,1-1-.56,2.62,2.62,0,0,1-.68-.9,2.8,2.8,0,0,1-.25-1.24V507.21h-2.26v-1.27h2.26v-5.52h1.55v5.52h3.75v1.27h-3.75V519a1.57,1.57,0,0,0,.62,1.35,2.31,2.31,0,0,0,1.39.45,3.84,3.84,0,0,0,1.66-.33,8.63,8.63,0,0,0,.86-.42Z"/><path d="M780.45,522.37a7.31,7.31,0,0,1-3.14-.67,7.79,7.79,0,0,1-2.5-1.81,8.36,8.36,0,0,1-1.64-2.67,8.77,8.77,0,0,1-.59-3.19,8.68,8.68,0,0,1,2.26-5.89,7.64,7.64,0,0,1,2.5-1.81,7.24,7.24,0,0,1,3.11-.67,7.13,7.13,0,0,1,3.1.67,7.86,7.86,0,0,1,2.5,1.81,8.32,8.32,0,0,1,1.67,2.67,8.74,8.74,0,0,1-1.66,9.08,7.75,7.75,0,0,1-2.49,1.81A7.26,7.26,0,0,1,780.45,522.37Zm-6.32-8.28a7,7,0,0,0,.5,2.68A7.12,7.12,0,0,0,776,519a6.44,6.44,0,0,0,2,1.47,5.83,5.83,0,0,0,4.9,0,6.3,6.3,0,0,0,2-1.5,7.34,7.34,0,0,0,1.86-4.93,7.24,7.24,0,0,0-1.86-4.88,6.81,6.81,0,0,0-2-1.51,5.49,5.49,0,0,0-2.44-.56,5.6,5.6,0,0,0-2.45.56,6.44,6.44,0,0,0-2,1.52,7.68,7.68,0,0,0-1.36,2.25A7.29,7.29,0,0,0,774.13,514.09Z"/><path d="M798.68,522.37a6.91,6.91,0,0,1-3.1-.7,7.77,7.77,0,0,1-2.46-1.86,8.42,8.42,0,0,1-1.62-2.67,8.7,8.7,0,0,1-.57-3.11,9.19,9.19,0,0,1,.56-3.19,8.51,8.51,0,0,1,1.55-2.67,7.73,7.73,0,0,1,2.34-1.83,6.54,6.54,0,0,1,3-.68,6.13,6.13,0,0,1,2,.31,8.16,8.16,0,0,1,1.74.82,8,8,0,0,1,1.46,1.19,8.94,8.94,0,0,1,1.11,1.46v-10h1.55v20.46c0,.52.22.77.65.77v1.4l-.31.05h-.24a1.37,1.37,0,0,1-1.06-.48,1.49,1.49,0,0,1-.43-1v-1.8a7.44,7.44,0,0,1-2.65,2.58A6.83,6.83,0,0,1,798.68,522.37ZM799,521a5.32,5.32,0,0,0,1.8-.34,6.75,6.75,0,0,0,1.78-.94,7.11,7.11,0,0,0,1.41-1.38,3.32,3.32,0,0,0,.68-1.68v-5.3a6.26,6.26,0,0,0-1-1.66,7.7,7.7,0,0,0-1.44-1.36,7.22,7.22,0,0,0-1.74-.91,5.17,5.17,0,0,0-1.8-.35,5.38,5.38,0,0,0-2.54.61,6.14,6.14,0,0,0-1.95,1.58,7,7,0,0,0-1.24,2.23,7.87,7.87,0,0,0-.44,2.59,7.08,7.08,0,0,0,.5,2.64,7.18,7.18,0,0,0,1.38,2.2,6.89,6.89,0,0,0,2,1.52A5.81,5.81,0,0,0,799,521Z"/><path d="M818,522.37a7.43,7.43,0,0,1-3.16-.67,7.78,7.78,0,0,1-2.53-1.83,8.48,8.48,0,0,1-1.67-2.68,8.77,8.77,0,0,1-.6-3.25,8.53,8.53,0,0,1,2.26-5.85,7.67,7.67,0,0,1,2.49-1.78,7.58,7.58,0,0,1,3.12-.65,7.4,7.4,0,0,1,3.16.67,7.82,7.82,0,0,1,2.51,1.79,8.35,8.35,0,0,1,1.65,2.64,8.67,8.67,0,0,1,.58,3.18v.38a.88.88,0,0,1,0,.3H811.61a7.21,7.21,0,0,0,.65,2.59,7.37,7.37,0,0,0,1.41,2.06,6.26,6.26,0,0,0,2,1.36,5.8,5.8,0,0,0,2.38.5,6.14,6.14,0,0,0,1.65-.23,6.71,6.71,0,0,0,1.5-.64,5.16,5.16,0,0,0,1.24-1,4.47,4.47,0,0,0,.85-1.25l1.37.37a5.33,5.33,0,0,1-1,1.6,6.8,6.8,0,0,1-1.55,1.25,8.21,8.21,0,0,1-4.11,1.12Zm6.33-9a7.58,7.58,0,0,0-.64-2.61,7.16,7.16,0,0,0-1.39-2,6.46,6.46,0,0,0-2-1.33,6.19,6.19,0,0,0-4.78,0,6.3,6.3,0,0,0-2,1.33,6.41,6.41,0,0,0-1.37,2.05,7.85,7.85,0,0,0-.6,2.59Z"/><path d="M834.3,522.37a10.47,10.47,0,0,1-3.57-.62,8.34,8.34,0,0,1-3-1.86l.77-1.06a9,9,0,0,0,2.7,1.74,8.22,8.22,0,0,0,3.07.56,5.94,5.94,0,0,0,3.39-.88,2.84,2.84,0,0,0,1.29-2.47,2.34,2.34,0,0,0-.32-1.25,2.54,2.54,0,0,0-1-.87,8.29,8.29,0,0,0-1.61-.64c-.64-.18-1.39-.38-2.24-.59s-1.7-.41-2.37-.62a6.26,6.26,0,0,1-1.66-.74,2.8,2.8,0,0,1-1-1.06,3.34,3.34,0,0,1-.33-1.58,4.52,4.52,0,0,1,.47-2.1,4.19,4.19,0,0,1,1.28-1.49,6.05,6.05,0,0,1,1.9-.89,8.77,8.77,0,0,1,2.27-.29,8.38,8.38,0,0,1,3.35.63,5.89,5.89,0,0,1,2.26,1.63l-.86.84a4.85,4.85,0,0,0-2.1-1.39,7.74,7.74,0,0,0-2.74-.47,7.06,7.06,0,0,0-1.69.19,4.1,4.1,0,0,0-1.38.58,3,3,0,0,0-.93,1,3.15,3.15,0,0,0-.34,1.51,2.48,2.48,0,0,0,.23,1.14,2.07,2.07,0,0,0,.75.75,5.62,5.62,0,0,0,1.31.54c.54.15,1.18.33,1.93.51,1,.25,1.91.49,2.69.71a7.72,7.72,0,0,1,2,.84,3.7,3.7,0,0,1,1.21,1.18,3.24,3.24,0,0,1,.42,1.73,4.12,4.12,0,0,1-1.69,3.46A7.25,7.25,0,0,1,834.3,522.37Z"/><path d="M855.75,522.06l-6.29-8.62-3.81,3.5v5.12H844.1V499.43h1.55v15.81l9.79-9.27h1.8l-6.73,6.54,7,9.55Z"/><path d="M888.64,522.06V503L880,517.87h-1L870.29,503v19h-1.58v-22h1.58l9.18,15.75,9.17-15.75h1.58v22Z"/><path d="M899.34,522.37a5.46,5.46,0,0,1-2.08-.39,5.73,5.73,0,0,1-1.69-1.05,4.67,4.67,0,0,1-1.13-1.58,4.82,4.82,0,0,1-.4-2,3.78,3.78,0,0,1,.49-1.92,4.81,4.81,0,0,1,1.38-1.51,7,7,0,0,1,2.12-1,9.8,9.8,0,0,1,2.73-.36,14.59,14.59,0,0,1,2.62.24,12.36,12.36,0,0,1,2.37.63v-1.58a5,5,0,0,0-1.3-3.64,4.67,4.67,0,0,0-3.53-1.35,7.13,7.13,0,0,0-2.5.5,12.68,12.68,0,0,0-2.68,1.42l-.59-1.05a10.55,10.55,0,0,1,5.89-2.11,6.17,6.17,0,0,1,4.59,1.69A6.32,6.32,0,0,1,907.3,512v7.88c0,.52.23.77.69.77v1.4l-.33.05h-.29a1.27,1.27,0,0,1-1-.42,1.78,1.78,0,0,1-.43-1v-1.34a7.21,7.21,0,0,1-2.85,2.23A9.06,9.06,0,0,1,899.34,522.37Zm.31-1.24a8,8,0,0,0,3.3-.68,5.76,5.76,0,0,0,2.31-1.8,2.09,2.09,0,0,0,.49-1.24v-2.85a12.08,12.08,0,0,0-2.32-.65,13.71,13.71,0,0,0-2.51-.22,8.79,8.79,0,0,0-2.2.26,6.08,6.08,0,0,0-1.71.73,3.48,3.48,0,0,0-1.1,1.13,2.9,2.9,0,0,0-.39,1.48,3.85,3.85,0,0,0,.31,1.51,3.62,3.62,0,0,0,.87,1.23,4,4,0,0,0,1.32.8A4.41,4.41,0,0,0,899.65,521.13Z"/><path d="M912.7,527.51a1.9,1.9,0,0,0,.46,0,3.57,3.57,0,0,0,.58,0,1.65,1.65,0,0,0,.51-.15,1.19,1.19,0,0,0,.34-.26,4.12,4.12,0,0,0,.43-.7c.19-.35.43-.87.72-1.55s.68-1.61,1.17-2.79l-7.19-16.12h1.61l6.42,14.6,6-14.6h1.52l-8.83,21.2a2.78,2.78,0,0,1-1.1,1.35,3.85,3.85,0,0,1-2.06.48H913l-.29,0Z"/><path d="M931.92,522.37a5.46,5.46,0,0,1-2.08-.39,5.73,5.73,0,0,1-1.69-1.05,4.73,4.73,0,0,1-1.53-3.55,3.78,3.78,0,0,1,.49-1.92,4.81,4.81,0,0,1,1.38-1.51,7,7,0,0,1,2.13-1,9.68,9.68,0,0,1,2.72-.36,14.59,14.59,0,0,1,2.62.24,12.68,12.68,0,0,1,2.38.63v-1.58a5,5,0,0,0-1.31-3.64,4.66,4.66,0,0,0-3.53-1.35,7.13,7.13,0,0,0-2.5.5,12.93,12.93,0,0,0-2.68,1.42l-.59-1.05a10.55,10.55,0,0,1,5.89-2.11,6.14,6.14,0,0,1,4.59,1.69,6.32,6.32,0,0,1,1.68,4.66v7.88c0,.52.22.77.68.77v1.4l-.33.05H940a1.23,1.23,0,0,1-1-.42,1.73,1.73,0,0,1-.44-1v-1.34a7.14,7.14,0,0,1-2.85,2.23A9.06,9.06,0,0,1,931.92,522.37Zm.31-1.24a8,8,0,0,0,3.3-.68,5.76,5.76,0,0,0,2.31-1.8,2.11,2.11,0,0,0,.5-1.24v-2.85a12.17,12.17,0,0,0-2.33-.65,13.71,13.71,0,0,0-2.51-.22,8.79,8.79,0,0,0-2.2.26,6.08,6.08,0,0,0-1.71.73,3.48,3.48,0,0,0-1.1,1.13,2.89,2.89,0,0,0-.38,1.48,3.68,3.68,0,0,0,.31,1.51,3.46,3.46,0,0,0,.86,1.23,4.09,4.09,0,0,0,1.32.8A4.41,4.41,0,0,0,932.23,521.13Z"/><path d="M142.51,518.62a9.65,9.65,0,0,1-7.41,3.59,9.07,9.07,0,0,1-4.14-1,10.59,10.59,0,0,1-3.27-2.54,12.13,12.13,0,0,1-2.14-3.59,11.29,11.29,0,0,1-.77-4.1,11.68,11.68,0,0,1,.76-4.18,11.48,11.48,0,0,1,2.1-3.57,10.19,10.19,0,0,1,3.21-2.46,9.06,9.06,0,0,1,4.06-.92,11.22,11.22,0,0,1,3,.36,9.15,9.15,0,0,1,2.36,1,7.81,7.81,0,0,1,1.8,1.52,9.73,9.73,0,0,1,1.28,1.94l-1.3.77a7.07,7.07,0,0,0-3-3.14,8.79,8.79,0,0,0-4.17-1,7.39,7.39,0,0,0-3.53.84,8.63,8.63,0,0,0-2.7,2.2,9.83,9.83,0,0,0-1.7,3.1,10.81,10.81,0,0,0-.59,3.56,10.18,10.18,0,0,0,2.55,6.79,9.29,9.29,0,0,0,2.81,2.13,7.85,7.85,0,0,0,3.47.79,8.3,8.3,0,0,0,3.83-.93,11.52,11.52,0,0,0,3.49-3v-4.25h-5v-1.27h6.35v10.7h-1.36Z"/><path d="M155.68,507.33a6.35,6.35,0,0,0-6.07,4.65v10.08h-1.55V505.94h1.48v4a7.86,7.86,0,0,1,2.22-2.78,5.68,5.68,0,0,1,3-1.22l.56,0h.4Z"/><path d="M164.58,522.37a7.33,7.33,0,0,1-3.15-.67,7.75,7.75,0,0,1-2.49-1.81,8.38,8.38,0,0,1-1.65-2.67,8.76,8.76,0,0,1-.58-3.19,8.65,8.65,0,0,1,.6-3.22,8.48,8.48,0,0,1,1.66-2.67,7.6,7.6,0,0,1,2.49-1.81,7.26,7.26,0,0,1,3.12-.67,7.13,7.13,0,0,1,3.1.67,7.82,7.82,0,0,1,2.49,1.81,8.18,8.18,0,0,1,1.68,2.67,8.74,8.74,0,0,1-1.66,9.08,7.68,7.68,0,0,1-2.5,1.81A7.21,7.21,0,0,1,164.58,522.37Zm-6.32-8.28a7.21,7.21,0,0,0,.49,2.68A7,7,0,0,0,160.1,519a6.32,6.32,0,0,0,2,1.47,5.83,5.83,0,0,0,4.9,0,6.38,6.38,0,0,0,2-1.5,7.2,7.2,0,0,0,1.37-2.22,7.33,7.33,0,0,0,.49-2.71,7.21,7.21,0,0,0-.49-2.68,7,7,0,0,0-1.37-2.2,6.68,6.68,0,0,0-2-1.51,5.42,5.42,0,0,0-2.43-.56,5.54,5.54,0,0,0-2.45.56,6.44,6.44,0,0,0-2,1.52,7.47,7.47,0,0,0-1.36,2.25A7.29,7.29,0,0,0,158.26,514.09Z"/><path d="M196,505.94h1.55l-7,16.12h-1.3l-3.63-8.53L182,522.06h-1.3l-7-16.12h1.51l6.17,14.41,3.38-7.93L182.09,506h1.34l2.23,5.33,2.2-5.33h1.36l-2.72,6.45,3.38,7.93Z"/><path d="M207.76,521.28l-.42.24a4.08,4.08,0,0,1-.74.32,7.69,7.69,0,0,1-1,.28,5.7,5.7,0,0,1-1.21.12,4,4,0,0,1-1.22-.18,3,3,0,0,1-1-.56,2.62,2.62,0,0,1-.68-.9,2.8,2.8,0,0,1-.25-1.24V507.21H199v-1.27h2.26v-5.52h1.55v5.52h3.75v1.27h-3.75V519a1.57,1.57,0,0,0,.62,1.35,2.32,2.32,0,0,0,1.4.45,3.79,3.79,0,0,0,1.65-.33,8.63,8.63,0,0,0,.86-.42Z"/><path d="M223.67,522.06h-1.55v-9c0-4-1.34-6-4-6a5.19,5.19,0,0,0-1.94.37,6.67,6.67,0,0,0-1.77,1.05,7.59,7.59,0,0,0-1.44,1.6,7.12,7.12,0,0,0-.93,2v10h-1.55V499.43H212v10.35a7.78,7.78,0,0,1,2.74-3,6.86,6.86,0,0,1,3.77-1.12,4.93,4.93,0,0,1,2.29.5,4.27,4.27,0,0,1,1.6,1.42,6.57,6.57,0,0,1,.93,2.25,13.35,13.35,0,0,1,.3,3Z"/><path d="M236.78,522.06v-22h9.14a5.75,5.75,0,0,1,2.58.59,6.6,6.6,0,0,1,2,1.56,7.7,7.7,0,0,1,1.33,2.2,6.74,6.74,0,0,1,.48,2.47,7.39,7.39,0,0,1-.37,2.34,6.89,6.89,0,0,1-1.06,2,5.83,5.83,0,0,1-1.64,1.49,5.69,5.69,0,0,1-2.11.77l5.49,8.56h-1.83l-5.33-8.31h-7.13v8.31Zm1.58-9.77h7.72a4,4,0,0,0,1.92-.46,4.91,4.91,0,0,0,1.49-1.23,5.27,5.27,0,0,0,.94-1.73,6.21,6.21,0,0,0,.33-2,5.43,5.43,0,0,0-.39-2,5.75,5.75,0,0,0-1.05-1.72,5.3,5.3,0,0,0-1.55-1.2,4.16,4.16,0,0,0-1.91-.45h-7.5Z"/><path d="M261.21,522.37q-5.16,0-5.15-7.13v-9.3h1.55V515q0,6,4.06,6a5.58,5.58,0,0,0,2-.35,6.93,6.93,0,0,0,1.8-1,6.69,6.69,0,0,0,1.47-1.53,7.7,7.7,0,0,0,1-2V505.94h1.55v13.95c0,.52.22.77.65.77v1.4l-.28,0h-.18a1.68,1.68,0,0,1-1.1-.39,1.26,1.26,0,0,1-.48-1v-2.41a7.8,7.8,0,0,1-6.88,4.12Z"/><path d="M274.54,499.43h1.58v19.44a2,2,0,0,0,.51,1.42,1.88,1.88,0,0,0,1.41.53,5.48,5.48,0,0,0,.82-.08,4.53,4.53,0,0,0,.88-.23l.31,1.24a7.19,7.19,0,0,1-1.3.36,7.89,7.89,0,0,1-1.33.13,2.8,2.8,0,0,1-2.09-.79,2.84,2.84,0,0,1-.79-2.12Z"/><path d="M289.29,522.37a7.4,7.4,0,0,1-3.16-.67,7.78,7.78,0,0,1-2.53-1.83,8.48,8.48,0,0,1-1.67-2.68,8.78,8.78,0,0,1-.61-3.25,8.57,8.57,0,0,1,.61-3.21,8.38,8.38,0,0,1,1.66-2.64,7.67,7.67,0,0,1,2.49-1.78,7.55,7.55,0,0,1,3.12-.65,7.43,7.43,0,0,1,3.16.67,7.82,7.82,0,0,1,2.51,1.79,8.33,8.33,0,0,1,1.64,2.64,8.48,8.48,0,0,1,.59,3.18v.38a.88.88,0,0,1,0,.3H282.94a7,7,0,0,0,.65,2.59,7.37,7.37,0,0,0,1.41,2.06,6.26,6.26,0,0,0,2,1.36,5.8,5.8,0,0,0,2.38.5,6.14,6.14,0,0,0,1.65-.23,7.13,7.13,0,0,0,1.5-.64,5.36,5.36,0,0,0,1.24-1,4.47,4.47,0,0,0,.85-1.25l1.37.37a5.33,5.33,0,0,1-1,1.6,7,7,0,0,1-1.55,1.25,8.21,8.21,0,0,1-4.11,1.12Zm6.32-9a7.36,7.36,0,0,0-.63-2.61,7,7,0,0,0-1.4-2,6.3,6.3,0,0,0-2-1.33,6.19,6.19,0,0,0-4.78,0,6.46,6.46,0,0,0-2,1.33,6.39,6.39,0,0,0-1.36,2.05,8.12,8.12,0,0,0-.61,2.59Z"/><path d="M305.63,522.37a10.47,10.47,0,0,1-3.57-.62,8.26,8.26,0,0,1-3-1.86l.77-1.06a9,9,0,0,0,2.7,1.74,8.22,8.22,0,0,0,3.07.56,6,6,0,0,0,3.39-.88,2.84,2.84,0,0,0,1.29-2.47,2.26,2.26,0,0,0-.33-1.25,2.43,2.43,0,0,0-1-.87,8.15,8.15,0,0,0-1.62-.64c-.64-.18-1.38-.38-2.23-.59s-1.7-.41-2.37-.62a6.26,6.26,0,0,1-1.66-.74,2.8,2.8,0,0,1-1-1.06,3.34,3.34,0,0,1-.33-1.58,4.52,4.52,0,0,1,.47-2.1,4.09,4.09,0,0,1,1.28-1.49,6.1,6.1,0,0,1,1.89-.89,8.9,8.9,0,0,1,2.28-.29,8.38,8.38,0,0,1,3.35.63,5.89,5.89,0,0,1,2.26,1.63l-.87.84a4.76,4.76,0,0,0-2.09-1.39,7.77,7.77,0,0,0-2.74-.47,7.06,7.06,0,0,0-1.69.19,4.1,4.1,0,0,0-1.38.58,3,3,0,0,0-.93,1,3.15,3.15,0,0,0-.34,1.51,2.48,2.48,0,0,0,.23,1.14,2,2,0,0,0,.75.75,5.62,5.62,0,0,0,1.31.54c.54.15,1.18.33,1.92.51,1,.25,1.92.49,2.7.71a7.88,7.88,0,0,1,2,.84,3.7,3.7,0,0,1,1.21,1.18,3.24,3.24,0,0,1,.42,1.73,4.14,4.14,0,0,1-1.69,3.46A7.25,7.25,0,0,1,305.63,522.37Z"/><path d="M1335.64,514.74a5.33,5.33,0,0,1,3.38,1.89,5.83,5.83,0,0,1,1.27,3.82,6,6,0,0,1-.51,2.52,5.63,5.63,0,0,1-1.43,1.94,6.5,6.5,0,0,1-2.18,1.26,8.69,8.69,0,0,1-2.82.45,8.1,8.1,0,0,1-4.09-1,6,6,0,0,1-2.58-2.72l1.15-.93a4.87,4.87,0,0,0,2.05,2.35,6.58,6.58,0,0,0,3.5.87,5.59,5.59,0,0,0,3.87-1.27,4.51,4.51,0,0,0,1.43-3.54,4.62,4.62,0,0,0-1.47-3.59,6,6,0,0,0-4.17-1.33h-.75v-1.37h.81a5.81,5.81,0,0,0,3.84-1.13,3.76,3.76,0,0,0,1.34-3,4.23,4.23,0,0,0-.38-1.82,3.83,3.83,0,0,0-1-1.34,4.41,4.41,0,0,0-1.55-.86,6.43,6.43,0,0,0-1.95-.29,6.12,6.12,0,0,0-3.26.85,5.07,5.07,0,0,0-2,2.31l-1.06-.87a5.84,5.84,0,0,1,1-1.52,6.65,6.65,0,0,1,1.49-1.17,6.93,6.93,0,0,1,1.86-.76,8.16,8.16,0,0,1,2.12-.27,7.72,7.72,0,0,1,2.56.41,6.06,6.06,0,0,1,2,1.14,5.5,5.5,0,0,1,1.33,1.77,5.56,5.56,0,0,1,.18,4.06,4.59,4.59,0,0,1-.85,1.49,5,5,0,0,1-1.35,1.1A4.63,4.63,0,0,1,1335.64,514.74Z"/><path d="M1344.69,522.06v-22H1352a11.19,11.19,0,0,1,4.57.87,9.27,9.27,0,0,1,3.27,2.35,10,10,0,0,1,2,3.49,13.77,13.77,0,0,1,.65,4.26,13.47,13.47,0,0,1-.73,4.54,10,10,0,0,1-2.09,3.48,9.35,9.35,0,0,1-3.31,2.23,11.46,11.46,0,0,1-4.32.79Zm16.19-11a12.06,12.06,0,0,0-.59-3.83,8.88,8.88,0,0,0-1.72-3,7.76,7.76,0,0,0-2.78-2,9.3,9.3,0,0,0-3.78-.72h-5.74v19.16H1352a9.38,9.38,0,0,0,3.83-.73,7.55,7.55,0,0,0,2.77-2,8.64,8.64,0,0,0,1.69-3A12.2,12.2,0,0,0,1360.88,511Z"/><path d="M1380.71,500.05h1.37l9.3,22h-1.67l-3.07-7.26h-10.51l-3.07,7.26h-1.71Zm5.49,13.45L1381.4,502l-4.9,11.53Z"/><path d="M1398.88,522.37q-5.14,0-5.14-7.13v-9.3h1.55V515q0,6,4.06,6a5.58,5.58,0,0,0,2-.35,6.93,6.93,0,0,0,1.8-1,6.69,6.69,0,0,0,1.47-1.53,8,8,0,0,0,1-2V505.94h1.55v13.95c0,.52.22.77.65.77v1.4l-.28,0h-.19a1.7,1.7,0,0,1-1.1-.39,1.26,1.26,0,0,1-.48-1v-2.41a7.77,7.77,0,0,1-6.88,4.12Z"/><path d="M1419.28,521.28l-.42.24a4.41,4.41,0,0,1-.74.32,7.69,7.69,0,0,1-1,.28,5.77,5.77,0,0,1-1.21.12,4,4,0,0,1-1.22-.18,2.93,2.93,0,0,1-1-.56,2.62,2.62,0,0,1-.68-.9,2.8,2.8,0,0,1-.25-1.24V507.21h-2.27v-1.27h2.27v-5.52h1.55v5.52H1418v1.27h-3.75V519a1.54,1.54,0,0,0,.62,1.35,2.31,2.31,0,0,0,1.39.45,3.84,3.84,0,0,0,1.66-.33,7.06,7.06,0,0,0,.85-.42Z"/><path d="M1428.36,522.37a7.36,7.36,0,0,1-3.15-.67,7.75,7.75,0,0,1-2.49-1.81,8.36,8.36,0,0,1-1.64-2.67,8.56,8.56,0,0,1-.59-3.19,8.68,8.68,0,0,1,2.26-5.89,7.64,7.64,0,0,1,2.5-1.81,7.24,7.24,0,0,1,3.11-.67,7.13,7.13,0,0,1,3.1.67,8,8,0,0,1,2.5,1.81,8.32,8.32,0,0,1,1.67,2.67,8.74,8.74,0,0,1-1.66,9.08,7.75,7.75,0,0,1-2.49,1.81A7.26,7.26,0,0,1,1428.36,522.37Zm-6.32-8.28a7.21,7.21,0,0,0,.49,2.68,7,7,0,0,0,1.35,2.19,6.44,6.44,0,0,0,2,1.47,5.83,5.83,0,0,0,4.9,0,6.27,6.27,0,0,0,2-1.5,7.2,7.2,0,0,0,1.37-2.22,7.33,7.33,0,0,0,.5-2.71,7.22,7.22,0,0,0-.5-2.68,7,7,0,0,0-1.37-2.2,6.56,6.56,0,0,0-2-1.51,5.42,5.42,0,0,0-2.43-.56,5.57,5.57,0,0,0-2.45.56,6.44,6.44,0,0,0-2,1.52,7.47,7.47,0,0,0-1.36,2.25A7.29,7.29,0,0,0,1422,514.09Z"/><path d="M1463.64,522.06h-1.55v-9a8.49,8.49,0,0,0-.95-4.53,3.2,3.2,0,0,0-2.89-1.45,4.87,4.87,0,0,0-1.9.37,5.69,5.69,0,0,0-1.64,1,6.66,6.66,0,0,0-1.28,1.58,8.06,8.06,0,0,0-.86,2v9.95H1451v-9a8.58,8.58,0,0,0-.93-4.54,3.19,3.19,0,0,0-2.88-1.44,5.15,5.15,0,0,0-1.88.35,5.66,5.66,0,0,0-1.62,1,7.35,7.35,0,0,0-1.32,1.59,7.43,7.43,0,0,0-.88,2v10H1440V505.94h1.45v3.84a7.88,7.88,0,0,1,2.61-3,6.25,6.25,0,0,1,3.56-1.08,4.6,4.6,0,0,1,3.32,1.21,5.09,5.09,0,0,1,1.52,3.16c1.53-2.91,3.63-4.37,6.32-4.37a4.06,4.06,0,0,1,3.77,1.88,10.24,10.24,0,0,1,1.13,5.25Z"/><path d="M1472.29,522.37a5.46,5.46,0,0,1-2.08-.39,5.73,5.73,0,0,1-1.69-1.05,4.73,4.73,0,0,1-1.53-3.55,3.78,3.78,0,0,1,.49-1.92,4.81,4.81,0,0,1,1.38-1.51,7,7,0,0,1,2.13-1,9.68,9.68,0,0,1,2.72-.36,14.51,14.51,0,0,1,2.62.24,12.68,12.68,0,0,1,2.38.63v-1.58a5,5,0,0,0-1.31-3.64,4.66,4.66,0,0,0-3.53-1.35,7,7,0,0,0-2.49.5,12.75,12.75,0,0,0-2.69,1.42l-.59-1.05a10.55,10.55,0,0,1,5.89-2.11,6.14,6.14,0,0,1,4.59,1.69,6.32,6.32,0,0,1,1.68,4.66v7.88c0,.52.22.77.68.77v1.4l-.33.05h-.29a1.23,1.23,0,0,1-1-.42,1.73,1.73,0,0,1-.44-1v-1.34a7.14,7.14,0,0,1-2.85,2.23A9.06,9.06,0,0,1,1472.29,522.37Zm.31-1.24a8,8,0,0,0,3.3-.68,5.76,5.76,0,0,0,2.31-1.8,2.11,2.11,0,0,0,.5-1.24v-2.85a12.17,12.17,0,0,0-2.33-.65,13.71,13.71,0,0,0-2.51-.22,8.79,8.79,0,0,0-2.2.26,6.08,6.08,0,0,0-1.71.73,3.48,3.48,0,0,0-1.1,1.13,2.89,2.89,0,0,0-.38,1.48,3.68,3.68,0,0,0,.31,1.51,3.46,3.46,0,0,0,.86,1.23,4.09,4.09,0,0,0,1.32.8A4.41,4.41,0,0,0,1472.6,521.13Z"/><path d="M1492,521.28c-.09.05-.23.12-.42.24a4.55,4.55,0,0,1-.75.32,7.52,7.52,0,0,1-1,.28,5.84,5.84,0,0,1-1.21.12,4.06,4.06,0,0,1-1.23-.18,3,3,0,0,1-1-.56,2.75,2.75,0,0,1-.68-.9,3,3,0,0,1-.25-1.24V507.21h-2.26v-1.27h2.26v-5.52H1487v5.52h3.75v1.27H1487V519a1.57,1.57,0,0,0,.62,1.35,2.34,2.34,0,0,0,1.4.45,3.87,3.87,0,0,0,1.66-.33,8,8,0,0,0,.85-.42Z"/><path d="M1501.12,522.37a7.33,7.33,0,0,1-3.15-.67,7.75,7.75,0,0,1-2.49-1.81,8.38,8.38,0,0,1-1.65-2.67,8.77,8.77,0,0,1-.59-3.19,8.66,8.66,0,0,1,.61-3.22,8.3,8.3,0,0,1,1.66-2.67,7.6,7.6,0,0,1,2.49-1.81,7.26,7.26,0,0,1,3.12-.67,7.17,7.17,0,0,1,3.1.67,7.82,7.82,0,0,1,2.49,1.81,8.35,8.35,0,0,1,1.68,2.67,8.86,8.86,0,0,1,0,6.41,8.78,8.78,0,0,1-1.66,2.67,7.68,7.68,0,0,1-2.5,1.81A7.24,7.24,0,0,1,1501.12,522.37Zm-6.33-8.28a7.22,7.22,0,0,0,.5,2.68,7,7,0,0,0,1.35,2.19,6.32,6.32,0,0,0,2,1.47,5.83,5.83,0,0,0,4.9,0,6.38,6.38,0,0,0,2-1.5,7.21,7.21,0,0,0,1.86-4.93,7.11,7.11,0,0,0-1.86-4.88,6.68,6.68,0,0,0-2-1.51,5.42,5.42,0,0,0-2.43-.56,5.54,5.54,0,0,0-2.45.56,6.32,6.32,0,0,0-2,1.52,7.47,7.47,0,0,0-1.36,2.25A7.1,7.1,0,0,0,1494.79,514.09Z"/><path d="M1525.89,522.06h-1.55v-9a8.94,8.94,0,0,0-.89-4.56,3,3,0,0,0-2.8-1.42,5.77,5.77,0,0,0-2,.37,7.11,7.11,0,0,0-1.88,1.05,8,8,0,0,0-1.52,1.6,6.67,6.67,0,0,0-1,2v10h-1.55V505.94h1.46v3.84a7.82,7.82,0,0,1,1.22-1.69,8,8,0,0,1,1.65-1.3A8.49,8.49,0,0,1,1519,506a7.9,7.9,0,0,1,2.11-.29,4,4,0,0,1,3.72,1.84,10.49,10.49,0,0,1,1.09,5.29Z"/><path class="cls-2" d="M903.34,231.33V372h-5.66l-11.32-11.79V259.46Z"/><path class="cls-3" d="M944.76,165.66S933,313.05,903.49,372H897.6s-.71-58.95-8.85-103.17l-2.94-9.37,17.68-28.13ZM761.25,258.81h11.92v5.95l6,95.32S767.21,372,731.47,372H719.55Z"/><path class="cls-2" d="M898.62,372s36.85-103.91,47.17-206.34V372ZM719.4,165.42V371.76l53.77-106.11V165.42Z"/><path class="cls-4" d="M856.45,329.55l87.92-164.13H877L809.55,329.55h46.9Z"/><path class="cls-5" d="M720.73,164.48l67.8-5.9,67.8,171H809.17L773.79,264.7Z"/><path d="M1315.88,316.73q0-13.89,0-27.79c0-1.36-.09-2.73-.17-4.1-.18-3,.55-3.91,3.3-5.13,2.53-1.13,5-2.25,7.64-3.26,1.89-.73,3.77-1.55,5.62-2.38,2.34-1.05,4.71-2,7-3.15a26.88,26.88,0,0,1,5.62-2.36,9.12,9.12,0,0,0,1.44-.63c1.53-.69,3.07-1.34,4.57-2.08,2.63-1.28,5.33-2.41,8-3.61a24.42,24.42,0,0,1,4.9-2,8.4,8.4,0,0,0,1.6-.65c1.63-.72,3.22-1.51,4.87-2.17a5,5,0,0,0,3.47-4.94c0-2.63,0-5.26,0-7.89q0-24.72,0-49.43a13.94,13.94,0,0,1,.26-2.49,4,4,0,0,1,3.25-3.44,4.5,4.5,0,0,0,1.84-.85,9.63,9.63,0,0,1,3.83-1.76,19.41,19.41,0,0,0,2.84-1.27c.23-.11.43-.31.67-.41,3.19-1.32,6.47-2.44,9.55-4s6.67-2.43,9.66-4.41a9.33,9.33,0,0,1,2-.87c.64-.23,1.35-.29,2-.57,2.85-1.33,5.66-2.72,8.5-4.06.9-.43,1.83-.79,2.75-1.15.29-.12.63-.12.91-.25,3.08-1.43,6.19-2.78,9.2-4.35,2.51-1.31,5-1.46,7.32.05a13.25,13.25,0,0,0,4.47,1.89,4.15,4.15,0,0,1,1.61.59,16.77,16.77,0,0,0,5.41,2.5,8.69,8.69,0,0,1,1.56.77c.32.17.6.44.93.58,3.29,1.36,6.58,2.7,9.87,4.05a8,8,0,0,1,2,.88,10,10,0,0,0,4.12,1.88,17.32,17.32,0,0,1,2.44,1.06l3.71,1.65c1.24.55,2.48,1.11,3.72,1.65,1.06.45,2.13.88,3.19,1.32a10.3,10.3,0,0,1,2.3,1,10.49,10.49,0,0,0,3.85,1.7,15.74,15.74,0,0,1,2.94,1.39,8.29,8.29,0,0,0,1.51.83c2.84.71,3.59,2.86,3.71,5.37.09,2,0,4.11,0,6.16,0,17.11,0,34.21-.07,51.32a5.49,5.49,0,0,0,4.5,5.76,21,21,0,0,1,3.71,1.59l9.5,4c1,.41,1.92.82,2.87,1.25s2.16,1,3.25,1.53c1.24.55,2.49,1.08,3.74,1.62l9.77,4.21c.82.36,1.63.72,2.43,1.09,1.09.5,2.16,1,3.26,1.52s2.39,1,3.58,1.56c.34.14.62.45,1,.54,2.63.65,4.89,2.12,7.34,3.19s3,1.67,3,4.49q0,28.41-.07,56.84c0,2.1,0,4.21,0,6.31A3.45,3.45,0,0,1,1551,351c-2.53,1-5,2.11-7.53,3.19a10,10,0,0,0-1.23.7c-.36.23-.68.6-1.06.68-3.22.68-5.91,2.64-9,3.71a7,7,0,0,0-2,.84c-1.46,1.14-3.26,1.42-4.84,2.17-3.12,1.47-6.46,2.45-9.4,4.3a10,10,0,0,1-2.76,1.09,10.22,10.22,0,0,0-3.72,1.62,15.13,15.13,0,0,1-2.72,1.19c-1.14.51-2.26,1.08-3.4,1.59s-2,.84-3,1.26a26.72,26.72,0,0,0-3.86,1.7,6.47,6.47,0,0,1-7.41,0,33.71,33.71,0,0,0-3.69-1.75l-3.13-1.46a2.44,2.44,0,0,0-.41-.24c-3.22-1-6.14-2.61-9.23-3.87-1.11-.45-2.16-1-3.25-1.53s-2-.83-3-1.27c-3.49-1.53-7.08-2.83-10.44-4.67-.91-.49-2-.72-2.92-1.12s-2.08-.95-3.11-1.45c-.33-.16-.6-.45-.93-.58-3-1.21-5.93-2.39-8.88-3.6a21.64,21.64,0,0,1-2.84-1.33,4.52,4.52,0,0,0-4.92,0,35.54,35.54,0,0,1-3.44,1.53,11.29,11.29,0,0,0-2.16.94,12.58,12.58,0,0,1-4.91,2,4,4,0,0,0-1.71.75,10.56,10.56,0,0,1-4.26,2,4.8,4.8,0,0,0-1.84.86c-1.26,1.06-2.81,1.34-4.27,1.92-3.3,1.31-6.5,2.87-9.74,4.31-1,.43-1.94.79-2.89,1.21-1.15.5-2.29,1-3.42,1.53-.28.13-.51.39-.79.51l-8.82,3.69a23.36,23.36,0,0,0-3.57,1.59,6.48,6.48,0,0,1-7.67-.08,22.81,22.81,0,0,0-3.12-1.47c-1.19-.55-2.37-1.12-3.57-1.64-1-.46-2.14-.84-3.19-1.29s-2.36-1.09-3.55-1.62c-.91-.4-1.84-.74-2.75-1.14s-2.08-1-3.13-1.42-2.31-1-3.46-1.47-2.37-1.09-3.56-1.61c-1-.43-2.05-.81-3.05-1.25s-2.15-1.06-3.25-1.55c-.9-.41-1.83-.75-2.74-1.15-1.24-.54-2.47-1.09-3.7-1.65-.19-.09-.34-.27-.53-.35l-8.52-3.61c-1.25-.53-2.51-1.05-3.76-1.59-.82-.35-1.61-.79-2.45-1.09a3.52,3.52,0,0,1-2.57-3.7c.05-4.89,0-9.79.05-14.68V316.73Zm116-.6v-27a6.89,6.89,0,0,0-.13-1.57,1.74,1.74,0,0,0-1.56-1.36c-.78-.11-1.52-.05-1.88.78-.69,1.57-1.94,2-3.56,2.11a4,4,0,0,0-2.43.89,7.59,7.59,0,0,1-4.08,1.87,4.44,4.44,0,0,0-2.15.85,8.56,8.56,0,0,1-4.07,1.94,7.22,7.22,0,0,0-2.74,1.1,9.6,9.6,0,0,1-4.12,1.84,6.23,6.23,0,0,0-2.39,1.06,8.76,8.76,0,0,1-3.82,1.74,16,16,0,0,0-2.83,1.23c-.93.44-1.84.94-2.78,1.34a13.94,13.94,0,0,0-3,1.2A11.63,11.63,0,0,1,1386,306a8,8,0,0,0-2.71,1.15,7,7,0,0,1-3.08,1.48c-1.29.21-1.74.82-1.85,2.17,0,.42,0,.84,0,1.26,0,8.37,0,16.74,0,25.1a4.81,4.81,0,0,1-.41,2.14,1.42,1.42,0,0,1-2.73-.07,6.19,6.19,0,0,1-.32-2.32c0-7.73,0-15.47,0-23.2,0-1,.08-2,0-3-.11-1.32-.64-1.8-1.92-2.14a5.77,5.77,0,0,1-2.17-.85,11,11,0,0,0-4.26-1.95,5.46,5.46,0,0,1-2.41-1.06c-1.21-1.24-2.69-1.5-4.24-1.84a6.27,6.27,0,0,1-2.66-1.21,7.13,7.13,0,0,0-2.94-1.39,8.78,8.78,0,0,1-3.16-1.26,9.4,9.4,0,0,0-3.38-1.57,27.27,27.27,0,0,1-3.46-1.45,26.85,26.85,0,0,0-3.12-1.37,10.14,10.14,0,0,1-3.69-1.69,6.25,6.25,0,0,0-2.54-1.11,8.56,8.56,0,0,1-3.83-1.7,5.45,5.45,0,0,0-2.7-1.06c-1.51-.17-2.77-.47-3.45-2a1.64,1.64,0,0,0-2-.84,1.68,1.68,0,0,0-1.49,1.42,9.09,9.09,0,0,0-.15,1.72q0,25.19,0,50.37v3.79a4.28,4.28,0,0,0,3.17,4.23c.39.14.82.19,1.21.35,3.17,1.34,6.34,2.7,9.51,4.05.1,0,.17.13.27.17,1.14.51,2.28,1,3.44,1.52l8.8,3.7c.19.08.34.26.52.35,1.13.52,2.26,1.07,3.41,1.54a12.66,12.66,0,0,1,2.63,1,22.09,22.09,0,0,0,4.69,2.16c2.69,1.15,5.28,2.5,8.08,3.43a43,43,0,0,1,5.35,2.67c1.17.59,1.86.26,2.23-1,.21-.71.29-1.45.51-2.15a1.54,1.54,0,0,1,1.58-1.29c.83,0,1.16.64,1.36,1.32s.37,1.64.61,2.45a1.16,1.16,0,0,0,1.7.87c1.75-.72,3.48-1.49,5.19-2.27,3-1.35,5.89-2.73,8.84-4.09.14-.06.31-.07.45-.13q4.58-1.87,9.13-3.78c.19-.07.33-.26.52-.35,1.13-.53,2.25-1.07,3.4-1.57,1-.43,2.06-.76,3.06-1.21,3.19-1.45,6.36-2.93,9.56-4.38.37-.17.83-.17,1.21-.34.81-.35,1.6-.78,2.4-1.16a14.69,14.69,0,0,1,3.13-1.39c3.09-.59,4.66-2.27,4.61-5.86C1431.79,333.6,1431.87,324.86,1431.87,316.13Zm62.46,22.53h0q0,13.17,0,26.36a11.66,11.66,0,0,0,.21,2.51c.33,1.48,1.06,1.77,2.42,1.12.71-.35,1.43-.67,2.15-1l7.78-3.32c.24-.11.43-.32.67-.42,1.28-.58,2.58-1.14,3.87-1.69,1-.43,2-.82,3-1.26s2.17-1,3.26-1.52,1.93-.81,2.88-1.23c1.19-.53,2.36-1.1,3.55-1.61,1-.42,2-.76,2.9-1.18,3.34-1.49,6.67-3,10-4.5a17.18,17.18,0,0,0,2.88-1.22,10.82,10.82,0,0,1,3.86-1.68c3-.73,4.1-2.16,4.14-5.28,0-2.05,0-4.1,0-6.14V294.3c0-2,0-4.09,0-6.14a1.81,1.81,0,0,0-1.54-1.92,2,2,0,0,0-2.24,1,4.06,4.06,0,0,1-1.73,1.45,34.25,34.25,0,0,1-4.3,1.4,1.73,1.73,0,0,1-1.42-.24,1.68,1.68,0,0,1,0-1.42,4.31,4.31,0,0,1,3.55-2.78,11.15,11.15,0,0,0,2.16-.42,1.19,1.19,0,0,0,.63-2,2.45,2.45,0,0,0-.81-.73c-1.65-.81-3.31-1.61-5-2.35-3-1.3-6-2.55-9-3.83-.29-.12-.52-.36-.81-.5-1.09-.5-2.18-1-3.28-1.47a15.84,15.84,0,0,1-2.61-1.06c-2.95-1.95-6.52-2.54-9.49-4.42a5.25,5.25,0,0,0-.6-.16l-3.74-1.64c-1-.41-1.93-.8-2.89-1.2a17.47,17.47,0,0,1-3.14-1.41,10,10,0,0,0-3.43-1.48,8.77,8.77,0,0,1-2.75-1.08c-2.23-1.44-3.4-1.38-5.67-.1-2.49,1.41-5.39,2-7.77,3.68-3.46.6-6.09,3.32-9.63,3.74-.47.06-.9.52-1.35.79a5.75,5.75,0,0,1-1.33.83,39.39,39.39,0,0,0-6.91,3c-1.75.88-3.61,1.66-5.43,2.38-2.83,1.12-5.62,2.3-8.37,3.61-1.84.87-3.76,1.62-5.62,2.46a3.45,3.45,0,0,0-1.14.83,1.23,1.23,0,0,0,.6,2.18c.75.22,1.58.21,2.32.46a6.69,6.69,0,0,1,2.2,1.1,6,6,0,0,0,2.61,1.33,10.88,10.88,0,0,1,3.65,1.35,11.46,11.46,0,0,0,3.7,1.65,8.79,8.79,0,0,1,2.86,1.21,9.87,9.87,0,0,0,3.85,1.7,7.15,7.15,0,0,1,2.8,1.27,7.27,7.27,0,0,0,2.93,1.39,21.4,21.4,0,0,1,3.32,1.31c1,.44,1.93,1,2.93,1.41,1.15.49,2.52.66,3.47,1.39a9.88,9.88,0,0,0,4.15,1.75,4.55,4.55,0,0,1,2.19.78c1.68,1.69,4,1.79,6,2.69a2.27,2.27,0,0,0,1.66,0c2.18-.93,4.74-1,6.54-2.87.44-.47,1.36-.51,2.07-.69a10.79,10.79,0,0,0,3.83-1.74,8.85,8.85,0,0,1,3.49-1.25,1.52,1.52,0,0,1,1.91,1.23,1.68,1.68,0,0,1-1.2,2c-.58.23-1.21.34-1.8.56a7.38,7.38,0,0,0-2.13,1,7.23,7.23,0,0,1-3.55,1.6,7.82,7.82,0,0,0-4.11,1.84,4.32,4.32,0,0,1-1.82.86c-2.12.53-2.47.93-2.47,3.13Zm-3.39.17h0V316.41c0-1.68,0-3.37,0-5.05,0-1.87-.46-2.34-2.29-2.81a4.63,4.63,0,0,1-2-.9,8.15,8.15,0,0,0-3.66-1.73,7.15,7.15,0,0,1-2.72-1.15,8.44,8.44,0,0,0-4.26-1.86,7,7,0,0,1-2.82-1.23,7.46,7.46,0,0,0-3.09-1.42,18,18,0,0,1-3.28-1.38c-.89-.41-1.73-.92-2.63-1.3-1.11-.45-2.44-.57-3.35-1.27a11.26,11.26,0,0,0-4.12-1.85,7.46,7.46,0,0,1-2.71-1.15,8.51,8.51,0,0,0-3.52-1.62,8.22,8.22,0,0,1-3-1.33,5.07,5.07,0,0,0-3.27-1.33,3.33,3.33,0,0,1-3.25-1.82,1.72,1.72,0,0,0-2.1-1,1.89,1.89,0,0,0-1.51,1.95c0,.31,0,.63,0,.95q0,23.76,0,47.52c0,2.32,0,4.63,0,6.95a3.93,3.93,0,0,0,1.8,3.49,11.56,11.56,0,0,0,2.15.94l9.67,4c1.55.65,3.08,1.31,4.62,2,.86.37,1.73.74,2.58,1.13,1,.48,2.06,1.06,3.13,1.45,2.94,1.09,5.53,3,8.65,3.64.39.08.69.47,1.07.66.94.46,1.88.91,2.84,1.32,3.28,1.38,6.58,2.71,9.84,4.13,1.63.72,3.19,1.61,4.81,2.36,1.13.53,1.81.2,2.1-1a12.42,12.42,0,0,0,.23-2.66Q1491,351.95,1490.94,338.83Zm-57.83-90.65h0q0-13.26,0-26.52c0-2.28-.57-3-2.82-3.73a6.13,6.13,0,0,1-2.2-1.13,6.26,6.26,0,0,0-2.92-1.43,7,7,0,0,1-2.85-1.18,8.14,8.14,0,0,0-3.36-1.59,9.66,9.66,0,0,1-3.16-1.29,11.42,11.42,0,0,0-3.4-1.57,12.32,12.32,0,0,1-3.28-1.43,10.13,10.13,0,0,0-3.27-1.46,9.54,9.54,0,0,1-3.28-1.38,8.88,8.88,0,0,0-3.1-1.41,7.41,7.41,0,0,1-2.85-1.21,9.09,9.09,0,0,0-3.68-1.66,7.26,7.26,0,0,1-2.85-1.21,6.67,6.67,0,0,0-3.1-1.4,6.37,6.37,0,0,1-4-1.74,2.38,2.38,0,0,0-2.74-.53c-.88.51-.87,1.37-.84,2.23.06,2.46.18,4.93.18,7.4q0,18.23,0,36.47c0,3.1-.11,6.2-.18,9.3,0,2.37,1,5.23,4.4,5.88a15.18,15.18,0,0,1,4.17,1.77c2.5,1.29,5.15,2.25,7.7,3.48,1.81.87,3.72,1.57,5.57,2.39,2.68,1.17,5.35,2.39,8.07,3.48,1.65.66,3.41,1,4.82,2.21a3.07,3.07,0,0,0,1.28.59,11.55,11.55,0,0,1,4.84,2.18,7.4,7.4,0,0,0,1.89.76c1.54.65,3.1,1.24,4.6,2a8.33,8.33,0,0,0,4.33,1.24,1.89,1.89,0,0,0,2-1.86,10.61,10.61,0,0,0,0-1.26Zm3.1-.06h0v20.69c0,2.21,0,4.42,0,6.63,0,1.62.78,2.37,2.39,2.2a10,10,0,0,0,3.62-1,27.08,27.08,0,0,1,6.24-2.6,8.29,8.29,0,0,0,1.39-.71c3.08-1.44,6.13-2.93,9.24-4.28s6.22-2.5,9.32-3.75c.29-.12.52-.36.8-.5l3.69-1.69,2.56-1.16c1-.48,2.06-1,3.12-1.43s2-.62,3-1c1.49-.63,2.89-1.52,4.42-2a5.52,5.52,0,0,0,3.83-5.84c0-1.1-.14-2.21-.14-3.31q.06-25,.11-50a2.8,2.8,0,0,0-.88-1.88,1.61,1.61,0,0,0-2.16.34,7.89,7.89,0,0,1-4,1.8,5.25,5.25,0,0,0-2.18.83,9.67,9.67,0,0,1-4.42,1.94,6.14,6.14,0,0,0-2.41,1,8.27,8.27,0,0,1-3.66,1.73,5.5,5.5,0,0,0-2.44,1,8.57,8.57,0,0,1-3.94,1.84A15.78,15.78,0,0,0,1461,208c-1.18.54-2.33,1.15-3.51,1.68a17.25,17.25,0,0,0-2.87,1.24,10.33,10.33,0,0,1-4,1.72,5.37,5.37,0,0,0-2.45,1,7.73,7.73,0,0,1-4.25,1.84,8.22,8.22,0,0,0-2.23,1,22.6,22.6,0,0,1-2.72,1.49c-2.09.72-2.72,1.46-2.72,3.65Zm-59.33,12.62a5.66,5.66,0,0,0-1.65.38,21.35,21.35,0,0,1-5.92,2.52,7.05,7.05,0,0,0-.94.56q-1.69.81-3.39,1.59t-3.42,1.53c-1.15.5-2.3,1-3.46,1.47-1,.4-1.93.78-2.88,1.19-1.2.52-2.38,1.06-3.57,1.59-3,1.36-6.09,2.7-9.13,4.07-.52.24-.94.76-1.47.89a26.64,26.64,0,0,0-7.38,3.1,8.55,8.55,0,0,1-1,.38c-1.82.81-3.66,1.58-5.44,2.47-.74.37-1.57.9-1.32,1.92s1.16.94,1.92,1.1a7,7,0,0,0,.78.11,5.6,5.6,0,0,1,3.36,1.57,6,6,0,0,0,2.09,1c1.12.42,2.46.53,3.36,1.22a11.8,11.8,0,0,0,4.42,1.94,6.1,6.1,0,0,1,2.43,1,8.33,8.33,0,0,0,3.82,1.74,5.29,5.29,0,0,1,2.42,1,7.88,7.88,0,0,0,3.93,1.83,5.44,5.44,0,0,1,2.41,1,7.94,7.94,0,0,0,3.36,1.61,23.93,23.93,0,0,1,3.47,1.39,23.44,23.44,0,0,0,3.23,1.49c1.59.43,3.17.76,4.38,2a2.66,2.66,0,0,0,1,.49c1.18.43,2.36.86,3.57,1.23a2.67,2.67,0,0,0,1.37.07c1.42-.38,2.83-.81,4.22-1.27a3,3,0,0,0,1.22-.68,6.66,6.66,0,0,1,3.46-1.75,8.86,8.86,0,0,0,2.89-1.16,11.36,11.36,0,0,1,4.45-1.91,4.59,4.59,0,0,0,2.13-.89,7.64,7.64,0,0,1,4.08-1.88,4.75,4.75,0,0,0,2.26-1,7.14,7.14,0,0,1,3.63-1.73,6.38,6.38,0,0,0,2.6-1,10.48,10.48,0,0,1,4.11-1.89,6.09,6.09,0,0,0,2.47-.94,10.41,10.41,0,0,1,4.56-2,12,12,0,0,0,2.48-1.2,19.88,19.88,0,0,1,2.2-1.13c.63-.23,1.38-.15,2-.39a2.51,2.51,0,0,0,1.39-1c.31-.7-.23-1.32-.87-1.66-1.48-.79-3-1.56-4.49-2.29s-3.21-1.53-4.86-2.2c-2.62-1.06-5.21-2.16-7.76-3.4-1.67-.82-3.56-1.19-5.1-2.37a8.82,8.82,0,0,0-2-.79l-9.4-3.92c-.19-.08-.33-.26-.52-.35-1.14-.51-2.3-1-3.44-1.5s-2.27-1-3.4-1.56a16.21,16.21,0,0,0-2.73-1.16,10.67,10.67,0,0,1-3.75-1.56A10.24,10.24,0,0,0,1376.88,260.74Zm57.94-45.11c1.79-.52,3.7-1.07,5.61-1.64a1.05,1.05,0,0,0,.52-.34,7.25,7.25,0,0,1,4.07-1.91,5.27,5.27,0,0,0,2.26-1,7,7,0,0,1,3.65-1.69,5.49,5.49,0,0,0,2.57-1,8.39,8.39,0,0,1,3.8-1.76,7.06,7.06,0,0,0,2.88-1.14,8.43,8.43,0,0,1,3.94-1.82,5.57,5.57,0,0,0,2.43-1,8.3,8.3,0,0,1,4-1.81,5.47,5.47,0,0,0,2.56-1,7,7,0,0,1,3.8-1.72,4.65,4.65,0,0,0,2.31-.86,7.27,7.27,0,0,1,4.39-1.91c.77-.1,1.48-.34,1.63-1.23a1.74,1.74,0,0,0-1.16-1.88c-1.8-.85-3.63-1.65-5.46-2.46-2.81-1.24-5.46-2.84-8.42-3.77-.09,0-.17-.13-.26-.17-1.09-.51-2.17-1-3.27-1.51s-2.4-1-3.6-1.55-2.22-.91-3.33-1.39a95.48,95.48,0,0,1-9-4c-3-1.66-6.3-2.53-9.32-4.14-1.53-.82-3.34-1.16-4.87-2.15a3.47,3.47,0,0,0-3.61-.07c-2.76,1.38-5.52,2.75-8.31,4.08-.56.27-1.22.32-1.8.57-3.06,1.32-6.11,2.67-9.17,4l-.13.09c-1,.47-2.07,1-3.13,1.42-3.32,1.41-6.65,2.8-10,4.2-.09,0-.17.12-.27.16l-3.3,1.45c-.86.37-1.72.73-2.57,1.13-1.13.53-2.23,1.11-3.37,1.62-1.91.86-3.84,1.68-5.75,2.53a1.83,1.83,0,0,0-.59.52,1.38,1.38,0,0,0,.74,2.41c.71.18,1.48.16,2.17.37a6.25,6.25,0,0,1,2.25,1,6.72,6.72,0,0,0,3.36,1.58,6.15,6.15,0,0,1,2.85,1.13,7.69,7.69,0,0,0,3.5,1.64,7.37,7.37,0,0,1,3,1.22,8.52,8.52,0,0,0,3.53,1.61,9.35,9.35,0,0,1,3,1.25,10.38,10.38,0,0,0,3.7,1.66,7.13,7.13,0,0,1,2.85,1.2,8,8,0,0,0,3.52,1.61,6.62,6.62,0,0,1,2.83,1.22,7.46,7.46,0,0,0,3.21,1.53,8.45,8.45,0,0,1,3,1.24C1430,214.69,1432.35,215,1434.82,215.63Z"/><path d="M1375,352.29a26.68,26.68,0,0,1,0-2.83,3.76,3.76,0,0,1,.62-1.73,1.25,1.25,0,0,1,2.2.14,5.08,5.08,0,0,1,.56,2.09c.09,1.57.05,3.15,0,4.72a3,3,0,0,1-.32,1.51,2.68,2.68,0,0,1-1.45,1.19c-.81.14-1.35-.57-1.48-1.34a23.44,23.44,0,0,1-.19-2.65c0-.37,0-.74,0-1.1Z"/><path d="M1521.27,297.81c-1.31-.26-2.1-.8-2.23-1.7s.37-1.49,1.53-1.87a5.73,5.73,0,0,1,1.07-.25,4.63,4.63,0,0,0,3-1.53,2.68,2.68,0,0,1,2.87-.8,1.9,1.9,0,0,1,1.18,1,2.14,2.14,0,0,1-.6,1.47,4.58,4.58,0,0,1-1.21.7c-.85.51-1.66,1.07-2.54,1.53S1522.29,297.34,1521.27,297.81Z"/><path d="M169.11,377.27c-27.47,0-36.32-14.2-36.32-39.58V301.37c0-12.81-12.81-16.77-23.52-17.7V266.91c9.55-1.16,23.52-6.52,23.52-18.16V212.89c0-26.54,7.45-39.81,36.32-39.81h6v14.67h-6c-16.76,0-20.26,8.15-20.26,23.75V249c0,14.44-8.14,22.59-21.88,25.15v.46c12.34,3,21.88,11.41,21.88,24.68v37.49c0,14.2,4.2,25.84,20.49,25.84h6.06v14.67Z"/><path d="M292.51,301.37v36.32c0,25.38-8.85,39.58-36.32,39.58H249.9V362.6h6c16.3,0,20.49-11.64,20.49-25.84V299.27c0-13.27,9.55-21.65,21.89-24.68v-.46c-13.74-2.56-21.89-10.71-21.89-25.15V211.5c0-15.6-3.49-23.75-20.25-23.75h-6.06V173.08h6.06c28.87,0,36.32,13.27,36.32,39.81v35.86c0,11.64,14,17,23.52,18.16v16.76C305.31,284.6,292.51,288.33,292.51,301.37Z"/><path d="M171.45,278.59v-7.25h7.1v7.25Z"/><path d="M213.16,276.57a9.84,9.84,0,0,1-6.87,2.64,8.88,8.88,0,0,1-7.24-3.46v12.72H195V254.25h3.6l.28,3.21c1.4-2.44,4.71-3.79,7.44-3.79a9.73,9.73,0,0,1,7,2.88,13.78,13.78,0,0,1,3.56,9.84C216.86,270.57,215.61,274.22,213.16,276.57Zm-3-17.57a6.2,6.2,0,0,0-4.56-1.82,6,6,0,0,0-4.08,1.58c-2,1.78-2.73,4.66-2.73,7.68s.72,5.86,2.73,7.63a5.94,5.94,0,0,0,4.08,1.54,6.1,6.1,0,0,0,4.52-1.78,10.3,10.3,0,0,0,2.54-7.39C212.68,263.61,212,260.82,210.18,259Z"/><path d="M235.19,283.53c-1.25,3.07-3.07,5.23-6.72,5.23a10,10,0,0,1-4.37-.91v-3.5a12,12,0,0,0,3.51.72,3.55,3.55,0,0,0,3.69-2.45l1.63-4.08-10.6-24.29h5l7.82,19.29,7.25-19.29h4.66Z"/></svg>