<svg id="Layer_1" data-name="Layer 1" xmlns="http://www.w3.org/2000/svg" viewBox="0 0 1615 5.33"><defs><style>.cls-1{fill:#999;}</style></defs><title>horizontal break</title><path class="cls-1" d="M25,284.75c67.29-.92,134.58-1.33,201.88-1.69l100.93-.27q50.47-.1,100.94.13l100.94.69,50.47.36,50.47.22,50.46,0,50.47-.11,25.24-.05,25.23-.15,50.47-.29q100.93-.72,201.88-1l100.93-.26,100.94-.06c134.58.25,269.17.83,403.75,2.42v.5c-134.58,1.59-269.17,2.17-403.75,2.42l-100.94-.06-100.93-.26q-101-.21-201.88-1L782,286.08l-25.23-.15-25.24-.05-50.47-.11-50.46,0-50.47.22-50.47.36-100.94.69q-50.47.23-100.94.13l-100.93-.27c-67.3-.36-134.59-.77-201.88-1.69Z" transform="translate(-25 -282.33)"/></svg>