<svg id="Layer_1" data-name="Layer 1" xmlns="http://www.w3.org/2000/svg" viewBox="0 0 1665 569"><defs><style>.cls-1{fill:#b3b3b3;}.cls-2{fill:#232021;}.cls-3{fill:#6d6d6e;}.cls-4{fill:#c8c9cb;}.cls-5{fill:#cccecf;}.cls-6{fill:#cccdcf;}.cls-7{fill:#c9cacc;}.cls-8{fill:#cccccf;}.cls-9{fill:#cecfd0;}.cls-10{fill:#ced0d1;}.cls-11{fill:#cfcfd1;}.cls-12{fill:#cfd0d2;}.cls-13{fill:#d1d2d3;}.cls-14{fill:#cbccce;}.cls-15{fill:#cdced0;}.cls-16{fill:#fff;}</style></defs><title>torque-how-it-works</title><path class="cls-1" d="M392.93,274.09c7.11-.76,14.21-1.33,21.32-1.88.88-.07,1.77-.16,2.66-.17s1.78,0,2.66,0H542.13c3.55,0,7.1,0,10.66,0a21.52,21.52,0,0,1,2.66.11l2.67.21,5.32.42v2.6l-5.32.42-2.67.21a21.52,21.52,0,0,1-2.66.11c-3.56-.08-7.11,0-10.66,0H419.57c-.88,0-1.77,0-2.66,0s-1.78-.1-2.66-.16C407.14,275.42,400,274.85,392.93,274.09Z"/><path class="cls-1" d="M561.83,274.09c-4.17-4.18-6.17-12.44-6.33-18.18,5.73,7.7,13.18,14.42,22.19,18.18-9,3.61-16.13,10.73-22.19,18.18C556,286.13,557.49,278.68,561.83,274.09Z"/><path class="cls-1" d="M1030.09,275.3c7.11-.76,14.21-1.33,21.32-1.89.88-.06,1.77-.16,2.66-.17s1.78.05,2.67.05h122.55c3.55,0,7.11,0,10.66,0a23.65,23.65,0,0,1,2.66.1l2.67.22,5.33.42v2.6l-5.33.42-2.67.21a21.52,21.52,0,0,1-2.66.11c-3.55-.08-7.11,0-10.66,0H1056.74c-.89,0-1.78.06-2.67.05s-1.78-.1-2.66-.17C1044.3,276.63,1037.2,276.06,1030.09,275.3Z"/><path class="cls-1" d="M1199,275.3c-4.18-4.18-6.18-12.45-6.34-18.18,5.73,7.7,13.18,14.41,22.19,18.18-9,3.6-16.13,10.72-22.19,18.18C1193.15,287.34,1194.65,279.88,1199,275.3Z"/><path d="M741.53,522.06V503l-8.68,14.85h-1L723.18,503v19H721.6v-22h1.58l9.17,15.75,9.18-15.75h1.58v22Z"/><path d="M748.41,502.28v-2.85H750v2.85Zm0,19.78V505.94H750v16.12Z"/><path d="M753.71,513.94a8.94,8.94,0,0,1,.59-3.23,8,8,0,0,1,1.64-2.63,7.66,7.66,0,0,1,2.52-1.77,7.77,7.77,0,0,1,3.19-.65,7.43,7.43,0,0,1,3.87,1,6.16,6.16,0,0,1,2.51,2.76l-1.51.5a5.32,5.32,0,0,0-2-2.1,5.79,5.79,0,0,0-2.9-.76,5.87,5.87,0,0,0-2.48.53,6.15,6.15,0,0,0-2,1.46,7,7,0,0,0-1.35,2.18,7.63,7.63,0,0,0,0,5.46,7.47,7.47,0,0,0,1.37,2.23,6.64,6.64,0,0,0,2,1.51,5.68,5.68,0,0,0,2.47.55,5.9,5.9,0,0,0,1.66-.24,7.34,7.34,0,0,0,1.51-.66,5,5,0,0,0,1.21-.94,2.82,2.82,0,0,0,.7-1.13l1.52.43a5,5,0,0,1-1,1.57,6.32,6.32,0,0,1-1.5,1.25,7.51,7.51,0,0,1-1.92.82,7.9,7.9,0,0,1-2.17.3,7.4,7.4,0,0,1-3.16-.67,7.68,7.68,0,0,1-2.53-1.83,8.48,8.48,0,0,1-1.67-2.68A8.58,8.58,0,0,1,753.71,513.94Z"/><path d="M779.35,507.33a6.35,6.35,0,0,0-6.08,4.65v10.08h-1.55V505.94h1.49v4a7.86,7.86,0,0,1,2.22-2.78,5.65,5.65,0,0,1,3-1.22l.56,0h.4Z"/><path d="M788.25,522.37a7.33,7.33,0,0,1-3.15-.67,7.9,7.9,0,0,1-2.5-1.81,8.36,8.36,0,0,1-1.64-2.67,8.77,8.77,0,0,1-.59-3.19,8.46,8.46,0,0,1,.61-3.22,8.3,8.3,0,0,1,1.66-2.67,7.6,7.6,0,0,1,2.49-1.81,7.26,7.26,0,0,1,3.12-.67,7.17,7.17,0,0,1,3.1.67,7.82,7.82,0,0,1,2.49,1.81,8.35,8.35,0,0,1,1.68,2.67,8.86,8.86,0,0,1,0,6.41,8.78,8.78,0,0,1-1.66,2.67,7.9,7.9,0,0,1-2.5,1.81A7.24,7.24,0,0,1,788.25,522.37Zm-6.33-8.28a7.22,7.22,0,0,0,.5,2.68,7,7,0,0,0,1.35,2.19,6.32,6.32,0,0,0,2,1.47,5.66,5.66,0,0,0,2.45.54,5.73,5.73,0,0,0,2.45-.54,6.38,6.38,0,0,0,2-1.5,7.17,7.17,0,0,0,1.36-2.22,7.33,7.33,0,0,0,.5-2.71,7.22,7.22,0,0,0-.5-2.68,7,7,0,0,0-1.36-2.2,6.81,6.81,0,0,0-2-1.51,5.45,5.45,0,0,0-2.43-.56,5.54,5.54,0,0,0-2.45.56,6.32,6.32,0,0,0-2,1.52,7.7,7.7,0,0,0-1.37,2.25A7.29,7.29,0,0,0,781.92,514.09Z"/><path d="M798.72,513.94a8.94,8.94,0,0,1,.59-3.23,8,8,0,0,1,1.65-2.63,7.62,7.62,0,0,1,2.51-1.77,7.77,7.77,0,0,1,3.19-.65,7.49,7.49,0,0,1,3.88,1,6.27,6.27,0,0,1,2.51,2.76l-1.52.5a5.26,5.26,0,0,0-2-2.1,5.79,5.79,0,0,0-2.9-.76,5.87,5.87,0,0,0-2.48.53,6.15,6.15,0,0,0-2,1.46,7,7,0,0,0-1.35,2.18,7.35,7.35,0,0,0-.5,2.72,7.54,7.54,0,0,0,1.88,5,6.57,6.57,0,0,0,2,1.51,5.6,5.6,0,0,0,2.46.55,5.9,5.9,0,0,0,1.66-.24,7.43,7.43,0,0,0,1.52-.66,5.37,5.37,0,0,0,1.21-.94,2.9,2.9,0,0,0,.69-1.13l1.52.43a5,5,0,0,1-.94,1.57,6.58,6.58,0,0,1-1.51,1.25,7.51,7.51,0,0,1-1.92.82,7.84,7.84,0,0,1-2.17.3,7.4,7.4,0,0,1-3.16-.67,7.78,7.78,0,0,1-2.53-1.83,8.48,8.48,0,0,1-1.67-2.68A8.78,8.78,0,0,1,798.72,513.94Z"/><path d="M823.34,522.37a7.33,7.33,0,0,1-3.15-.67,7.75,7.75,0,0,1-2.49-1.81,8.38,8.38,0,0,1-1.65-2.67,8.77,8.77,0,0,1-.59-3.19,8.66,8.66,0,0,1,.61-3.22,8.3,8.3,0,0,1,1.66-2.67,7.6,7.6,0,0,1,2.49-1.81,7.26,7.26,0,0,1,3.12-.67,7.17,7.17,0,0,1,3.1.67,7.82,7.82,0,0,1,2.49,1.81,8.18,8.18,0,0,1,1.68,2.67,8.74,8.74,0,0,1-1.66,9.08,7.68,7.68,0,0,1-2.5,1.81A7.24,7.24,0,0,1,823.34,522.37ZM817,514.09a7.22,7.22,0,0,0,.5,2.68,7,7,0,0,0,1.35,2.19,6.32,6.32,0,0,0,2,1.47,5.83,5.83,0,0,0,4.9,0,6.38,6.38,0,0,0,2-1.5,7.21,7.21,0,0,0,1.86-4.93,7.11,7.11,0,0,0-1.86-4.88,6.68,6.68,0,0,0-2-1.51,5.42,5.42,0,0,0-2.43-.56,5.54,5.54,0,0,0-2.45.56,6.44,6.44,0,0,0-2,1.52,7.47,7.47,0,0,0-1.36,2.25A7.3,7.3,0,0,0,817,514.09Z"/><path d="M848.11,522.06h-1.55v-9a8.94,8.94,0,0,0-.89-4.56,3,3,0,0,0-2.8-1.42,5.77,5.77,0,0,0-2,.37,7.11,7.11,0,0,0-1.88,1.05,8,8,0,0,0-1.52,1.6,6.67,6.67,0,0,0-1,2v10h-1.55V505.94h1.46v3.84a7.82,7.82,0,0,1,1.22-1.69,8,8,0,0,1,1.65-1.3,8.49,8.49,0,0,1,1.93-.84,7.9,7.9,0,0,1,2.11-.29A4,4,0,0,1,847,507.5a10.49,10.49,0,0,1,1.09,5.29Z"/><path d="M859.83,521.28c-.09.05-.23.12-.42.24a4.55,4.55,0,0,1-.75.32,7.52,7.52,0,0,1-1,.28,5.84,5.84,0,0,1-1.21.12,4.06,4.06,0,0,1-1.23-.18,3,3,0,0,1-1-.56,2.75,2.75,0,0,1-.68-.9,3,3,0,0,1-.25-1.24V507.21H851v-1.27h2.26v-5.52h1.55v5.52h3.76v1.27h-3.76V519a1.57,1.57,0,0,0,.62,1.35,2.34,2.34,0,0,0,1.4.45,3.87,3.87,0,0,0,1.66-.33,8,8,0,0,0,.85-.42Z"/><path d="M870.18,507.33A6.35,6.35,0,0,0,864.1,512v10.08h-1.55V505.94H864v4a7.86,7.86,0,0,1,2.22-2.78,5.65,5.65,0,0,1,3-1.22l.56,0h.4Z"/><path d="M879.08,522.37a7.33,7.33,0,0,1-3.15-.67,7.9,7.9,0,0,1-2.5-1.81,8.36,8.36,0,0,1-1.64-2.67,8.77,8.77,0,0,1-.59-3.19,8.46,8.46,0,0,1,.61-3.22,8.3,8.3,0,0,1,1.66-2.67,7.6,7.6,0,0,1,2.49-1.81,7.26,7.26,0,0,1,3.12-.67,7.17,7.17,0,0,1,3.1.67,7.82,7.82,0,0,1,2.49,1.81,8.53,8.53,0,0,1,1.68,2.67,8.86,8.86,0,0,1,0,6.41,8.78,8.78,0,0,1-1.66,2.67,7.9,7.9,0,0,1-2.5,1.81A7.24,7.24,0,0,1,879.08,522.37Zm-6.33-8.28a7.22,7.22,0,0,0,.5,2.68A7,7,0,0,0,874.6,519a6.32,6.32,0,0,0,2,1.47,5.81,5.81,0,0,0,4.89,0,6.3,6.3,0,0,0,2-1.5,7.17,7.17,0,0,0,1.36-2.22,7.33,7.33,0,0,0,.5-2.71,7.22,7.22,0,0,0-.5-2.68,7,7,0,0,0-1.36-2.2,6.81,6.81,0,0,0-2-1.51,5.45,5.45,0,0,0-2.43-.56,5.54,5.54,0,0,0-2.45.56,6.32,6.32,0,0,0-2,1.52,7.5,7.5,0,0,0-1.37,2.25A7.29,7.29,0,0,0,872.75,514.09Z"/><path d="M890.79,499.43h1.59v19.44a2,2,0,0,0,.51,1.42,1.88,1.88,0,0,0,1.41.53,5.61,5.61,0,0,0,.82-.08,4.53,4.53,0,0,0,.88-.23l.31,1.24a7.19,7.19,0,0,1-1.3.36,7.89,7.89,0,0,1-1.33.13,2.84,2.84,0,0,1-2.1-.79,2.88,2.88,0,0,1-.79-2.12Z"/><path d="M898.82,499.43h1.58v19.44a1.93,1.93,0,0,0,.52,1.42,1.88,1.88,0,0,0,1.41.53,5.61,5.61,0,0,0,.82-.08,4.53,4.53,0,0,0,.88-.23l.31,1.24a7.19,7.19,0,0,1-1.3.36,7.89,7.89,0,0,1-1.33.13,2.84,2.84,0,0,1-2.1-.79,2.88,2.88,0,0,1-.79-2.12Z"/><path d="M913.58,522.37a7.4,7.4,0,0,1-3.16-.67,7.57,7.57,0,0,1-2.53-1.83,8.48,8.48,0,0,1-1.67-2.68,8.58,8.58,0,0,1-.61-3.25,8.38,8.38,0,0,1,.61-3.21,8.54,8.54,0,0,1,1.65-2.64,7.81,7.81,0,0,1,2.5-1.78,7.55,7.55,0,0,1,3.12-.65,7.43,7.43,0,0,1,3.16.67,7.82,7.82,0,0,1,2.51,1.79,8.33,8.33,0,0,1,1.64,2.64,8.68,8.68,0,0,1,.59,3.18v.38a.88.88,0,0,1,0,.3H907.22a7.43,7.43,0,0,0,.65,2.59,7.62,7.62,0,0,0,1.42,2.06,6.22,6.22,0,0,0,2,1.36,5.85,5.85,0,0,0,2.39.5,6,6,0,0,0,1.64-.23,7,7,0,0,0,1.51-.64,5.36,5.36,0,0,0,1.24-1,4.69,4.69,0,0,0,.85-1.25l1.36.37a5.11,5.11,0,0,1-1,1.6,7.26,7.26,0,0,1-1.55,1.25,7.81,7.81,0,0,1-1.94.82A7.9,7.9,0,0,1,913.58,522.37Zm6.32-9a7.36,7.36,0,0,0-.63-2.61,7,7,0,0,0-1.4-2,6.34,6.34,0,0,0-2-1.33,6.17,6.17,0,0,0-4.77,0,6.46,6.46,0,0,0-2,1.33,6.39,6.39,0,0,0-1.36,2.05,7.86,7.86,0,0,0-.61,2.59Z"/><path d="M932.43,507.33a6.35,6.35,0,0,0-6.08,4.65v10.08H924.8V505.94h1.49v4a7.84,7.84,0,0,1,2.21-2.78,5.68,5.68,0,0,1,3-1.22l.55,0h.41Z"/><path d="M1061.91,229.09v-13.5l-6.16,10.53H1055l-6.16-10.53v13.5h-1.12V213.47h1.12l6.51,11.18,6.52-11.18H1063v15.62Z"/><path d="M1071.43,229.31a5.19,5.19,0,0,1-2.23-.47,5.39,5.39,0,0,1-1.77-1.29,5.9,5.9,0,0,1-1.17-1.89,6.17,6.17,0,0,1-.42-2.26,6.26,6.26,0,0,1,.43-2.29,6.1,6.1,0,0,1,1.18-1.89,5.39,5.39,0,0,1,1.77-1.29,5.13,5.13,0,0,1,2.21-.47,5.05,5.05,0,0,1,2.2.47,5.39,5.39,0,0,1,1.77,1.29,6,6,0,0,1,1.19,1.89,6.06,6.06,0,0,1,.43,2.29,6,6,0,0,1-.43,2.26,6.1,6.1,0,0,1-1.18,1.89,5.19,5.19,0,0,1-1.77,1.29A5.13,5.13,0,0,1,1071.43,229.31Zm-4.49-5.87a5,5,0,0,0,.36,1.9,4.86,4.86,0,0,0,1,1.55,4.72,4.72,0,0,0,1.42,1.05,4.17,4.17,0,0,0,3.48,0,4.51,4.51,0,0,0,1.43-1.07,5.24,5.24,0,0,0,1-1.57,5.3,5.3,0,0,0,.35-1.93,5.07,5.07,0,0,0-1.32-3.46,4.92,4.92,0,0,0-1.42-1.07,3.92,3.92,0,0,0-1.73-.39,4,4,0,0,0-1.74.39,4.5,4.5,0,0,0-1.41,1.08,5.37,5.37,0,0,0-1.34,3.52Z"/><path d="M1084.61,228.54l-.3.17a2.87,2.87,0,0,1-.52.23c-.22.07-.46.14-.72.2a3.85,3.85,0,0,1-.86.09,2.74,2.74,0,0,1-.87-.14,2,2,0,0,1-.71-.39,1.92,1.92,0,0,1-.49-.64,2.16,2.16,0,0,1-.17-.88v-8.62h-1.61v-.91H1080v-3.91h1.1v3.91h2.66v.91h-2.66v8.36a1.08,1.08,0,0,0,.44,1,1.59,1.59,0,0,0,1,.32,2.63,2.63,0,0,0,1.17-.23,5.59,5.59,0,0,0,.61-.3Z"/><path d="M1091.06,229.31a5.23,5.23,0,0,1-2.24-.47,5.39,5.39,0,0,1-1.77-1.29,5.87,5.87,0,0,1-1.16-1.89,6.17,6.17,0,0,1-.42-2.26,6.21,6.21,0,0,1,1.6-4.18,5.32,5.32,0,0,1,1.78-1.29,5.41,5.41,0,0,1,4.41,0,5.6,5.6,0,0,1,1.77,1.29,6.13,6.13,0,0,1,1.19,1.89,6.25,6.25,0,0,1,.42,2.29,6.17,6.17,0,0,1-.42,2.26,6.1,6.1,0,0,1-1.18,1.89,5.39,5.39,0,0,1-1.77,1.29A5.13,5.13,0,0,1,1091.06,229.31Zm-4.49-5.87a5.17,5.17,0,0,0,.35,1.9,4.88,4.88,0,0,0,1,1.55,4.49,4.49,0,0,0,1.42,1.05,4.15,4.15,0,0,0,3.47,0,4.4,4.4,0,0,0,1.43-1.07,5.2,5.2,0,0,0,0-7,4.79,4.79,0,0,0-1.42-1.07,3.87,3.87,0,0,0-1.72-.39,4,4,0,0,0-1.74.39,4.54,4.54,0,0,0-1.42,1.08,5.42,5.42,0,0,0-1,1.59A5.25,5.25,0,0,0,1086.57,223.44Z"/><path d="M1104.7,218.64a4.52,4.52,0,0,0-4.32,3.3v7.15h-1.1V217.65h1.06v2.82a5.6,5.6,0,0,1,1.57-2,4.1,4.1,0,0,1,2.1-.87l.4,0h.29Z"/><path d="M1111.12,223.33a6.25,6.25,0,0,1,.42-2.29,5.84,5.84,0,0,1,1.16-1.87,5.55,5.55,0,0,1,1.79-1.25,5.4,5.4,0,0,1,2.26-.46,5.28,5.28,0,0,1,2.75.7,4.39,4.39,0,0,1,1.78,2l-1.07.35a3.71,3.71,0,0,0-1.45-1.49,4,4,0,0,0-2-.53,4.15,4.15,0,0,0-1.76.37,4.39,4.39,0,0,0-1.42,1,5.19,5.19,0,0,0-1,1.55,5.34,5.34,0,0,0-.35,1.93,5.28,5.28,0,0,0,.36,1.95,5.45,5.45,0,0,0,1,1.58,4.59,4.59,0,0,0,1.43,1.07,4,4,0,0,0,1.75.39,4,4,0,0,0,1.18-.17,5.24,5.24,0,0,0,1.08-.46,3.58,3.58,0,0,0,.85-.68,2.1,2.1,0,0,0,.5-.8l1.08.31a3.54,3.54,0,0,1-.67,1.11,4.61,4.61,0,0,1-1.07.89,5.84,5.84,0,0,1-1.37.59,6,6,0,0,1-1.54.2,5.26,5.26,0,0,1-2.24-.47,5.39,5.39,0,0,1-1.79-1.3,5.93,5.93,0,0,1-1.19-1.9A6.12,6.12,0,0,1,1111.12,223.33Z"/><path d="M1128.59,229.31a5.15,5.15,0,0,1-2.23-.47,5.32,5.32,0,0,1-1.78-1.29,6.05,6.05,0,0,1-1.16-1.89,6.17,6.17,0,0,1-.42-2.26,6.15,6.15,0,0,1,1.61-4.18,5.29,5.29,0,0,1,1.77-1.29,5.41,5.41,0,0,1,4.41,0,5.6,5.6,0,0,1,1.77,1.29,6,6,0,0,1,1.19,1.89,6.26,6.26,0,0,1,.43,2.29,6.18,6.18,0,0,1-.43,2.26,6.1,6.1,0,0,1-1.18,1.89,5.39,5.39,0,0,1-1.77,1.29A5.13,5.13,0,0,1,1128.59,229.31Zm-4.49-5.87a5.17,5.17,0,0,0,.35,1.9,5.07,5.07,0,0,0,1,1.55,4.6,4.6,0,0,0,1.42,1.05,4.15,4.15,0,0,0,3.47,0,4.4,4.4,0,0,0,1.43-1.07,5.2,5.2,0,0,0,0-7,4.88,4.88,0,0,0-1.41-1.07,4.05,4.05,0,0,0-3.47,0,4.54,4.54,0,0,0-1.42,1.08,5.65,5.65,0,0,0-1,1.59A5.25,5.25,0,0,0,1124.1,223.44Z"/><path d="M1146.17,229.09h-1.1v-6.38a6.31,6.31,0,0,0-.63-3.23,2.16,2.16,0,0,0-2-1,4.21,4.21,0,0,0-1.44.26,5,5,0,0,0-1.33.75,5.52,5.52,0,0,0-1.08,1.13,4.43,4.43,0,0,0-.68,1.4v7.08h-1.1V217.65h1v2.73a5.41,5.41,0,0,1,.87-1.2,5.28,5.28,0,0,1,1.17-.92,5.39,5.39,0,0,1,2.87-.8,2.82,2.82,0,0,1,2.64,1.3,7.56,7.56,0,0,1,.77,3.76Z"/><path d="M1154.48,228.54l-.29.17a3,3,0,0,1-.53.23c-.22.07-.45.14-.72.2a3.85,3.85,0,0,1-.86.09,2.72,2.72,0,0,1-.86-.14,2,2,0,0,1-.72-.39,1.77,1.77,0,0,1-.48-.64,2,2,0,0,1-.18-.88v-8.62h-1.61v-.91h1.61v-3.91h1.1v3.91h2.66v.91h-2.66v8.36a1.1,1.1,0,0,0,.44,1,1.59,1.59,0,0,0,1,.32,2.67,2.67,0,0,0,1.18-.23,5.06,5.06,0,0,0,.6-.3Z"/><path d="M1161.83,218.64a4.5,4.5,0,0,0-4.31,3.3v7.15h-1.1V217.65h1v2.82a5.51,5.51,0,0,1,1.58-2,4,4,0,0,1,2.1-.87l.39,0h.29Z"/><path d="M1168.14,229.31a5.19,5.19,0,0,1-2.23-.47,5.39,5.39,0,0,1-1.77-1.29,5.9,5.9,0,0,1-1.17-1.89,6.37,6.37,0,0,1-.41-2.26,6.06,6.06,0,0,1,.43-2.29,5.9,5.9,0,0,1,1.17-1.89,5.39,5.39,0,0,1,1.77-1.29,5.16,5.16,0,0,1,2.21-.47,5,5,0,0,1,2.2.47,5.53,5.53,0,0,1,1.78,1.29,5.92,5.92,0,0,1,1.18,1.89,6.06,6.06,0,0,1,.43,2.29,6,6,0,0,1-.43,2.26,5.9,5.9,0,0,1-1.17,1.89,5.39,5.39,0,0,1-1.77,1.29A5.17,5.17,0,0,1,1168.14,229.31Zm-4.48-5.87a5,5,0,0,0,.35,1.9,4.86,4.86,0,0,0,1,1.55,4.72,4.72,0,0,0,1.42,1.05,4,4,0,0,0,1.74.38,4,4,0,0,0,1.74-.38,4.51,4.51,0,0,0,1.43-1.07,5.24,5.24,0,0,0,1-1.57,5.3,5.3,0,0,0,.35-1.93,5.07,5.07,0,0,0-1.32-3.46,4.79,4.79,0,0,0-1.42-1.07,3.88,3.88,0,0,0-1.73-.39,4,4,0,0,0-1.73.39,4.43,4.43,0,0,0-1.42,1.08,5.29,5.29,0,0,0-1.33,3.52Z"/><path d="M1176.46,213h1.12v13.8a1.37,1.37,0,0,0,.37,1,1.31,1.31,0,0,0,1,.37,3.32,3.32,0,0,0,.58-.05,3.06,3.06,0,0,0,.63-.17l.22.88a4.37,4.37,0,0,1-.93.26,6.16,6.16,0,0,1-.94.1,2,2,0,0,1-1.49-.57,2,2,0,0,1-.56-1.5Z"/><path d="M1182.16,213h1.12v13.8a1.4,1.4,0,0,0,.36,1,1.33,1.33,0,0,0,1,.37,3.42,3.42,0,0,0,.59-.05,3,3,0,0,0,.62-.17l.22.88a4.27,4.27,0,0,1-.92.26,6.15,6.15,0,0,1-1,.1,1.94,1.94,0,0,1-2-2.07Z"/><path d="M1192.63,229.31a5.23,5.23,0,0,1-2.24-.47,5.53,5.53,0,0,1-1.8-1.3,6.08,6.08,0,0,1-1.61-4.21,6,6,0,0,1,1.6-4.15,5.6,5.6,0,0,1,1.77-1.26,5.58,5.58,0,0,1,4.46,0,5.44,5.44,0,0,1,1.78,1.28,5.76,5.76,0,0,1,1.17,1.86,6.37,6.37,0,0,1,.41,2.26v.28a.45.45,0,0,1,0,.2h-10a5.09,5.09,0,0,0,.46,1.84,5.47,5.47,0,0,0,1,1.46,4.51,4.51,0,0,0,1.4,1,4,4,0,0,0,1.69.35,4.18,4.18,0,0,0,1.17-.16,4.84,4.84,0,0,0,1.07-.45,3.72,3.72,0,0,0,.88-.7,3.1,3.1,0,0,0,.6-.89l1,.27a3.5,3.5,0,0,1-.72,1.13,4.57,4.57,0,0,1-1.1.89,5.84,5.84,0,0,1-1.37.59A6.08,6.08,0,0,1,1192.63,229.31Zm4.49-6.38a5.41,5.41,0,0,0-.45-1.84,5.17,5.17,0,0,0-1-1.45,4.6,4.6,0,0,0-1.4-.94,4.4,4.4,0,0,0-3.39,0,4.34,4.34,0,0,0-2.36,2.4,5.22,5.22,0,0,0-.43,1.83Z"/><path d="M1206,218.64a4.52,4.52,0,0,0-4.31,3.3v7.15h-1.1V217.65h1.06v2.82a5.49,5.49,0,0,1,1.57-2,4.1,4.1,0,0,1,2.1-.87l.4,0h.28Z"/><path d="M103.73,500.2h1.55l3.28,8,3.29-8h1.55l-3.88,9.27,4.62,10.73,8.43-20.15h1.74l-9.42,22h-1.46l-4.84-11.32-4.86,11.32h-1.46l-9.39-22h1.7L103,520.2l4.56-10.73Z"/><path d="M127.16,502.28v-2.85h1.55v2.85Zm0,19.78V505.94h1.55v16.12Z"/><path d="M141.21,507.33a6.35,6.35,0,0,0-6.08,4.65v10.08h-1.55V505.94h1.49v4a7.84,7.84,0,0,1,2.21-2.78,5.68,5.68,0,0,1,3-1.22l.56,0h.41Z"/><path d="M150.2,522.37a7.45,7.45,0,0,1-3.17-.67,7.64,7.64,0,0,1-2.52-1.83,8.51,8.51,0,0,1-1.68-2.68,8.77,8.77,0,0,1-.6-3.25,8.56,8.56,0,0,1,.6-3.21,8.75,8.75,0,0,1,1.66-2.64,7.71,7.71,0,0,1,2.5-1.78,7.53,7.53,0,0,1,3.11-.65,7.4,7.4,0,0,1,3.16.67,7.86,7.86,0,0,1,2.52,1.79,8.33,8.33,0,0,1,1.64,2.64,8.68,8.68,0,0,1,.59,3.18v.38a.88.88,0,0,1,0,.3H143.84a7.21,7.21,0,0,0,.65,2.59,7.37,7.37,0,0,0,1.41,2.06,6.38,6.38,0,0,0,2,1.36,5.82,5.82,0,0,0,2.39.5,6.07,6.07,0,0,0,1.64-.23,6.71,6.71,0,0,0,1.5-.64,5.16,5.16,0,0,0,1.24-1,4.73,4.73,0,0,0,.86-1.25l1.36.37a5.14,5.14,0,0,1-1,1.6,6.8,6.8,0,0,1-1.55,1.25,7.74,7.74,0,0,1-1.93.82A8,8,0,0,1,150.2,522.37Zm6.32-9a7.16,7.16,0,0,0-.64-2.61,7,7,0,0,0-1.39-2,6.46,6.46,0,0,0-2-1.33,6.17,6.17,0,0,0-4.77,0,6.34,6.34,0,0,0-2,1.33,6.41,6.41,0,0,0-1.37,2.05,7.85,7.85,0,0,0-.6,2.59Z"/><path d="M161.54,499.43h1.58v19.44a2,2,0,0,0,.51,1.42,1.88,1.88,0,0,0,1.41.53,5.73,5.73,0,0,0,.83-.08,4.53,4.53,0,0,0,.88-.23l.31,1.24a7.43,7.43,0,0,1-1.3.36,7.9,7.9,0,0,1-1.34.13,2.72,2.72,0,0,1-2.88-2.91Z"/><path d="M176.3,522.37a7.48,7.48,0,0,1-3.17-.67,7.64,7.64,0,0,1-2.52-1.83,8.62,8.62,0,0,1-2.28-5.93,8.56,8.56,0,0,1,.6-3.21,8.75,8.75,0,0,1,1.66-2.64,7.81,7.81,0,0,1,2.5-1.78,7.8,7.8,0,0,1,6.28,0,7.93,7.93,0,0,1,2.51,1.79,8.33,8.33,0,0,1,1.64,2.64,8.68,8.68,0,0,1,.59,3.18v.38a.88.88,0,0,1,0,.3H169.94a7.21,7.21,0,0,0,.65,2.59,7.37,7.37,0,0,0,1.41,2.06,6.38,6.38,0,0,0,2,1.36,5.85,5.85,0,0,0,2.39.5,6.07,6.07,0,0,0,1.64-.23,7,7,0,0,0,1.51-.64,5.58,5.58,0,0,0,1.24-1,4.69,4.69,0,0,0,.85-1.25l1.36.37a5.14,5.14,0,0,1-1,1.6,6.8,6.8,0,0,1-1.55,1.25,7.58,7.58,0,0,1-1.93.82A8,8,0,0,1,176.3,522.37Zm6.32-9a7.36,7.36,0,0,0-.63-2.61,7.19,7.19,0,0,0-1.4-2,6.34,6.34,0,0,0-2-1.33,6.17,6.17,0,0,0-4.77,0,6.22,6.22,0,0,0-3.33,3.38,7.62,7.62,0,0,0-.61,2.59Z"/><path d="M192.63,522.37a10.42,10.42,0,0,1-3.56-.62,8.3,8.3,0,0,1-3-1.86l.78-1.06a8.94,8.94,0,0,0,2.69,1.74,8.26,8.26,0,0,0,3.07.56,6,6,0,0,0,3.4-.88,2.83,2.83,0,0,0,1.28-2.47,2.26,2.26,0,0,0-.32-1.25,2.47,2.47,0,0,0-1-.87,8,8,0,0,0-1.61-.64c-.64-.18-1.38-.38-2.23-.59s-1.7-.41-2.37-.62a6.12,6.12,0,0,1-1.66-.74,2.83,2.83,0,0,1-1-1.06,3.47,3.47,0,0,1-.32-1.58,4.51,4.51,0,0,1,.46-2.1,4.12,4.12,0,0,1,1.29-1.49,6.1,6.1,0,0,1,1.89-.89,8.79,8.79,0,0,1,2.28-.29,8.41,8.41,0,0,1,3.35.63,6,6,0,0,1,2.26,1.63l-.87.84a4.81,4.81,0,0,0-2.09-1.39,7.79,7.79,0,0,0-2.75-.47,6.92,6.92,0,0,0-1.68.19,4.1,4.1,0,0,0-1.38.58,2.81,2.81,0,0,0-.93,1,3.15,3.15,0,0,0-.35,1.51,2.35,2.35,0,0,0,.24,1.14,2,2,0,0,0,.74.75,5.54,5.54,0,0,0,1.32.54c.54.15,1.18.33,1.92.51,1,.25,1.91.49,2.7.71a8,8,0,0,1,2,.84,3.8,3.8,0,0,1,1.21,1.18,3.33,3.33,0,0,1,.41,1.73,4.12,4.12,0,0,1-1.69,3.46A7.23,7.23,0,0,1,192.63,522.37Z"/><path d="M207.54,522.37a10.42,10.42,0,0,1-3.56-.62,8.3,8.3,0,0,1-3-1.86l.78-1.06a8.94,8.94,0,0,0,2.69,1.74,8.26,8.26,0,0,0,3.07.56,6,6,0,0,0,3.4-.88,2.83,2.83,0,0,0,1.28-2.47,2.26,2.26,0,0,0-.32-1.25,2.47,2.47,0,0,0-1-.87,8,8,0,0,0-1.61-.64c-.64-.18-1.38-.38-2.23-.59s-1.7-.41-2.37-.62a6.12,6.12,0,0,1-1.66-.74,2.83,2.83,0,0,1-1-1.06,3.47,3.47,0,0,1-.32-1.58,4.51,4.51,0,0,1,.46-2.1,4.12,4.12,0,0,1,1.29-1.49,6.1,6.1,0,0,1,1.89-.89,8.79,8.79,0,0,1,2.28-.29,8.41,8.41,0,0,1,3.35.63,6,6,0,0,1,2.26,1.63l-.87.84a4.81,4.81,0,0,0-2.09-1.39,7.79,7.79,0,0,0-2.75-.47,7,7,0,0,0-1.68.19,4.1,4.1,0,0,0-1.38.58,2.81,2.81,0,0,0-.93,1,3.15,3.15,0,0,0-.35,1.51,2.35,2.35,0,0,0,.24,1.14,2,2,0,0,0,.74.75,5.54,5.54,0,0,0,1.32.54c.54.15,1.18.33,1.92.51,1,.25,1.91.49,2.7.71a8,8,0,0,1,2,.84,3.8,3.8,0,0,1,1.21,1.18,3.33,3.33,0,0,1,.41,1.73,4.12,4.12,0,0,1-1.69,3.46A7.23,7.23,0,0,1,207.54,522.37Z"/><path d="M232.93,507.33a6.32,6.32,0,0,0-6.07,4.65v10.08h-1.55V505.94h1.48v4a7.86,7.86,0,0,1,2.22-2.78,5.68,5.68,0,0,1,3-1.22l.56,0h.4Z"/><path d="M241.92,522.37a7.43,7.43,0,0,1-3.16-.67,7.78,7.78,0,0,1-2.53-1.83,8.48,8.48,0,0,1-1.67-2.68,8.77,8.77,0,0,1-.6-3.25,8.53,8.53,0,0,1,2.26-5.85,7.67,7.67,0,0,1,2.49-1.78,7.55,7.55,0,0,1,3.12-.65,7.4,7.4,0,0,1,3.16.67,7.82,7.82,0,0,1,2.51,1.79,8.54,8.54,0,0,1,1.65,2.64,8.67,8.67,0,0,1,.58,3.18v.38a.88.88,0,0,1,0,.3H235.57a7.21,7.21,0,0,0,.65,2.59,7.37,7.37,0,0,0,1.41,2.06,6.26,6.26,0,0,0,2,1.36,5.8,5.8,0,0,0,2.38.5,6.14,6.14,0,0,0,1.65-.23,6.91,6.91,0,0,0,1.5-.64,5.16,5.16,0,0,0,1.24-1,4.47,4.47,0,0,0,.85-1.25l1.37.37a5.33,5.33,0,0,1-1,1.6,6.8,6.8,0,0,1-1.55,1.25,8.21,8.21,0,0,1-4.11,1.12Zm6.33-9a7.58,7.58,0,0,0-.64-2.61,7.16,7.16,0,0,0-1.39-2,6.46,6.46,0,0,0-2-1.33,6.19,6.19,0,0,0-4.78,0,6.46,6.46,0,0,0-2,1.33,6.55,6.55,0,0,0-1.36,2.05,7.85,7.85,0,0,0-.6,2.59Z"/><path d="M276.83,522.06h-1.55v-9a8.49,8.49,0,0,0-.95-4.53,3.21,3.21,0,0,0-2.9-1.45,4.86,4.86,0,0,0-1.89.37,5.69,5.69,0,0,0-1.64,1,6.7,6.7,0,0,0-1.29,1.58,8.42,8.42,0,0,0-.85,2v9.95h-1.55v-9a8.58,8.58,0,0,0-.93-4.54,3.19,3.19,0,0,0-2.88-1.44,5.15,5.15,0,0,0-1.88.35,5.53,5.53,0,0,0-1.62,1,7.35,7.35,0,0,0-1.32,1.59,7.45,7.45,0,0,0-.89,2v10h-1.55V505.94h1.46v3.84a7.88,7.88,0,0,1,2.61-3,6.25,6.25,0,0,1,3.56-1.08,4.62,4.62,0,0,1,3.32,1.21,5.14,5.14,0,0,1,1.52,3.16c1.53-2.91,3.63-4.37,6.32-4.37a4.06,4.06,0,0,1,3.77,1.88,10.24,10.24,0,0,1,1.13,5.25Z"/><path d="M288.27,522.37a7.33,7.33,0,0,1-3.15-.67,7.75,7.75,0,0,1-2.49-1.81,8.21,8.21,0,0,1-1.65-2.67,8.77,8.77,0,0,1-.59-3.19,8.46,8.46,0,0,1,.61-3.22,8.3,8.3,0,0,1,1.66-2.67,7.6,7.6,0,0,1,2.49-1.81,7.26,7.26,0,0,1,3.12-.67,7.17,7.17,0,0,1,3.1.67,7.82,7.82,0,0,1,2.49,1.81,8.35,8.35,0,0,1,1.68,2.67,8.86,8.86,0,0,1,0,6.41,8.78,8.78,0,0,1-1.66,2.67,7.9,7.9,0,0,1-2.5,1.81A7.24,7.24,0,0,1,288.27,522.37Zm-6.33-8.28a7.22,7.22,0,0,0,.5,2.68,7,7,0,0,0,1.35,2.19,6.32,6.32,0,0,0,2,1.47,5.66,5.66,0,0,0,2.45.54,5.73,5.73,0,0,0,2.45-.54,6.38,6.38,0,0,0,2-1.5,7.17,7.17,0,0,0,1.36-2.22,7.33,7.33,0,0,0,.5-2.71,7.22,7.22,0,0,0-.5-2.68,7,7,0,0,0-1.36-2.2,6.81,6.81,0,0,0-2-1.51,5.45,5.45,0,0,0-2.43-.56,5.54,5.54,0,0,0-2.45.56,6.32,6.32,0,0,0-2,1.52,7.7,7.7,0,0,0-1.37,2.25A7.29,7.29,0,0,0,281.94,514.09Z"/><path d="M306.84,521.28c-.09.05-.23.12-.42.24a4.55,4.55,0,0,1-.75.32,7.52,7.52,0,0,1-1,.28,5.84,5.84,0,0,1-1.21.12,4.06,4.06,0,0,1-1.23-.18,2.88,2.88,0,0,1-1-.56,2.78,2.78,0,0,1-.69-.9,3,3,0,0,1-.25-1.24V507.21H298v-1.27h2.26v-5.52h1.56v5.52h3.75v1.27h-3.75V519a1.56,1.56,0,0,0,.61,1.35,2.34,2.34,0,0,0,1.4.45,3.87,3.87,0,0,0,1.66-.33,8,8,0,0,0,.85-.42Z"/><path d="M316,522.37a7.43,7.43,0,0,1-3.16-.67,7.78,7.78,0,0,1-2.53-1.83,8.48,8.48,0,0,1-1.67-2.68,8.78,8.78,0,0,1-.61-3.25,8.6,8.6,0,0,1,2.27-5.85,7.67,7.67,0,0,1,2.49-1.78,7.55,7.55,0,0,1,3.12-.65,7.4,7.4,0,0,1,3.16.67,7.82,7.82,0,0,1,2.51,1.79,8.54,8.54,0,0,1,1.65,2.64,8.67,8.67,0,0,1,.58,3.18v.38a.88.88,0,0,1,0,.3H309.66a7.21,7.21,0,0,0,.65,2.59,7.37,7.37,0,0,0,1.41,2.06,6.26,6.26,0,0,0,2,1.36,5.8,5.8,0,0,0,2.38.5,6.14,6.14,0,0,0,1.65-.23,6.91,6.91,0,0,0,1.5-.64,5.16,5.16,0,0,0,1.24-1,4.47,4.47,0,0,0,.85-1.25l1.37.37a5.33,5.33,0,0,1-1,1.6,6.8,6.8,0,0,1-1.55,1.25,8.21,8.21,0,0,1-4.11,1.12Zm6.33-9a7.58,7.58,0,0,0-.64-2.61,7.16,7.16,0,0,0-1.39-2,6.46,6.46,0,0,0-2-1.33,6.19,6.19,0,0,0-4.78,0,6.46,6.46,0,0,0-2,1.33,6.55,6.55,0,0,0-1.36,2.05,7.85,7.85,0,0,0-.6,2.59Z"/><path d="M1403.23,522.06V503l-8.68,14.85h-1L1384.88,503v19h-1.59v-22h1.59l9.17,15.75,9.18-15.75h1.58v22Z"/><path d="M1416.65,522.37a7.33,7.33,0,0,1-3.15-.67,7.75,7.75,0,0,1-2.49-1.81,8.36,8.36,0,0,1-1.64-2.67,8.56,8.56,0,0,1-.59-3.19,8.65,8.65,0,0,1,.6-3.22,8.48,8.48,0,0,1,1.66-2.67,7.54,7.54,0,0,1,2.5-1.81,7.24,7.24,0,0,1,3.11-.67,7.13,7.13,0,0,1,3.1.67,8,8,0,0,1,2.5,1.81,8.32,8.32,0,0,1,1.67,2.67,8.74,8.74,0,0,1-1.66,9.08,7.75,7.75,0,0,1-2.49,1.81A7.29,7.29,0,0,1,1416.65,522.37Zm-6.32-8.28a7.21,7.21,0,0,0,.49,2.68,7,7,0,0,0,1.35,2.19,6.44,6.44,0,0,0,2,1.47,5.83,5.83,0,0,0,4.9,0,6.38,6.38,0,0,0,2-1.5,7.2,7.2,0,0,0,1.37-2.22,7.33,7.33,0,0,0,.49-2.71,7.21,7.21,0,0,0-.49-2.68,7,7,0,0,0-1.37-2.2,6.68,6.68,0,0,0-2-1.51,5.42,5.42,0,0,0-2.43-.56,5.57,5.57,0,0,0-2.45.56,6.44,6.44,0,0,0-2,1.52,7.47,7.47,0,0,0-1.36,2.25A7.29,7.29,0,0,0,1410.33,514.09Z"/><path d="M1435.22,521.28l-.42.24a4.41,4.41,0,0,1-.74.32,7.69,7.69,0,0,1-1,.28,5.7,5.7,0,0,1-1.21.12,4,4,0,0,1-1.22-.18,2.93,2.93,0,0,1-1-.56,2.62,2.62,0,0,1-.68-.9,2.8,2.8,0,0,1-.25-1.24V507.21h-2.26v-1.27h2.26v-5.52h1.55v5.52H1434v1.27h-3.75V519a1.57,1.57,0,0,0,.62,1.35,2.31,2.31,0,0,0,1.39.45,3.84,3.84,0,0,0,1.66-.33,7.06,7.06,0,0,0,.85-.42Z"/><path d="M1444.3,522.37a7.31,7.31,0,0,1-3.14-.67,7.79,7.79,0,0,1-2.5-1.81,8.36,8.36,0,0,1-1.64-2.67,8.77,8.77,0,0,1-.59-3.19,8.68,8.68,0,0,1,2.26-5.89,7.64,7.64,0,0,1,2.5-1.81,7.24,7.24,0,0,1,3.11-.67,7.13,7.13,0,0,1,3.1.67,7.86,7.86,0,0,1,2.5,1.81,8.32,8.32,0,0,1,1.67,2.67,8.74,8.74,0,0,1-1.66,9.08,7.75,7.75,0,0,1-2.49,1.81A7.26,7.26,0,0,1,1444.3,522.37Zm-6.32-8.28a7.21,7.21,0,0,0,.49,2.68,7,7,0,0,0,1.35,2.19,6.44,6.44,0,0,0,2,1.47,5.83,5.83,0,0,0,4.9,0,6.3,6.3,0,0,0,2-1.5,7.34,7.34,0,0,0,1.86-4.93,7.24,7.24,0,0,0-1.86-4.88,6.81,6.81,0,0,0-2-1.51,5.49,5.49,0,0,0-2.44-.56,5.6,5.6,0,0,0-2.45.56,6.44,6.44,0,0,0-2,1.52,7.68,7.68,0,0,0-1.36,2.25A7.29,7.29,0,0,0,1438,514.09Z"/><path d="M1463.52,507.33a6.35,6.35,0,0,0-6.07,4.65v10.08h-1.55V505.94h1.48v4a7.86,7.86,0,0,1,2.22-2.78,5.68,5.68,0,0,1,3-1.22l.56,0h.4Z"/><path class="cls-2" d="M749.9,330h-9.24c-1,0-1.34-.33-1.26-1.31a21.45,21.45,0,0,0,0-3c-.06-.93.31-1.15,1.18-1.14H758.7c1,0,1.35-.21,1.3-1.25-.08-1.75-.09-3.52,0-5.28,0-1-.23-1.37-1.32-1.36-6,.06-11.92,0-17.88.06-1.13,0-1.48-.32-1.39-1.42a20.31,20.31,0,0,0,0-3.12c0-.87.31-1.06,1.11-1.05,6,0,12,0,18,.05,1.28,0,1.55-.38,1.48-1.55-.09-1.67-.07-3.36,0-5,0-1-.28-1.23-1.22-1.22h-18c-1.17,0-1.45-.37-1.37-1.42a19.77,19.77,0,0,0,0-2.88c-.07-.95.26-1.23,1.21-1.23h17.77c1.59,0,1.59,0,1.59-1.65s-.05-3.36,0-5c0-.94-.24-1.22-1.2-1.21h-18c-1.11,0-1.49-.3-1.39-1.4a17.31,17.31,0,0,0,0-2.88c-.08-1,.27-1.24,1.22-1.24h18.48c.6,0,.87-.2.87-.83v-6.12c0-.78-.4-.82-1-.82H740.6c-1,0-1.32-.34-1.25-1.3a18.78,18.78,0,0,0,0-3c-.08-1,.26-1.3,1.27-1.29H758.5c1.18,0,1.51-.33,1.45-1.48-.1-1.71-.07-3.44,0-5.16,0-.94-.26-1.23-1.21-1.22H741.33c-2.19,0-1.93.28-2-2,0-.72.06-1.45,0-2.16-.12-1.05.34-1.26,1.3-1.26h17.76c1.22,0,1.62-.29,1.54-1.53a49.34,49.34,0,0,1,0-5.16c0-.93-.23-1.22-1.2-1.21h-18c-1.12,0-1.48-.32-1.39-1.41a18.78,18.78,0,0,0,0-3c-.06-.9.26-1.17,1.16-1.16h18c1.18,0,1.5-.32,1.44-1.47-.1-1.75-.07-3.52,0-5.28,0-.92-.3-1.15-1.18-1.14h-18c-1.11,0-1.51-.3-1.41-1.42a19.64,19.64,0,0,0,0-2.87c-.06-.9.27-1.18,1.16-1.17H759a2.26,2.26,0,0,0,1.81-.72q3.78-3.84,7.64-7.63a2.24,2.24,0,0,0,.61-1.72V202.61c0-.9.18-1.3,1.17-1.22a20.31,20.31,0,0,0,3.12,0c1-.08,1.2.32,1.2,1.23v17.89c0,1.07.24,1.49,1.38,1.43,1.75-.09,3.52-.07,5.28,0,1,0,1.21-.32,1.2-1.25V202.57c0-.88.2-1.24,1.12-1.18a25,25,0,0,0,3.24,0c.92-.06,1.14.28,1.13,1.17v17.88c0,1.26.36,1.57,1.54,1.5,1.66-.08,3.33-.08,5,0,1,.05,1.36-.26,1.35-1.34V202.72c0-1.07.28-1.43,1.34-1.33a12.84,12.84,0,0,0,2.63,0c1.19-.12,1.59.23,1.57,1.5-.07,5.88,0,11.76,0,17.64,0,1.1.28,1.47,1.4,1.41a46.33,46.33,0,0,1,5,0c1.09.06,1.43-.28,1.42-1.39,0-5.88,0-11.76-.06-17.64,0-1.25.35-1.65,1.55-1.52a14.55,14.55,0,0,0,2.64,0c1-.09,1.36.21,1.35,1.31-.06,5.92,0,11.84-.06,17.76,0,1.16.3,1.54,1.47,1.48,1.76-.09,3.52-.07,5.28,0,.92,0,1.14-.3,1.13-1.17v-18c0-1,.21-1.46,1.31-1.36a18.78,18.78,0,0,0,3,0c.93-.07,1.14.29,1.13,1.17v17.88c0,1.13.25,1.57,1.45,1.5a49.34,49.34,0,0,1,5.16,0c1,0,1.29-.24,1.29-1.25V202.82c0-1,.18-1.54,1.35-1.42a15,15,0,0,0,3,0c.92-.07,1.22.19,1.22,1.18v18c0,1.15.35,1.42,1.41,1.37a46.33,46.33,0,0,1,5,0c1.11.06,1.35-.36,1.35-1.37V202.81c0-1.05.22-1.54,1.39-1.41a11.5,11.5,0,0,0,2.75,0c1.22-.14,1.45.38,1.44,1.48-.05,5.8,0,11.6,0,17.4,0,1.65,0,1.65,1.63,1.65s3.2-.06,4.8,0c1.07,0,1.43-.26,1.42-1.4-.06-5.92,0-11.84,0-17.76,0-1.07.24-1.52,1.39-1.39a13.77,13.77,0,0,0,2.87,0c1-.09,1.27.34,1.26,1.3v18a3.19,3.19,0,0,0,1.08,2.62c2.27,2.19,4.52,4.42,6.69,6.71a3.31,3.31,0,0,0,2.65,1c5.88,0,11.76,0,17.65,0,1.19,0,1.67.28,1.51,1.54a10.52,10.52,0,0,0,0,2.63c.13,1.13-.38,1.31-1.37,1.31h-17.4c-1.74,0-1.75,0-1.75,1.74s.06,3.29,0,4.92c0,1,.3,1.21,1.22,1.21h18c1,0,1.44.23,1.33,1.32a16.16,16.16,0,0,0,0,3.11c.07.94-.29,1.13-1.16,1.13H878.88c-2,0-1.72-.14-1.73,1.73v4.92c0,1,.32,1.22,1.24,1.22h17.77c1.16,0,1.69.22,1.54,1.5a12.73,12.73,0,0,0,0,2.76c.09,1-.3,1.21-1.22,1.2h-17.4c-2.16,0-1.89-.12-1.9,1.84v4.8c0,1,.33,1.2,1.25,1.19h17.88c1.19,0,1.54.36,1.42,1.49a11.58,11.58,0,0,0,0,2.76c.14,1.17-.37,1.35-1.41,1.35-5.84-.05-11.68,0-17.52,0-1.68,0-1.58-.34-1.59,1.61,0,1.6.06,3.2,0,4.8-.05,1,.25,1.37,1.34,1.36,6,0,12,0,18,0,1,0,1.26.3,1.2,1.23a20.31,20.31,0,0,0,0,3.12c.1,1-.39,1.16-1.25,1.16H882.09c-1.28,0-2.56,0-3.84,0-.79,0-1,.25-1,1v5.76c0,.94.34,1.14,1.2,1.13h18c1,0,1.45.23,1.35,1.32a16.7,16.7,0,0,0,0,3c.08,1-.32,1.22-1.24,1.22H878.92c-1.64,0-1.64,0-1.64,1.6v5c0,.93.3,1.13,1.17,1.12h18c1.13,0,1.47.32,1.37,1.41a20.18,20.18,0,0,0,0,3.11c0,.87-.29,1.07-1.1,1.07h-18c-1.06,0-1.5.22-1.44,1.38.1,1.79.07,3.6,0,5.4,0,.84.27,1.09,1.1,1.08h18c1.17,0,1.55.34,1.43,1.48a14.14,14.14,0,0,0,0,2.76c.08,1-.26,1.22-1.22,1.22h-18a3,3,0,0,0-2.42,1c-2.28,2.36-4.58,4.69-6.94,7a3.18,3.18,0,0,0-1,2.55v17.64c0,1.12-.24,1.63-1.45,1.51a12.64,12.64,0,0,0-2.75,0c-1.11.1-1.33-.36-1.32-1.38V340.65c0-1.06-.22-1.5-1.37-1.44a51.66,51.66,0,0,1-5.28,0c-1,0-1.22.32-1.21,1.24v17.64c0,1.54,0,1.54-1.59,1.55-.84,0-1.68-.06-2.51,0-1.08.1-1.45-.24-1.44-1.38.06-5.84,0-11.68.06-17.52,0-1.21-.29-1.63-1.52-1.55-1.56.11-3.12,0-4.68,0s-1.58,0-1.58,1.53v17.52c0,1-.19,1.47-1.31,1.37a20.18,20.18,0,0,0-3.11,0c-.91.07-1.15-.26-1.14-1.16V340c0-.57-.2-.78-.77-.78H829c-1,0-.84.63-.84,1.23v17.64c0,1.19-.26,1.7-1.51,1.55a11.79,11.79,0,0,0-2.52,0c-1.22.14-1.45-.38-1.44-1.49V340.47c0-1.11-.35-1.35-1.36-1.31-1.72.07-3.44.08-5.16,0-1.05,0-1.37.26-1.36,1.34v17.76c0,1.06-.27,1.43-1.34,1.34a23.2,23.2,0,0,0-3.12,0c-.85,0-1.07-.29-1.06-1.11V340.73c0-1.55,0-1.55-1.57-1.55s-3.36.05-5,0c-1,0-1.23.28-1.22,1.22v17.76c0,1.16-.28,1.59-1.46,1.47a15.29,15.29,0,0,0-2.87,0c-1,.08-1.21-.31-1.2-1.24V340.63c0-1.19-.37-1.5-1.5-1.44-1.76.08-3.52.06-5.28,0-.89,0-1.15.25-1.14,1.16v18c0,1-.23,1.38-1.26,1.29a15.39,15.39,0,0,0-2.88,0c-1,.09-1.38-.25-1.37-1.33V340.67c0-1.16-.31-1.54-1.47-1.47a44.86,44.86,0,0,1-4.92,0c-1.12-.06-1.5.26-1.48,1.44.06,5.8,0,11.6,0,17.4,0,1.58,0,1.59-1.57,1.59-.92,0-1.85-.06-2.76,0s-1.15-.29-1.14-1.17c0-5.48-.09-11,.07-16.44a6,6,0,0,0-2.14-5.08c-2.18-1.94-4.17-4.09-6.21-6.17A2.4,2.4,0,0,0,759,330h-9Zm36.49-12.51a5.29,5.29,0,1,0-10.58-.23h0a5.35,5.35,0,0,0,5.19,5.46,5.25,5.25,0,0,0,5.38-5.13.34.34,0,0,0,0-.1Zm104.84-85.21h-2.52c-2.74,0-2.7,0-2.7,2.77,0,.85.32,1,1,1h6.6c2.71,0,2.69,0,2.66-2.72,0-.76-.18-1.07-1-1C893.93,232.34,892.57,232.29,891.23,232.29ZM853.45,353.58v-2.51c0-2.77,0-2.74-2.76-2.67-.7,0-.88.26-.87.9v6.82c0,2.7,0,2.66,2.73,2.63.79,0,.92-.3.9-1C853.42,356.37,853.45,355,853.45,353.58ZM800.23,208h0v-2.52c0-2.87,0-2.86-2.85-2.73-.56,0-.77.18-.77.75,0,2.95-.11,5.9,0,8.84.09,1.61,1.5.44,2.27.68.44.15,1.35.44,1.31-.72C800.23,210.83,800.23,209.39,800.23,208Zm26.64,0h0v-2.52c0-2.77,0-2.74-2.78-2.69-.71,0-.86.25-.85.9v6.7c0,2.86,0,2.84,2.82,2.74.62,0,.82-.2.8-.83,0-1.47,0-2.91,0-4.34Zm-3.64,145.62v2.52c0,2.81,0,2.8,2.85,2.64.56,0,.78-.18.78-.76,0-3,.15-5.93-.07-8.87-.11-1.54-1.61-.38-2.44-.65-.42-.15-1.2-.29-1.11.69v.72C823.28,351.11,823.28,352.34,823.23,353.58Zm30.18-145.65v-2.64c0-2.63,0-2.59-2.65-2.58-.85,0-1,.31-1,1v6.6c0,2.78,0,2.75,2.8,2.69.74,0,.85-.3.83-.92q.06-2.1.06-4.2ZM796.64,353.59h0v2.51c0,2.71,0,2.68,2.69,2.65.74,0,1-.23.95-1v-6.69c0-2.86,0-2.84-2.88-2.7-.58,0-.75.2-.74.76C796.66,350.68,796.64,352.11,796.64,353.59ZM745.46,236H748c2.74,0,2.71,0,2.67-2.8,0-.74-.21-.95-.95-.94-2.19.05-4.39,0-6.58,0-3,0-2.94,0-2.81,2.92,0,.64.24.83.85.81C742.58,236,744,236,745.46,236Zm0,26.55H748c2.77,0,2.74,0,2.67-2.77,0-.71-.25-.88-.9-.87h-6.69c-2.89,0-2.86,0-2.75,2.85,0,.66.27.8.85.79,1.44,0,2.87,0,4.31,0Zm145.77-3.63h-2.51c-2.76,0-2.73,0-2.68,2.78,0,.71.26.87.9.86h6.82c2.64,0,2.64,0,2.56-2.66a.89.89,0,0,1,0-.23c.07-.6-.24-.76-.78-.75ZM745.49,289.2H748c2.7,0,2.67,0,2.64-2.71,0-.77-.27-.93-1-.92h-6.72c-2.72,0-2.68,0-2.66,2.72,0,.81.31.92,1,.91C742.68,289.18,744.08,289.2,745.49,289.2Zm145.57,0h2.63c2.72,0,2.7,0,2.6-2.75,0-.68-.24-.89-.91-.88h-6.69c-2.86,0-2.84,0-2.69,2.89,0,.57.19.76.75.75,1.48,0,2.87,0,4.31,0Zm-145.6,36.33H743c-2.71,0-2.68,0-2.65,2.69,0,.74.24.95,1,.94H748c2.86,0,2.84,0,2.69-2.88,0-.56-.19-.76-.76-.74-1.51,0-3,0-4.46,0Zm145.62,3.61h2.63c2.64,0,2.6,0,2.59-2.66,0-.85-.34-1-1.06-1h-6.58c-2.85,0-2.83,0-2.66,2.9,0,.59.23.74.78.73,1.45,0,2.87,0,4.3,0Zm0-26.6h2.62c2.68,0,2.65,0,2.61-2.73,0-.75-.24-.95-1-.94h-6.58c-2.92,0-2.9,0-2.75,2.92,0,.56.18.76.75.75,1.5,0,2.89,0,4.33,0ZM773.65,208h0v-2.64c0-2.7,0-2.67-2.7-2.64-.81,0-.89.32-.88,1v6.71c0,2.71,0,2.68,2.69,2.64.8,0,.92-.31.9-1C773.62,210.68,773.65,209.35,773.65,208Zm9.64-.12v2.51c0,2.75,0,2.72,2.8,2.67.67,0,.89-.19.88-.88v-6.71c0-2.88,0-2.86-2.85-2.75-.63,0-.83.22-.82.84C783.31,205,783.29,206.43,783.29,207.87Zm26.65-.12v2.64c0,2.7,0,2.66,2.68,2.66.77,0,.93-.24.91-1v-6.72c0-2.79,0-2.77-2.8-2.67-.65,0-.8.25-.79.85C810,205,809.94,206.35,809.94,207.75Zm30.2.12v-2.52c0-2.71,0-2.68-2.71-2.64-.68,0-.89.2-.88.88v6.83c0,2.7,0,2.66,2.69,2.63.8,0,.92-.31.9-1,0-1.37,0-2.78,0-4.18Zm23.07,0h0v4.32c0,.3-.2.8.38.82h2.76c.49,0,.43-.38.43-.69v-8.88c0-.26.09-.65-.29-.67a25,25,0,0,0-3,0c-.45,0-.28.51-.28.79,0,1.44,0,2.88,0,4.32Zm-49.7,145.81h0V351c0-2.77,0-2.75-2.81-2.64-.66,0-.79.26-.78.85v6.84c0,2.72,0,2.69,2.7,2.65.67,0,.92-.16.89-.86C813.48,356.48,813.51,355.08,813.51,353.68Zm77.55-104.4h2.63c2.69,0,2.67,0,2.6-2.74,0-.68-.22-.89-.9-.88h-6.7c-2.84,0-2.82,0-2.69,2.86,0,.57.17.76.75.75C888.23,249.26,889.62,249.28,891.06,249.28ZM773.64,353.55V351c0-2.69,0-2.66-2.71-2.62-.67,0-.89.17-.88.86v6.83c0,2.73,0,2.71,2.7,2.64.66,0,.91-.18.89-.88C773.61,356.43,773.64,355,773.64,353.55Zm-28.19-51H748c2.7,0,2.67,0,2.68-2.66,0-.76-.17-1-1-1-2.2.06-4.4,0-6.6,0-2.88,0-2.86,0-2.75,2.85,0,.62.18.84.82.82C742.57,302.52,744,302.55,745.45,302.55ZM787,353.46h0v-2.39c0-2.76,0-2.74-2.8-2.67-.69,0-.88.22-.87.89V356c0,2.89,0,2.87,2.86,2.74.64,0,.82-.24.8-.84C786.93,356.42,787,354.94,787,353.46Zm-41.44-37.69H748c2.69,0,2.65,0,2.61-2.7,0-.81-.33-.89-1-.88h-6.72c-2.78,0-2.76,0-2.62,2.85,0,.58.2.75.76.73Zm117.72,37.85v2.51c0,2.72,0,2.69,2.73,2.61.71,0,.87-.26.86-.91v-6.72c0-2.87,0-2.85-2.87-2.7-.6,0-.73.23-.72.77ZM745.45,249.28H748c2.74,0,2.72,0,2.67-2.76,0-.69-.21-.87-.88-.86h-6.71c-2.86,0-2.83,0-2.75,2.82,0,.65.25.8.84.79C742.58,249.26,744,249.28,745.45,249.28Zm145.63,66.5h2.64c2.65,0,2.62,0,2.57-2.68,0-.75-.27-.93-1-.92H888.7c-2.88,0-2.86,0-2.72,2.85,0,.6.21.75.77.74C888.23,315.76,889.65,315.78,891.08,315.78Zm0-43.46c-1.44,0-2.88.05-4.32,0-.81,0-.91.44-.74,1,.28.86-.85,2.43.63,2.56,2.93.27,5.91.08,8.87.08.27,0,.65.07.67-.31a25,25,0,0,0,0-3c0-.43-.51-.27-.8-.27ZM745.44,275.9H748c2.77,0,2.74,0,2.66-2.8,0-.65-.22-.8-.83-.79H743c-2.81,0-2.78,0-2.67,2.78,0,.65.23.83.83.81,1.46,0,2.9,0,4.34,0Zm91.1,77.56v2.64c0,2.73,0,2.7,2.7,2.65.79,0,.91-.32.89-1V351c0-2.7,0-2.67-2.71-2.63-.66,0-.91.18-.88.87.06,1.41,0,2.8,0,4.19ZM755.79,236h1.44c2.88,0,2.86,0,2.71-2.92,0-.62-.23-.83-.85-.82h-4.55c-2.91,0-2.89,0-2.74,3,0,.57.18.78.76.76C753.64,236,754.72,236,755.79,236Zm125,0h1.32c2.92,0,2.9,0,2.78-2.93,0-.63-.22-.82-.83-.81h-4.67c-2.72,0-2.72,0-2.62,2.74v.24c-.06.59.24.76.79.75h3.23Zm-57.46-17.77h0v1.55c0,2.75,0,2.73,2.81,2.56.6,0,.84-.22.83-.85V217c0-2.86,0-2.83-2.82-2.75-.61,0-.84.17-.81.81,0,1.06-.06,2.13-.06,3.21Zm30.17,0h0v-1.43c0-2.75,0-2.73-2.8-2.63-.6,0-.84.17-.83.81v6.45c0,.3-.1.76.32.79a21.45,21.45,0,0,0,3,0c.43,0,.31-.49.31-.78,0-1,0-2.12,0-3.19Zm-97.71,44.3h3.35c.29,0,.76.12.78-.32q.08-1.5,0-3c0-.36-.41-.31-.68-.31h-6.7c-.26,0-.63-.06-.64.34v3c0,.39.41.29.66.29Zm.08,40h3.35c1,0,.85-.67.72-1.13-.24-.84.82-2.31-.65-2.47a59.89,59.89,0,0,0-6.83-.07c-.36,0-.54.11-.6.54-.43,2.79-.17,3.12,2.57,3.12Zm125,0h3.34c.75,0,.83-.42.69-.89-.27-.92.76-2.48-.61-2.69a51.3,51.3,0,0,0-6.79-.11c-.65,0-.76.4-.67.85.2.93-.54,2,.47,2.81.12.1.39,0,.58,0Zm0,23h-1.43c-2.73,0-2.71,0-2.61,2.76,0,.67.23.91.9.89,1.51-.05,3,0,4.54,0,2.85,0,2.83,0,2.69-2.88,0-.56-.16-.78-.74-.76-1.2,0-2.31,0-3.43,0Zm.06-36.32h3.35c.4,0,.69-.05.67-.57v-2.51c0-.41-.19-.55-.58-.55-2.27,0-4.56-.15-6.81,0-1.51.14-.45,1.54-.67,2.33-.13.44-.36,1.3.7,1.24h3.34Zm-125,39.94h1.35c2.92,0,2.9,0,2.7-2.9,0-.59-.25-.74-.79-.73h-4.66c-2.86,0-2.84,0-2.68,2.88,0,.58.21.77.77.75,1.08,0,2.15,0,3.23,0Zm-.06-39.94h3.35c.29,0,.76.12.78-.32q.07-1.5,0-3c0-.38-.4-.32-.67-.32h-6.69c-.26,0-.64-.07-.66.32v3c0,.39.41.29.67.29,1,0,2.07,0,3.14,0Zm27.55-71v1.45c0,2.93,0,2.91,2.93,2.68.59,0,.75-.27.74-.8V217c0-3,0-2.94-2.94-2.77-.57,0-.76.21-.74.78,0,1.05-.07,2.14-.07,3.22Zm17,.08v-1.43c0-2.75,0-2.72-2.79-2.67-.72,0-.85.27-.84.9v5.13c0,2.11,0,2,2.17,2.12,1.11,0,1.61-.22,1.47-1.42a23.06,23.06,0,0,1-.15-2.63Zm80.46,44.25h1.43c2.77,0,2.74,0,2.7-2.75,0-.8-.31-.91-1-.9-1.51,0-3,0-4.54,0-2.81,0-2.79,0-2.6,2.88,0,.57.21.77.77.75l3.12,0ZM827,343.21h0V340c0-.47-.09-.85-.64-.74-1,.2-2.11-.53-3,.41-.06.06,0,.23,0,.35v6.47c0,.55.16.74.75.77,2.88.15,2.88.17,2.88-2.71Zm26.55,0v-1.44c0-2.69,0-2.67-2.74-2.59-.67,0-.9.2-.89.89,0,1.87.08,3.76,0,5.63-.06,1.16.2,1.6,1.47,1.53,2.16-.12,2.17,0,2.17-2.22Zm-56.82-.08h0v3.35c0,.73.4.85.9.7.89-.28,2.43.78,2.63-.57a48.52,48.52,0,0,0,.09-6.82c0-.71-.51-.67-.91-.58-.9.18-2-.55-2.69.45-.1.13,0,.39,0,.59Zm-40.86-97.45h-1.44c-2.73,0-2.7,0-2.65,2.77,0,.72.26.86.91.84h4.55c2.79,0,2.77,0,2.67-2.79,0-.6-.16-.86-.81-.83Zm110.9-27.48v-1.32c0-2.77,0-2.75-2.8-2.67-.63,0-.81.2-.79.82v4.68c0,2.86,0,2.85,2.84,2.64.58,0,.76-.24.75-.8C866.77,220.43,866.79,219.31,866.79,218.2Zm-26.65.1v-1.44c0-2.7,0-2.66-2.69-2.65-.79,0-.92.26-.9.95V220c0,2.38,0,2.35,2.38,2.38.89,0,1.33-.16,1.23-1.17a25.16,25.16,0,0,1,0-2.88Zm40.67,54h-1.58c-2.59,0-2.57,0-2.55,2.57,0,.75.18,1.07,1,1,1.52-.06,3,0,4.56,0,2.61,0,2.59,0,2.58-2.64,0-.7-.13-1-.92-1a21.15,21.15,0,0,1-3.09.09Zm-67.29-54v-1.44c0-2.77,0-2.74-2.8-2.65-.64,0-.81.22-.79.83V220c0,2.4,0,2.36,2.38,2.39.88,0,1.33-.15,1.22-1.17A25.16,25.16,0,0,1,813.52,218.3Zm-57.65,54h-3.36c-.5,0-.81.14-.68.67.24,1-.59,2.09.47,2.91h7c.68,0,.74-.42.65-.86-.18-.9.54-2-.44-2.71-.13-.1-.39,0-.59,0Zm17.77-54.13v-1.32c0-2.77,0-2.74-2.79-2.66-.66,0-.81.22-.8.83v4.68c0,2.86,0,2.85,2.84,2.62.56,0,.76-.22.74-.79,0-1.1,0-2.22,0-3.34Zm107.18,27.51h-1.43c-2.81,0-2.78,0-2.68,2.78,0,.74.31.84.93.83h4.67c2.53,0,2.5,0,2.53-2.55,0-.8-.14-1.15-1-1.07S881.82,245.68,880.82,245.68Zm-.14,70.1h3.48c.93,0,.75-.66.63-1-.27-.84.84-2.29-.61-2.46a57.67,57.67,0,0,0-6.83-.07c-.23,0-.56,0-.57.28a25,25,0,0,0,0,3c0,.43.49.3.79.3C878.61,315.79,879.65,315.78,880.68,315.78ZM756,312.2h-1.44c-2.88,0-2.86,0-2.72,2.85,0,.6.22.74.77.74h6.6c.3,0,.71.1.72-.39v-2.76c0-.47-.38-.43-.7-.43Zm14.1,30.94v3.35c0,.71.35.88.87.72.89-.28,2.43.77,2.63-.56a25,25,0,0,0,0-6.8c-.2-1.44-1.73-.3-2.61-.6-.45-.15-1-.1-.89.66a3.84,3.84,0,0,1,0,.48c0,.92,0,1.83,0,2.75Zm39.88.12v1.31c0,2.76,0,2.74,2.78,2.67.6,0,.83-.15.81-.8v-4.66c0-2.7,0-2.69-2.75-2.58-.6,0-.87.18-.84.82,0,1.08,0,2.16,0,3.24Zm26.62-.05v1.31c0,2.87,0,2.87,2.84,2.7h.12c.45.06.64-.14.63-.61v-6.7c0-.42-.1-.63-.58-.69-2.78-.4-3-.22-3,2.55Zm-53.27.05v1.32c0,2.83,0,2.81,2.91,2.66.57,0,.77-.2.76-.76v-4.54c0-2.87,0-2.85-2.84-2.73-.61,0-.85.19-.83.83,0,1.07,0,2.15,0,3.22Zm83.49-.09v-3.23c0-.26.09-.65-.3-.67h-3c-.4,0-.28.42-.28.67v6.58c0,.25-.12.65.28.67h3c.4,0,.29-.4.29-.66,0-1.13,0-2.24,0-3.36Z"/><path class="cls-3" d="M786.39,317.5a5.27,5.27,0,0,1-5.29,5.23H781a5.35,5.35,0,0,1-5.19-5.46,5.29,5.29,0,0,1,10.58.23Z"/><path class="cls-4" d="M891.23,232.29h4.08c.82,0,1,.27,1,1,0,2.72.05,2.72-2.66,2.72h-6.6c-.72,0-1-.12-1-1,0-2.77,0-2.77,2.7-2.77Z"/><path class="cls-5" d="M853.45,353.58v4.19c0,.68-.11,1-.9,1-2.73,0-2.73.07-2.73-2.63v-6.82c0-.64.17-.88.87-.9,2.76-.07,2.76-.1,2.76,2.67Z"/><path class="cls-6" d="M800.23,208v4.3c0,1.16-.87.87-1.31.72-.77-.24-2.18.93-2.27-.68-.16-2.94,0-5.89,0-8.84,0-.57.21-.72.77-.75,2.85-.13,2.85-.14,2.85,2.73V208Z"/><path class="cls-6" d="M826.89,207.92v4.3c0,.63-.18.81-.8.83-2.83.1-2.83.12-2.82-2.74v-6.7c0-.65.14-.89.85-.9,2.78-.05,2.78-.08,2.78,2.69v2.52Z"/><path class="cls-6" d="M823.28,353.58v-4.43c-.09-1,.69-.84,1.11-.69.83.27,2.33-.89,2.44.65.22,2.94,0,5.92.07,8.87,0,.58-.22.73-.78.76-2.85.16-2.84.17-2.85-2.64A23.54,23.54,0,0,1,823.28,353.58Z"/><path class="cls-5" d="M853.45,207.93v4.2c0,.62-.09.91-.83.92-2.8.06-2.8.09-2.8-2.69v-6.6c0-.74.13-1,1-1,2.65,0,2.65-.05,2.65,2.58Z"/><path class="cls-6" d="M796.64,353.59v-4.43c0-.56.16-.73.74-.76,2.88-.14,2.88-.16,2.88,2.7v6.69c0,.73-.21.95-1,1-2.69,0-2.69.06-2.69-2.65v-2.51Z"/><path class="cls-7" d="M745.46,236h-4.31c-.61,0-.82-.17-.85-.81-.13-2.92-.15-2.92,2.81-2.92h6.58c.74,0,.95.2.95.94,0,2.8.07,2.8-2.67,2.8Z"/><path class="cls-6" d="M745.46,262.57h-4.31c-.58,0-.82-.13-.85-.79-.11-2.85-.14-2.85,2.75-2.85h6.69c.65,0,.89.16.9.87.07,2.77.1,2.77-2.67,2.77Z"/><path class="cls-8" d="M891.23,258.94h4.31c.54,0,.85.15.78.75a.89.89,0,0,0,0,.23c.08,2.66.08,2.66-2.56,2.66h-6.82c-.64,0-.88-.15-.9-.86,0-2.78-.08-2.78,2.68-2.78Z"/><path class="cls-5" d="M745.49,289.2h-4.2c-.68,0-1-.1-1-.91,0-2.72-.06-2.72,2.66-2.72h6.72c.7,0,1,.15,1,.92,0,2.71.06,2.71-2.64,2.71h-2.54Z"/><path class="cls-8" d="M891.06,289.21h-4.31c-.56,0-.73-.18-.75-.75-.15-2.89-.17-2.89,2.69-2.89h6.69c.67,0,.89.2.91.88.1,2.75.12,2.75-2.6,2.75Z"/><path class="cls-6" d="M745.46,325.54h4.42c.57,0,.73.18.76.74.15,2.88.17,2.88-2.69,2.88h-6.69c-.72,0-1-.2-1-.94,0-2.7-.06-2.7,2.65-2.69Z"/><path class="cls-8" d="M891.08,329.15h-4.3c-.55,0-.75-.14-.78-.73-.17-2.9-.19-2.89,2.66-2.9h6.58c.72,0,1,.12,1.06,1,0,2.66,0,2.66-2.59,2.66Z"/><path class="cls-9" d="M891.06,302.55h-4.31c-.57,0-.72-.19-.75-.75-.15-2.92-.17-2.92,2.75-2.92h6.58c.72,0,.95.19,1,.94,0,2.73.07,2.73-2.61,2.73Z"/><path class="cls-10" d="M773.65,208v4.07c0,.68-.1,1-.9,1-2.69,0-2.69.07-2.69-2.64v-6.71c0-.67.07-1,.88-1,2.7,0,2.7-.06,2.7,2.64V208Z"/><path class="cls-10" d="M783.29,207.87v-4.32c0-.62.19-.81.82-.84,2.86-.11,2.85-.13,2.85,2.75v6.71c0,.69-.21.86-.88.88-2.8,0-2.8.08-2.8-2.67Z"/><path class="cls-11" d="M809.94,207.75v-4.19c0-.6.14-.83.79-.85,2.8-.1,2.8-.12,2.8,2.67v6.72c0,.71-.14,1-.91,1-2.68,0-2.68,0-2.68-2.66Z"/><path class="cls-10" d="M840.14,207.87v4.19c0,.68-.1,1-.9,1-2.69,0-2.69.07-2.69-2.63V203.6c0-.68.2-.86.88-.88,2.71,0,2.71-.07,2.71,2.64Z"/><path class="cls-10" d="M863.23,207.88v-4.32c0-.28-.17-.76.28-.79a25,25,0,0,1,3,0c.38,0,.29.41.29.67v8.88c0,.31.06.69-.43.69h-2.76c-.58,0-.38-.52-.38-.82v-4.32Z"/><path class="cls-11" d="M813.51,353.68v4.2c0,.7-.22.85-.89.86-2.7,0-2.7.07-2.7-2.65v-6.84c0-.59.12-.82.78-.85,2.81-.11,2.81-.13,2.81,2.64Z"/><path class="cls-12" d="M891.06,249.28h-4.31c-.58,0-.73-.18-.75-.75-.13-2.86-.15-2.86,2.69-2.86h6.7c.68,0,.88.2.9.88.07,2.74.09,2.74-2.6,2.74Z"/><path class="cls-10" d="M773.64,353.55v4.31c0,.7-.23.87-.89.88-2.7.07-2.7.09-2.7-2.64v-6.83c0-.69.21-.86.88-.86,2.71,0,2.71-.07,2.71,2.62Z"/><path class="cls-11" d="M745.45,302.55h-4.32c-.64,0-.8-.2-.82-.82-.11-2.85-.13-2.85,2.75-2.85h6.6c.81,0,1,.26,1,1,0,2.66,0,2.66-2.68,2.66Z"/><path class="cls-10" d="M787,353.46v4.44c0,.6-.16.81-.8.84-2.86.13-2.86.15-2.86-2.74v-6.71c0-.67.18-.87.87-.89,2.81-.07,2.8-.09,2.8,2.67v2.39Z"/><path class="cls-10" d="M745.51,315.77h-4.44c-.56,0-.74-.15-.76-.73-.14-2.85-.16-2.85,2.62-2.85h6.72c.66,0,1,.07,1,.88,0,2.71.08,2.7-2.61,2.7Z"/><path class="cls-10" d="M863.23,353.62v-4.44c0-.54.12-.74.72-.77,2.87-.15,2.87-.17,2.87,2.7v6.72c0,.65-.15.89-.86.91-2.73.08-2.73.11-2.73-2.61Z"/><path class="cls-13" d="M745.45,249.28h-4.31c-.59,0-.82-.14-.84-.79-.07-2.81-.07-2.81,2.75-2.81h6.71c.67,0,.87.17.88.86.05,2.76.07,2.76-2.67,2.76Z"/><path class="cls-9" d="M891.08,315.78h-4.31c-.56,0-.74-.14-.77-.74-.14-2.85-.16-2.85,2.72-2.85h6.59c.71,0,1,.17,1,.92.05,2.68.08,2.68-2.57,2.68Z"/><path class="cls-9" d="M891.1,272.32h4.32c.29,0,.78-.16.8.27a25,25,0,0,1,0,3c0,.38-.4.31-.67.31-3,0-5.94.19-8.87-.08-1.48-.13-.35-1.7-.63-2.56-.17-.52-.07-1,.74-1C888.23,272.37,889.66,272.32,891.1,272.32Z"/><path class="cls-11" d="M745.46,275.9h-4.32c-.6,0-.81-.16-.83-.81-.11-2.78-.14-2.78,2.67-2.78h6.83c.61,0,.81.14.83.79.08,2.8.11,2.8-2.66,2.8Z"/><path class="cls-10" d="M836.56,353.46v-4.19c0-.69.22-.86.88-.87,2.71,0,2.71-.07,2.71,2.63v6.72c0,.68-.1,1-.89,1-2.7.05-2.7.08-2.7-2.65Z"/><path class="cls-4" d="M755.79,236h-3.23c-.58,0-.73-.19-.76-.76-.15-3-.17-3,2.74-3h4.55c.62,0,.82.2.85.82.15,2.92.17,2.92-2.71,2.92Z"/><path class="cls-4" d="M880.74,236h-3.23c-.55,0-.85-.16-.79-.75V235c-.1-2.74-.1-2.74,2.62-2.74H884c.61,0,.8.18.83.81C885,236,885,236,882.06,236h-1.32Z"/><path class="cls-8" d="M823.28,218.24V215c0-.64.2-.79.81-.81,2.82-.08,2.82-.11,2.82,2.75v4.54c0,.63-.23.81-.83.85-2.81.17-2.81.19-2.81-2.56v-1.55Z"/><path class="cls-14" d="M853.45,218.27v3.23c0,.29.12.76-.31.78a21.45,21.45,0,0,1-3,0c-.42,0-.32-.49-.32-.79V215c0-.64.23-.79.83-.81,2.8-.1,2.8-.12,2.8,2.63v1.41Z"/><path class="cls-14" d="M755.74,262.57h-3.23c-.25,0-.65.1-.66-.29v-3c0-.4.38-.34.64-.34h6.74c.27,0,.66,0,.68.31q.08,1.5,0,3c0,.44-.49.32-.78.32Z"/><path class="cls-15" d="M755.82,302.55h-1.44c-2.74,0-3-.33-2.57-3.12.06-.43.24-.54.6-.54a59.89,59.89,0,0,1,6.83.07c1.47.16.41,1.63.65,2.47.13.46.24,1.17-.72,1.13S756.94,302.55,755.82,302.55Z"/><path class="cls-15" d="M880.77,302.55h-3c-.19,0-.46.08-.58,0-1-.78-.27-1.88-.47-2.81-.09-.45,0-.85.67-.85a51.3,51.3,0,0,1,6.79.11c1.37.21.34,1.77.61,2.69.14.47.06.93-.69.89C883,302.51,881.88,302.55,880.77,302.55Z"/><path class="cls-8" d="M880.74,325.53h3.35c.58,0,.72.2.74.76.14,2.88.16,2.87-2.69,2.88H877.6c-.67,0-.87-.22-.9-.89-.1-2.76-.12-2.76,2.61-2.76Z"/><path class="cls-14" d="M880.8,289.21h-3.34c-1.06.06-.83-.8-.7-1.24.22-.79-.84-2.19.67-2.33,2.25-.2,4.54,0,6.81,0,.39,0,.59.14.58.55v2.51c0,.52-.27.57-.67.57Z"/><path class="cls-14" d="M755.8,329.15h-3.23c-.56,0-.73-.17-.77-.75-.16-2.88-.18-2.88,2.68-2.88h4.66c.54,0,.75.14.79.73.2,2.9.22,2.9-2.7,2.9Z"/><path class="cls-14" d="M755.74,289.21h-3.22c-.26,0-.66.1-.67-.29v-3c0-.39.4-.32.66-.32h6.72c.27,0,.66-.06.67.32q.08,1.5,0,3c0,.44-.49.31-.78.32Z"/><path class="cls-15" d="M783.29,218.23V215c0-.57.17-.74.74-.78C787,214,787,214,787,217v4.56c0,.53-.15.75-.74.8-2.93.23-2.93.25-2.93-2.68Z"/><path class="cls-14" d="M800.23,218.31a23.08,23.08,0,0,0,0,2.63c.14,1.2-.36,1.46-1.47,1.42-2.16-.07-2.17,0-2.17-2.12v-5.13c0-.63.12-.89.84-.9,2.79-.05,2.79-.08,2.79,2.67Z"/><path class="cls-14" d="M880.71,262.56h-3.23c-.56,0-.74-.18-.77-.75-.19-2.88-.21-2.88,2.6-2.88h4.54c.68,0,1,.1,1,.9,0,2.75.07,2.75-2.7,2.75h-1.43Z"/><path class="cls-15" d="M826.9,343.21v1.32c0,2.88,0,2.86-2.88,2.71-.59,0-.75-.22-.75-.77v-6.82c.87-.94,2-.21,3-.41.55-.11.65.27.64.74v3.23Z"/><path class="cls-15" d="M853.45,343.24V345c0,2.19,0,2.1-2.17,2.22-1.27.07-1.53-.37-1.47-1.53.09-1.87,0-3.76,0-5.63,0-.69.22-.87.89-.89,2.74-.08,2.74-.1,2.74,2.59Z"/><path class="cls-6" d="M796.63,343.16v-2.88c0-.2-.08-.46,0-.59.73-1,1.79-.27,2.69-.45.4-.09.91-.13.91.58a48.52,48.52,0,0,1-.09,6.82c-.2,1.35-1.74.29-2.63.57-.5.15-.93,0-.9-.7v-3.35Z"/><path class="cls-12" d="M755.89,245.68h3.23c.65,0,.79.23.81.83.1,2.79.12,2.79-2.67,2.79h-4.55c-.65,0-.89-.12-.91-.84,0-2.77-.08-2.77,2.65-2.77Z"/><path class="cls-15" d="M866.79,218.2v3.35c0,.56-.17.75-.75.8-2.84.21-2.84.22-2.84-2.64V215c0-.62.16-.8.79-.82,2.8-.08,2.8-.1,2.8,2.67Z"/><path class="cls-15" d="M840.14,218.3a27.67,27.67,0,0,0,0,2.88c.1,1-.34,1.18-1.23,1.17-2.38,0-2.38,0-2.38-2.38v-4.81c0-.69.11-.95.9-.95,2.69,0,2.69-.05,2.69,2.65Z"/><path class="cls-9" d="M880.81,272.32c1,0,2.08.06,3.11,0,.79-.05.91.26.92,1,0,2.64,0,2.64-2.58,2.64H877.7c-.82,0-1-.28-1-1,0-2.57,0-2.57,2.55-2.57Z"/><path class="cls-15" d="M813.52,218.3a27.67,27.67,0,0,0,0,2.88c.11,1-.34,1.18-1.22,1.17-2.38,0-2.38,0-2.38-2.39V215c0-.61.15-.81.79-.83,2.8-.09,2.8-.12,2.8,2.65Z"/><path class="cls-9" d="M755.87,272.32h3c.2,0,.46-.08.59,0,1,.75.26,1.81.44,2.71.09.44,0,.87-.65.86h-7c-1.06-.82-.23-1.95-.47-2.91-.13-.53.18-.68.68-.67C753.63,272.34,754.75,272.32,755.87,272.32Z"/><path class="cls-15" d="M773.64,218.19v3.36c0,.57-.18.74-.74.79-2.85.23-2.84.24-2.84-2.62V215c0-.61.14-.81.8-.83,2.8-.08,2.79-.11,2.79,2.66Z"/><path class="cls-12" d="M880.82,245.68c1,0,2,.06,3,0s1,.27,1,1.07c0,2.55,0,2.55-2.53,2.55h-4.67c-.62,0-.91-.09-.93-.83-.1-2.78-.13-2.78,2.68-2.78Z"/><path class="cls-15" d="M880.68,315.78h-3.11c-.3,0-.77.13-.79-.3a25,25,0,0,1,0-3c0-.29.34-.28.57-.28a57.67,57.67,0,0,1,6.83.07c1.45.17.34,1.62.61,2.46.12.39.3,1.09-.63,1Z"/><path class="cls-15" d="M756,312.2h3.27c.32,0,.69,0,.7.43v2.76c0,.49-.42.39-.72.39h-6.6c-.55,0-.74-.14-.77-.74-.14-2.86-.16-2.85,2.72-2.85Z"/><path class="cls-12" d="M770.07,343.14v-2.75a3.84,3.84,0,0,0,0-.48c-.1-.76.44-.81.89-.66.88.3,2.41-.84,2.61.6a25,25,0,0,1,0,6.8c-.2,1.33-1.74.28-2.63.56-.52.16-.9,0-.87-.72C770.1,345.38,770.06,344.26,770.07,343.14Z"/><path class="cls-12" d="M809.94,343.26V340c0-.64.24-.79.84-.82,2.75-.11,2.75-.12,2.75,2.58v4.66c0,.65-.21.78-.81.8-2.78.07-2.78.09-2.78-2.67Z"/><path class="cls-12" d="M836.56,343.21v-1.44c0-2.77.23-2.95,3-2.55.48.06.58.27.58.69v6.7c0,.47-.18.67-.63.61h-.12c-2.84.17-2.84.17-2.84-2.7Z"/><path class="cls-12" d="M783.29,343.26V340c0-.64.22-.8.83-.83,2.84-.12,2.84-.14,2.84,2.73v4.54c0,.56-.19.73-.76.76-2.91.15-2.91.17-2.91-2.66Z"/><path class="cls-12" d="M866.78,343.17v3.35c0,.26.11.65-.29.66-1,0-2,.05-3,0-.4,0-.28-.42-.28-.67v-6.58c0-.25-.12-.65.28-.67h3c.39,0,.3.41.3.67C866.79,341,866.78,342.09,866.78,343.17Z"/><path d="M472.7,198.34c.62.58,1.44,1,1.44,1.43a3.31,3.31,0,0,1-.85,2.2,19.39,19.39,0,0,0-6.35,10.68,18.55,18.55,0,0,0,4.82,17c.39.43,1,.73,1.21,1.22a24.78,24.78,0,0,1,.82,3.13c-1-.18-2.31,0-3-.6a22.22,22.22,0,0,1-.31-33.48C471.12,199.37,471.86,199,472.7,198.34Z"/><path d="M508,216.6a22.07,22.07,0,0,1-7.49,16.53c-.76.67-2.23.53-3.38.76.32-1,.32-2.39,1-3.07,8.56-8.61,8.57-20,0-28.48-.69-.69-.73-2-1.07-3.06,1.14.2,2.61,0,3.37.68A21.89,21.89,0,0,1,508,216.6Z"/><path d="M485.36,211.41a5.16,5.16,0,1,1-5,5.21A5.22,5.22,0,0,1,485.36,211.41Z"/><path d="M471.65,216.71a13.18,13.18,0,0,1,4.53-10.2c.67-.57,2-.41,3-.59-.18,1-.05,2.23-.61,2.88-4.63,5.27-4.62,10.24.06,15.59.54.63.49,1.77.71,2.68-1-.07-2.33.24-3-.28A13.17,13.17,0,0,1,471.65,216.71Z"/><path d="M499.32,216.53a13.21,13.21,0,0,1-4.6,10.16c-.66.56-2,.35-3,.49.22-1,.13-2.22.71-2.87,4.52-5.12,4.55-10.38.07-15.4-.6-.67-.56-1.91-.82-2.88,1.07.17,2.47,0,3.17.58A13.07,13.07,0,0,1,499.32,216.53Z"/><path class="cls-16" d="M129.36,305.68a2.83,2.83,0,0,0,1.21,1.5l-.84-.06c-1.32-.13-2.64-.28-3.94-.47C127,306.31,128.17,306,129.36,305.68Z"/><path d="M143.54,270.46a1.53,1.53,0,0,0,.61.21,4.94,4.94,0,0,0,1.6-.38c5.16-3.06,10.27-6.21,15.45-9.23,4.39-2.56,8.84-5,13.29-7.48,3.76-2.07,7.53-4.12,11.35-6.07,5.46-2.78,10.92-5.6,16.48-8.17,6.76-3.12,13.63-6,20.44-9a5.06,5.06,0,0,1,3.43-.36,37,37,0,0,0,9.26.93c1.41,0,1.41,0,1.55,1.44a2.11,2.11,0,0,0,0,.26c.41,2.08-.21,3.33-2.29,4.39a28.1,28.1,0,0,0-11.3,10c-2.49,4-3.27,8.1-1,12.45a14.11,14.11,0,0,0,5.84,5.69A32.24,32.24,0,0,0,241.79,269a56.74,56.74,0,0,0,20.41-2.1,48.46,48.46,0,0,0,17.42-8.62,23,23,0,0,0,6.9-8.33c2.34-5.09,1.52-10.58-3.69-14.63-4.26-3.32-9.49-4.53-14.87-5.37a20,20,0,0,0-3.79-.13,1.8,1.8,0,0,1-1.93-1.38,8.53,8.53,0,0,0-1.18-2.16c-.62-.77-.38-1,.13-1.33,2.18-1.3,4.34-2.63,6.54-3.89a3.62,3.62,0,0,1,1.63-.38,130.73,130.73,0,0,1,25.53,1.82,96.85,96.85,0,0,1,20.44,5.78,56.07,56.07,0,0,1,14,7.9,27.87,27.87,0,0,1,3.56,3.48,4.87,4.87,0,0,1,1,2.23,36.37,36.37,0,0,1-2.06,19.74,46.11,46.11,0,0,1-9.5,15.16,62.23,62.23,0,0,1-16.52,12.86,4.85,4.85,0,0,0-.84.74l.49.46a7.71,7.71,0,0,0,1.55-.44,62,62,0,0,0,19.12-16.18,45.14,45.14,0,0,0,8.29-16.57,41.29,41.29,0,0,0,1.26-11.72,1.66,1.66,0,0,1,.18-.53,3,3,0,0,1,.3.4,8.84,8.84,0,0,1,.38.83A55.27,55.27,0,0,1,340.71,265a65.24,65.24,0,0,1-4,25.92,70.86,70.86,0,0,1-10.35,18.95,6.22,6.22,0,0,0-.58,1.25l.4.45a4.65,4.65,0,0,0,1-.74,72.54,72.54,0,0,0,14.21-33.36,61.56,61.56,0,0,0,.5-13.5,55,55,0,0,0-3.68-16.47,51.18,51.18,0,0,0-3.65-7.7c-1.69-2.82-4.36-4.76-7.07-6.57A69.54,69.54,0,0,0,312,225.68a111.91,111.91,0,0,0-23.12-5.32,154.2,154.2,0,0,0-17.58-1,4.73,4.73,0,0,1-.53,0c-.2,0-.39-.1-.59-.15a2.21,2.21,0,0,1,.3-.52c.78-.83,1.61-1.61,2.37-2.46a17.23,17.23,0,0,0,3.59-6.07,11.35,11.35,0,0,0-4-12.81,9.1,9.1,0,0,1-2.36-2.58,12.38,12.38,0,0,0-5-4.4A30,30,0,0,0,252.64,187a53.1,53.1,0,0,0-23.06,3.61,37.16,37.16,0,0,0-13.32,8.47,15.13,15.13,0,0,0-4.45,7.58c-.2,1.06-.16,2.17-.26,3.26a8.52,8.52,0,0,1-.32,2,11.42,11.42,0,0,0,3.34,12.75,20.6,20.6,0,0,0,5.7,3.47c.53.22,1.06.43,1.57.66a2.06,2.06,0,0,1,.4.33,2.47,2.47,0,0,1-.42.3c-1.09.45-2.19.87-3.27,1.35-7.11,3.18-14.33,6.17-21.3,9.64C188,245,179,249.86,169.93,254.81c-6.91,3.78-13.65,7.88-20.45,11.86-1.85,1.08-3.68,2.22-5.5,3.34A2.34,2.34,0,0,0,143.54,270.46Zm126.58-67.53a13.09,13.09,0,0,1-2.35,4.48,7.26,7.26,0,0,1-3.29,3.07c-.1,0-.17.2-.26.29a16.56,16.56,0,0,1-2,2c-1.32.92-2.73,1.73-4.13,2.53a47,47,0,0,1-14.82,5.06,1.17,1.17,0,0,1-.69-.13,3.43,3.43,0,0,1-1.66.41,4,4,0,0,1-.79-.08,2,2,0,0,1-1.15.44c-1.54-.12-3,.35-4.52.3-1,0-2.06-.26-3.09-.35-1.39-.11-2.78-.19-4.17-.26-1.78-.09-3.3-1.08-5-1.46a13.81,13.81,0,0,1-6.93-4.35,8.47,8.47,0,0,1-2.22-7.28c0-.26.29-.49.43-.74a3.69,3.69,0,0,0,.3-.71,12.2,12.2,0,0,1,.59-2.09c.49-1,1.15-1.84,1.74-2.76.07-.11.11-.26.21-.3.91-.47,1.86-.87,2.2-2,0-.13.26-.22.4-.32a20.43,20.43,0,0,0,2.69-2,12.24,12.24,0,0,1,3.68-2.42q3.27-1.53,6.58-2.92c1.19-.5,2.38-1.13,3.76-.82a.59.59,0,0,0,.34-.06c.11-.87.89-.65,1.36-.77a51.16,51.16,0,0,1,12.4-1.46,36.49,36.49,0,0,1,10.55,1.57,19.09,19.09,0,0,1,7.37,4.11A8.91,8.91,0,0,1,270.12,202.93ZM236.69,239c-.16,1.07-.46,2.13-.53,3.21a16.49,16.49,0,0,1-1.41,6.19c-.32.68-.57,1.38-.88,2.06a.8.8,0,0,0,.41,1.2,34.78,34.78,0,0,0,5.25,2.05,30.15,30.15,0,0,0,9.8.56,61.58,61.58,0,0,0,7.34-1.38c1.05-.23,2-.87,3.07-1.14a2.82,2.82,0,0,0,1.62-1c.56-.67.94-.81,1.53-.54l.1-.09c.2-.15.38-.29.57-.41,0-.21.2-.37.67-.72s1.14-.8,1.72-1.2,1-.73,1.57-1.08c.17-.11.38-.28.53-.25l.12.05a4.28,4.28,0,0,1,.4-.45,1.33,1.33,0,0,1,.37-.7,8.77,8.77,0,0,0,2.24-4.9,2.64,2.64,0,0,0-1-2.25,29.09,29.09,0,0,1-5-5.62,10.25,10.25,0,0,1-.62-.85c-.21-.32-.21-.59.29-.59h.65l0-.2c2.57.49,5.18.84,7.7,1.5,3.68.95,7.34,2,9.84,5.25.7.89,1.52,1.7,2.14,2.64,1.62,2.48,1.21,5.21.41,7.75a16.15,16.15,0,0,1-2.79,4.85c-1.18,1.5-2.74,2.69-4.06,4.08s-3.15,2-4.61,3.15c-1.08.89-2.58,1.26-3.78,2a34.64,34.64,0,0,1-3.94,1.66,33.74,33.74,0,0,1-4.46,1.47,53.83,53.83,0,0,1-13.8,2.28,47.21,47.21,0,0,1-10.69-.69,26.85,26.85,0,0,1-10-4,27.67,27.67,0,0,1-2.18-2.14c-1.63-1.3-2-3.11-2.64-4.82s-.05-3.69.57-5.44c1.27-3.58,3.9-6.16,6.67-8.62a35.78,35.78,0,0,1,5.69-3.7,6.08,6.08,0,0,1,1.06-.39A9.11,9.11,0,0,1,236.69,239Zm1.17,3.82a33.48,33.48,0,0,0,.6-6.86c-.06-1.35,0-2.7,0-4.05,0-.7.39-.94,1-1a10.15,10.15,0,0,0,1.56,0c1.32-.25,2.6-.66,3.92-.87a14.38,14.38,0,0,1,2.17.06,3.36,3.36,0,0,0,1.06-.26,10.14,10.14,0,0,1,1.91-.79,1,1,0,0,1,.64.18,7.38,7.38,0,0,1,.84-.22,1.56,1.56,0,0,1,.75-.45q2.85-.95,5.69-2c1-.37,1.25-.29,1.8.63.91,1.54,1.81,3.1,2.8,4.59s2.22,3.15,3.38,4.68a7,7,0,0,0,1.5,1.52c.75.54,1.05,1.5,1.94,1.91.13.06.17.48.13.71a7.52,7.52,0,0,1-1.82,3.57c-.27.33-.53.52-.83.24a2.49,2.49,0,0,1-.42.44c.06.14.12.27.19.41a7,7,0,0,1-.79,0,2.75,2.75,0,0,1-.36.15c.18.65,0,.75-.8.85a2.09,2.09,0,0,0-1.11.55,11.86,11.86,0,0,0-.9,1.26,1.48,1.48,0,0,1-1.48.46,2.76,2.76,0,0,1-.47.43l.1,0a1.46,1.46,0,0,1,.28.21c-.08.1-.15.27-.23.28a2,2,0,0,1-1-.05l-.05,0a5.08,5.08,0,0,1-.59.15c0,.13,0,.27,0,.29a10.27,10.27,0,0,1-1.58.73c-1.25.39-2.53.69-3.77,1.09a23.6,23.6,0,0,1-11.28.8,50.2,50.2,0,0,1-5.44-1.45c-.31-.09-.81-.35-.82-.55a8.27,8.27,0,0,1,.18-2.16C237,246.54,237.56,244.71,237.86,242.83Zm-16.08-15.52a19.21,19.21,0,0,1-7.13-4.55,10,10,0,0,1-2.6-8.57,4.77,4.77,0,0,1,.13-.51,2.54,2.54,0,0,1,.37.44,12.56,12.56,0,0,0,4.77,4.77,25.48,25.48,0,0,0,7.67,3,46.68,46.68,0,0,0,11.5.86c.49,0,1,0,1.49,0a3.42,3.42,0,0,1,1.24-.23,3,3,0,0,1,.44.05,3.4,3.4,0,0,1,1.94-.58,3.85,3.85,0,0,1,.5.05.85.85,0,0,1,.89-.2c1.08.35,2-.12,2.92-.33l.88-.22a3.42,3.42,0,0,1,1.56-.39,46.3,46.3,0,0,0,12.36-5.15,31.19,31.19,0,0,0,8.31-7.09c.44-.56.7-1.48,1.7-1.45a.8.8,0,0,0,.09-.3c-.88-.37-.1-.79,0-1.13.34-1.3.79-2.57,1.12-3.88a14.23,14.23,0,0,0,.22-2.08,2.3,2.3,0,0,1,.14-.42,2.08,2.08,0,0,1,.26.42,3,3,0,0,1,.08.52,2.19,2.19,0,0,0,.12.33,1.65,1.65,0,0,0,.11-.36c0-.54.21-.49.49-.14a9.42,9.42,0,0,1,2.28,6.81,9.15,9.15,0,0,1-.45,2.45c-.71,1.91-1.35,3.9-3.24,5.08-.16.1-.4.35-.37.41.36.69-.25,1-.58,1.29a38.16,38.16,0,0,1-5.78,4.64,36.75,36.75,0,0,1-7,3.84c-2.27.9-4.58,1.72-6.89,2.53a2.8,2.8,0,0,1-1.13.19,3.25,3.25,0,0,1-1,.41l0,.12a4,4,0,0,1-.7.26.92.92,0,0,1-.64-.05,3.21,3.21,0,0,0-.45-.23,3.22,3.22,0,0,1-2.47,1,3.46,3.46,0,0,1-1.57-.35c-.17.06-.36.1-.52.17v0a3.6,3.6,0,0,1-1.31.24l-.22,0a3.11,3.11,0,0,1-.78.42.74.74,0,0,1-.39,0,3.48,3.48,0,0,1-1,.14,4.3,4.3,0,0,1-.82-.08h-.26c-.69,0-1.39-.1-2.09-.11-1.48,0-3,.11-4.43,0a49.74,49.74,0,0,1-5.15-.83A24.59,24.59,0,0,1,221.78,227.31Z"/><path d="M305.49,290.84l-.49-.46c-1.15.5-2.32,1-3.45,1.51-3,1.47-6,3-9.08,4.46-8.84,4.23-17.87,8-26.93,11.73q-8.62,3.56-17.32,6.94c-7.93,3.06-15.86,6.1-23.83,9q-14.35,5.29-28.8,10.37c-7.89,2.76-15.81,5.45-23.78,8-8.71,2.79-17.44,5.49-26.23,8-4.78,1.36-9.65,2.47-14.52,3.5a81.73,81.73,0,0,1-10.56,1.34c-4.38.22-8.77.38-13.14.25a56.54,56.54,0,0,1-19.28-3.6,33.05,33.05,0,0,1-16.21-13,13.82,13.82,0,0,0-1-1.37,5.18,5.18,0,0,1-.89-4.83c.7-3,2.57-5.33,4.38-7.67a98.71,98.71,0,0,1,13.59-13.68c7.4-6.45,15.23-12.36,23.18-18.12.93-.68,1.8-1.45,2.7-2.18l-.53-.51a14.82,14.82,0,0,0-1.8,1c-7.23,5.24-14.39,10.58-21.23,16.33a137.7,137.7,0,0,0-13.62,12.72,93.42,93.42,0,0,0-5.87,7.4,15.45,15.45,0,0,0-1.74,3.5,7.28,7.28,0,0,0,.36,6.14c.45.92,1,2.32,1.42,3.27A99.27,99.27,0,0,0,80.28,359c4.53,6.78,9.94,12.7,17,16.85a78.53,78.53,0,0,0,7.59,3.58,3.17,3.17,0,0,0,1.16.05l-1-.88a22.81,22.81,0,0,0-2.6-1.44,38.14,38.14,0,0,1-8.48-5A57.62,57.62,0,0,1,79,354.72c-2.07-3.59-3.82-7.37-5.7-11.08a2.79,2.79,0,0,1-.15-.72,6.89,6.89,0,0,1,.56.52A33.09,33.09,0,0,0,83.09,351a49,49,0,0,0,21.43,5.59c5.31.24,10.64.11,16-.06,1.62-.05,3.23-.14,4.84-.33,8.8-1.06,17.3-3.48,25.77-6,4.37-1.28,8.68-2.71,13-4.06,2.87-.89,5.78-1.68,8.63-2.64q13.63-4.56,27.24-9.24,8.88-3.06,17.69-6.31,12-4.41,23.85-9c8.13-3.14,16.25-6.3,24.3-9.63,7.8-3.22,15.5-6.65,23.23-10,2.09-.91,4.15-1.88,6.19-2.89,3.14-1.55,6.27-3.14,9.38-4.74A4.59,4.59,0,0,0,305.49,290.84Z"/><path d="M326.16,311.56l-.4-.45a8.66,8.66,0,0,0-1.36,1.11,19.72,19.72,0,0,1-5,4.42c-1.86,1.06-3.72,2.14-5.64,3.09-6.93,3.4-14,6.41-21.23,9.18-8.17,3.15-16.38,6.21-24.57,9.31-1.55.59-3.07,1.28-4.63,1.83s-3,.88-4.5,1.4c-2.52.89-5,1.9-7.5,2.77-1.77.62-3.6,1.07-5.39,1.66-8.53,2.79-17,5.64-25.58,8.41-5.63,1.83-11.28,3.57-16.92,5.31-5,1.53-10,3-15,4.53a8.47,8.47,0,0,0-1.35.67l.51.48a4.59,4.59,0,0,0,1.23,0c8.21-2.48,16.42-4.94,24.61-7.49,6.93-2.17,13.83-4.42,20.73-6.68q7.92-2.59,15.8-5.31c7.11-2.45,14.24-4.85,21.29-7.46,9.08-3.36,18.13-6.77,27.09-10.41,6.08-2.46,12-5.3,17.95-8.1a24.34,24.34,0,0,0,9.29-7.14A6.71,6.71,0,0,0,326.16,311.56Z"/><path d="M187.63,365.28l-.51-.48a12.15,12.15,0,0,0-1.92.26c-4.93,1.39-9.84,2.86-14.78,4.21-5.91,1.62-11.85,3.16-17.78,4.69-8.74,2.26-17.53,4.27-26.45,5.69a43.66,43.66,0,0,1-14.91.17,7.77,7.77,0,0,0-1.52,0l-.5.39c.26.18.5.5.78.53,2.29.31,4.59.69,6.89.81a47.4,47.4,0,0,0,12-1.18c7-1.41,14-2.79,20.9-4.45,7.14-1.71,14.21-3.72,21.3-5.64,5.1-1.39,10.19-2.86,15.27-4.32C186.83,365.87,187.53,366,187.63,365.28Z"/><path d="M113.29,290.5l.53.51a4.51,4.51,0,0,0,.94-.38c4.42-3,8.82-6,13.24-9,1.85-1.25,3.74-2.44,5.61-3.66.18-.12.46-.19.53-.36a11.64,11.64,0,0,0,.43-1.34,5.52,5.52,0,0,0-1.12.42q-7.24,4.77-14.46,9.57c-1.79,1.18-3.54,2.42-5.29,3.66A1.92,1.92,0,0,0,113.29,290.5Z"/><path d="M109.26,380.25l.5-.39c-.1-.13-.16-.37-.33-.28a2.81,2.81,0,0,1-3.78-1.14c-.14-.2-.4.06-.62.16l1,.88C107,380.1,108,380.75,109.26,380.25Z"/><path class="cls-7" d="M105,378.6c.22-.1.48-.36.62-.16a2.81,2.81,0,0,0,3.78,1.14c.17-.09.23.15.33.28a7.77,7.77,0,0,1,1.52,0,43.66,43.66,0,0,0,14.91-.17c8.92-1.42,17.71-3.43,26.45-5.69,5.93-1.53,11.87-3.07,17.78-4.69,4.94-1.35,9.85-2.82,14.78-4.21a12.15,12.15,0,0,1,1.92-.26,8.47,8.47,0,0,1,1.35-.67c5-1.52,10-3,15-4.53,5.64-1.74,11.29-3.48,16.92-5.31,8.54-2.77,17-5.62,25.58-8.41,1.79-.59,3.62-1,5.39-1.66,2.51-.87,5-1.88,7.5-2.77,1.48-.52,3-.87,4.5-1.4s3.08-1.24,4.63-1.83c8.19-3.1,16.4-6.16,24.57-9.31,7.2-2.77,14.3-5.78,21.23-9.18,1.92-1,3.78-2,5.64-3.09a19.72,19.72,0,0,0,5-4.42,8.66,8.66,0,0,1,1.36-1.11,6.22,6.22,0,0,1,.58-1.25,70.86,70.86,0,0,0,10.35-18.95,65.24,65.24,0,0,0,4-25.92,55.27,55.27,0,0,0-4.14-18.36,8.84,8.84,0,0,0-.38-.83,3,3,0,0,0-.3-.4,1.66,1.66,0,0,0-.18.53,41.29,41.29,0,0,1-1.26,11.72,45.14,45.14,0,0,1-8.29,16.57A62,62,0,0,1,307,290.4a7.71,7.71,0,0,1-1.55.44,4.59,4.59,0,0,1-.87.84c-3.11,1.6-6.24,3.19-9.38,4.74-2,1-4.1,2-6.19,2.89-7.73,3.37-15.43,6.8-23.23,10-8.05,3.33-16.17,6.49-24.3,9.63q-11.88,4.6-23.85,9-8.8,3.26-17.69,6.31-13.6,4.68-27.24,9.24c-2.85,1-5.76,1.75-8.63,2.64-4.35,1.35-8.66,2.78-13,4.06-8.47,2.48-17,4.9-25.77,6-1.61.19-3.22.28-4.84.33-5.31.17-10.64.3-16,.06A49,49,0,0,1,83.09,351a33.09,33.09,0,0,1-9.37-7.52,6.89,6.89,0,0,0-.56-.52,2.79,2.79,0,0,0,.15.72c1.88,3.71,3.63,7.49,5.7,11.08A57.62,57.62,0,0,0,94,372.18a38.14,38.14,0,0,0,8.48,5A22.81,22.81,0,0,1,105,378.6Z"/><path class="cls-16" d="M213,207.58c0-.26.29-.49.43-.74a3.69,3.69,0,0,0,.3-.71,12.2,12.2,0,0,1,.59-2.09c.49-1,1.15-1.84,1.74-2.76.07-.11.11-.26.21-.3.91-.47,1.86-.87,2.2-2,0-.13.26-.22.4-.32a20.43,20.43,0,0,0,2.69-2,12.24,12.24,0,0,1,3.68-2.42q3.27-1.53,6.58-2.92c1.19-.5,2.38-1.13,3.76-.82a.59.59,0,0,0,.34-.06c.11-.87.89-.65,1.36-.77a51.16,51.16,0,0,1,12.4-1.46,36.49,36.49,0,0,1,10.55,1.57,19.09,19.09,0,0,1,7.37,4.11,8.91,8.91,0,0,1,2.53,9,13.09,13.09,0,0,1-2.35,4.48,7.26,7.26,0,0,1-3.29,3.07c-.1,0-.17.2-.26.29a16.56,16.56,0,0,1-2,2c-1.32.92-2.73,1.73-4.13,2.53a47,47,0,0,1-14.82,5.06,1.17,1.17,0,0,1-.69-.13c2.75-1.48,2.2-6.59-1.66-6.59-4.23,0-4.49,6.15-.79,6.92a2,2,0,0,1-1.15.44c-1.54-.12-3,.35-4.52.3-1,0-2.06-.26-3.09-.35-1.39-.11-2.78-.19-4.17-.26-1.78-.09-3.3-1.08-5-1.46a13.81,13.81,0,0,1-6.93-4.35A8.47,8.47,0,0,1,213,207.58Z"/><path class="cls-16" d="M267.52,246.76c.17-.11.38-.28.53-.25l.12.05a3.9,3.9,0,0,0-.51,3.37,3.66,3.66,0,0,0-2.19-.78,3.34,3.34,0,0,0-1.91.61c0-.21.2-.37.67-.72s1.14-.8,1.72-1.2S267,247.11,267.52,246.76Z"/><path class="cls-7" d="M223.29,250.55c1.27-3.58,3.9-6.16,6.67-8.62a35.78,35.78,0,0,1,5.69-3.7,6.08,6.08,0,0,1,1.06-.39,9.11,9.11,0,0,1,0,1.17c-.16,1.07-.46,2.13-.53,3.21a16.49,16.49,0,0,1-1.41,6.19c-.32.68-.57,1.38-.88,2.06a.8.8,0,0,0,.41,1.2,34.78,34.78,0,0,0,5.25,2.05,30.15,30.15,0,0,0,9.8.56,61.58,61.58,0,0,0,7.34-1.38c1.05-.23,2-.87,3.07-1.14a2.82,2.82,0,0,0,1.62-1c.56-.67.94-.81,1.53-.54-.32.26-.63.54-.95.79a3.44,3.44,0,0,0-.9,3.41,3.49,3.49,0,0,0,2.44,2.44,3.76,3.76,0,0,0,3-.44,3.58,3.58,0,0,0,1.11-1.08l.3-.26a3.34,3.34,0,0,0,1-2.47,2.75,2.75,0,0,0-.17-1,3.41,3.41,0,0,0,2.37.63c4.08-.28,4.23-6.52.17-7a3.4,3.4,0,0,0-2.77.82,1.33,1.33,0,0,1,.37-.7,8.77,8.77,0,0,0,2.24-4.9,2.64,2.64,0,0,0-1-2.25,29.09,29.09,0,0,1-5-5.62,10.25,10.25,0,0,1-.62-.85c-.21-.32-.21-.59.29-.59h.65l0-.2c2.57.49,5.18.84,7.7,1.5,3.68.95,7.34,2,9.84,5.25.7.89,1.52,1.7,2.14,2.64,1.62,2.48,1.21,5.21.41,7.75a16.15,16.15,0,0,1-2.79,4.85c-1.18,1.5-2.74,2.69-4.06,4.08s-3.15,2-4.61,3.15c-1.08.89-2.58,1.26-3.78,2a34.64,34.64,0,0,1-3.94,1.66,33.74,33.74,0,0,1-4.46,1.47,53.83,53.83,0,0,1-13.8,2.28,47.21,47.21,0,0,1-10.69-.69,26.85,26.85,0,0,1-10-4,27.67,27.67,0,0,1-2.18-2.14c-1.63-1.3-2-3.11-2.64-4.82S222.67,252.3,223.29,250.55Z"/><path class="cls-16" d="M262.39,245.58a.71.71,0,0,1,.31-.16h0a3.39,3.39,0,0,0,1.51.33,3.59,3.59,0,0,0,1.27-.24c.18.65,0,.75-.8.85a2.09,2.09,0,0,0-1.11.55,11.86,11.86,0,0,0-.9,1.26,1.48,1.48,0,0,1-1.48.46l.07-.11A3.62,3.62,0,0,0,262.39,245.58Z"/><ellipse class="cls-7" cx="267.8" cy="250.9" rx="9.1" ry="4.2" transform="translate(-96.98 210.86) rotate(-36.87)"/><path d="M1315.8,279.5c.19,2.33.41,4.66.58,7a140,140,0,0,0,3.09,21.37c1.08,4.72,2.25,9.44,3.64,14.08a118.49,118.49,0,0,0,6.82,17.46,105.56,105.56,0,0,0,10.67,17.77,66.75,66.75,0,0,0,18.67,17.4,41.58,41.58,0,0,0,23.6,6.38,40.69,40.69,0,0,0,19.13-5.78c8.08-4.76,14.35-11.37,19.7-19a88.22,88.22,0,0,0,9.11-16.36c2-4.63,3.6-9.42,5.22-14.2a113.46,113.46,0,0,0,4.18-17.15,140,140,0,0,0,2.18-19.26c.17-5.13.35-10.27.22-15.39a137,137,0,0,0-1.93-20.71c-.85-4.7-1.6-9.44-2.75-14.07s-2.61-9.34-4.22-13.9c-1.54-4.34-3.32-8.61-5.23-12.81a79.88,79.88,0,0,0-8.08-14.07c-2.42-3.31-4.93-6.58-7.63-9.66a57.23,57.23,0,0,0-15.59-12.46,42.68,42.68,0,0,0-15.46-5,38.23,38.23,0,0,0-14.74,1.12c-7.87,2.14-14.49,6.38-20.39,11.91a77.89,77.89,0,0,0-14.37,18.8,109.82,109.82,0,0,0-7.85,17.33,139.29,139.29,0,0,0-4.83,16.87,153.86,153.86,0,0,0-3.35,24c-.09,1.5-.26,3-.39,4.5Zm23.71-5.79a159.4,159.4,0,0,1,1.45-16.22,95.46,95.46,0,0,1,3.32-14.57,69.05,69.05,0,0,1,9.66-19.84,37.73,37.73,0,0,1,13.81-12.23,24.85,24.85,0,0,1,22.38-.24c6.51,3,11.42,7.85,15.58,13.54a70.05,70.05,0,0,1,8.07,14.73,88,88,0,0,1,5.23,17.56,128.91,128.91,0,0,1,1.71,12.84,106.52,106.52,0,0,1-1.26,27.73,93.43,93.43,0,0,1-4.11,15.39,62,62,0,0,1-10.45,18.82c-3.85,4.61-8.32,8.41-14,10.59a25,25,0,0,1-19.56-.48c-6-2.62-10.77-6.91-14.8-12a72.21,72.21,0,0,1-11-20.61,91.92,91.92,0,0,1-4.75-20.17C1340.18,283.61,1339.92,278.65,1339.51,273.71Z"/><path d="M1528.8,279.9a31.62,31.62,0,0,1-5-3c-1-.86-1.37-2.4-2-3.64-.17-.32-.33-.64-.53-1.05a15.47,15.47,0,0,0-2.44,2.31,15,15,0,0,0-.89,2.72,4.45,4.45,0,0,0,.94,5.12c.69.76,1.15,1.72,1.8,2.53a2,2,0,0,0,1.15.72c2.08.3,4.18.52,6.33.77l.68-5.43Z"/><path d="M1398.74,143.2c-1.93.2-3.85.41-5.78.59a85.83,85.83,0,0,0-16.45,3.08c-3.45,1-6.85,2.24-10.27,3.39-1.37.47-1.36.49-1.25,2.23l3.81.33c.07-.08.15-.12.15-.17,0-1.52,1.14-1.89,2.29-2.35,3.67-1.45,7.3-3,11-4.47.32-.13.66-.23,1.06-.37a7.4,7.4,0,0,1-4.28,4.06c-1.52.64-3,1.48-4.62,2.31a58.39,58.39,0,0,0,6.65-.07c1.09-.12,2.09-1,3.12-1.55a39.32,39.32,0,0,0,4-2.26c.65-.47,1-1.38,1.5-2a1.79,1.79,0,0,1,1-.69c4-.56,7.9-1.07,11.84-1.61.66-.09,1.3-.27,2-.41Z"/><path d="M1413.24,404.92a37.1,37.1,0,0,1-3.89-1.48c-1.55-.77-2.86-.31-4.19.44-.42.24-.87.41-1.53.72l6.59.32Z"/><path d="M1498.29,261.73l-3.55-4.21,4.18-5.81c.86-1.19,1.76-2.36,2.58-3.58a1.08,1.08,0,0,0,0-1c-1.47-2-3-4-4.58-6.07-1.29,1.23-2.51,2.38-3.73,3.56s-2.49,2.4-3.69,3.65a2.47,2.47,0,0,0-.65,1.26q-.53,3.27-.91,6.56a1.61,1.61,0,0,1-1.18,1.54c-.79.27-1.55.61-2.45,1l5.63,7.61Z"/><path d="M1481.85,277.32c.68-.27,1.59-.59,2.45-1a1.21,1.21,0,0,0,.56-.88,17.43,17.43,0,0,0,0-3.61,9.65,9.65,0,0,0-1-2.68c-.92-2-1.87-4-2.88-5.95a3.68,3.68,0,0,0-1.27-1.41c-2.78-1.66-6-1.65-9.06-2.38-1.19-.29-2.4-.5-3.69-.76,0,.86,0,1.59,0,2.32.07,2,.17,4.08.23,6.12,0,.58.18.88.84,1,1.5.28,3,.74,4.48,1s2.07,1.42,3,2.25C1477.65,273.25,1479.67,275.25,1481.85,277.32Z"/><path d="M1477,349.08l6.29-3.05c.88-.42,1.73-.89,2.62-1.25a1,1,0,0,0,.8-1.18c-.07-1.07.06-2.16-.09-3.22a2.82,2.82,0,0,1,1.16-2.65c3.28-3,6.53-6.13,9.78-9.2.22-.2.4-.45.67-.75l-2.15-3.47c-1.43.91-2.83,1.79-4.21,2.68-2.44,1.58-4.86,3.19-7.31,4.75-1.32.84-1.66,2.3-2.42,3.5a33.77,33.77,0,0,0-2,3.6,3.77,3.77,0,0,1-2.33,1.85c-.81.32-1.62.63-2.4,1-.2.09-.45.45-.4.61C1475.66,344.52,1476.32,346.72,1477,349.08Z"/><path d="M1459.1,340.22c-1.57,2.71-3.12,5.39-4.72,8.17a12.79,12.79,0,0,0,2.22,1c2,.43,2.89,1.87,3.79,3.42s1.81,3,2.78,4.41a1.54,1.54,0,0,0,1,.58c.8.09,1.62-.06,2.41.05a2.15,2.15,0,0,0,2.34-1.22c1-1.53,2-3,3-4.53a1.44,1.44,0,0,0,.15-1.07c-.69-2.09-1.44-4.17-2.2-6.23a1.11,1.11,0,0,0-.53-.63C1466,342.83,1462.56,341.54,1459.1,340.22Z"/><path d="M1480.16,235.83l6.76,7.53c2.32-1.67,4.58-3.32,6.86-5-.76-1.1-1.45-2.16-2.2-3.18a1.23,1.23,0,0,1-.06-1.61c1.47-2.24,2.89-4.5,4.33-6.75.26-.42.5-.86.8-1.37-1.68-1.34-3.31-2.66-5-3.93a.92.92,0,0,0-.85.12c-2.12,1.58-4.23,3.16-6.29,4.81a2,2,0,0,0-.64,1.33c-.06,1.61,0,3.22,0,4.83a1.33,1.33,0,0,1-.77,1.35C1482.18,234.55,1481.23,235.17,1480.16,235.83Z"/><path d="M1468.1,197.39c-.7-1.85-1.24-3.61-2-5.25-.31-.62-1.18-1-1.85-1.4q-4.34-2.6-8.71-5.12a2.06,2.06,0,0,0-.92-.34c-4.08-.21-8.16-.39-12.24-.58a3,3,0,0,0-.47.13c.76,1.35,1.47,2.66,2.21,3.94a17.66,17.66,0,0,1,1.11,1.79,2.79,2.79,0,0,0,2.87,1.8,35.91,35.91,0,0,1,5.27.62,6.71,6.71,0,0,1,2,1.08c2.57,1.62,5.12,3.26,7.7,4.87a1.13,1.13,0,0,0,.82.16C1465.27,198.57,1466.64,198,1468.1,197.39Z"/><path d="M1498.42,281.68l-2.27-2.16,8.12-9.41-4.63-5.66-5,4.78a18.34,18.34,0,0,1-1.81,1.72c-1.68,1.18-2.34,2.92-2.87,4.77a22.44,22.44,0,0,1-.89,2.66,1.84,1.84,0,0,1-.82.76c-1,.51-2.09,1-3.25,1.5,1.75,1.9,3.38,3.71,5.06,5.46.16.17.76.1,1-.06,1.85-1.07,3.67-2.19,5.5-3.29Z"/><path d="M1504.39,243.66c.64.89,1.14,1.68,1.75,2.39a1.08,1.08,0,0,1,0,1.51c-1,1.63-1.94,3.28-2.89,4.93s-1.87,3.23-2.83,4.9l4.48,4.93,4.74-4a8,8,0,0,1,1.12-1,3.43,3.43,0,0,0,1.73-3.58c-.08-1.67.13-3.35.13-5a2.22,2.22,0,0,1,.88-1.89,14.89,14.89,0,0,0,1.42-1.44l-5-7Z"/><path d="M1484.49,298.83c1.36,1.91,2.66,3.73,4,5.57.37.53.75.27,1.12.06,2.11-1.17,4.2-2.35,6.3-3.53l1.59-.91a7.62,7.62,0,0,0-.5-1.67c-.61-1.05-.07-1.73.49-2.57,1.69-2.52,4.09-4.31,6.24-6.36.33-.32.68-.64,1.08-1-1.36-1.25-2.7-2.51-4.08-3.71-.15-.13-.62-.05-.85.09-2.76,1.69-5.46,3.5-8.28,5.08a3.77,3.77,0,0,0-2.28,3.79,13.83,13.83,0,0,1-.33,3,1.23,1.23,0,0,1-.64.79C1487.07,297.94,1485.8,298.36,1484.49,298.83Z"/><path d="M1484.62,326.88l3-2c1.69-1.14,3.37-2.29,5.07-3.41.53-.34.79-.73.39-1.3-1.35-1.9-.63-3.26.87-4.76,2.6-2.58,5-5.38,7.47-8.09a3.32,3.32,0,0,0,.21-.39c-1.17-.85-2.32-1.73-3.53-2.55a1,1,0,0,0-.87.09c-2.63,1.65-5.27,3.29-7.83,5a3.57,3.57,0,0,0-1,1.69c-.67,1.68-1.24,3.39-1.93,5.06a2.56,2.56,0,0,1-1,1.14c-.87.56-1.84,1-2.71,1.5-.28.18-.61.69-.53,1,.63,2.28,1.35,4.54,2.06,6.81C1484.41,326.71,1484.49,326.75,1484.62,326.88Z"/><path d="M1509.16,319.75c-2.46,1.93-4.78,3.72-7.07,5.56a.89.89,0,0,0-.18.8c.88,2.56-.38,4.19-2.19,5.81-2.37,2.11-4.54,4.44-6.78,6.7a1.25,1.25,0,0,0-.43.82c.16,1.72.4,3.44.63,5.31,1.35-.91,2.62-1.74,3.86-2.6,2.45-1.69,4.85-3.44,7.34-5.06a3.48,3.48,0,0,0,1.21-2,39.55,39.55,0,0,0,1.51-4.24,3.18,3.18,0,0,1,1.47-1.78c.83-.57,2-1,2.36-1.77s-.24-1.9-.48-2.86C1510,322.94,1509.61,321.44,1509.16,319.75Z"/><path d="M1466.12,298.37c.15,2.43.28,4.7.47,7a1.09,1.09,0,0,0,.62.71,22.25,22.25,0,0,0,2.88.88,7.23,7.23,0,0,1,3.88,2.45c1.54,1.8,3.18,3.51,4.81,5.22a.91.91,0,0,0,.84.16c1.14-.54,2.26-1.14,3.37-1.76a.77.77,0,0,0,.31-.55c0-1.57,0-3.15,0-4.73a3.2,3.2,0,0,0-.49-1.19c-.66-1.24-1.41-2.43-2-3.71a3,3,0,0,0-2.43-1.84C1474.35,300.22,1470.34,299.28,1466.12,298.37Z"/><path d="M1457,218.29c.47,1.42.92,2.77,1.38,4.13a2.9,2.9,0,0,1,.25.65c.15,2,1.43,2.44,3.2,2.47s3.33.32,5,.49,2.59,1.45,3.82,2.27c1.5,1,2.9,2.14,4.38,3.16.26.18.72.08,1.09.08.09,0,.17-.11.27-.14,2.38-.7,2.77-2.37,2.48-4.61a3.56,3.56,0,0,0-1.6-2.94c-1.72-1.13-3.3-2.49-5-3.72a3,3,0,0,0-1.36-.56c-4.46-.47-8.93-.89-13.4-1.33A3.61,3.61,0,0,0,1457,218.29Z"/><path d="M1500.2,322.7c1.81-1.52,3.53-2.95,5.23-4.39,1.37-1.16,2.71-2.37,4.11-3.51a4.89,4.89,0,0,0,1.58-2.79c.31-1.23.65-2.45,1-3.66a1.59,1.59,0,0,1,.62-.72c1.11-.79,2.24-1.55,3.45-2.39l-3.19-5.53-7.61,5.21L1507,307l-3.42,3.69c-1.85,2-3.71,3.92-5.52,5.93a1.24,1.24,0,0,0,0,1.07C1498.72,319.32,1499.44,320.93,1500.2,322.7Z"/><path d="M1517.73,268.09l-4.37-7.48-6.69,5.42,2.15,4.19-7,8.92,3.09,4c2.18-1.44,4.23-3,6.48-4.21,1.67-.89,2-2.2,2.1-3.82a21.27,21.27,0,0,1,.3-3.1,3,3,0,0,1,.86-1.46C1515.62,269.69,1516.66,269,1517.73,268.09Z"/><path d="M1465.82,170.17c-1.68,1.41-3.24,2.77-4.86,4.05a1.08,1.08,0,0,0-.37,1.54c.67,1.38,1.29,2.78,2,4.17a.86.86,0,0,1-.2,1.21c-.78.71-1.45,1.53-2.23,2.37l8.77,6.32,4.5-5.59c-1-.54-1.82-1.08-2.72-1.5a1.12,1.12,0,0,1-.76-1.55c.55-1.89,1-3.81,1.55-5.7a1.16,1.16,0,0,0-.54-1.56C1469.19,172.75,1467.54,171.45,1465.82,170.17Z"/><path d="M1487.8,347.4c-3.72,1.89-7.3,3.63-10.77,5.54a8.37,8.37,0,0,0-2.22,2.36c-.93,1.18-1.78,2.43-2.62,3.67s-2.14,1.11-3.21,1.65a15.28,15.28,0,0,1-2,.7l.71,6.07,9.31-3.64c0-.15.11-.23.09-.27-1-2.12.42-3.15,1.86-4.24,2.52-1.91,5.08-3.8,7.47-5.87a6.56,6.56,0,0,0,2-3.08C1488.65,349.46,1488.05,348.41,1487.8,347.4Z"/><path d="M1504.6,219.54l-5.59,3.4,3.13,3.28-5.44,8.48,4.38,5.13c1.27-1.25,2.51-2.44,3.72-3.65.92-.92,1.84-1.84,2.68-2.83A2.48,2.48,0,0,0,1508,232c.07-1.37,0-2.74,0-4.12a1.23,1.23,0,0,1,.64-1.22c.68-.41,1.31-.92,2.09-1.48Z"/><path d="M1469.59,202.1l6.8,5,5.91-4.11c-.8-.58-1.47-1.11-2.18-1.58a.8.8,0,0,1-.36-1.16c.94-2,1.85-4.08,2.81-6.1a1,1,0,0,0-.25-1.45c-1.73-1.52-3.39-3.12-5.16-4.76-1.52,1.62-3.25,3.45-4.94,5.32a1.25,1.25,0,0,0-.11.91c.34,1.72,1.16,3.34.92,5.19a1.55,1.55,0,0,1-1.11,1.44A22.54,22.54,0,0,0,1469.59,202.1Z"/><path d="M1479.41,255.2c1.37-1.09,2.67-2.07,3.91-3.13a1.67,1.67,0,0,0,.49-1.1c0-1.64-.06-3.28-.15-4.92a1.31,1.31,0,0,0-.4-.83c-2.55-2.25-5.13-4.48-7.71-6.7a1.07,1.07,0,0,0-.58-.33c-1.7-.1-3.39-.17-5.22-.25.47,2.12,1,4.05,1.31,6a8.86,8.86,0,0,0,2.73,4.83C1475.69,250.85,1477.49,253,1479.41,255.2Z"/><path d="M1470,320.13l-.86,4.38c-.3,1.51-.63,3-.88,4.53a2.53,2.53,0,0,0,.1,1.45c1.17,2.29,2.42,4.53,3.61,6.81a.8.8,0,0,0,1,.48c3-.51,2.93-.5,4.22-3.24.66-1.39,1.42-2.72,2-4.13a2.48,2.48,0,0,0,.14-1.67c-.74-2.11-1.59-4.18-2.43-6.26a.93.93,0,0,0-.52-.51C1474.37,321.35,1472.25,320.76,1470,320.13Z"/><path d="M1491,209l-4.47-3.92c-2.49,1.58-4.91,3.1-7.3,4.68a1.47,1.47,0,0,0-.47,1.08c0,1.37.06,2.74.14,4.11,0,.61-.08,1-.74,1.18a23.48,23.48,0,0,0-2.38,1c2.1,1.94,4.15,3.85,6.23,5.72a.87.87,0,0,0,.83,0c1.72-1.26,3.41-2.56,5.17-3.9-.66-.79-1.24-1.56-1.89-2.26a.9.9,0,0,1,0-1.38C1487.73,213.27,1489.33,211.19,1491,209Z"/><path d="M1507.57,286.24a12.68,12.68,0,0,0,1.15,1.4c.76.67.52,1.18-.07,1.82-2.6,2.82-5.17,5.68-7.94,8.74,1,1,2,1.9,3,2.79a.84.84,0,0,0,.77,0q4.08-2.56,8.11-5.19a1.39,1.39,0,0,0,.49-.77,5.12,5.12,0,0,0,.29-1.58c-.08-2,1-3.17,2.58-4.13a22.49,22.49,0,0,0,2-1.57l-4.1-6.09Z"/><path d="M1484,363.48c2.52-1.36,4.89-2.63,7.26-3.92a13.44,13.44,0,0,1,1.93-1.06,7.8,7.8,0,0,0,3.8-3.37c.83-1.26,1.78-2.43,2.6-3.69a5.54,5.54,0,0,1,2.78-1.84c1.41-.62,1.41-.6,1.25-2.11-.2-1.73-.37-3.46-.57-5.38-1.26.73-2.43,1.4-3.58,2.08-1.36.8-2.69,1.63-4,2.4-.56.32-.93.71-.74,1.36.61,2.18-.56,3.39-2.17,4.59-2.94,2.19-5.77,4.54-8.63,6.85a1.25,1.25,0,0,0-.33.9C1483.61,361.31,1483.79,362.32,1484,363.48Z"/><path d="M1435.68,379.28c1.21.67,2.31,1.38,3.49,1.92a7.46,7.46,0,0,1,3.72,3.46c.09.18.24.33.31.51.71,1.84,2.19,2.26,3.88,1.85a10.13,10.13,0,0,0,2.71-1.4,33.43,33.43,0,0,0,3-2,1.11,1.11,0,0,0,.37-.92c-.37-1.35-.82-2.68-1.3-4a1.1,1.1,0,0,0-.63-.52q-5.19-1.86-10.4-3.68a.93.93,0,0,0-.77.13C1438.6,376.12,1437.18,377.66,1435.68,379.28Z"/><path d="M1486.55,199.88l4.36,5.07c1.57-1.23,3.09-2.42,4.63-3.58.85-.65,1.69-1.2,1.42-2.57-.21-1-.29-2-1.24-2.69a6.37,6.37,0,0,1-.87-1l2.79-2.4L1490,186l-4.13,4.15c.75.66,1.57,1.29,2.27,2a2.86,2.86,0,0,1,.79,1.49c.36,3.26.33,3.27-1.9,5.62C1486.89,199.47,1486.74,199.65,1486.55,199.88Z"/><path d="M1474.75,282c-.24,2.3-.48,4.43-.65,6.57a1.7,1.7,0,0,0,.42,1.12c1.74,2.07,3.53,4.1,5.28,6.17a1,1,0,0,0,1.29.36c1.11-.37,2.23-.73,3.36-1a1.14,1.14,0,0,0,1-1.12c.18-1.6.4-3.19.54-4.79a1.64,1.64,0,0,0-.35-1c-1.36-1.91-2.72-3.82-4.15-5.67a1.93,1.93,0,0,0-1.31-.63C1478.41,281.92,1476.61,282,1474.75,282Z"/><path d="M1518.24,308.24c-1.36,1.06-2.89,1.79-3.18,3.78a36.82,36.82,0,0,1-1.21,4,3,3,0,0,0,0,1.71q1.13,3,2.46,5.91a1.68,1.68,0,0,0,1.14.86,38.91,38.91,0,0,0,4.32,0,1,1,0,0,0,.71-.59c.56-2.51,1.07-5,1.56-7.55a1.16,1.16,0,0,0-.13-.83C1522.06,313.11,1520.16,310.7,1518.24,308.24Z"/><path d="M1498.75,203.47l-5.28,3.23,3.5,2.94-5.21,6.89c1.59,1.29,3.14,2.57,4.74,3.81a.91.91,0,0,0,.83-.12c1.71-1.38,3.39-2.8,5.06-4.24a1.37,1.37,0,0,0,.4-.93,31,31,0,0,0-.15-3.61,1.45,1.45,0,0,1,1-1.68c.42-.18.82-.39,1.35-.65Z"/><path d="M1447.12,166.47l10,5.74,4.39-3.8c-1.19-.78-2.26-1.51-3.37-2.17a1.33,1.33,0,0,1-.68-1.2,7.46,7.46,0,0,1,1.14-4.41c-1.89-1.1-3.75-2.2-5.63-3.25a1,1,0,0,0-.75.08c-1.82,1-3.64,2.09-5.59,3.21l2.79,3.14a1.15,1.15,0,0,1-.5,2C1448.39,166.05,1447.85,166.22,1447.12,166.47Z"/><path d="M1526.35,260.35c-1.32.14-1.92-.62-2.43-1.6-.33-.65-.87-1.2-1.17-1.87a14.29,14.29,0,0,1-.76-2.43,6.24,6.24,0,0,1,0-1.3c0-2.55,0-2.56-2.5-3.29a1.38,1.38,0,0,0-1,.12,7.47,7.47,0,0,0-1.62,1.16,2,2,0,0,0-.53,1.19c-.07,1.27.09,2.56-.06,3.82a7.75,7.75,0,0,0,1.6,5.51c.81,1.18,1.5,2.45,2.28,3.65a2.86,2.86,0,0,0,.92.88c1.8,1.1,3.62,2.15,5.62,3.33Z"/><path d="M1526.07,247.29c-.45-2.74-.87-5.32-1.32-7.89,0-.23-.31-.44-.52-.61a1.18,1.18,0,0,0-.54-.26c-2.78-.56-4-2.7-5.42-4.89a17.65,17.65,0,0,0-3.24-3.22c-.88-.81-1.83-1.56-2.89-2.46,0,.65,0,1.16,0,1.67.06,1.68.06,3.36.23,5a5.76,5.76,0,0,0,.78,2.4c1.3,2,2.7,4,4.14,5.9a4,4,0,0,0,1.57,1.13C1521.19,245.16,1523.56,246.18,1526.07,247.29Z"/><path d="M1482.55,186.41c1.36-1.47,2.67-2.85,3.92-4.29a1.12,1.12,0,0,0,.09-1c-.61-1.18-1.26-2.35-2-3.48-.49-.78-.71-1.41.25-2a4,4,0,0,0,.63-.68l-3.94-3.09c-1-.78-2-1.55-3-2.35a1.07,1.07,0,0,0-1.57,0c-1,.83-2.15,1.56-3.33,2.4,1.21,1,2.32,2,3.49,2.95a1.09,1.09,0,0,1,.42,1.44c-.42,1.23-.72,2.5-1,3.77a1.09,1.09,0,0,0,.14.9C1478.5,182.71,1480.38,184.41,1482.55,186.41Z"/><path d="M1457.55,176.83c-4-2.78-7.79-5.5-11.65-8.2a1.93,1.93,0,0,0-1-.42c-2.73,0-5.47,0-8.41,0l1.44,1.55c1.33,1.46,2.6,3,4,4.34a11.65,11.65,0,0,0,2.72,1.79c2.82,1.45,5.67,2.85,8.52,4.25a.89.89,0,0,0,.8,0C1455.21,179,1456.37,177.93,1457.55,176.83Z"/><path d="M1457.69,381.73c3.08-1.08,6-2.13,9-3.14a1,1,0,0,0,.75-1.19,1.72,1.72,0,0,1,1.1-2c3.13-1.65,6.19-3.43,9.26-5.19a1.25,1.25,0,0,0,.57-.83c.14-1.19.18-2.4.26-3.74-2.19.87-4.28,1.71-6.37,2.56-1.64.66-3.26,1.38-4.93,2a4.83,4.83,0,0,0-2.69,1.95,18.06,18.06,0,0,1-6.6,6,.93.93,0,0,0-.59,1.1C1457.58,380,1457.61,380.83,1457.69,381.73Z"/><path d="M1468.09,247.2c-.19-1.14-.35-2.06-.51-3l-1-6.14a1,1,0,0,0-.92-1c-1.51-.31-3-.84-4.49-1.06a4.44,4.44,0,0,0-2.12.55c-2,.82-2,.85-1.66,2.94.45,2.7,1,5.39,1.48,8.22Z"/><path d="M1457.67,315.58l-.39,9.87,8.25,2.36c.17-1.1.34-2.25.52-3.39.29-1.89.63-3.77.85-5.66a1.62,1.62,0,0,0-.5-1.24,33.87,33.87,0,0,0-3.1-2.37,1.75,1.75,0,0,0-1.1-.25C1460.75,315.08,1459.3,315.33,1457.67,315.58Z"/><path d="M1493.91,361.71l-6.73,3.21c-.58.27-1.15.55-1.73.8s-.93.61-.62,1.31c.4.9.1,1.44-.78,2-3.48,2.05-6.89,4.22-10.35,6.3a1,1,0,0,0-.55,1.3c.14.68.16,1.38.25,2.23,1.36-.65,2.61-1.24,3.85-1.85,2.13-1,4.33-2,6.36-3.19a26.86,26.86,0,0,0,3.78-3.07c1.25-1.11,2.38-2.36,3.68-3.4a9,9,0,0,1,2.59-1.25c.79-.29,1.15-.66.9-1.54S1494.14,362.71,1493.91,361.71Z"/><path d="M1520.4,290.35c-1,.57-2,1-2.81,1.6a1.49,1.49,0,0,0-.6.92c-.25,1.49-.44,3-.61,4.48a1.28,1.28,0,0,0,.21.72c.94,1.57,1.84,3.18,2.89,4.69a7.43,7.43,0,0,0,1.89,1.57c.17.12.57,0,.83-.12a25.07,25.07,0,0,0,2.61-1.26,1.51,1.51,0,0,0,.69-1c.19-2,.3-4.07.37-6.12a1.26,1.26,0,0,0-.53-.92A14.88,14.88,0,0,1,1520.4,290.35Z"/><path d="M1418.51,157.11c1.48,1.24,2.72,2.3,4,3.32a1.71,1.71,0,0,0,1,.33c2.35,0,4.69-.14,7,0a12.93,12.93,0,0,1,3.37.85c2.27.79,4.53,1.61,6.76,2.52a1.3,1.3,0,0,0,1.72-.37,15.55,15.55,0,0,1,1.29-1.21c-1.31-2.56-3.57-3.44-5.91-4.22-1.24-.41-2.46-.86-3.69-1.29a2.25,2.25,0,0,0-.77-.16C1428.47,156.92,1423.62,157,1418.51,157.11Z"/><path d="M1508.35,201.67a1.16,1.16,0,0,0,.06-1.62c-2.26-3.54-4.31-7.23-6.71-10.68a76.36,76.36,0,0,0-5.64-6.61c-1.26-1.42-2.58-2.78-3.89-4.2l-2.29,1.34c1.36,2.44,2.15,5.13,4.21,7.19,4.69,4.69,9.27,9.5,13.9,14.26C1508.1,201.46,1508.23,201.56,1508.35,201.67Z"/><path d="M1510.05,345c1.29.29,1.75-.44,2.2-1.49,1.34-3.14,2.79-6.23,4.23-9.32a1.25,1.25,0,0,0-.17-1.62,4.54,4.54,0,0,1-.91-1.31c-.41-1-1-.72-1.75-.48-1.81.57-2.76,2-3.72,3.43s-2,3-3,4.49a2.25,2.25,0,0,0-.39,1.29c.06,1.13.29,2.25.39,3.39a1.34,1.34,0,0,0,1.36,1.41C1508.87,344.79,1509.46,344.89,1510.05,345Z"/><path d="M1468.11,379.87l-4,1.46c-1.57.58-3.18,1.07-4.68,1.79-2,.95-3.87,2.05-5.76,3.16-1.47.86-2.86,1.85-4.33,2.71a3.35,3.35,0,0,1-1.52.33c-1,.06-1.92,0-2.9,0l.74,3.72,2.85-.72c2.07-.52,4.13-1.08,6.21-1.56a1,1,0,0,0,.78-1.09c0-1.32.81-1.72,1.84-2.09q4.14-1.5,8.25-3.08A4.69,4.69,0,0,0,1468.11,379.87Z"/><path d="M1454.77,374.42c3.58-.56,5.69-3.3,8.48-5-.78-1.93-1.49-3.74-2.24-5.52a1,1,0,0,0-.68-.48c-1.37-.28-2.75-.53-4.13-.75a.84.84,0,0,0-.65.31c-1.12,1.66-2.22,3.34-3.31,5a.65.65,0,0,0,0,.53C1453.06,370.51,1453.92,372.47,1454.77,374.42Z"/><path d="M1520.33,229.63c-.76-2-1.47-3.8-2.19-5.62s-1.41-3.6-2.16-5.39c-.15-.35-.45-.84-.75-.9a3.14,3.14,0,0,1-2.22-2.09c-.11-.24-.24-.55-.44-.64-1.76-.76-3.54-1.48-5.48-2.27.2,1.87.36,3.52.57,5.17a1.76,1.76,0,0,0,.45.74,71.38,71.38,0,0,0,11.8,10.78A2.58,2.58,0,0,0,1520.33,229.63Z"/><path d="M1471.73,162.53,1473,161c-2.7-1.17-5.36-2.35-8-3.47a1.63,1.63,0,0,0-1.13,0c-1,.42-1.92.93-3.18,1.56,1.19.32,2.11.62,3,.82.69.14.94.43.87,1.15-.12,1.27-.12,2.55-.22,3.82a1.29,1.29,0,0,0,.69,1.38c1.57,1,3.07,2.11,4.66,3.21l4.63-4.84Z"/><path d="M1516.48,212c-.77-2.07-1.41-3.86-2.1-5.63a1.08,1.08,0,0,0-.64-.52c-1-.31-1.93-.54-2.89-.85a2.84,2.84,0,0,1-1-.6c-2.25-2.14-4.45-4.33-6.75-6.41-.37-.34-1.13-.24-1.9-.38a21.74,21.74,0,0,1,.29,3.39c-.13,1.73.77,2.76,2,3.74,1.6,1.3,3.1,2.75,4.74,4a10.26,10.26,0,0,0,2.54,1.14C1512.55,210.58,1514.37,211.23,1516.48,212Z"/><path d="M1453.11,359.43c-1.24-.91-2.39-1.89-3.66-2.67a6.23,6.23,0,0,0-2-.38,3.42,3.42,0,0,0-4.14,2.13,47.52,47.52,0,0,1-2.57,4.2c3.27.76,6.41,1.64,9.08,3.88C1451,364.11,1452,361.79,1453.11,359.43Z"/><path d="M1417.62,146.78c-1.09-.73-1.93-1.34-2.82-1.85a3.75,3.75,0,0,0-1.58-.53,64.85,64.85,0,0,0-7.62-.41,39.48,39.48,0,0,0-6,1c-2.26.44-4.51,1-6.78,1.36-.82.14-1.42.34-1.71,1.22a15.24,15.24,0,0,1-1,1.94c1.76.22,3.41.43,5.05.62a1.37,1.37,0,0,0,.68-.14c2.78-1.14,5.55-2.31,8.33-3.44a2.91,2.91,0,0,1,1.18-.15c3.65.1,7.3.23,11,.35Z"/><path d="M1448.17,155.86c-1-.32-1.7-.58-2.44-.79-1.33-.38-1.59-1.18-.75-2.37.35-.49.68-1,1-1.52-1.39-1-3-1.14-4.59-1.57a5.78,5.78,0,0,0-5,.68,21.13,21.13,0,0,1-2.14,1.1c.65.39,1.19.7,1.72,1,1.09.71,1.09,1.39,0,2.13l-.69.49c1.14.5,2.21,1,3.3,1.43,1.73.7,3.48,1.38,5.22,2.05.18.07.44.16.55.09C1445.58,157.76,1446.78,156.87,1448.17,155.86Z"/><path d="M1461.28,288.08h8.13c-.09-1.91-.3-3.84-.25-5.76s-.41-3.22-2.53-3.42c-.8-.08-1.61-.22-2.41-.23a6.93,6.93,0,0,0-1.47.28l-1.47.26Z"/><path d="M1482.86,375.79c-2.76,1.48-5.41,2.9-8,4.34-.25.14-.56.48-.55.72,0,.85-.38,1.21-1.09,1.56-2.76,1.36-5.45,2.86-8.24,4.16a6.41,6.41,0,0,0-2.71,2.41l-1.17,1.67,2.33-.7c2.55-.79,5.1-1.58,7.65-2.39a2.51,2.51,0,0,0,.74-.49c2.7-2.12,5.36-4.3,8.11-6.37a9,9,0,0,1,2.65-1.17.85.85,0,0,0,.69-1.1C1483.11,377.61,1483,376.78,1482.86,375.79Z"/><path d="M1445.6,205.42c1,2.1,1.88,4.07,2.82,6,.12.24.45.55.67.54,2.81-.13,5.62-.31,8.42-.48a2,2,0,0,0,.41-.12c-.87-2.59-1.72-5.15-2.59-7.76Z"/><path d="M1462.13,209.91c1.23.64,2.45,1.31,3.69,1.94,1.43.72,2.87,1.44,4.33,2.1a1.26,1.26,0,0,0,1-.08c1-.68,2-1.48,3-2.17.55-.38.42-.7.22-1.25-.87-2.39-3.06-3.33-4.91-4.63-.66-.46-1.38-.83-2.06-1.24Z"/><path d="M1410.91,399.35l4.64,1.48a14.35,14.35,0,0,0,.86,2.22,2.37,2.37,0,0,0,2.8,1.11c2.23-.4,4.5-.58,6.91-.88-.16-1.11-.29-2.19-.49-3.25,0-.17-.31-.34-.51-.4-2.73-.9-5.47-1.79-8.2-2.67a1.19,1.19,0,0,0-.78-.06C1414.45,397.66,1412.78,398.46,1410.91,399.35Z"/><path d="M1425.27,172.24l6.16,6.89a.73.73,0,0,0,.6.2c2.26-.6,4.5-1.24,6.93-1.92-1.09-1.2-2.07-2.3-3.08-3.39s-2-2.14-3-3.18c-.19-.19-.53-.43-.73-.38C1429.88,171,1427.66,171.61,1425.27,172.24Z"/><path d="M1498.47,178.71c-1.44-1.54-2.85-3-4.14-4.46s-3.29-2.25-5-3.24c-2.32-1.33-4.65-2.65-7.06-3.79a37.85,37.85,0,0,0-4.75-1.55C1479.54,169.65,1493.1,178,1498.47,178.71Z"/><path d="M1432.1,397.65c1.86-.61,3.74-1.17,5.57-1.86,2-.74,2-.79,1.81-2.93-.2-2.49-.32-2.2-2.6-3.18s-3.29.49-4.76,1.27c-.85.45-1.63,1-2.46,1.53a.86.86,0,0,0-.44,1.22c.3.74.48,1.53.75,2.28.51,1.44.52,1.44,2,1.43Z"/><path d="M1448.55,150.69l3.36,1.42-1.46,2.36c.88.37,1.72.72,2.58,1.06,1.18.47,2.36.92,3.55,1.37a1.06,1.06,0,0,0,.56.11l4.67-1.36c.07-1.59-1.11-2-2.31-2.38l1.12-1.46-3.16-1.07c-2.37-.81-4.7-1.71-7.32-1.39C1449.22,149.46,1448.73,149.72,1448.55,150.69Z"/><path d="M1508.83,355.9l-3.7-5.22c-2.18,2.31-4.28,4.54-6.37,6.79a1,1,0,0,0-.25.69c.06.8.19,1.59.3,2.47,2.14,0,4.25,0,6.35,0,.23,0,.5-.26.66-.47C1506.82,358.76,1507.79,357.36,1508.83,355.9Z"/><path d="M1433.62,386.77c-1.43-1.07-2.62-2.07-3.93-2.88a10.52,10.52,0,0,0-2.53-.88.74.74,0,0,0-.54.15l-6.06,5.26c1.19.46,2.22.88,3.26,1.27s2.19.82,3.31,1.17a1.48,1.48,0,0,0,1.1-.09C1430,389.53,1431.66,388.24,1433.62,386.77Z"/><path d="M1455.79,392c-3.94,1-7.69,1.64-11.23,3.15-3,1.26-6,2.26-9,3.29-1.36.46-2.81.68-4.33,1l.18,1.64c1-.17,2-.3,3-.48,2.17-.39,4.34-.78,6.51-1.24a2.79,2.79,0,0,0,1.43-.75c1.06-1.18,2.59-1.16,3.91-1.61,2.72-.93,5.51-1.64,8.26-2.48a1.29,1.29,0,0,0,.65-.65C1455.36,393.41,1455.51,392.83,1455.79,392Z"/><path d="M1412.63,149.42a35.65,35.65,0,0,0,4.27,2.55,12.32,12.32,0,0,0,3.52.63c2.36.26,4.73.55,7.1.63a19.75,19.75,0,0,0,3.71-.65c-1.29-1.23-2.22-2.23-3.71-2.62a19,19,0,0,0-5.4-.89c-3.14.09-6.29,0-9.44,0Z"/><path d="M1435.06,147.85a11.32,11.32,0,0,1-1.39-.88c-.34-.28-.81-.65-.84-1-.07-.91-.46-1.12-1.31-1.2-2.07-.2-4.11-.6-6.18-.78-1.45-.13-2.91,0-4.36,0l-.08.4,3.06,2.35-1.76.93,2.78.65c1.89.45,3.77,1,5.67,1.33a3.11,3.11,0,0,0,1.7-.31C1433.23,148.92,1434.06,148.4,1435.06,147.85Z"/><path d="M1495,367.37c-3.38,1-5,4-7.11,6.4-.37.41-.32,1.18-.51,2,1.8-.15,3.42-.26,5-.43.25,0,.5-.31.68-.53.9-1.08,1.8-2.16,2.63-3.28a3.31,3.31,0,0,0,.54-1.33C1496.5,369,1496.49,367.85,1495,367.37Z"/><path d="M1402.3,154.56c1.51,1,2.85,1.84,4.2,2.69a1.15,1.15,0,0,0,.64.24c3-.29,6-.6,9-1.14-.94-.66-1.87-1.33-2.81-2a8.36,8.36,0,0,1-1.15-.79,3.47,3.47,0,0,0-3.85-.67C1406.4,153.51,1404.42,154,1402.3,154.56Z"/><path d="M1480.63,163.17c-2.49-3.28-9.84-7.72-16.42-10.13.3,1.53.72,2.77,2.32,3.55,2.88,1.39,5.58,3.17,8.46,4.58A48.94,48.94,0,0,0,1480.63,163.17Z"/><path d="M1462.13,209.91l5.31-5.33-3.18-2.22a.69.69,0,0,0-.37-.13c-1.85.21-3.69.44-5.63.67,1.07,2.24,2,4.32,3.06,6.37C1461.46,209.55,1461.86,209.7,1462.13,209.91Z"/><path d="M1475.7,386.85c1.67-.1,3.33.28,4.93-.91,2.3-1.7,4.82-3.11,7.4-4.75l-3.27-2.12-9.13,7.54Z"/><path d="M1471.22,388.3l-1.87.69c-1.92.67-3.84,1.37-5.78,2a3.25,3.25,0,0,0-2.27,2.13,10.34,10.34,0,0,1-.47,1,13.9,13.9,0,0,0,1.46.89.94.94,0,0,0,.71-.07q3.69-1.81,7.35-3.68C1471.24,390.82,1471.37,390.38,1471.22,388.3Z"/><path d="M1445.62,399.11l.36,1,4.48-1.18a38.81,38.81,0,0,1,4.47-1.09,3.68,3.68,0,0,0,3.37-3.1,2.76,2.76,0,0,0-2.39-.14c-3.3,1.46-6.62,2.85-9.93,4.26A3.18,3.18,0,0,0,1445.62,399.11Z"/><path d="M1406,399.1c-1.64-.76-3.1-1.38-4.51-2.1a2.8,2.8,0,0,0-2.8-.09c-1,.53-2.15.91-3.4,1.42,1.93.87,3.69,1.69,5.46,2.46a1.28,1.28,0,0,0,.86,0C1403,400.26,1404.37,399.72,1406,399.1Z"/><path d="M1437.66,146a3.57,3.57,0,0,0,3,2.5,5.72,5.72,0,0,1,1.76.4c1.9.94,3.35,0,4.86-1.28Z"/><path d="M1382.38,215a22.35,22.35,0,0,0-11.69,2.15,35.06,35.06,0,0,0-13.49,12.12,64.21,64.21,0,0,0-8.27,17.52,88.06,88.06,0,0,0-3.12,14.51,98.25,98.25,0,0,0-.19,24,88,88,0,0,0,4.44,19.75,64.45,64.45,0,0,0,9.58,18.31,36.41,36.41,0,0,0,12.75,11,22.88,22.88,0,0,0,16.89,1.62,29,29,0,0,0,13.27-8.68A53.51,53.51,0,0,0,1412.89,310a86,86,0,0,0,5-20.56,91.5,91.5,0,0,0,.36-19.78,69.93,69.93,0,0,0-2.8-14.25c-.81-2.59-1.71-5.14-2.58-7.7a3.51,3.51,0,0,0-.22-.44c-5.21,2.52-8.46,6.73-10.8,11.9.46.05.84.08,1.23.14s.69.15,1,.23l.06.3a4.27,4.27,0,0,1-1.14.55c-1.68.25-3.37.52-5.06.61a3.34,3.34,0,0,0-2.85,1.05c.91.14,1.79.23,2.66.4a10.2,10.2,0,0,1,7,5.29,29.33,29.33,0,0,1,2.78,6.31,11.83,11.83,0,0,1,.08,4.56,14.76,14.76,0,0,1-3.61,8.75,49.59,49.59,0,0,1-4.33,3.67c1.07-.05,2.28,0,3.48-.18,1-.12,1.53.14,1.86,1.27a12.68,12.68,0,0,0,6.55,7.62c1.11.61,2.28,1.11,3.58,1.73-.32,1.12-.65,2.29-1,3.46,0,.15-.28.28-.45.36-6,2.58-8.21,8.05-7.75,14.05,0,.4,0,.8.09,1.2a1.58,1.58,0,0,1-2,1.89,23.25,23.25,0,0,1-11.55-5.45,36.9,36.9,0,0,1-9.18-12.4,69.17,69.17,0,0,1-5.95-21.06,88,88,0,0,1-.17-22.17,64.42,64.42,0,0,1,3.85-16.07c2.31-5.87,5.48-11.18,10.46-15.22a22.41,22.41,0,0,1,9.08-4.5c.25-.06.5-.14.68-.2-4.52-4.33-9.77-5.3-15.67-3.44-6.54,2.07-11.21,6.45-15,11.92a51,51,0,0,0-6.14,11.9,73.14,73.14,0,0,0-3.49,13.18,81.27,81.27,0,0,0-1,19.94,77.18,77.18,0,0,0,5.69,23.73,63.4,63.4,0,0,0,9.21,15.69,31.32,31.32,0,0,0,10.66,8.94,11.25,11.25,0,0,0,5,1.23c2.78,0,5.58,0,8.28-.79a19.47,19.47,0,0,1,2.15-.65c-.64.56-1.26,1.16-1.94,1.66a20.21,20.21,0,0,1-13.11,4.24,21.21,21.21,0,0,1-12-4.7,39.28,39.28,0,0,1-9-10.12,68.32,68.32,0,0,1-7.81-17.52,101.4,101.4,0,0,1-3.93-33.18,94.17,94.17,0,0,1,2.68-19,65.16,65.16,0,0,1,4.67-13.43c2.89-5.83,6.36-11.23,11.58-15.31a21.17,21.17,0,0,1,9.57-4.38A8.1,8.1,0,0,0,1382.38,215Zm32.49,58.34.09.18a6.24,6.24,0,0,1,1.76.31c.56.26,1.32.75,1.38,1.23s-.54,1.22-1,1.48a5.76,5.76,0,0,1-5.22.3c-.4-.18-.9-.67-.92-1a1.6,1.6,0,0,1,.72-1.27A30.6,30.6,0,0,1,1414.87,273.31Zm-3.28,12.89-.12-.2c-.45-.1-.91-.18-1.35-.32-1.33-.42-1.6-1.42-.52-2.3a5.73,5.73,0,0,1,5.25-1.25c.48.13,1.19.6,1.21.94a1.94,1.94,0,0,1-.75,1.55A34,34,0,0,1,1411.59,286.2Zm1-16.72a24.34,24.34,0,0,1-2.55-.65,1.19,1.19,0,0,1-.45-2c1.15-1.25,4.83-1.61,6.23-.61.94.67,1,1.49,0,2.05A21.53,21.53,0,0,1,1412.6,269.48Zm-8.57-6.91c1-1.43,6-1.84,7.19-.64C1410.25,263.18,1406,263.58,1404,262.57Zm4,28.61c-.93-.25-1.84-.43-2.7-.75-.63-.24-.59-.74,0-1a6.25,6.25,0,0,1,5.25,0c.66.29.66.75,0,1A24,24,0,0,1,1408.05,291.18Z"/><path d="M1404.77,246.78a11.21,11.21,0,0,0-5.41-9.39,8.29,8.29,0,0,0-3.31-1.52c-3.68-.41-6.92,3.8-5.88,7.38a17,17,0,0,0,4.8,7.88,6.78,6.78,0,0,0,6.67,1.51c2-.62,2.54-2.42,2.93-4.23A14.93,14.93,0,0,0,1404.77,246.78Z"/><path d="M1390.54,303a8.8,8.8,0,0,0,1.47,4.87c1.49,2.06,3.41,2.51,5.56,1.1a13.25,13.25,0,0,0,6.12-8.46,8.53,8.53,0,0,0-1.66-6.73c-1.57-2.27-2.49-2.52-5.23-1.64a7.68,7.68,0,0,0-5.27,5.46A54,54,0,0,0,1390.54,303Z"/><path d="M1391.42,265.46a5.36,5.36,0,0,0-7,2.27,10.17,10.17,0,0,0,.57,11,9.13,9.13,0,0,0,5.09,3.07C1387.59,276,1389.67,270.73,1391.42,265.46Z"/></svg>