<svg id="Layer_1" data-name="Layer 1" xmlns="http://www.w3.org/2000/svg" viewBox="0 0 1449.24 426.66"><defs><style>.cls-1{fill:#fff;}.cls-2{fill:#b3b3b3;}.cls-3{fill:#e6e6e6;}.cls-4{fill:#232021;}.cls-5{fill:#6d6d6e;}.cls-6{fill:#c8c9cb;}.cls-7{fill:#cccecf;}.cls-8{fill:#cccdcf;}.cls-9{fill:#c9cacc;}.cls-10{fill:#cccccf;}.cls-11{fill:#cecfd0;}.cls-12{fill:#ced0d1;}.cls-13{fill:#cfcfd1;}.cls-14{fill:#cfd0d2;}.cls-15{fill:#d1d2d3;}.cls-16{fill:#cbccce;}.cls-17{fill:#cdced0;}</style></defs><title>uniwheel-how-it-works</title><path d="M352.76,388.59c-.34,3.49-4.67,5.71-1,9.36.92.92,0,1.85-1.5,2.63-5.72,2.89-11.21,6.27-17.49,9.87,0-7.91,0-15.32.09-22.72,0-.58,1.2-1.6,1.88-1.63,2.27-.1,4.79-1.89,4.38-3.58-.12-.53-.94-.94-1.52-1.3-3.16-2-7-2.72-9.72-5.62-1.43-1.53-3.09-1-4.9.07-6.37,3.92-12.92,7.53-19.31,11.41-9,5.46-17.88,11.06-26.82,16.59L253.2,418.24a34.27,34.27,0,0,0-3.84,2.31c-1.28,1.05-2.08.76-3.37-.09-7.68-5.14-15.68-9.74-23.72-14.29C211.4,400,200.88,393.28,190.09,387c-6.86-4-14-7.58-20.93-11.39a6,6,0,0,0-6.52.05c-8.21,5.19-16.91,9.5-25.35,14.26-7.81,4.41-16,8.21-23.36,13.41-3.59,2.52-8.05,3.76-12,5.86-1.28.68-2.57,1.58-3.21.1-.47-1.09-1.08-3,.94-4.05,4.61-2.45,9-5.29,13.72-7.55a212.75,212.75,0,0,0,26-14.67c4.26-2.85,9.42-4.32,14-6.68a97.7,97.7,0,0,0,8.23-5.32c-2.37-1.59-4.1-2.92-6-4C144.9,361,134,354.94,123.17,348.88c-2.19-1.23-2.22-3.28-2.21-5.51.09-10.68,0-21.36,0-31.84,5.64-3,11.05-6,16.64-8.65,5.38-2.55,10.81-4.87,16-7.84s11.33-4.87,17.69-7.51c-4.32-2.69-8-5.15-11.86-7.36-11-6.35-21.8-13.22-33.07-18.95-10.42-5.31-19.81-12.41-30.68-16.85-2.51-1-4.56-3.17-7.07-4.24-2.3-1-1.53-2.83-1.21-3.93.44-1.52,1.75-.92,3.1-.23a205,205,0,0,1,19.37,11.34A129.77,129.77,0,0,0,123,254.46c10.87,5.51,21.23,11.94,31.83,17.93,4.94,2.79,10.36,5,14.87,8.86,3.66,3.14,8.38,2.8,12.85.52,15.22-7.75,30.58-15.24,45.69-23.22,3.51-1.85,8.13-1.67,10.55-5.55,4.89,1,4.15-2.35,4.14-5.22,0-5.59,0-11.18,0-17.17-4.47-.07-8.32-2-12.34-3.12-4.51-1.29-6.55-5.71-10.87-6.78-.42-.1-.78-1.27-.82-2-.1-2.13,0-4.28,0-6.41,0-8.42,2-10.39,10.2-14.18a82,82,0,0,1,13.56-5.06V171.37l-7.74-.57c.15-6.15,3.5-11.34,4.94-17,1.39-5.5,3.59-10.79,5.74-17.08,5,11.31,8.47,22.5,12,34.1h-7.85v20.7c6.07.67,12.23,1.21,18.33,2.1,2.05.29,4.26.71,2.36,4.29-1.06,2,.25,5.27.54,8.55l-20.69-2.06a8,8,0,0,0-.91,1.81c-.55,4.17.22,6.95,5.16,8.39s9.39,4.42,13.93,6.95c2.48,1.38,2.18,2.58-.3,4.1q-9,5.49-17.78,11.27a3.68,3.68,0,0,0-1,2.62c-.13,2.64,0,5.29,0,8.58,5.19-.53,9.57.63,13.45,4.32,2.2,2.09,5.82,2.6,8.63,4.14,12,6.54,23.94,13.2,35.91,19.8,3.7,2.05,8,3,11.05,6.24,1.16,1.25,2,.5,3.34-.12,9.43-4.48,18.59-9.44,27.55-14.79a13.63,13.63,0,0,1,2.87-.78c-1-4.32,1.73-9.07-1.73-13.34a54,54,0,0,0,2-8c.28-1.53,2.85-2.85,4.62-3.81s4.53-.71,5.48-2c3.7-5,7.34-1.54,10.56-.05a46.76,46.76,0,0,1,10,6.74c2.14,1.78,3.73,2.23,6.14.62,3.73-2.5,7.69-4.65,11.51-7a1.62,1.62,0,0,0,.18-1.52c-.85-1.53-1.8-3-2.8-4.45-1.55-2.21-.72-5.27,1.71-5.06,3.54.29,6.51-1.61,9.78-1.68,4.41-.09,8.43-2.85,13-1.69,3-2.36,6.44-1.5,9.76-1.57.44,0,.89.4,1.55.72-5.49,5.48-10.86,11-16.38,16.31-2.27,2.2-3.6,5.16-6.61,6.85-3.61,2-4.33,2.65-5.71-1.11-1.11-3.05-3.23-2.26-4.2-1.78-4,2-7.28,5.29-11.67,6.71-.26.09-.52,1.06-.35,1.37.32.55.92,1.25,1.48,1.32a41.13,41.13,0,0,0,4.74.06v22.38c-7.47-.92-13.16-5.73-19.81-8a2.73,2.73,0,0,1-.52-2.52,11.44,11.44,0,0,1,3-2.19c.42-.27.87-.48,1.36-.74a12.22,12.22,0,0,1-1.55-1.69c-1.32-2.13-2.81-2.36-4.8-.82a24.31,24.31,0,0,1-3.31,1.65c-3.24,1.76-3,1.88-1.58,5.65,2.59,6.71,6,12.81,11.74,18a25.63,25.63,0,0,1-2.88,3.57c-4.4,3.82-8.13,4.1-11.44-.45-3.93-5.39-9.08-10.27-10.2-17.37-.3-1.87-.9-.71-1.88-.42-5.83,1.7-10.41,5.76-15.91,8.08-3.88,1.63-7.55,3.79-11.53,5.84,1.17,1.13,1.81,2.1,2.72,2.57,9.88,5.16,19.83,10.19,29.71,15.36,4.41,2.31,8.71,4.81,13,7.33a3.15,3.15,0,0,1,1.47,2.13c.1,10.15.06,20.31.07,30.47,0,1.31-.26,1.92-1.76,2.78-9.74,5.62-19.25,11.65-28.86,17.5-3,1.81-6.08,3.41-9.05,5.22-2.72,1.66-2.81,4-.08,5.51,3.24,1.81,6.68,3.26,10.38,5,4-5.36,10.13-8.23,16.71-10.28,1.2-.37,2.83-1,3.68-.55,3.49,2,6.77,4.36,10.09,6.65a5,5,0,0,1,2.15,4.73c-.18,4.54-.11,9.09,0,13.63a9,9,0,0,0,.76,3.68c1,2.09,2.77,2.1,4.42.54s1.36-6,4.82-5c1.7.45,2.6,3.49,4.15,5.08,6.93,7.06,14,14,21.25,21.3-4.53,2.18-8.4-1.21-12.57-1.19-4.36,0-8.7-2.05-13.11-2.92-4.23-.83-8.52-1.27-12.89-1.9,1.52-2.89,3-5.43,4.16-8.08.34-.74,0-1.8,0-2.71-1.26.06-3.06-.36-3.66.3a13.17,13.17,0,0,0-2.12,4.68c-2,5.93-7.06,9.78-10,15.09-1.14,2.06-5.38,2.2-8.13,1-2-.91-4-1.77-6.82-3,2.18-3,3.74-6,6.11-8.09,4.82-4.25,6.51-10.11,8.92-15.61a2.86,2.86,0,0,0-.73-2.63C358.26,392.13,355.7,390.56,352.76,388.59Z" transform="translate(-87.07 -105.32)"/><path d="M332.38,432.08c-2.11,1-3.85.56-5.4-1.27-2.9-3.43-3.26-3.57-5.34.25-1.38,2.52-2.87,1.29-4.61,1.15.5-1.32.9-2.62,1.47-3.84.95-2,3.1-4.16,2.76-5.86-.49-2.51-2.71-4.69-4.11-6.87,4.23-.67,4.23-.67,6.66,3.95,2.73-.8,2.21-6.14,6.57-4.63.13.33.52.86.39,1.05-1.25,1.89-2.63,3.68-3.88,5.56-1.87,2.81,1.32,3.39,2.26,5Z" transform="translate(-87.07 -105.32)"/><path d="M299.2,208c-2.8,0-4.9.09-7-.08-.43,0-1.11-1-1.09-1.6s.81-1.47,1.24-1.46c3.85.08,7.75-.5,12.27.43-3.37,4.65-6.3,8.68-9.81,13.5,3.47.26,6,.42,8.44.7.25,0,.55.84.56,1.29s-.28,1.31-.48,1.32c-3.41.17-6.82.39-10.23.25-1.12,0-2.2-1-3.74-1.82,1.77-2.1,3.37-3.89,4.86-5.78S297.27,210.6,299.2,208Z" transform="translate(-87.07 -105.32)"/><path d="M406.66,282.21c5.82-2,5.13,3.21,7.25,6.31,1.46-2.21,2.7-4.26,4.14-6.15a1.6,1.6,0,0,1,2.85,1.4c-.12.67-1,1.17-1.34,1.83-2.13,3.77-4.46,7.47-3.46,12.17a2,2,0,0,1-1.17,1.53c-.6.11-1.9-.53-1.89-.78C413.48,292.12,409.59,287.38,406.66,282.21Z" transform="translate(-87.07 -105.32)"/><path d="M282.82,219.53c-.46-.68-1.37-1.42-1.32-2.07.18-2.4-.6-3.38-3.1-3.18-.55,0-1.19-1.15-1.8-1.78.52-.44,1.12-1.34,1.53-1.26,3.31.66,3.54-1.19,3.37-3.69,0-.36,1-1.12,1.58-1.1s1.52.86,1.47,1.23c-.39,2.81.52,4,3.49,3.56.38-.06,1.27.89,1.3,1.4s-.76,1.7-1,1.65c-3.54-.63-4,1.3-3.75,4.1C284.59,218.61,283.78,218.92,282.82,219.53Z" transform="translate(-87.07 -105.32)"/><path d="M391.76,289.57c.68-.46,1.42-1.37,2.08-1.32,2.39.18,3.37-.6,3.17-3.1,0-.55,1.15-1.19,1.78-1.8.44.52,1.34,1.12,1.26,1.53-.66,3.31,1.19,3.54,3.69,3.37.36,0,1.12,1,1.1,1.58s-.86,1.52-1.23,1.47c-2.81-.39-4,.52-3.56,3.5.06.37-.88,1.26-1.4,1.29s-1.7-.76-1.65-1c.64-3.54-1.3-4-4.1-3.75C392.68,291.34,392.37,290.53,391.76,289.57Z" transform="translate(-87.07 -105.32)"/><path d="M315.21,422.77c-.27.49-.68,1.69-1,1.66-2.95-.31-4.6.46-4,3.85,0,.25-1.15,1-1.71,1s-1.41-1-1.34-1.36c.57-3.15-1-3.72-3.63-3.44-.36,0-1.17-1-1.17-1.52s.87-1.59,1.17-1.53c3.8.79,3.62-1.72,3.76-4.18a14.93,14.93,0,0,1,2.62-.28c-.41,3.69,1.82,4.72,4.91,4.93C314.93,421.87,315,422.29,315.21,422.77Z" transform="translate(-87.07 -105.32)"/><path class="cls-1" d="M241.31,315.44a20.73,20.73,0,0,0,3.05,3.15c1.2.8,3.24,2,4,1.49,1.77-1.09.67-2.91.3-4.73-.49-2.46.61-5.19.62-7.81.09-13.09,0-26.19,0-39.87a35.53,35.53,0,0,0,4.33-.39c2.79-.57,5.46-3.63,5.3-5.84s-3-5-5.82-5.3c-2.11-.22-4.61.49-3.81-3.13.34-1.55,2.8-2.57,5.12-1.68,2.07.79,3.92,2.14,5.92,3.14,14.43,7.18,28.07,15.87,42.77,22.54,1.93,3.92,6.88,2.88,9.65,6.05,2.09,2.41,6.15,3,9.12,4.75,9.61,5.74,20.15,9.76,29.37,16.28,4,2.82,8.85,4.36,13.28,6.57a8.74,8.74,0,0,1,1.88,1.78c-.76.46-1.51,1-2.29,1.39-13.7,7.55-27.37,15.17-41,22.75-8.9,4.94-17.77,10.23-26.59,15.38-7.87,4.58-15.91,9.13-24.13,13.22-3.11,1.54-6,3.51-9.27,4.71-3.43,1.28-6.08,3.54-8.89,5.64-3.3,2.48-6.63,3.29-10.35.88-9.82-6.38-20.53-11.2-30.57-17.25-8.88-5.34-18.28-10-27.45-14.9-8.54-4.59-17.5-8.41-25.45-14.13-2.55-1.84-5.88-2.56-8.7-4.08-8.08-4.35-16.09-8.84-24.21-13.33a53.77,53.77,0,0,1,5.49-3.61c11.7-5.92,23.43-11.8,35.22-17.54,2-1,4.33-1.14,6.46-1.83a7.59,7.59,0,0,0,3.28-1.68c2.31-2.55,5.37-3.68,8.35-5.08,7.38-3.49,14.69-7.12,22-10.74,10.65-5.27,21.27-10.58,31.93-15.83a8.11,8.11,0,0,1,2.42-.27v50.74c-2,2-4.16,4.44-6.63,6.47-.79.64-2.44.24-3.7.31,0-1.44-.71-3.38,0-4.25a93.41,93.41,0,0,1,7.29-7.49c-1.47-1.83-2.72-4.07-5.34-1.15a38.32,38.32,0,0,1-4.23,3.52c-2-3.32-1.67-8.62-7.55-8.48-1.81,0-3.26.57-3.82,2.19-.87,2.48,1.5,2.27,2.79,2.82,2.85,1.21,6.57.19,8.58,3.47-1,1.32-2.41,2.57-3.07,4.14-1.13,2.67.27,7.24,2.21,8.49,3.79,2.44,6.88,2.32,10.25-.36A15,15,0,0,1,241.31,315.44Z" transform="translate(-87.07 -105.32)"/><path class="cls-2" d="M169.37,372.48c4-2.05,6.71-3.26,9.21-4.87.9-.58,1.2-2.11,1.77-3.21-.94-.28-1.94-.91-2.82-.77-1.95.31-4.39.42-5.65,1.64-5.26,5.05-10.47,2.42-14.89-.43-9.66-6.22-19.29-12.41-29.7-17.31-1.73-.81-3.12-1.67-3.11-3.94.07-8.81,0-17.62,0-26.43a1.63,1.63,0,0,1,2.61-1.47c8,6,17.36,9.7,26,14.66,13.32,7.68,27.09,14.56,40.48,22.1,11.25,6.33,22.64,12.41,33.93,18.66,5.2,2.88,10.4,5.79,15.73,8.43,2.12,1,3.23,2.21,3.21,4.67-.08,10.63,0,21.25,0,32-5.91-3.3-11.52-6.29-17-9.54-8.36-5-16.38-10.6-25-15.13-10.6-5.6-20.71-11.94-30.9-18.19C172.68,373,171.84,373,169.37,372.48Z" transform="translate(-87.07 -105.32)"/><path class="cls-3" d="M321.3,372.76l-72,43.9c0-11.24,0-22.11.06-33a3.19,3.19,0,0,1,1.19-2.4c4.3-2.48,8.73-4.73,13-7.16,6.3-3.54,12.7-6.91,18.75-10.83s12.82-6.59,19-10.39c6.71-4.12,13.62-8.16,20.76-11.66,5.56-2.72,11.35-5.16,16.42-8.64,3.57-2.45,7.38-4.13,11.11-6.14C356.05,323,362.15,319.1,369,315a23.29,23.29,0,0,1,.65,3.64c.05,7.48-.08,15,.09,22.44.05,2.25-1,2.65-2.73,3.66-8.65,5-17.08,10.42-25.55,15.76-4.67,3-9.21,6.12-13.95,9-.68.41-2.23-.31-3.23-.81-5.53-2.77-11-5.64-16.53-8.47-.88-.46-1.71-1.25-2.62-1.36a8.14,8.14,0,0,0-2.83.76c.39.91.51,2.24,1.2,2.66C309.18,365.75,315,369.08,321.3,372.76Z" transform="translate(-87.07 -105.32)"/><path class="cls-1" d="M222.53,212a73.93,73.93,0,0,0,20,7.91c2.87.64,5.6.36,8.36.75.47.07,1.3-1.12,1.64-1.88.77-1.68,1.66-1.46,3-.69,3.23,1.78,6.56,3.39,10,5.15-3.78,2.63-7.54,5.15-11.21,7.82-2.44,1.77-1.26-.75-1.83-1.3a4.21,4.21,0,0,0-2.69-.94c-8.85,0-16.89-2-23.82-8C222.53,217.91,222.22,218.27,222.53,212Z" transform="translate(-87.07 -105.32)"/><path class="cls-1" d="M336.23,405.4a14,14,0,0,1-.27-1.55c0-4,0-8,0-12a1.2,1.2,0,0,1,.38-.64,2.21,2.21,0,0,1,.61-.42c4.68-2.45,5.12-8.46,9.42-11.23,2.51-1.61,5-3.26,7.58-4.8,1.26-.75,3-1,3.92-2,3.23-3.33,5.52.45,8.23.85-.16.91,0,2.32-.52,2.63-1.67,1-3.63,1.48-5.38,2.37-1.54.78-3.7,1.51-4.29,2.84-1.9,4.27-6.18,6.41-8.34,10.13-.7,1.22-4.22,3.44-1,6a3.75,3.75,0,0,1-1.12,2.12C342.58,401.62,339.59,403.35,336.23,405.4Z" transform="translate(-87.07 -105.32)"/><path class="cls-1" d="M391.47,272.07c-3.41-1.2-6.91-2.23-10.21-3.72-1.09-.48-4-2.54.48-2.8.28,0,.82-1.38.67-2a7.17,7.17,0,0,0-1.58-3.29c-5.36-5.31-9.95-11.47-16.68-15.27a8.15,8.15,0,0,0-2.28-.45c3.17-3.36,5.3-3.47,9.73-1.84,6.89,2.53,11.24,7.88,15.68,13.21.13.15-.1.59,0,.77,4.94,7.09,4.95,7.09,4.77,13.82A5.62,5.62,0,0,1,391.47,272.07Z" transform="translate(-87.07 -105.32)"/><path class="cls-1" d="M350.24,419c6.31-6,11.16-12.35,13-20.58.51-2.22,2.16-2.47,4.19-1a14.78,14.78,0,0,0,2.6,1.4c1.66.75,1.23,1.63.66,3-2.39,5.81-6.29,10.68-9.65,15.87C358.34,422,357.24,421.93,350.24,419Z" transform="translate(-87.07 -105.32)"/><path class="cls-1" d="M375.18,285c-1.21,1.7-2.41,3.4-3.57,5.05a47.6,47.6,0,0,1-13.68-19c-.57-1.53-.69-2.1.42-2.86A23.92,23.92,0,0,1,362.2,266c1.31-.57,2.18-.44,2.7,1.42C367.65,277.26,369.71,279.52,375.18,285Z" transform="translate(-87.07 -105.32)"/><path class="cls-1" d="M242.92,204.41a22.76,22.76,0,0,0-14.64,6.05,2.73,2.73,0,0,1-2.6.16,27.32,27.32,0,0,1-3.53-4.91c-.12-.21.84-1.31,1.48-1.68a88.12,88.12,0,0,1,16.18-7.23c1.32-.43,3.34-.63,3.13,2.07C242.81,200.68,242.92,202.51,242.92,204.41Z" transform="translate(-87.07 -105.32)"/><path class="cls-1" d="M355.81,264.62c-.83-4.2-1.91-7.62-2.12-11.09-.41-6.73.18-7.08,7.63-6.57,1.28,4.2-1.17,8.88,1.6,12.94.14.2-.62,1.29-1.17,1.62C360.05,262.52,358.25,263.36,355.81,264.62Z" transform="translate(-87.07 -105.32)"/><path class="cls-1" d="M266.79,203c-6,.9-11.34-4.44-17.08.34V195c4.67.69,9.28-.31,14.21,1.4,2.77,1,3.27,1.63,3.06,3.95C266.91,201.11,266.87,201.87,266.79,203Z" transform="translate(-87.07 -105.32)"/><path class="cls-1" d="M372.58,394.93c-1.84-1.18-2.84-1.89-3.9-2.48-2.42-1.35-2.48-1.6-2.27-4.85a29.3,29.3,0,0,0-.06-7.13c-.58-3.14,2.25-2.29,3.4-3.21,1.81-1.43,2.72.9,3,1.85.67,2.39,3.3,4.51.54,7.63C372.06,388.11,372.81,391.21,372.58,394.93Z" transform="translate(-87.07 -105.32)"/><path class="cls-1" d="M242.75,206.53v8.84c-3.53,2.31-6.34-1.24-9.59-1.06-.47,0-1.33-.84-1.38-1.35a2.21,2.21,0,0,1,1-1.75C235.88,209.66,239.05,208.25,242.75,206.53Z" transform="translate(-87.07 -105.32)"/><path class="cls-1" d="M373.25,255.08l-8,4.09v-9.42c1.31,1.08,2.49,2.2,3.81,3.1A46.8,46.8,0,0,0,373.25,255.08Z" transform="translate(-87.07 -105.32)"/><path class="cls-1" d="M355.93,385.26l7.09-4.07v7.94Z" transform="translate(-87.07 -105.32)"/><path class="cls-1" d="M242.25,314c.18.19.52.45.49.51a8.31,8.31,0,0,1-.71,1l-.72-.72Z" transform="translate(-87.07 -105.32)"/><path d="M199.6,293c-2.68.46-3.6,5.21-7.95,2.48,2.73-3.31,5.36-6.84,8.35-10,4.2-4.46,4.32-4.35,8.9,0l-5,8c5.23-1.21,7.72-6.21,12.45-5.15.88.2,1.55,1.37,2.54,2.31-3.71,3.71-7.36,7.44-11.13,11.05-.61.58-1.78.58-2.69.85a13.73,13.73,0,0,0,.93-2.27,11.9,11.9,0,0,0,0-2.39,56.4,56.4,0,0,1-5.46,1.57c-2.35.44-2.93-.57-2-3C199,295.28,199.27,294.12,199.6,293Z" transform="translate(-87.07 -105.32)"/><path d="M208.52,306.27c4.5-5.34,8-9.5,11.51-13.67,1.24-1.48,2.38-1.73,3.91-.24a14,14,0,0,0,3.25,1.74c5.27,2.8,5.15,2.76,3,8.55-.41,1.11-.39,1.45-1.69,1.64-3.76.52-4.81.48-8-.78-1.92-.77-4.29-3-5.13,1.46C215.26,305.65,211.75,305.7,208.52,306.27Z" transform="translate(-87.07 -105.32)"/><path d="M284.6,346c.18-6.8,7.95-12.91,13.24-11.27a4,4,0,0,1,2.89,4.14,10.34,10.34,0,0,1-7.56,10.21c-.48.15-1.3,0-1.47.23-2.17,3.39-4.06-.16-6-.42C285.07,348.84,284.73,346.41,284.6,346Z" transform="translate(-87.07 -105.32)"/><path d="M252.54,323.44c0-1-.08-2.11,0-3.17.54-5.79,1.3-6.44,6.9-6.45,2.35,0,4.51-.29,5.12,3.05.22,1.19.84,1.92.15,3.35a18,18,0,0,1-7,8c-1.93,1.16-4.35,2.7-6.59.1-1.08-1.25-3.36-2.58-3.19-3.55C248.39,322.11,251,324,252.54,323.44Z" transform="translate(-87.07 -105.32)"/><path d="M276.61,332.37c5-8.56,8.36-8.61,14.38-1.64-1.19.92-2,3.43-4,.8-.3-.38-1.53,0-2.33,0a5.66,5.66,0,0,0,.57,1.36c1.77,2.28,1.44,4.27-.76,6a7.53,7.53,0,0,0-.56.57c-4,4.08-5.16,4.3-9.89,1.4-1.57-1-2.76-2.27-.62-4,.66-.54,1-1.95,1.55-2,2.12-.28,1.51,1.49,1.71,2.68a10.08,10.08,0,0,0,.81,2c.91-.38,2.23-.52,2.63-1.21.74-1.24,1.6-3.09,1.14-4.14S278.67,333.1,276.61,332.37Z" transform="translate(-87.07 -105.32)"/><path d="M267.2,331.81c.26,2.34,4.88,3.23,2.35,5.62-2.14,2-3.14-1.76-4.85-2.58s-3.63-1.52-5.81-2.41a10.86,10.86,0,0,1,8.37-4.25,12.26,12.26,0,0,0,4.89-1.6c.64-.34.82-1.55,1.21-2.36-.91-.14-2.34-.7-2.64-.34-1.37,1.68-2.14.56-2.88-.42a3.09,3.09,0,0,1-.77-2c.09-.48,1-1.06,1.6-1.16,4.29-.73,7.69.48,9.71,4.88C275.82,329.37,272,331.38,267.2,331.81Z" transform="translate(-87.07 -105.32)"/><path class="cls-1" d="M207,296.32c.19.18.53.45.5.51a9.13,9.13,0,0,1-.71,1l-.72-.71Z" transform="translate(-87.07 -105.32)"/><path class="cls-1" d="M200.54,291.51c.18.18.52.44.49.5a7.3,7.3,0,0,1-.71,1l-.72-.72Z" transform="translate(-87.07 -105.32)"/><path class="cls-1" d="M228.63,299.82a24,24,0,0,1-3,1.16c-1.7.34-5.5-1.45-5.08-2.31.49-1,1.95-2.48,2.66-2.31C224.7,296.69,225.92,298,228.63,299.82Z" transform="translate(-87.07 -105.32)"/><path class="cls-1" d="M296.14,337.89c.42.25,1,.41,1.22.78a1.68,1.68,0,0,1,.06,1.49c-2.13,2.29-4.33,4.53-6.6,6.69-.23.21-1.19-.09-1.6-.42s-1.06-1.1-1-1.62C288.35,343.33,294.47,338.15,296.14,337.89Z" transform="translate(-87.07 -105.32)"/><path class="cls-1" d="M262.67,318.08c-3.08,2-4.41,2.92-5.8,3.7a6.16,6.16,0,0,1-1.06-1.5,21.78,21.78,0,0,1,3.64-3.16C259.85,316.86,260.81,317.49,262.67,318.08Z" transform="translate(-87.07 -105.32)"/><path class="cls-1" d="M255.82,324.19l-2.33,2.33a11.93,11.93,0,0,1-.87-2.33c0-.14.92-.68,1.42-.68A5.69,5.69,0,0,1,255.82,324.19Z" transform="translate(-87.07 -105.32)"/><path class="cls-1" d="M283.91,331.48l-.74-1c.34-.1.89-.37,1-.27a4.72,4.72,0,0,1,.49,1.22Z" transform="translate(-87.07 -105.32)"/><path class="cls-1" d="M1536.32,127.69V473.78h-429V281.65c2.34,8.08,7.75,10.93,15.91,9.72,2.28-.34,5.74-.5,6.93.82,6.28,7,14.4,4.82,22.08,5.43,6.64.52,11.31-.84,11.29-8.44,9.66-1.06,9.41-1,12.33,6.77a14.1,14.1,0,0,0,5.66,6.78c4.24,2.43,5.45,5.77,5.73,10.24.61,10,1.52,20.09,2.32,30.13,1,12.74,6.4,22.9,17,30.45,7.59,5.42,11.06,13,11.17,22.61.17,14.46,1,28.91,1.71,43.36.25,5.36,3.52,8.07,8.58,7.88s8-3.13,7.75-8.56a49.18,49.18,0,0,0-.39-6.56c-1.36-7.26,2.58-11.34,8.85-12,11.45-1.2,23.13-2.53,34.49-1.47,15.15,1.41,16,3.41,15.34,18.69-.2,5,1.16,8.73,6.45,9.88,5.6,1.22,9.74-2.36,10-9,1.07-30.45,1.84-60.91,3.13-91.35.18-4.26,2.35-8.56,4.14-12.61,2.5-5.64,5.5-11.07,8.31-16.57,1.13-2.24,1.89-5.91,3.57-6.41,8.78-2.62,12-8.81,12.11-18,12,1.53,23.27,2.93,34.54,4.49.86.11,1.56,1.37,2.33,2.1,6.43,6.14,17.7,3.14,19.51-5.62.87-4.18,2.81-4.66,6.25-4.62s6.22.26,6.83,4.91c.32,2.4,3,6.59,4.15,6.46,10.85-1.21,22.8,5.17,32.57-4.38,1-1,3.3-.82,5-.88,3.94-.13,8,.54,11.8-.28,3.11-.68,6.9-2.31,8.59-4.76,7.87-11.36,3.2-28.31-10-34.64.68-15.25,0-31.2,2.51-46.63,2.15-13.27,4.41-28.37,21.77-32.26.74-.17,1.33-1.11,2-1.72q16-15.56,32.08-31.14c1.08-1.06,1.85-2.43,2.86-3.58C1528.41,136.5,1532.37,132.1,1536.32,127.69ZM1425.17,459.62l0,.7,2.24-.12,0-.58Z" transform="translate(-87.07 -105.32)"/><path class="cls-1" d="M1306,105.32h230.3v19.74l-12,9.1-1-1.17,10.76-11.93-1.19-1.11-11.66,10.36-1.3-1.43,9.89-10.95-1-.88-11.5,9.88-1.2-1.39,8.32-9.41c-7.21,4-14.19,8-20,13.21-10.74,9.66-20.83,20.06-31.13,30.2-1.39,1.36-3.48,3-3.51,4.55-.13,7-5.59,11.1-8.32,16.63-3.37,6.82-7.55,13.86-8.4,21.16-1.9,16.24-1.95,32.69-2.73,49.06-.1,2.24,0,4.49,0,6.65-4.41-1.95-7.9-4.52-11.61-4.91a113.43,113.43,0,0,0-21,0,8.61,8.61,0,0,0-6,4.37c-3.38,7.92-3.58,8.25-12.73,6.07a48,48,0,0,0-1.28-5.65c-2.28-6.53-13-9-18.31-4.67a18.36,18.36,0,0,1-8.24,3.4c-4.06.67-9.8-1.2-12.1.94-5.65,5.24-11.31,2.31-17.42,3.08-.19-8.92-3.65-14.73-12-17.51-1.74-.59-2.64-4.13-3.61-6.45-1.84-4.37-2.41-9.77-5.37-13.08-5.9-6.61-7.42-13.87-7.56-22.29-.48-27.61-1.4-55.21-2.14-82.81C1310.87,113.22,1310.68,108.4,1306,105.32Z" transform="translate(-87.07 -105.32)"/><path class="cls-1" d="M1107.32,272.44V105.32h117.12c-1.82,3.49-4.92,6.88-5.22,10.51a329,329,0,0,0-1.41,38.05c.4,12.51-3.57,22-13.94,29.19a29.31,29.31,0,0,0-13,21.23c-1.45,12.59-2.41,25.24-3.8,37.84-.32,2.9-.74,7.37-2.52,8.24-6.6,3.23-9.59,8.43-10.3,15.14h-10.92c.35-9-5.12-10-12.07-9.27-3.69.36-7.46-.13-11.16.15-1.84.15-4.24.63-5.3,1.88-3.39,4-7.65,5-12.39,4.32C1114.46,261.54,1109.33,264.52,1107.32,272.44Z" transform="translate(-87.07 -105.32)"/><path d="M1107.32,272.44c2-7.92,7.14-10.9,15.11-9.84,4.74.63,9-.3,12.39-4.32,1.06-1.25,3.46-1.73,5.3-1.88,3.7-.28,7.47.21,11.16-.15,7-.69,12.42.29,12.07,9.27h10.92c.71-6.71,3.7-11.91,10.3-15.14,1.78-.87,2.2-5.34,2.52-8.24,1.39-12.6,2.35-25.25,3.8-37.84a29.31,29.31,0,0,1,13-21.23c10.37-7.17,14.34-16.68,13.94-29.19a329,329,0,0,1,1.41-38c.3-3.63,3.4-7,5.22-10.51H1231c6.06,4.13,4.7,10.44,4.16,16.1-.58,6,2,9,7.31,10.54a81.47,81.47,0,0,0,44,.18c6.37-1.69,9.48-5.29,8.12-12.52-1-5.27-1.54-11.14,4.78-14.3H1306c4.66,3.08,4.85,7.9,5,12.76.74,27.6,1.66,55.2,2.14,82.81.14,8.42,1.66,15.68,7.56,22.29,3,3.31,3.53,8.71,5.37,13.08,1,2.32,1.87,5.86,3.61,6.45,8.31,2.78,11.77,8.59,12,17.51,6.11-.77,11.77,2.16,17.42-3.08,2.3-2.14,8-.27,12.1-.94a18.36,18.36,0,0,0,8.24-3.4c5.36-4.3,16-1.86,18.31,4.67a48,48,0,0,1,1.28,5.65c9.15,2.18,9.35,1.85,12.73-6.07a8.61,8.61,0,0,1,6-4.37,113.43,113.43,0,0,1,21,0c3.71.39,7.2,3,11.61,4.91,0-2.16-.09-4.41,0-6.65.78-16.37.83-32.82,2.73-49.06.85-7.3,5-14.34,8.4-21.16,2.73-5.53,8.19-9.6,8.32-16.63,0-1.55,2.12-3.19,3.51-4.55,10.3-10.14,20.39-20.54,31.13-30.2,5.82-5.23,12.8-9.17,20-13.21l-8.32,9.41,1.2,1.39,11.5-9.88,1,.88L1520,128.88l1.3,1.43L1532.93,120l1.19,1.11L1523.36,133l1,1.17,12-9.1v2.63c-4,4.41-7.91,8.81-11.83,13.24-1,1.15-1.78,2.52-2.86,3.58q-16,15.62-32.08,31.14c-.62.61-1.21,1.55-2,1.72-17.36,3.89-19.62,19-21.77,32.26-2.51,15.43-1.83,31.38-2.51,46.63,13.18,6.33,17.85,23.28,10,34.64-1.69,2.45-5.48,4.08-8.59,4.76-3.78.82-7.86.15-11.8.28-1.71.06-4-.11-5,.88-9.77,9.55-21.72,3.17-32.57,4.38-1.2.13-3.83-4.06-4.15-6.46-.61-4.65-3.25-4.87-6.83-4.91s-5.38.44-6.25,4.62c-1.81,8.76-13.08,11.76-19.51,5.62-.77-.73-1.47-2-2.33-2.1-11.27-1.56-22.55-3-34.54-4.49-.1,9.17-3.33,15.36-12.11,18-1.68.5-2.44,4.17-3.57,6.41-2.81,5.5-5.81,10.93-8.31,16.57-1.79,4.05-4,8.35-4.14,12.61-1.29,30.44-2.06,60.9-3.13,91.35-.23,6.61-4.37,10.19-10,9-5.29-1.15-6.65-4.9-6.45-9.88.63-15.28-.19-17.28-15.34-18.69-11.36-1.06-23,.27-34.49,1.47-6.27.67-10.21,4.75-8.85,12a49.18,49.18,0,0,1,.39,6.56c.26,5.43-2.65,8.38-7.75,8.56s-8.33-2.52-8.58-7.88c-.66-14.45-1.54-28.9-1.71-43.36-.11-9.57-3.58-17.19-11.17-22.61-10.57-7.55-16-17.71-17-30.45-.8-10-1.71-20.08-2.32-30.13-.28-4.47-1.49-7.81-5.73-10.24a14.1,14.1,0,0,1-5.66-6.78c-2.92-7.74-2.67-7.83-12.33-6.77,0,7.6-4.65,9-11.29,8.44-7.68-.61-15.8,1.58-22.08-5.43-1.19-1.32-4.65-1.16-6.93-.82-8.16,1.21-13.57-1.64-15.91-9.72ZM1295,418.71c3.62-95.4,3.51-190.07.11-285-20.51,7.68-40.13,7.57-60.43.19-3,95.33-3.3,189.88.2,284.9C1255.18,411,1274.6,410.9,1295,418.71Zm-78.4-43.39V179.08c-17.27,9.1-23.6,24-23.74,42.42-.25,34.61-1.14,69.22-.64,103.82C1192.51,345.33,1194.92,365.33,1216.61,375.32Zm86.11-103.41c-1,46.42-1.92,88.92-2.91,131.41-.27,11.6-1,23.2-1.12,34.8,0,1.6,1.93,3.22,3,4.83,1.48-1.46,3.22-2.75,4.36-4.44.64-.94.35-2.55.39-3.86.93-31.75,2.71-63.51,2.59-95.26-.29-74.05-1.49-148.1-2.35-222.15,0-1.52,0-3.26-.64-4.5s-2.37-2.9-3.52-2.82-2.9,1.68-3.55,3-.1,3-.06,4.52C1300.19,170.24,1301.51,223,1302.72,271.91Zm-75.59,6.37c1.31-55,2.58-108.06,3.83-161.1.07-3,1.13-7-3.33-7-1.43,0-3.89,4.28-4,6.68-3.82,89-4.16,178-1.84,267q.7,26.63,1.9,53.24a9.61,9.61,0,0,0,2.7,5.39c.48.54,3.56-.07,3.87-.82a15.66,15.66,0,0,0,.9-6.27C1229.84,382.41,1228.45,329.37,1227.13,278.28Zm87,51.65,2.21.76c1.84-4.7,4.75-9.28,5.33-14.14a322.23,322.23,0,0,0-.35-81.33c-.58-4.27-3.4-8.23-5.18-12.34l-2,.82Zm172.58-157.82c10.59-10.23,21.21-20.53,31.91-30.77,3.59-3.45,1.07-6.1-1.27-8.27-2.13-2-4.45-5.94-8.07-2.17-10.69,11.16-21.22,22.47-31.6,33.49Zm-122,89.25v31.56l18.07.79v-34Zm85.87,30.26c6.74-1.55,14.31,3.44,19.65-3.67,3.53-4.69,3.33-18.85-.57-22.69-5.75-5.66-12.91-1.85-19.08-2.57Zm-20.58-34.17v39c12.14,1.92,14.22.85,15.14-8.16l-6.4-1.63.1-.91,7.46-.91V269.31l-7.41-1.25.07-1,6.41-1.67C1442.81,256.14,1441.8,255.67,1429.92,257.45Zm-102.22-9.59v58.32c5.22.12,8.6-2.34,8.72-7.13q.55-21.57.13-43.16C1336.46,250.9,1333.07,248.2,1327.7,247.86Zm-173.42,45.27V260.69c-3,0-5.59.22-8.15,0-4.75-.48-7.55.9-7.41,6.24.2,7.2-.11,14.42.49,21.57.15,1.68,2.88,4,4.79,4.47C1147.27,293.67,1150.83,293.13,1154.28,293.13Zm321.06-116c-.3-.81-.59-1.62-.88-2.42-1.57.64-3.9.84-4.59,2-3.89,6.51-8.3,12.94-10.84,20-6.76,18.77-4.32,38.42-4,57.81,0,1.12,1.36,2.21,2.09,3.31.84-1.21,2.38-2.42,2.4-3.64.18-9.62,0-19.23,0-28.85C1459.68,207.67,1463.73,191.19,1475.34,177.17Zm-132.58,87.94v23.62h16.9V265.11Zm-208.92,22.37V266.43c-4,.19-7.71.46-11.38.5-9.17.11-11.45,2.79-10.47,11.89.6,5.59,2.58,8.86,9,8.19C1125.05,286.6,1129.2,287.27,1133.84,287.48ZM1387.25,256v42.08l1.52,1.2c1.73-2.21,4.86-4.36,5-6.65.5-10.62.31-21.29.06-31.93C1393.71,256.68,1391.19,255,1387.25,256ZM1186,299.25V256.18c-7.18,2.5-8.17,6-7.26,27.94C1179,289.76,1177.62,296.64,1186,299.25Zm229.87-14c3.07-16,2.13-17.2-12.84-16.68a22.75,22.75,0,0,0-3,.48v16.2Zm11.21,11.53v-40l-6.55.38v39.61ZM1174,269.49c-5.61,1-10.88.95-15.06,3.09-1.42.73-1.12,9.51.21,10,4.43,1.75,9.67,1.43,14.85,1.93Z" transform="translate(-87.07 -105.32)"/><path class="cls-1" d="M1299.44,105.32c-6.32,3.16-5.77,9-4.78,14.3,1.36,7.23-1.75,10.83-8.12,12.52a81.47,81.47,0,0,1-44-.18c-5.32-1.53-7.89-4.52-7.31-10.54.54-5.66,1.9-12-4.16-16.1Z" transform="translate(-87.07 -105.32)"/><path d="M1425.17,459.62h2.24l0,.58-2.24.12Z" transform="translate(-87.07 -105.32)"/><path class="cls-1" d="M1295,418.71c-20.41-7.81-39.83-7.7-60.12.09-3.5-95-3.17-189.57-.2-284.9,20.3,7.38,39.92,7.49,60.43-.19C1298.52,228.64,1298.63,323.31,1295,418.71Zm-52.17-177h-1v71.42h1Zm44.89.15-1-.23V313h1Z" transform="translate(-87.07 -105.32)"/><path class="cls-1" d="M1216.61,375.32c-21.69-10-24.1-30-24.38-50-.5-34.6.39-69.21.64-103.82.14-18.38,6.47-33.32,23.74-42.42Z" transform="translate(-87.07 -105.32)"/><path class="cls-1" d="M1302.72,271.91c-1.21-48.88-2.53-101.67-3.84-154.45,0-1.53-.53-3.29.06-4.52s2.27-2.94,3.55-3,2.8,1.55,3.52,2.82.62,3,.64,4.5c.86,74.05,2.06,148.1,2.35,222.15.12,31.75-1.66,63.51-2.59,95.26,0,1.31.25,2.92-.39,3.86-1.14,1.69-2.88,3-4.36,4.44-1-1.61-3-3.23-3-4.83.16-11.6.85-23.2,1.12-34.8C1300.8,360.83,1301.7,318.33,1302.72,271.91Z" transform="translate(-87.07 -105.32)"/><path class="cls-1" d="M1227.13,278.28c1.32,51.09,2.71,104.13,4,157.16a15.66,15.66,0,0,1-.9,6.27c-.31.75-3.39,1.36-3.87.82a9.61,9.61,0,0,1-2.7-5.39q-1.17-26.61-1.9-53.24c-2.32-89-2-178,1.84-267,.11-2.4,2.57-6.64,4-6.68,4.46-.09,3.4,4,3.33,7C1229.71,170.22,1228.44,223.25,1227.13,278.28Z" transform="translate(-87.07 -105.32)"/><path class="cls-1" d="M1314.1,329.93V223.7l2-.82c1.78,4.11,4.6,8.07,5.18,12.34a322.23,322.23,0,0,1,.35,81.33c-.58,4.86-3.49,9.44-5.33,14.14Z" transform="translate(-87.07 -105.32)"/><path class="cls-1" d="M1486.68,172.11l-9-7.72c10.38-11,20.91-22.33,31.6-33.49,3.62-3.77,5.94.2,8.07,2.17,2.34,2.17,4.86,4.82,1.27,8.27C1507.89,151.58,1497.27,161.88,1486.68,172.11Z" transform="translate(-87.07 -105.32)"/><path class="cls-1" d="M1364.63,261.36l18.07-1.61v34l-18.07-.79Z" transform="translate(-87.07 -105.32)"/><path class="cls-1" d="M1450.5,291.62V262.69c6.17.72,13.33-3.09,19.08,2.57,3.9,3.84,4.1,18,.57,22.69C1464.81,295.06,1457.24,290.07,1450.5,291.62Z" transform="translate(-87.07 -105.32)"/><path class="cls-1" d="M1429.92,257.45c11.88-1.78,12.89-1.31,15.37,7.9l-6.41,1.67-.07,1,7.41,1.25v15.57l-7.46.91-.1.91,6.4,1.63c-.92,9-3,10.08-15.14,8.16Z" transform="translate(-87.07 -105.32)"/><path class="cls-1" d="M1327.7,247.86c5.37.34,8.76,3,8.85,8q.4,21.57-.13,43.16c-.12,4.79-3.5,7.25-8.72,7.13Z" transform="translate(-87.07 -105.32)"/><path class="cls-1" d="M1154.28,293.13c-3.45,0-7,.54-10.28-.2-1.91-.43-4.64-2.79-4.79-4.47-.6-7.15-.29-14.37-.49-21.57-.14-5.34,2.66-6.72,7.41-6.24,2.56.26,5.17,0,8.15,0Z" transform="translate(-87.07 -105.32)"/><path class="cls-1" d="M1475.34,177.17c-11.61,14-15.66,30.5-15.76,48.22,0,9.62.13,19.23,0,28.85,0,1.22-1.56,2.43-2.4,3.64-.73-1.1-2.07-2.19-2.09-3.31-.33-19.39-2.77-39,4-57.81,2.54-7.06,7-13.49,10.84-20,.69-1.17,3-1.37,4.59-2C1474.75,175.55,1475,176.36,1475.34,177.17Z" transform="translate(-87.07 -105.32)"/><path class="cls-1" d="M1342.76,265.11h16.9v23.62h-16.9Z" transform="translate(-87.07 -105.32)"/><path class="cls-1" d="M1133.84,287.48c-4.64-.21-8.79-.88-12.83-.47-6.44.67-8.42-2.6-9-8.19-1-9.1,1.3-11.78,10.47-11.89,3.67,0,7.33-.31,11.38-.5Z" transform="translate(-87.07 -105.32)"/><path class="cls-1" d="M1387.25,256c3.94-1,6.46.65,6.55,4.7.25,10.64.44,21.31-.06,31.93-.11,2.29-3.24,4.44-5,6.65l-1.52-1.2Z" transform="translate(-87.07 -105.32)"/><path class="cls-1" d="M1186,299.25c-8.42-2.61-7-9.49-7.26-15.13-.91-21.9.08-25.44,7.26-27.94Z" transform="translate(-87.07 -105.32)"/><path class="cls-1" d="M1415.91,285.23h-15.85V269a22.75,22.75,0,0,1,3-.48C1418,268,1419,269.21,1415.91,285.23Z" transform="translate(-87.07 -105.32)"/><path class="cls-1" d="M1427.12,296.76h-6.55V257.15l6.55-.38Z" transform="translate(-87.07 -105.32)"/><path class="cls-1" d="M1174,269.49v15.06c-5.18-.5-10.42-.18-14.85-1.93-1.33-.53-1.63-9.31-.21-10C1163.11,270.44,1168.38,270.45,1174,269.49Z" transform="translate(-87.07 -105.32)"/><ellipse cx="1155.24" cy="172.13" rx="0.74" ry="50.5"/><path d="M1287.73,241.89V313h-1V241.66Z" transform="translate(-87.07 -105.32)"/><path class="cls-4" d="M714.67,340.33c-3.08,0-6.16,0-9.24,0-1,0-1.34-.33-1.26-1.31a20,20,0,0,0,0-3c-.06-.93.31-1.15,1.18-1.14,6,0,12.08,0,18.12,0,1,0,1.35-.21,1.3-1.25-.08-1.75-.09-3.52,0-5.28,0-1-.23-1.37-1.32-1.36-6,.06-11.92,0-17.88.06-1.13,0-1.48-.32-1.39-1.42a20.31,20.31,0,0,0,0-3.12c0-.87.31-1.06,1.11-1.05,6,0,12,0,18,.05,1.28,0,1.55-.38,1.48-1.55-.09-1.67-.07-3.36,0-5,0-1-.28-1.23-1.22-1.22-6,0-12,0-18,0-1.17,0-1.45-.37-1.37-1.42a18.46,18.46,0,0,0,0-2.88c-.07-.95.26-1.23,1.21-1.23,5.93,0,11.85,0,17.77,0,1.59,0,1.59,0,1.59-1.65s-.05-3.36,0-5c0-.94-.24-1.22-1.2-1.21-6,0-12,0-18,0-1.11,0-1.49-.3-1.39-1.4a17.31,17.31,0,0,0,0-2.88c-.08-1,.27-1.24,1.22-1.24,5.2,0,10.4,0,15.6,0,1,0,1.92,0,2.88,0,.6,0,.87-.2.87-.83,0-2,0-4.08,0-6.12,0-.78-.4-.82-1-.82h-9.12c-3.08,0-6.16,0-9.24,0-1,0-1.32-.34-1.25-1.3a17.68,17.68,0,0,0,0-3c-.08-1,.26-1.3,1.27-1.29,6,0,11.92,0,17.88,0,1.18,0,1.51-.33,1.45-1.48-.1-1.71-.07-3.44,0-5.16,0-.94-.26-1.23-1.21-1.22-5.8,0-11.6,0-17.41,0-2.19,0-1.93.28-2-2,0-.72.06-1.45,0-2.16-.12-1.05.34-1.26,1.3-1.26,5.92,0,11.84,0,17.76,0,1.22,0,1.62-.29,1.54-1.53a49.34,49.34,0,0,1,0-5.16c0-.93-.23-1.22-1.2-1.21-6,0-12,0-18,0-1.12,0-1.48-.32-1.39-1.41a18.78,18.78,0,0,0,0-3c-.06-.9.26-1.17,1.16-1.16,6,0,12,0,18,0,1.18,0,1.5-.32,1.44-1.47-.1-1.75-.07-3.52,0-5.28,0-.92-.3-1.15-1.18-1.14-6,0-12,0-18,0-1.11,0-1.51-.3-1.41-1.42a18.33,18.33,0,0,0,0-2.87c-.06-.9.27-1.18,1.16-1.17,4.2,0,8.4,0,12.6,0,2,0,3.93,0,5.89,0a2.26,2.26,0,0,0,1.81-.72q3.79-3.84,7.64-7.63a2.18,2.18,0,0,0,.61-1.72c0-6.12,0-12.25,0-18.37,0-.9.18-1.3,1.17-1.22a20.31,20.31,0,0,0,3.12,0c1-.08,1.2.32,1.2,1.23,0,6,0,11.93,0,17.89,0,1.07.24,1.49,1.38,1.43,1.75-.09,3.52-.07,5.28,0,1,0,1.21-.32,1.2-1.25,0-6,0-12.08,0-18.12,0-.88.2-1.24,1.12-1.18a23.36,23.36,0,0,0,3.24,0c.92-.06,1.14.28,1.13,1.17,0,6,0,11.92,0,17.88,0,1.26.36,1.57,1.54,1.5a49.84,49.84,0,0,1,5,0c1,.05,1.36-.26,1.35-1.34,0-6,0-11.92,0-17.88,0-1.07.28-1.43,1.34-1.33a12.84,12.84,0,0,0,2.63,0c1.19-.12,1.59.23,1.57,1.5-.07,5.88,0,11.76,0,17.64,0,1.1.28,1.47,1.4,1.41a47.07,47.07,0,0,1,5,0c1.09.06,1.43-.28,1.42-1.39-.05-5.88,0-11.76-.06-17.64,0-1.25.35-1.65,1.55-1.52a13.7,13.7,0,0,0,2.64,0c1-.09,1.36.21,1.35,1.31-.06,5.92,0,11.84-.06,17.76,0,1.16.3,1.54,1.47,1.48,1.76-.09,3.52-.07,5.28,0,.92,0,1.14-.3,1.13-1.17,0-6,0-12,0-18,0-1,.21-1.46,1.31-1.36a18.78,18.78,0,0,0,3,0c.93-.07,1.14.29,1.13,1.17,0,6,0,11.92,0,17.88,0,1.13.25,1.57,1.45,1.5a49.34,49.34,0,0,1,5.16,0c1,0,1.29-.24,1.29-1.25,0-6,0-11.93,0-17.89,0-1,.18-1.54,1.35-1.42a15.82,15.82,0,0,0,3,0c.92-.07,1.22.19,1.22,1.18,0,6,0,12,0,18,0,1.15.35,1.42,1.41,1.37a47.07,47.07,0,0,1,5,0c1.11.06,1.35-.36,1.35-1.37,0-5.93,0-11.85,0-17.77,0-1.05.22-1.54,1.39-1.41a12,12,0,0,0,2.75,0c1.22-.14,1.45.38,1.44,1.48-.05,5.8,0,11.6,0,17.4,0,1.65,0,1.65,1.63,1.65s3.2-.06,4.8,0c1.07.05,1.43-.26,1.42-1.4-.06-5.92,0-11.84,0-17.76,0-1.07.24-1.52,1.39-1.39a13.77,13.77,0,0,0,2.87,0c1-.09,1.27.34,1.26,1.3,0,6,0,12,0,18a3.24,3.24,0,0,0,1.08,2.62c2.27,2.19,4.52,4.42,6.69,6.71a3.3,3.3,0,0,0,2.65,1c5.88,0,11.76,0,17.65-.05,1.19,0,1.67.28,1.51,1.54a11,11,0,0,0,0,2.63c.13,1.13-.38,1.31-1.37,1.31-5.8,0-11.6,0-17.4,0-1.74,0-1.75,0-1.75,1.74s.06,3.29,0,4.92c-.05,1,.3,1.21,1.22,1.21,6,0,12,0,18,0,1,0,1.44.23,1.33,1.32a17,17,0,0,0,0,3.11c.07.94-.29,1.13-1.16,1.13-5.88,0-11.76,0-17.64,0-2,0-1.72-.14-1.73,1.73,0,1.64,0,3.28,0,4.92-.05,1,.32,1.22,1.24,1.22,5.92,0,11.84,0,17.77,0,1.16,0,1.69.22,1.54,1.5a12.73,12.73,0,0,0,0,2.76c.09,1-.3,1.21-1.22,1.2-5.8,0-11.6,0-17.4,0-2.16,0-1.89-.12-1.9,1.84,0,1.6,0,3.2,0,4.8-.05,1,.33,1.2,1.25,1.19,6,0,11.92,0,17.88,0,1.19,0,1.54.36,1.42,1.49a12.13,12.13,0,0,0,0,2.76c.14,1.17-.37,1.35-1.41,1.35-5.84-.05-11.68,0-17.52,0-1.68,0-1.58-.34-1.59,1.61,0,1.6.06,3.2,0,4.8-.05,1,.25,1.37,1.34,1.36,6-.05,12,0,18,0,1,0,1.26.3,1.2,1.23a20.31,20.31,0,0,0,0,3.12c.1,1-.39,1.16-1.25,1.16-4.8,0-9.6,0-14.41,0-1.28,0-2.56.05-3.84,0-.79,0-1,.25-1,1,0,1.92,0,3.84,0,5.76,0,.94.34,1.14,1.2,1.13,6,0,12,0,18,0,1,0,1.45.23,1.35,1.32a16.59,16.59,0,0,0,0,3c.08,1-.32,1.22-1.24,1.22-5.88,0-11.76,0-17.64,0-1.64,0-1.64,0-1.64,1.6s0,3.36,0,5c0,.93.3,1.13,1.17,1.12,6,0,12,0,18,0,1.13,0,1.47.32,1.37,1.41a20.18,20.18,0,0,0,0,3.11c.05.87-.29,1.07-1.1,1.07-6,0-12,0-18,0-1.06,0-1.5.22-1.44,1.38.1,1.79.07,3.6,0,5.4,0,.84.27,1.09,1.1,1.08,6,0,12,0,18,0,1.17,0,1.55.34,1.43,1.48a14.14,14.14,0,0,0,0,2.76c.08,1-.26,1.22-1.22,1.22-6,0-12,0-18,0a3,3,0,0,0-2.42,1c-2.28,2.36-4.58,4.69-6.94,7a3.21,3.21,0,0,0-1,2.55c0,5.88,0,11.76,0,17.64,0,1.12-.24,1.63-1.45,1.51a13.3,13.3,0,0,0-2.75,0c-1.11.1-1.33-.36-1.32-1.38,0-5.88,0-11.76,0-17.64,0-1.06-.22-1.5-1.37-1.44-1.76.1-3.52.08-5.28,0-1,0-1.22.32-1.21,1.24,0,5.88,0,11.76,0,17.64,0,1.54,0,1.54-1.59,1.55-.84,0-1.68-.06-2.51,0-1.08.1-1.45-.24-1.44-1.38.06-5.84,0-11.68.06-17.52,0-1.21-.29-1.63-1.52-1.55-1.56.11-3.12,0-4.68,0s-1.58,0-1.58,1.53c0,5.84,0,11.68,0,17.52,0,1-.19,1.47-1.31,1.37a20.18,20.18,0,0,0-3.11,0c-.91.07-1.15-.26-1.14-1.16,0-5.8,0-11.6,0-17.4,0-.36,0-.72,0-1.08,0-.57-.2-.78-.77-.78q-3.12,0-6.24,0c-1,0-.84.63-.84,1.23,0,5.88,0,11.76,0,17.64,0,1.19-.26,1.7-1.51,1.55a11.18,11.18,0,0,0-2.52,0c-1.22.14-1.45-.38-1.44-1.49,0-5.88,0-11.77,0-17.65,0-1.11-.35-1.35-1.36-1.31-1.72.07-3.44.08-5.16,0-1.05,0-1.37.26-1.36,1.34,0,5.92,0,11.84,0,17.76,0,1.06-.27,1.43-1.34,1.34a21.66,21.66,0,0,0-3.12,0c-.85,0-1.07-.29-1.06-1.11,0-5.92,0-11.84,0-17.76,0-1.55,0-1.55-1.57-1.55s-3.36.05-5,0c-.95,0-1.23.28-1.22,1.22,0,5.92,0,11.84,0,17.76,0,1.16-.28,1.59-1.46,1.47a15.29,15.29,0,0,0-2.87,0c-1,.08-1.21-.31-1.2-1.24,0-5.92,0-11.84,0-17.76,0-1.19-.37-1.5-1.5-1.44-1.76.08-3.52.06-5.28,0-.89,0-1.15.25-1.14,1.16,0,6,0,12,0,18,0,1-.23,1.38-1.26,1.29a15.39,15.39,0,0,0-2.88,0c-1,.09-1.38-.25-1.37-1.33,0-5.88,0-11.76,0-17.64,0-1.16-.31-1.54-1.47-1.47a47.5,47.5,0,0,1-4.92,0c-1.12-.06-1.5.26-1.48,1.44.06,5.8,0,11.6,0,17.4,0,1.58,0,1.59-1.57,1.59-.92,0-1.85-.06-2.76,0s-1.15-.29-1.14-1.17c0-5.48-.09-11,.07-16.44a5.94,5.94,0,0,0-2.14-5.08c-2.18-1.94-4.17-4.09-6.21-6.17a2.42,2.42,0,0,0-1.91-.79c-3,0-6,0-9,0Zm36.49-12.51a5.29,5.29,0,0,0-10.58-.23,5.36,5.36,0,0,0,5.19,5.46A5.26,5.26,0,0,0,751.16,327.82ZM856,242.61h-2.52c-2.74,0-2.7,0-2.7,2.77,0,.85.32,1,1,1,2.2,0,4.4,0,6.6,0,2.71,0,2.69,0,2.66-2.72,0-.76-.18-1.07-1-1C858.7,242.66,857.34,242.61,856,242.61ZM818.22,363.9v-2.51c0-2.77,0-2.74-2.76-2.67-.7,0-.88.26-.87.9,0,2.28,0,4.55,0,6.82,0,2.7,0,2.66,2.73,2.63.79,0,.92-.3.9-1C818.19,366.69,818.22,365.3,818.22,363.9ZM765,218.28h0v-2.52c0-2.87,0-2.86-2.85-2.73-.56,0-.77.18-.77.75,0,2.95-.11,5.9.05,8.84.09,1.61,1.5.44,2.27.68.44.15,1.35.44,1.31-.72C765,221.15,765,219.71,765,218.28Zm26.64,0h0v-2.52c0-2.77,0-2.74-2.78-2.69-.71,0-.86.25-.85.9,0,2.23,0,4.47,0,6.7,0,2.86,0,2.84,2.82,2.74.62,0,.82-.2.8-.83C791.63,221.11,791.66,219.67,791.66,218.24ZM788,363.9v2.52c0,2.81,0,2.8,2.85,2.64.56,0,.78-.18.78-.76,0-2.95.15-5.93-.07-8.87-.11-1.54-1.61-.38-2.44-.65-.42-.15-1.2-.29-1.11.69,0,.23,0,.48,0,.72C788.05,361.43,788.05,362.66,788,363.9Zm30.18-145.65v-2.64c0-2.63,0-2.59-2.65-2.58-.85,0-1,.31-1,1.05,0,2.2,0,4.4,0,6.6,0,2.78,0,2.75,2.8,2.69.74,0,.85-.3.83-.92C818.2,221.05,818.22,219.65,818.22,218.25ZM761.41,363.91h0v2.51c0,2.71,0,2.68,2.69,2.65.74,0,1-.23.95-1,0-2.23,0-4.46,0-6.69,0-2.86,0-2.84-2.88-2.7-.58,0-.75.2-.74.76C761.43,361,761.41,362.43,761.41,363.91ZM710.23,246.34h2.51c2.74,0,2.71,0,2.67-2.8,0-.74-.21-.95-.95-.94-2.19.05-4.39,0-6.58,0-3,0-2.94,0-2.81,2.92,0,.64.24.83.85.81C707.35,246.31,708.79,246.33,710.23,246.34Zm0,26.55h2.51c2.77,0,2.74,0,2.67-2.77,0-.71-.25-.88-.9-.87-2.23,0-4.46,0-6.69,0-2.89,0-2.86,0-2.75,2.85,0,.66.27.8.85.79C707.36,272.87,708.79,272.89,710.23,272.89ZM856,269.26h-2.51c-2.76,0-2.73,0-2.68,2.78,0,.71.26.87.9.86,2.28,0,4.55,0,6.82,0,2.64,0,2.64,0,2.56-2.66a1.76,1.76,0,0,1,0-.23c.07-.6-.24-.76-.78-.75C858.82,269.27,857.39,269.26,856,269.26ZM710.26,299.52h2.52c2.7,0,2.67,0,2.64-2.71,0-.77-.27-.93-1-.92-2.24,0-4.48,0-6.72,0-2.72,0-2.68,0-2.66,2.72,0,.81.31.92,1,.91C707.45,299.5,708.85,299.52,710.26,299.52Zm145.57,0h2.63c2.72,0,2.7,0,2.6-2.75,0-.68-.24-.89-.91-.88-2.23,0-4.46,0-6.69,0-2.86,0-2.84,0-2.69,2.89,0,.57.19.76.75.75C853,299.52,854.39,299.54,855.83,299.53Zm-145.6,36.33h-2.51c-2.71,0-2.68,0-2.65,2.69,0,.74.24.95,1,.94,2.23,0,4.46,0,6.69,0,2.86,0,2.84,0,2.69-2.88,0-.56-.19-.76-.76-.74C713.18,335.88,711.7,335.86,710.23,335.86Zm145.62,3.61h2.63c2.64,0,2.6,0,2.59-2.66,0-.85-.34-1-1.06-1-2.19,0-4.39,0-6.58,0-2.85,0-2.83,0-2.66,2.9,0,.59.23.74.78.73C853,339.45,854.42,339.47,855.85,339.47Zm0-26.6h2.62c2.68,0,2.65,0,2.61-2.73,0-.75-.24-.95-1-.94-2.19,0-4.38,0-6.58,0-2.92,0-2.9,0-2.75,2.92,0,.56.18.76.75.75C853,312.84,854.39,312.87,855.83,312.87ZM738.42,218.31h0v-2.64c0-2.7,0-2.67-2.7-2.64-.81,0-.89.32-.88,1,0,2.23,0,4.47,0,6.71,0,2.71,0,2.68,2.69,2.64.8,0,.92-.31.9-1C738.39,221,738.42,219.67,738.42,218.31Zm9.64-.12v2.51c0,2.75,0,2.72,2.8,2.67.67,0,.89-.19.88-.88,0-2.24,0-4.48,0-6.71,0-2.88,0-2.86-2.85-2.75-.63,0-.83.22-.82.84C748.08,215.31,748.06,216.75,748.06,218.19Zm26.65-.12v2.64c0,2.7,0,2.66,2.68,2.66.77,0,.93-.24.91-1,0-2.24,0-4.48,0-6.72,0-2.79,0-2.77-2.8-2.67-.65,0-.8.25-.79.85C774.73,215.27,774.71,216.67,774.71,218.07Zm30.2.12v-2.52c0-2.71,0-2.68-2.71-2.64-.68,0-.89.2-.88.88,0,2.27,0,4.55,0,6.83,0,2.7,0,2.66,2.69,2.63.8,0,.92-.31.9-1C804.88,221,804.91,219.59,804.91,218.19Zm23.07,0h0c0,1.44,0,2.88,0,4.32,0,.3-.2.8.38.82.92,0,1.84,0,2.76,0,.49,0,.43-.38.43-.69q0-4.44,0-8.88c0-.26.09-.65-.29-.67a27.12,27.12,0,0,0-3,0c-.45,0-.28.51-.28.79C828,215.32,828,216.76,828,218.2ZM778.28,364h0v-2.64c0-2.77,0-2.75-2.81-2.64-.66,0-.79.26-.78.85,0,2.28,0,4.56,0,6.84,0,2.72,0,2.69,2.7,2.65.67,0,.92-.16.89-.86C778.25,366.8,778.28,365.4,778.28,364Zm77.55-104.4h2.63c2.69,0,2.67,0,2.6-2.74,0-.68-.22-.89-.9-.88-2.23,0-4.47,0-6.7,0-2.84,0-2.82,0-2.69,2.86,0,.57.17.76.75.75C853,259.58,854.39,259.6,855.83,259.6ZM738.41,363.87v-2.52c0-2.69,0-2.66-2.71-2.62-.67,0-.89.17-.88.86,0,2.27,0,4.55,0,6.83,0,2.73,0,2.71,2.7,2.64.66,0,.91-.18.89-.88C738.38,366.75,738.41,365.31,738.41,363.87Zm-28.19-51h2.51c2.7,0,2.67,0,2.68-2.66,0-.76-.17-1-1-1-2.2.06-4.4,0-6.6,0-2.88,0-2.86,0-2.75,2.85,0,.62.18.84.82.82C707.34,312.84,708.78,312.87,710.22,312.87Zm41.5,50.91h0v-2.39c0-2.76,0-2.74-2.8-2.67-.69,0-.88.22-.87.89,0,2.24,0,4.48,0,6.71,0,2.89,0,2.87,2.86,2.74.64,0,.82-.24.8-.84C751.7,366.74,751.72,365.26,751.72,363.78Zm-41.44-37.69h2.52c2.69,0,2.65,0,2.61-2.7,0-.81-.33-.89-1-.88-2.24,0-4.48,0-6.72,0-2.78,0-2.76,0-2.62,2.85,0,.58.2.75.76.73C707.32,326.08,708.8,326.09,710.28,326.09ZM828,363.94v2.51c0,2.72,0,2.69,2.73,2.61.71,0,.87-.26.86-.91,0-2.24,0-4.48,0-6.72,0-2.87,0-2.85-2.87-2.7-.6,0-.73.23-.72.77C828,361,828,362.46,828,363.94ZM710.22,259.6h2.52c2.74,0,2.72,0,2.67-2.76,0-.69-.21-.87-.88-.86-2.24,0-4.47,0-6.71,0-2.86,0-2.83,0-2.75,2.82,0,.65.25.8.84.79C707.35,259.58,708.79,259.6,710.22,259.6Zm145.63,66.5h2.64c2.65,0,2.62,0,2.57-2.68,0-.75-.27-.93-1-.92-2.2,0-4.4,0-6.59,0-2.88,0-2.86,0-2.72,2.85,0,.6.21.75.77.74C853,326.08,854.42,326.1,855.85,326.1Zm0-43.46c-1.44,0-2.88.05-4.32,0-.81,0-.91.44-.74,1,.28.86-.85,2.43.63,2.56,2.93.27,5.91.08,8.87.08.27,0,.65.07.67-.31a24.86,24.86,0,0,0,0-3c0-.43-.51-.27-.8-.27Zm-145.64,3.58h2.52c2.77,0,2.74,0,2.66-2.8,0-.65-.22-.8-.83-.79-2.27,0-4.55,0-6.83,0-2.81,0-2.78,0-2.67,2.78,0,.65.23.83.83.81C707.35,286.2,708.79,286.22,710.23,286.22Zm91.1,77.56v2.64c0,2.73,0,2.7,2.7,2.65.79,0,.91-.32.89-1,0-2.24,0-4.48,0-6.72,0-2.7,0-2.67-2.71-2.63-.66,0-.91.18-.88.87C801.37,361,801.33,362.39,801.33,363.78ZM720.56,246.34H722c2.88,0,2.86,0,2.71-2.92,0-.62-.23-.83-.85-.82-1.52,0-3,0-4.55,0-2.91,0-2.89,0-2.74,3,0,.57.18.78.76.76C718.41,246.31,719.49,246.34,720.56,246.34Zm125,0h1.32c2.92,0,2.9,0,2.78-2.93,0-.63-.22-.82-.83-.81-1.56,0-3.12,0-4.67,0-2.72,0-2.72,0-2.62,2.74a1.92,1.92,0,0,1,0,.24c-.06.59.24.76.79.75C843.35,246.32,844.43,246.33,845.51,246.33Zm-57.46-17.77h0v1.55c0,2.75,0,2.73,2.81,2.56.6,0,.84-.22.83-.85,0-1.51,0-3,0-4.54,0-2.86,0-2.83-2.82-2.75-.61,0-.84.17-.81.81C788.08,226.41,788.05,227.48,788.05,228.56Zm30.17,0h0v-1.43c0-2.75,0-2.73-2.8-2.63-.6,0-.84.17-.83.81,0,2.15,0,4.3,0,6.45,0,.3-.1.76.32.79a22.63,22.63,0,0,0,3,0c.43,0,.31-.49.31-.78C818.23,230.74,818.22,229.66,818.22,228.59Zm-97.71,44.3c1.12,0,2.24,0,3.35,0,.29,0,.76.12.78-.32a26.93,26.93,0,0,0,0-3c0-.36-.41-.31-.68-.31h-6.7c-.26,0-.63-.06-.64.34,0,1,0,2,0,3,0,.39.41.29.66.29Zm.08,40c1.12,0,2.24,0,3.35,0,1,0,.85-.67.72-1.13-.24-.84.82-2.31-.65-2.47a59.79,59.79,0,0,0-6.83-.07c-.36,0-.54.11-.6.54-.43,2.79-.17,3.12,2.57,3.12Zm124.95,0c1.11,0,2.23,0,3.34,0,.75,0,.83-.42.69-.89-.27-.92.76-2.48-.61-2.69a51.16,51.16,0,0,0-6.79-.11c-.65,0-.76.4-.67.85.2.93-.54,2,.47,2.81.12.1.39,0,.58,0Zm0,23h-1.43c-2.73,0-2.71,0-2.61,2.76,0,.67.23.91.9.89,1.51-.05,3,0,4.54,0,2.85,0,2.83,0,2.69-2.88,0-.56-.16-.78-.74-.76C847.74,335.88,846.63,335.85,845.51,335.85Zm.06-36.32h3.35c.4,0,.69-.05.67-.57,0-.84,0-1.67,0-2.51,0-.41-.19-.55-.58-.55-2.27,0-4.56-.15-6.81,0-1.51.14-.45,1.54-.67,2.33-.13.44-.36,1.3.7,1.24h3.34Zm-125,39.94H722c2.92,0,2.9,0,2.7-2.9,0-.59-.25-.74-.79-.73-1.55,0-3.11,0-4.66,0-2.86,0-2.84,0-2.68,2.88,0,.58.21.77.77.75C718.42,339.45,719.49,339.47,720.57,339.47Zm-.06-39.94c1.12,0,2.23,0,3.35,0,.29,0,.76.12.78-.32a26.93,26.93,0,0,0,0-3c0-.38-.4-.32-.67-.32h-6.69c-.26,0-.64-.07-.66.32,0,1,0,2,0,3,0,.39.41.29.67.29C718.36,299.54,719.44,299.53,720.51,299.53Zm27.55-71V230c0,2.93,0,2.91,2.93,2.68.59,0,.75-.27.74-.8,0-1.52,0-3,0-4.56,0-3,0-2.94-2.94-2.77-.57,0-.76.21-.74.78C748.09,226.38,748.06,227.47,748.06,228.55Zm17,.08V227.2c0-2.75,0-2.72-2.79-2.67-.72,0-.85.27-.84.9,0,1.71,0,3.42,0,5.13,0,2.11,0,2.05,2.17,2.12,1.11,0,1.61-.22,1.47-1.42A23.06,23.06,0,0,1,765,228.63Zm80.46,44.25h1.43c2.77,0,2.74,0,2.7-2.75,0-.8-.31-.91-1-.9-1.51.05-3,0-4.54,0-2.81,0-2.79,0-2.6,2.88,0,.57.21.77.77.75C843.32,272.86,844.4,272.88,845.48,272.88Zm-53.81,80.65h0c0-1.08,0-2.15,0-3.23,0-.47-.09-.85-.64-.74-1,.2-2.11-.53-3,.41-.06.06,0,.23,0,.35,0,2.16,0,4.32,0,6.47,0,.55.16.74.75.77,2.88.15,2.88.17,2.88-2.71Zm26.55,0v-1.44c0-2.69,0-2.67-2.74-2.59-.67,0-.9.2-.89.89,0,1.87.08,3.76,0,5.63-.06,1.16.2,1.6,1.47,1.53,2.16-.12,2.17,0,2.17-2.22Zm-56.82-.08h0c0,1.11,0,2.24,0,3.35,0,.73.4.85.9.7.89-.28,2.43.78,2.63-.57a48.44,48.44,0,0,0,.09-6.82c0-.71-.51-.67-.91-.58-.9.18-2-.55-2.69.45-.1.13,0,.39,0,.59ZM720.66,256h-1.44c-2.73,0-2.7,0-2.65,2.77,0,.72.26.86.91.84,1.51,0,3,0,4.55,0,2.79,0,2.77,0,2.67-2.79,0-.6-.16-.86-.81-.83C722.82,256,721.74,256,720.66,256Zm110.9-27.48V227.2c0-2.77,0-2.75-2.8-2.67-.63,0-.81.2-.79.82,0,1.56,0,3.12,0,4.68,0,2.86,0,2.85,2.84,2.64.58,0,.76-.24.75-.8C831.54,230.75,831.56,229.63,831.56,228.52Zm-26.65.1v-1.44c0-2.7,0-2.66-2.69-2.65-.79,0-.92.26-.9.95,0,1.6,0,3.2,0,4.81,0,2.38,0,2.35,2.38,2.38.89,0,1.33-.16,1.23-1.17A27.64,27.64,0,0,1,804.91,228.62Zm40.67,54H844c-2.59,0-2.57,0-2.55,2.57,0,.75.18,1.07,1,1,1.52-.06,3,0,4.56,0,2.61,0,2.59,0,2.58-2.64,0-.7-.13-1-.92-1C847.66,282.7,846.62,282.64,845.58,282.64Zm-67.29-54v-1.44c0-2.77,0-2.74-2.8-2.65-.64,0-.81.22-.79.83,0,1.64,0,3.28,0,4.92,0,2.4,0,2.36,2.38,2.39.88,0,1.33-.15,1.22-1.17A27.65,27.65,0,0,1,778.29,228.62Zm-57.65,54c-1.12,0-2.24,0-3.36,0-.5,0-.81.14-.68.67.24,1-.59,2.09.47,2.91,0,0,.08,0,.12,0,2.28,0,4.56,0,6.83,0,.68,0,.74-.42.65-.86-.18-.9.54-2-.44-2.71-.13-.1-.39,0-.59,0Zm17.77-54.13v-1.32c0-2.77,0-2.74-2.79-2.66-.66,0-.81.22-.8.83,0,1.56,0,3.12,0,4.68,0,2.86,0,2.85,2.84,2.62.56,0,.76-.22.74-.79C738.39,230.75,738.41,229.63,738.41,228.51ZM845.59,256h-1.43c-2.81,0-2.78,0-2.68,2.78,0,.74.31.84.93.83,1.55,0,3.11,0,4.67,0,2.53,0,2.5,0,2.53-2.55,0-.8-.14-1.15-1-1.07S846.59,256,845.59,256Zm-.14,70.1h0c1.16,0,2.32,0,3.48,0,.93,0,.75-.66.63-1.05-.27-.84.84-2.29-.61-2.46a57.58,57.58,0,0,0-6.83-.07c-.23,0-.56,0-.57.28a27.11,27.11,0,0,0,0,3c0,.43.49.3.79.3C843.38,326.11,844.42,326.1,845.45,326.1Zm-124.72-3.58h-1.44c-2.88,0-2.86,0-2.72,2.85,0,.6.22.74.77.74,2.2,0,4.4,0,6.6,0,.3,0,.71.1.72-.39,0-.92,0-1.84,0-2.76,0-.47-.38-.43-.7-.43Zm14.1,30.94c0,1.12,0,2.24,0,3.35,0,.71.35.88.87.72.89-.28,2.43.77,2.63-.56a24.58,24.58,0,0,0,0-6.8c-.2-1.44-1.73-.3-2.61-.6-.45-.15-1-.1-.89.66a3.85,3.85,0,0,1,0,.48C734.84,351.63,734.84,352.54,734.83,353.46Zm39.88.12v1.31c0,2.76,0,2.74,2.78,2.67.6,0,.83-.15.81-.8,0-1.55,0-3.11,0-4.66,0-2.7,0-2.69-2.75-2.58-.6,0-.87.18-.84.82C774.75,351.42,774.71,352.5,774.71,353.58Zm26.62-.05v1.31c0,2.87,0,2.87,2.84,2.7h.12c.45.06.64-.14.63-.61,0-2.23,0-4.47,0-6.7,0-.42-.1-.63-.58-.69-2.78-.4-3-.22-3,2.55Zm-53.27.05v1.32c0,2.83,0,2.81,2.91,2.66.57,0,.77-.2.76-.76,0-1.51,0-3,0-4.54,0-2.87,0-2.85-2.84-2.73-.61,0-.85.19-.83.83C748.09,351.43,748.06,352.51,748.06,353.58Zm83.49-.09c0-1.08,0-2.15,0-3.23,0-.26.09-.65-.3-.67-1,0-2,0-3,0-.4,0-.28.42-.28.67,0,2.19,0,4.39,0,6.58,0,.25-.12.65.28.67,1,0,2,0,3,0,.4,0,.29-.4.29-.66C831.56,355.72,831.56,354.61,831.55,353.49Z" transform="translate(-87.07 -105.32)"/><path class="cls-5" d="M751.16,327.82a5.26,5.26,0,0,1-5.39,5.23,5.36,5.36,0,0,1-5.19-5.46,5.29,5.29,0,0,1,10.58.23Z" transform="translate(-87.07 -105.32)"/><path class="cls-6" d="M856,242.61c1.36,0,2.72,0,4.08,0,.82,0,1,.27,1,1,0,2.72.05,2.72-2.66,2.72-2.2,0-4.4,0-6.6,0-.72,0-1-.12-1-1,0-2.77,0-2.77,2.7-2.77Z" transform="translate(-87.07 -105.32)"/><path class="cls-7" d="M818.22,363.9c0,1.4,0,2.79,0,4.19,0,.68-.11,1-.9,1-2.73,0-2.73.07-2.73-2.63,0-2.27,0-4.54,0-6.82,0-.64.17-.88.87-.9,2.76-.07,2.76-.1,2.76,2.67Z" transform="translate(-87.07 -105.32)"/><path class="cls-8" d="M765,218.28c0,1.43,0,2.87,0,4.3,0,1.16-.87.87-1.31.72-.77-.24-2.18.93-2.27-.68-.16-2.94,0-5.89-.05-8.84,0-.57.21-.72.77-.75,2.85-.13,2.85-.14,2.85,2.73v2.52Z" transform="translate(-87.07 -105.32)"/><path class="cls-8" d="M791.66,218.24c0,1.43,0,2.87,0,4.3,0,.63-.18.81-.8.83-2.83.1-2.83.12-2.82-2.74,0-2.23,0-4.47,0-6.7,0-.65.14-.89.85-.9,2.78-.05,2.78-.08,2.78,2.69v2.52Z" transform="translate(-87.07 -105.32)"/><path class="cls-8" d="M788.05,363.9v-3.71c0-.24,0-.49,0-.72-.09-1,.69-.84,1.11-.69.83.27,2.33-.89,2.44.65.22,2.94,0,5.92.07,8.87,0,.58-.22.73-.78.76-2.85.16-2.84.17-2.85-2.64C788,365.58,788,364.74,788.05,363.9Z" transform="translate(-87.07 -105.32)"/><path class="cls-7" d="M818.22,218.25c0,1.4,0,2.8,0,4.2,0,.62-.09.91-.83.92-2.8.06-2.8.09-2.8-2.69,0-2.2,0-4.4,0-6.6,0-.74.13-1.05,1-1.05,2.65,0,2.65-.05,2.65,2.58Z" transform="translate(-87.07 -105.32)"/><path class="cls-8" d="M761.41,363.91c0-1.48,0-3,0-4.43,0-.56.16-.73.74-.76,2.88-.14,2.88-.16,2.88,2.7,0,2.23,0,4.46,0,6.69,0,.73-.21.95-.95,1-2.69,0-2.69.06-2.69-2.65v-2.51Z" transform="translate(-87.07 -105.32)"/><path class="cls-9" d="M710.23,246.33c-1.44,0-2.88,0-4.31,0-.61,0-.82-.17-.85-.81-.13-2.92-.15-2.92,2.81-2.92,2.19,0,4.39,0,6.58,0,.74,0,.95.2.95.94,0,2.8.07,2.8-2.67,2.8Z" transform="translate(-87.07 -105.32)"/><path class="cls-8" d="M710.23,272.89c-1.44,0-2.87,0-4.31,0-.58,0-.82-.13-.85-.79-.11-2.85-.14-2.85,2.75-2.85,2.23,0,4.46,0,6.69,0,.65,0,.89.16.9.87.07,2.77.1,2.77-2.67,2.77Z" transform="translate(-87.07 -105.32)"/><path class="cls-10" d="M856,269.26c1.44,0,2.87,0,4.31,0,.54,0,.85.15.78.75a1.76,1.76,0,0,0,0,.23c.08,2.66.08,2.66-2.56,2.66-2.27,0-4.54,0-6.82,0-.64,0-.88-.15-.9-.86,0-2.78-.08-2.78,2.68-2.78Z" transform="translate(-87.07 -105.32)"/><path class="cls-7" d="M710.26,299.52c-1.41,0-2.81,0-4.2,0-.68,0-1-.1-1-.91,0-2.72-.06-2.72,2.66-2.72,2.24,0,4.48,0,6.72,0,.7,0,1,.15,1,.92,0,2.71.06,2.71-2.64,2.71h-2.52Z" transform="translate(-87.07 -105.32)"/><path class="cls-10" d="M855.83,299.53c-1.44,0-2.87,0-4.31,0-.56,0-.73-.18-.75-.75-.15-2.89-.17-2.89,2.69-2.89,2.23,0,4.46,0,6.69,0,.67,0,.89.2.91.88.1,2.75.12,2.75-2.6,2.75Z" transform="translate(-87.07 -105.32)"/><path class="cls-8" d="M710.23,335.86c1.47,0,2.95,0,4.42,0,.57,0,.73.18.76.74.15,2.88.17,2.88-2.69,2.88-2.23,0-4.46,0-6.69,0-.72,0-.95-.2-1-.94,0-2.7-.06-2.7,2.65-2.69Z" transform="translate(-87.07 -105.32)"/><path class="cls-10" d="M855.85,339.47c-1.43,0-2.87,0-4.3,0-.55,0-.75-.14-.78-.73-.17-2.9-.19-2.89,2.66-2.9,2.19,0,4.39,0,6.58,0,.72,0,1,.12,1.06,1,0,2.66,0,2.66-2.59,2.66Z" transform="translate(-87.07 -105.32)"/><path class="cls-11" d="M855.83,312.87c-1.44,0-2.87,0-4.31,0-.57,0-.72-.19-.75-.75-.15-2.92-.17-2.92,2.75-2.92,2.2,0,4.39,0,6.58,0,.72,0,.95.19,1,.94,0,2.73.07,2.73-2.61,2.73Z" transform="translate(-87.07 -105.32)"/><path class="cls-12" d="M738.42,218.31c0,1.36,0,2.72,0,4.07,0,.68-.1,1-.9,1-2.69,0-2.69.07-2.69-2.64,0-2.24,0-4.48,0-6.71,0-.67.07-1,.88-1,2.7,0,2.7-.06,2.7,2.64v2.64Z" transform="translate(-87.07 -105.32)"/><path class="cls-12" d="M748.06,218.19c0-1.44,0-2.88,0-4.32,0-.62.19-.81.82-.84,2.86-.11,2.85-.13,2.85,2.75,0,2.23,0,4.47,0,6.71,0,.69-.21.86-.88.88-2.8,0-2.8.08-2.8-2.67Z" transform="translate(-87.07 -105.32)"/><path class="cls-13" d="M774.71,218.07c0-1.4,0-2.8,0-4.19,0-.6.14-.83.79-.85,2.8-.1,2.8-.12,2.8,2.67,0,2.24,0,4.48,0,6.72,0,.71-.14,1-.91,1-2.68,0-2.68,0-2.68-2.66Z" transform="translate(-87.07 -105.32)"/><path class="cls-12" d="M804.91,218.19c0,1.4,0,2.79,0,4.19,0,.68-.1,1-.9,1-2.69,0-2.69.07-2.69-2.63,0-2.28,0-4.56,0-6.83,0-.68.2-.86.88-.88,2.71,0,2.71-.07,2.71,2.64Z" transform="translate(-87.07 -105.32)"/><path class="cls-12" d="M828,218.2c0-1.44,0-2.88,0-4.32,0-.28-.17-.76.28-.79a27.12,27.12,0,0,1,3,0c.38,0,.29.41.29.67q0,4.44,0,8.88c0,.31.06.69-.43.69-.92,0-1.84,0-2.76,0-.58,0-.38-.52-.38-.82,0-1.44,0-2.88,0-4.32Z" transform="translate(-87.07 -105.32)"/><path class="cls-13" d="M778.28,364c0,1.4,0,2.8,0,4.2,0,.7-.22.85-.89.86-2.7,0-2.7.07-2.7-2.65,0-2.28,0-4.56,0-6.84,0-.59.12-.82.78-.85,2.81-.11,2.81-.13,2.81,2.64V364Z" transform="translate(-87.07 -105.32)"/><path class="cls-14" d="M855.83,259.6c-1.44,0-2.88,0-4.31,0-.58,0-.73-.18-.75-.75-.13-2.86-.15-2.86,2.69-2.86,2.23,0,4.47,0,6.7,0,.68,0,.88.2.9.88.07,2.74.09,2.74-2.6,2.74Z" transform="translate(-87.07 -105.32)"/><path class="cls-12" d="M738.41,363.87c0,1.44,0,2.88,0,4.31,0,.7-.23.87-.89.88-2.7.07-2.7.09-2.7-2.64,0-2.28,0-4.56,0-6.83,0-.69.21-.86.88-.86,2.71,0,2.71-.07,2.71,2.62Z" transform="translate(-87.07 -105.32)"/><path class="cls-13" d="M710.22,312.87c-1.44,0-2.88,0-4.32,0-.64,0-.8-.2-.82-.82-.11-2.85-.13-2.85,2.75-2.85,2.2,0,4.4,0,6.6,0,.81,0,1,.26,1,1,0,2.66,0,2.66-2.68,2.66Z" transform="translate(-87.07 -105.32)"/><path class="cls-12" d="M751.72,363.78c0,1.48,0,3,0,4.44,0,.6-.16.81-.8.84-2.86.13-2.86.15-2.86-2.74,0-2.23,0-4.47,0-6.71,0-.67.18-.87.87-.89,2.81-.07,2.8-.09,2.8,2.67v2.39Z" transform="translate(-87.07 -105.32)"/><path class="cls-12" d="M710.28,326.09c-1.48,0-3,0-4.44,0-.56,0-.74-.15-.76-.73-.14-2.85-.16-2.85,2.62-2.85,2.24,0,4.48,0,6.72,0,.66,0,1,.07,1,.88,0,2.71.08,2.7-2.61,2.7Z" transform="translate(-87.07 -105.32)"/><path class="cls-12" d="M828,363.94c0-1.48,0-3,0-4.44,0-.54.12-.74.72-.77,2.87-.15,2.87-.17,2.87,2.7,0,2.24,0,4.48,0,6.72,0,.65-.15.89-.86.91-2.73.08-2.73.11-2.73-2.61Z" transform="translate(-87.07 -105.32)"/><path class="cls-15" d="M710.22,259.6c-1.43,0-2.87,0-4.31,0-.59,0-.82-.14-.84-.79C705,256,705,256,707.82,256c2.24,0,4.47,0,6.71,0,.67,0,.87.17.88.86.05,2.76.07,2.76-2.67,2.76Z" transform="translate(-87.07 -105.32)"/><path class="cls-11" d="M855.85,326.1c-1.43,0-2.87,0-4.31,0-.56,0-.74-.14-.77-.74-.14-2.85-.16-2.85,2.72-2.85,2.19,0,4.39,0,6.59,0,.71,0,1,.17,1,.92.05,2.68.08,2.68-2.57,2.68Z" transform="translate(-87.07 -105.32)"/><path class="cls-11" d="M855.87,282.64h4.32c.29,0,.78-.16.8.27a24.86,24.86,0,0,1,0,3c0,.38-.4.31-.67.31-3,0-5.94.19-8.87-.08-1.48-.13-.35-1.7-.63-2.56-.17-.52-.07-1,.74-1C853,282.69,854.43,282.64,855.87,282.64Z" transform="translate(-87.07 -105.32)"/><path class="cls-13" d="M710.23,286.22c-1.44,0-2.88,0-4.32,0-.6,0-.81-.16-.83-.81-.11-2.78-.14-2.78,2.67-2.78,2.28,0,4.56,0,6.83,0,.61,0,.81.14.83.79.08,2.8.11,2.8-2.66,2.8Z" transform="translate(-87.07 -105.32)"/><path class="cls-12" d="M801.33,363.78c0-1.39,0-2.79,0-4.19,0-.69.22-.86.88-.87,2.71,0,2.71-.07,2.71,2.63,0,2.24,0,4.48,0,6.72,0,.68-.1,1-.89,1-2.7.05-2.7.08-2.7-2.65Z" transform="translate(-87.07 -105.32)"/><path class="cls-6" d="M720.56,246.34c-1.07,0-2.15,0-3.23,0-.58,0-.73-.19-.76-.76-.15-3-.17-3,2.74-3,1.52,0,3,0,4.55,0,.62,0,.82.2.85.82.15,2.92.17,2.92-2.71,2.92Z" transform="translate(-87.07 -105.32)"/><path class="cls-6" d="M845.51,246.33c-1.08,0-2.16,0-3.23,0-.55,0-.85-.16-.79-.75a1.92,1.92,0,0,0,0-.24c-.1-2.74-.1-2.74,2.62-2.74,1.55,0,3.11,0,4.67,0,.61,0,.8.18.83.81.12,2.93.14,2.93-2.78,2.93h-1.32Z" transform="translate(-87.07 -105.32)"/><path class="cls-10" d="M788.05,228.56c0-1.08,0-2.15,0-3.22,0-.64.2-.79.81-.81,2.82-.08,2.82-.11,2.82,2.75,0,1.52,0,3,0,4.54,0,.63-.23.81-.83.85-2.81.17-2.81.19-2.81-2.56v-1.55Z" transform="translate(-87.07 -105.32)"/><path class="cls-16" d="M818.22,228.59c0,1.07,0,2.15,0,3.23,0,.29.12.76-.31.78a22.63,22.63,0,0,1-3,0c-.42,0-.32-.49-.32-.79,0-2.15,0-4.3,0-6.45,0-.64.23-.79.83-.81,2.8-.1,2.8-.12,2.8,2.63v1.43Z" transform="translate(-87.07 -105.32)"/><path class="cls-16" d="M720.51,272.89h-3.23c-.25,0-.65.1-.66-.29,0-1,0-2,0-3,0-.4.38-.34.64-.34H724c.27,0,.66,0,.68.31a26.93,26.93,0,0,1,0,3c0,.44-.49.32-.78.32C722.75,272.9,721.63,272.89,720.51,272.89Z" transform="translate(-87.07 -105.32)"/><path class="cls-17" d="M720.59,312.87h-1.44c-2.74,0-3-.33-2.57-3.12.06-.43.24-.54.6-.54a59.79,59.79,0,0,1,6.83.07c1.47.16.41,1.63.65,2.47.13.46.24,1.17-.72,1.13C722.83,312.83,721.71,312.87,720.59,312.87Z" transform="translate(-87.07 -105.32)"/><path class="cls-17" d="M845.54,312.87h-3c-.19,0-.46.08-.58,0-1-.78-.27-1.88-.47-2.81-.09-.45,0-.85.67-.85a51.16,51.16,0,0,1,6.79.11c1.37.21.34,1.77.61,2.69.14.47.06.93-.69.89C847.77,312.83,846.65,312.87,845.54,312.87Z" transform="translate(-87.07 -105.32)"/><path class="cls-10" d="M845.51,335.85c1.12,0,2.23,0,3.35,0,.58,0,.72.2.74.76.14,2.88.16,2.87-2.69,2.88-1.51,0-3,0-4.54,0-.67,0-.87-.22-.9-.89-.1-2.76-.12-2.76,2.61-2.76Z" transform="translate(-87.07 -105.32)"/><path class="cls-16" d="M845.57,299.53h-3.34c-1.06.06-.83-.8-.7-1.24.22-.79-.84-2.19.67-2.33,2.25-.2,4.54,0,6.81,0,.39,0,.59.14.58.55,0,.84,0,1.67,0,2.51,0,.52-.27.57-.67.57Z" transform="translate(-87.07 -105.32)"/><path class="cls-16" d="M720.57,339.47c-1.08,0-2.15,0-3.23,0-.56,0-.73-.17-.77-.75-.16-2.88-.18-2.88,2.68-2.88,1.55,0,3.11,0,4.66,0,.54,0,.75.14.79.73.2,2.9.22,2.9-2.7,2.9h-1.43Z" transform="translate(-87.07 -105.32)"/><path class="cls-16" d="M720.51,299.53c-1.07,0-2.15,0-3.22,0-.26,0-.66.1-.67-.29,0-1,0-2,0-3,0-.39.4-.32.66-.32H724c.27,0,.66-.06.67.32a26.93,26.93,0,0,1,0,3c0,.44-.49.31-.78.32C722.74,299.54,721.63,299.53,720.51,299.53Z" transform="translate(-87.07 -105.32)"/><path class="cls-17" d="M748.06,228.55c0-1.08,0-2.17,0-3.24,0-.57.17-.74.74-.78,2.94-.17,2.94-.19,2.94,2.77,0,1.52,0,3,0,4.56,0,.53-.15.75-.74.8-2.93.23-2.93.25-2.93-2.68Z" transform="translate(-87.07 -105.32)"/><path class="cls-16" d="M765,228.63a23.06,23.06,0,0,0,0,2.63c.14,1.2-.36,1.46-1.47,1.42-2.16-.07-2.17,0-2.17-2.12,0-1.71,0-3.42,0-5.13,0-.63.12-.89.84-.9,2.79-.05,2.79-.08,2.79,2.67Z" transform="translate(-87.07 -105.32)"/><path class="cls-16" d="M845.48,272.88c-1.08,0-2.16,0-3.23,0-.56,0-.74-.18-.77-.75-.19-2.88-.21-2.88,2.6-2.88,1.51,0,3,0,4.54,0,.68,0,1,.1,1,.9,0,2.75.07,2.75-2.7,2.75h-1.43Z" transform="translate(-87.07 -105.32)"/><path class="cls-17" d="M791.67,353.53v1.32c0,2.88,0,2.86-2.88,2.71-.59,0-.75-.22-.75-.77,0-2.15,0-4.31,0-6.47,0-.12,0-.29,0-.35.87-.94,2-.21,3-.41.55-.11.65.27.64.74,0,1.08,0,2.15,0,3.23Z" transform="translate(-87.07 -105.32)"/><path class="cls-17" d="M818.22,353.56v1.8c0,2.19,0,2.1-2.17,2.22-1.27.07-1.53-.37-1.47-1.53.09-1.87,0-3.76,0-5.63,0-.69.22-.87.89-.89,2.74-.08,2.74-.1,2.74,2.59Z" transform="translate(-87.07 -105.32)"/><path class="cls-8" d="M761.4,353.48V350.6c0-.2-.08-.46,0-.59.73-1,1.79-.27,2.69-.45.4-.09.91-.13.91.58a48.44,48.44,0,0,1-.09,6.82c-.2,1.35-1.74.29-2.63.57-.5.15-.93,0-.9-.7,0-1.11,0-2.24,0-3.35Z" transform="translate(-87.07 -105.32)"/><path class="cls-14" d="M720.66,256c1.08,0,2.16,0,3.23,0,.65,0,.79.23.81.83.1,2.79.12,2.79-2.67,2.79-1.52,0-3,0-4.55,0-.65,0-.89-.12-.91-.84-.05-2.77-.08-2.77,2.65-2.77Z" transform="translate(-87.07 -105.32)"/><path class="cls-17" d="M831.56,228.52c0,1.11,0,2.23,0,3.35,0,.56-.17.75-.75.8-2.84.21-2.84.22-2.84-2.64,0-1.56,0-3.12,0-4.68,0-.62.16-.8.79-.82,2.8-.08,2.8-.1,2.8,2.67Z" transform="translate(-87.07 -105.32)"/><path class="cls-17" d="M804.91,228.62a27.64,27.64,0,0,0,0,2.88c.1,1-.34,1.18-1.23,1.17-2.38,0-2.38,0-2.38-2.38,0-1.61,0-3.21,0-4.81,0-.69.11-.95.9-.95,2.69,0,2.69-.05,2.69,2.65Z" transform="translate(-87.07 -105.32)"/><path class="cls-11" d="M845.58,282.64c1,0,2.08.06,3.11,0,.79-.05.91.26.92,1,0,2.64,0,2.64-2.58,2.64-1.52,0-3,0-4.56,0-.82,0-1-.28-1-1,0-2.57,0-2.57,2.55-2.57Z" transform="translate(-87.07 -105.32)"/><path class="cls-17" d="M778.29,228.62a27.65,27.65,0,0,0,0,2.88c.11,1-.34,1.18-1.22,1.17-2.38,0-2.38,0-2.38-2.39,0-1.64,0-3.28,0-4.92,0-.61.15-.81.79-.83,2.8-.09,2.8-.12,2.8,2.65Z" transform="translate(-87.07 -105.32)"/><path class="cls-11" d="M720.64,282.64h3c.2,0,.46-.08.59,0,1,.75.26,1.81.44,2.71.09.44,0,.87-.65.86-2.27,0-4.55,0-6.83,0,0,0-.1,0-.12,0-1.06-.82-.23-1.95-.47-2.91-.13-.53.18-.68.68-.67C718.4,282.66,719.52,282.64,720.64,282.64Z" transform="translate(-87.07 -105.32)"/><path class="cls-17" d="M738.41,228.51c0,1.12,0,2.24,0,3.36,0,.57-.18.74-.74.79-2.85.23-2.84.24-2.84-2.62,0-1.56,0-3.12,0-4.68,0-.61.14-.81.8-.83,2.8-.08,2.79-.11,2.79,2.66Z" transform="translate(-87.07 -105.32)"/><path class="cls-14" d="M845.59,256c1,0,2,.06,3,0s1,.27,1,1.07c0,2.55,0,2.55-2.53,2.55-1.56,0-3.12,0-4.67,0-.62,0-.91-.09-.93-.83-.1-2.78-.13-2.78,2.68-2.78Z" transform="translate(-87.07 -105.32)"/><path class="cls-17" d="M845.45,326.1c-1,0-2.07,0-3.11,0-.3,0-.77.13-.79-.3a27.11,27.11,0,0,1,0-3c0-.29.34-.28.57-.28a57.58,57.58,0,0,1,6.83.07c1.45.17.34,1.62.61,2.46.12.39.3,1.09-.63,1.05-1.16,0-2.32,0-3.48,0Z" transform="translate(-87.07 -105.32)"/><path class="cls-17" d="M720.73,322.52H724c.32,0,.69,0,.7.43,0,.92,0,1.84,0,2.76,0,.49-.42.39-.72.39-2.2,0-4.4,0-6.6,0-.55,0-.74-.14-.77-.74-.14-2.86-.16-2.85,2.72-2.85Z" transform="translate(-87.07 -105.32)"/><path class="cls-14" d="M734.84,353.46v-2.75a3.85,3.85,0,0,0,0-.48c-.1-.76.44-.81.89-.66.88.3,2.41-.84,2.61.6a24.58,24.58,0,0,1,0,6.8c-.2,1.33-1.74.28-2.63.56-.52.16-.9,0-.87-.72C734.87,355.7,734.83,354.58,734.84,353.46Z" transform="translate(-87.07 -105.32)"/><path class="cls-14" d="M774.71,353.58c0-1.08,0-2.16,0-3.24,0-.64.24-.79.84-.82,2.75-.11,2.75-.12,2.75,2.58,0,1.55,0,3.11,0,4.66,0,.65-.21.78-.81.8-2.78.07-2.78.09-2.78-2.67Z" transform="translate(-87.07 -105.32)"/><path class="cls-14" d="M801.33,353.53v-1.44c0-2.77.23-2.95,3-2.55.48.06.58.27.58.69,0,2.23,0,4.47,0,6.7,0,.47-.18.67-.63.61h-.12c-2.84.17-2.84.17-2.84-2.7Z" transform="translate(-87.07 -105.32)"/><path class="cls-14" d="M748.06,353.58c0-1.07,0-2.15,0-3.22,0-.64.22-.8.83-.83,2.84-.12,2.84-.14,2.84,2.73,0,1.51,0,3,0,4.54,0,.56-.19.73-.76.76-2.91.15-2.91.17-2.91-2.66Z" transform="translate(-87.07 -105.32)"/><path class="cls-14" d="M831.55,353.49c0,1.12,0,2.23,0,3.35,0,.26.11.65-.29.66-1,0-2,.05-3,0-.4,0-.28-.42-.28-.67,0-2.19,0-4.39,0-6.58,0-.25-.12-.65.28-.67,1,0,2,0,3,0,.39,0,.3.41.3.67C831.56,351.34,831.55,352.41,831.55,353.49Z" transform="translate(-87.07 -105.32)"/><path class="cls-2" d="M524.24,290c7,.06,14.09,0,21.13,0h63.39v4H545.37c-7,0-14.09,0-21.13,0Z" transform="translate(-87.07 -105.32)"/><path class="cls-2" d="M525.85,292c4.18-4.18,6.17-12.45,6.34-18.18C526.46,281.52,519,288.23,510,292c9,3.61,16.13,10.73,22.19,18.18C531.7,304,530.2,296.59,525.85,292Z" transform="translate(-87.07 -105.32)"/><path class="cls-2" d="M607.15,292c-4.18-4.18-6.17-12.45-6.34-18.18C606.54,281.52,614,288.23,623,292c-9,3.61-16.13,10.73-22.19,18.18C601.3,304,602.8,296.59,607.15,292Z" transform="translate(-87.07 -105.32)"/><path class="cls-2" d="M924,287c4.11-.72,8.23-1.27,12.34-1.8a35.49,35.49,0,0,1,6.18-.2h80.24v4H942.52a35.49,35.49,0,0,1-6.18-.2C932.23,288.27,928.11,287.72,924,287Z" transform="translate(-87.07 -105.32)"/><path class="cls-2" d="M1021.15,287c-4.18-4.18-6.17-12.45-6.34-18.18,5.73,7.7,13.18,14.41,22.19,18.18-9,3.61-16.13,10.73-22.19,18.18C1015.3,299,1016.8,291.59,1021.15,287Z" transform="translate(-87.07 -105.32)"/><path d="M701.23,525.06V506l-8.68,14.85h-1L682.88,506v19h-1.59v-22h1.59l9.17,15.75,9.18-15.75h1.58v22Z" transform="translate(-87.07 -105.32)"/><path d="M708.11,505.28v-2.85h1.55v2.85Zm0,19.78V508.94h1.55v16.12Z" transform="translate(-87.07 -105.32)"/><path d="M713.41,516.94a8.94,8.94,0,0,1,.59-3.23,8,8,0,0,1,1.64-2.63,7.62,7.62,0,0,1,2.51-1.77,7.82,7.82,0,0,1,3.2-.65,7.48,7.48,0,0,1,3.87,1,6.21,6.21,0,0,1,2.51,2.76l-1.52.5a5.19,5.19,0,0,0-2-2.1,5.76,5.76,0,0,0-2.9-.76,5.94,5.94,0,0,0-2.48.53,6.25,6.25,0,0,0-2,1.46,7.19,7.19,0,0,0-1.34,2.18,7.63,7.63,0,0,0,0,5.46,7.27,7.27,0,0,0,1.37,2.23,6.52,6.52,0,0,0,2,1.51,5.67,5.67,0,0,0,2.46.55,5.85,5.85,0,0,0,1.66-.24,7.2,7.2,0,0,0,1.52-.66,5,5,0,0,0,1.21-.94,3.06,3.06,0,0,0,.7-1.13l1.52.43A5,5,0,0,1,727,523a6.32,6.32,0,0,1-1.5,1.25,7.51,7.51,0,0,1-1.92.82,8,8,0,0,1-2.17.3,7.48,7.48,0,0,1-3.17-.67,7.64,7.64,0,0,1-2.52-1.83,8.62,8.62,0,0,1-2.28-5.93Z" transform="translate(-87.07 -105.32)"/><path d="M739.05,510.33A6.35,6.35,0,0,0,733,515v10.08h-1.55V508.94h1.49v4a7.86,7.86,0,0,1,2.22-2.78,5.61,5.61,0,0,1,3-1.22l.55,0h.41Z" transform="translate(-87.07 -105.32)"/><path d="M747.94,525.37a7.31,7.31,0,0,1-3.14-.67,7.79,7.79,0,0,1-2.5-1.81,8.36,8.36,0,0,1-1.64-2.67,8.77,8.77,0,0,1-.59-3.19,8.68,8.68,0,0,1,2.26-5.89,7.75,7.75,0,0,1,2.5-1.81,7.24,7.24,0,0,1,3.11-.67,7.13,7.13,0,0,1,3.1.67,7.86,7.86,0,0,1,2.5,1.81,8.32,8.32,0,0,1,1.67,2.67,8.72,8.72,0,0,1,0,6.41,8.56,8.56,0,0,1-1.65,2.67,7.9,7.9,0,0,1-2.5,1.81A7.26,7.26,0,0,1,747.94,525.37Zm-6.32-8.28a7.22,7.22,0,0,0,.5,2.68,7.12,7.12,0,0,0,1.34,2.19,6.44,6.44,0,0,0,2,1.47,5.83,5.83,0,0,0,4.9,0,6.3,6.3,0,0,0,2-1.5,7.17,7.17,0,0,0,1.36-2.22,7.33,7.33,0,0,0,.5-2.71,7.22,7.22,0,0,0-.5-2.68,7,7,0,0,0-1.36-2.2,6.81,6.81,0,0,0-2-1.51,5.6,5.6,0,0,0-4.88,0,6.21,6.21,0,0,0-2,1.52,7.5,7.5,0,0,0-1.37,2.25A7.29,7.29,0,0,0,741.62,517.09Z" transform="translate(-87.07 -105.32)"/><path d="M758.42,516.94a8.94,8.94,0,0,1,.59-3.23,8,8,0,0,1,1.64-2.63,7.72,7.72,0,0,1,2.51-1.77,7.86,7.86,0,0,1,3.2-.65,7.45,7.45,0,0,1,3.87,1,6.16,6.16,0,0,1,2.51,2.76l-1.52.5a5.19,5.19,0,0,0-2-2.1,5.72,5.72,0,0,0-2.89-.76,5.87,5.87,0,0,0-2.48.53,6,6,0,0,0-2,1.46,7,7,0,0,0-1.35,2.18,7.63,7.63,0,0,0,0,5.46,7.27,7.27,0,0,0,1.37,2.23,6.64,6.64,0,0,0,2,1.51,5.68,5.68,0,0,0,2.47.55,6,6,0,0,0,1.66-.24,7.34,7.34,0,0,0,1.51-.66,5,5,0,0,0,1.21-.94,2.93,2.93,0,0,0,.7-1.13l1.52.43A5,5,0,0,1,772,523a6.32,6.32,0,0,1-1.5,1.25,7.51,7.51,0,0,1-1.92.82,7.9,7.9,0,0,1-2.17.3,7.4,7.4,0,0,1-3.16-.67,7.57,7.57,0,0,1-2.53-1.83,8.48,8.48,0,0,1-1.67-2.68A8.58,8.58,0,0,1,758.42,516.94Z" transform="translate(-87.07 -105.32)"/><path d="M783,525.37a7.33,7.33,0,0,1-3.15-.67,7.9,7.9,0,0,1-2.5-1.81,8.36,8.36,0,0,1-1.64-2.67,8.77,8.77,0,0,1-.59-3.19,8.81,8.81,0,0,1,2.26-5.89,7.75,7.75,0,0,1,2.5-1.81,7.26,7.26,0,0,1,3.12-.67,7.17,7.17,0,0,1,3.1.67,7.82,7.82,0,0,1,2.49,1.81,8.53,8.53,0,0,1,1.68,2.67,8.86,8.86,0,0,1,0,6.41,8.78,8.78,0,0,1-1.66,2.67,7.9,7.9,0,0,1-2.5,1.81A7.24,7.24,0,0,1,783,525.37Zm-6.33-8.28a7.22,7.22,0,0,0,.5,2.68,7,7,0,0,0,1.35,2.19,6.21,6.21,0,0,0,2,1.47,5.81,5.81,0,0,0,4.89,0,6.3,6.3,0,0,0,2-1.5,7.17,7.17,0,0,0,1.36-2.22,7.33,7.33,0,0,0,.5-2.71,7.22,7.22,0,0,0-.5-2.68,7,7,0,0,0-1.36-2.2,6.81,6.81,0,0,0-2-1.51,5.6,5.6,0,0,0-4.88,0,6.32,6.32,0,0,0-2,1.52,7.5,7.5,0,0,0-1.37,2.25A7.29,7.29,0,0,0,776.71,517.09Z" transform="translate(-87.07 -105.32)"/><path d="M807.8,525.06h-1.55v-9a9,9,0,0,0-.88-4.56,3,3,0,0,0-2.8-1.42,5.73,5.73,0,0,0-2,.37,7,7,0,0,0-1.88,1.05,7.7,7.7,0,0,0-1.52,1.6,6.67,6.67,0,0,0-1,2v10h-1.55V508.94h1.46v3.84a7.82,7.82,0,0,1,1.22-1.69,8,8,0,0,1,1.64-1.3,8.56,8.56,0,0,1,1.94-.84,7.84,7.84,0,0,1,2.11-.29,4,4,0,0,1,3.72,1.84,10.6,10.6,0,0,1,1.08,5.29Z" transform="translate(-87.07 -105.32)"/><path d="M819.52,524.28l-.42.24a4.08,4.08,0,0,1-.74.32,7.69,7.69,0,0,1-1,.28,5.7,5.7,0,0,1-1.21.12,4,4,0,0,1-1.22-.18,3,3,0,0,1-1-.56,2.62,2.62,0,0,1-.68-.9,2.8,2.8,0,0,1-.25-1.24V510.21h-2.26v-1.27H813v-5.52h1.55v5.52h3.75v1.27h-3.75V522a1.57,1.57,0,0,0,.62,1.35,2.32,2.32,0,0,0,1.4.45,3.87,3.87,0,0,0,1.66-.33,9.26,9.26,0,0,0,.85-.42Z" transform="translate(-87.07 -105.32)"/><path d="M829.88,510.33A6.35,6.35,0,0,0,823.8,515v10.08h-1.55V508.94h1.49v4a7.86,7.86,0,0,1,2.22-2.78,5.61,5.61,0,0,1,3-1.22l.55,0h.41Z" transform="translate(-87.07 -105.32)"/><path d="M838.77,525.37a7.31,7.31,0,0,1-3.14-.67,7.79,7.79,0,0,1-2.5-1.81,8.36,8.36,0,0,1-1.64-2.67,8.77,8.77,0,0,1-.59-3.19,8.68,8.68,0,0,1,2.26-5.89,7.75,7.75,0,0,1,2.5-1.81,7.24,7.24,0,0,1,3.11-.67,7.13,7.13,0,0,1,3.1.67,7.86,7.86,0,0,1,2.5,1.81,8.32,8.32,0,0,1,1.67,2.67,8.74,8.74,0,0,1-1.66,9.08,7.75,7.75,0,0,1-2.49,1.81A7.26,7.26,0,0,1,838.77,525.37Zm-6.32-8.28a7,7,0,0,0,.5,2.68,7.12,7.12,0,0,0,1.34,2.19,6.44,6.44,0,0,0,2,1.47,5.83,5.83,0,0,0,4.9,0,6.3,6.3,0,0,0,2-1.5,7.17,7.17,0,0,0,1.36-2.22,7.33,7.33,0,0,0,.5-2.71,7.22,7.22,0,0,0-.5-2.68,7,7,0,0,0-1.36-2.2,6.81,6.81,0,0,0-2-1.51,5.49,5.49,0,0,0-2.44-.56,5.6,5.6,0,0,0-2.45.56,6.28,6.28,0,0,0-2,1.52,7.5,7.5,0,0,0-1.37,2.25A7.29,7.29,0,0,0,832.45,517.09Z" transform="translate(-87.07 -105.32)"/><path d="M850.49,502.43h1.58v19.44a2,2,0,0,0,.51,1.42,1.91,1.91,0,0,0,1.41.53,5.6,5.6,0,0,0,.83-.08,4.53,4.53,0,0,0,.88-.23l.31,1.24a7.43,7.43,0,0,1-1.3.36,7.9,7.9,0,0,1-1.34.13,2.83,2.83,0,0,1-2.09-.79,2.88,2.88,0,0,1-.79-2.12Z" transform="translate(-87.07 -105.32)"/><path d="M858.52,502.43h1.58v19.44a2,2,0,0,0,.51,1.42,1.88,1.88,0,0,0,1.41.53,5.48,5.48,0,0,0,.82-.08,4.63,4.63,0,0,0,.89-.23l.31,1.24a7.43,7.43,0,0,1-1.3.36,8,8,0,0,1-1.34.13,2.72,2.72,0,0,1-2.88-2.91Z" transform="translate(-87.07 -105.32)"/><path d="M873.28,525.37a7.45,7.45,0,0,1-3.17-.67,7.64,7.64,0,0,1-2.52-1.83,8.51,8.51,0,0,1-1.68-2.68,8.77,8.77,0,0,1-.6-3.25,8.56,8.56,0,0,1,.6-3.21,8.75,8.75,0,0,1,1.66-2.64,7.71,7.71,0,0,1,2.5-1.78,7.53,7.53,0,0,1,3.11-.65,7.4,7.4,0,0,1,3.16.67,7.86,7.86,0,0,1,2.52,1.79,8.33,8.33,0,0,1,1.64,2.64,8.68,8.68,0,0,1,.59,3.18v.38a.88.88,0,0,1,0,.3H866.92a7.21,7.21,0,0,0,.65,2.59,7.37,7.37,0,0,0,1.41,2.06,6.38,6.38,0,0,0,2,1.36,5.82,5.82,0,0,0,2.39.5,6.07,6.07,0,0,0,1.64-.23,6.71,6.71,0,0,0,1.5-.64,5.16,5.16,0,0,0,1.24-1,4.51,4.51,0,0,0,.86-1.25l1.36.37a5.14,5.14,0,0,1-1,1.6,6.8,6.8,0,0,1-1.55,1.25,7.74,7.74,0,0,1-1.93.82A8,8,0,0,1,873.28,525.37Zm6.32-9a7.16,7.16,0,0,0-.64-2.61,7,7,0,0,0-1.39-2,6.46,6.46,0,0,0-2-1.33,6.17,6.17,0,0,0-4.77,0,6.34,6.34,0,0,0-2,1.33,6.58,6.58,0,0,0-1.37,2,7.85,7.85,0,0,0-.6,2.59Z" transform="translate(-87.07 -105.32)"/><path d="M892.12,510.33a6.35,6.35,0,0,0-6.07,4.65v10.08H884.5V508.94H886v4a7.73,7.73,0,0,1,2.21-2.78,5.68,5.68,0,0,1,3-1.22l.56,0h.4Z" transform="translate(-87.07 -105.32)"/><path d="M1211.34,503.05v22h-1.58V514.52h-13.88v10.54h-1.59v-22h1.59v10h13.88v-10Z" transform="translate(-87.07 -105.32)"/><path d="M1221.61,525.37q-5.16,0-5.15-7.13v-9.3H1218V518q0,6,4.06,6a5.58,5.58,0,0,0,2-.35,6.78,6.78,0,0,0,1.8-1,6.69,6.69,0,0,0,1.47-1.53,7.7,7.7,0,0,0,1-2V508.94h1.55v13.95c0,.52.22.77.65.77v1.4l-.28,0h-.18a1.68,1.68,0,0,1-1.1-.39,1.26,1.26,0,0,1-.48-1v-2.41a7.8,7.8,0,0,1-6.88,4.12Z" transform="translate(-87.07 -105.32)"/><path d="M1242.34,525.37a6.73,6.73,0,0,1-3.53-1,7.38,7.38,0,0,1-2.57-2.55v3.23h-1.43V502.43h1.55v10a10.5,10.5,0,0,1,2.71-2.73,6.36,6.36,0,0,1,3.62-1,6.45,6.45,0,0,1,3.08.73,7.09,7.09,0,0,1,2.32,1.92,8.91,8.91,0,0,1,1.46,2.7,9.43,9.43,0,0,1,.51,3,8.48,8.48,0,0,1-.59,3.18,8.3,8.3,0,0,1-1.62,2.63,8.16,8.16,0,0,1-2.45,1.82A7,7,0,0,1,1242.34,525.37ZM1242,524a5.69,5.69,0,0,0,2.61-.59,6.6,6.6,0,0,0,2-1.56,7.33,7.33,0,0,0,1.33-2.22,6.94,6.94,0,0,0,.48-2.54,7.72,7.72,0,0,0-.45-2.62,7.11,7.11,0,0,0-1.27-2.23,6.59,6.59,0,0,0-2-1.57,5.39,5.39,0,0,0-2.5-.59,5.12,5.12,0,0,0-1.92.36,6.68,6.68,0,0,0-1.66.95,7.61,7.61,0,0,0-1.36,1.36,8.63,8.63,0,0,0-1,1.61v5.33a3.35,3.35,0,0,0,.68,1.69,6.32,6.32,0,0,0,1.41,1.37,7.36,7.36,0,0,0,1.79.91A5.31,5.31,0,0,0,1242,524Z" transform="translate(-87.07 -105.32)"/><path d="M1282.15,525.06V506l-8.68,14.85h-1L1263.79,506v19h-1.58v-22h1.58L1273,518.8l9.18-15.75h1.58v22Z" transform="translate(-87.07 -105.32)"/><path d="M1295.57,525.37a7.33,7.33,0,0,1-3.15-.67,7.75,7.75,0,0,1-2.49-1.81,8.36,8.36,0,0,1-1.64-2.67,8.56,8.56,0,0,1-.59-3.19,8.65,8.65,0,0,1,.6-3.22,8.48,8.48,0,0,1,1.66-2.67,7.54,7.54,0,0,1,2.5-1.81,7.24,7.24,0,0,1,3.11-.67,7.13,7.13,0,0,1,3.1.67,8,8,0,0,1,2.5,1.81,8.32,8.32,0,0,1,1.67,2.67,8.74,8.74,0,0,1-1.66,9.08,7.75,7.75,0,0,1-2.49,1.81A7.29,7.29,0,0,1,1295.57,525.37Zm-6.32-8.28a7.21,7.21,0,0,0,.49,2.68,7,7,0,0,0,1.35,2.19,6.44,6.44,0,0,0,2,1.47,5.83,5.83,0,0,0,4.9,0,6.38,6.38,0,0,0,2-1.5,7.2,7.2,0,0,0,1.37-2.22,7.33,7.33,0,0,0,.49-2.71,7.21,7.21,0,0,0-.49-2.68,7,7,0,0,0-1.37-2.2,6.68,6.68,0,0,0-2-1.51,5.42,5.42,0,0,0-2.43-.56,5.57,5.57,0,0,0-2.45.56,6.44,6.44,0,0,0-2,1.52,7.47,7.47,0,0,0-1.36,2.25A7.29,7.29,0,0,0,1289.25,517.09Z" transform="translate(-87.07 -105.32)"/><path d="M1314.14,524.28l-.42.24a4.41,4.41,0,0,1-.74.32,7.69,7.69,0,0,1-1,.28,5.7,5.7,0,0,1-1.21.12,4,4,0,0,1-1.22-.18,2.93,2.93,0,0,1-1-.56,2.62,2.62,0,0,1-.68-.9,2.8,2.8,0,0,1-.25-1.24V510.21h-2.26v-1.27h2.26v-5.52h1.55v5.52h3.75v1.27h-3.75V522a1.57,1.57,0,0,0,.62,1.35,2.31,2.31,0,0,0,1.39.45,3.84,3.84,0,0,0,1.66-.33,7.06,7.06,0,0,0,.85-.42Z" transform="translate(-87.07 -105.32)"/><path d="M1323.22,525.37a7.31,7.31,0,0,1-3.14-.67,7.79,7.79,0,0,1-2.5-1.81,8.36,8.36,0,0,1-1.64-2.67,8.56,8.56,0,0,1-.59-3.19,8.68,8.68,0,0,1,2.26-5.89,7.64,7.64,0,0,1,2.5-1.81,7.24,7.24,0,0,1,3.11-.67,7.13,7.13,0,0,1,3.1.67,7.86,7.86,0,0,1,2.5,1.81,8.32,8.32,0,0,1,1.67,2.67,8.74,8.74,0,0,1-1.66,9.08,7.75,7.75,0,0,1-2.49,1.81A7.26,7.26,0,0,1,1323.22,525.37Zm-6.32-8.28a7.21,7.21,0,0,0,.49,2.68,7,7,0,0,0,1.35,2.19,6.44,6.44,0,0,0,2,1.47,5.83,5.83,0,0,0,4.9,0,6.3,6.3,0,0,0,2-1.5,7.34,7.34,0,0,0,1.86-4.93,7.24,7.24,0,0,0-1.86-4.88,6.81,6.81,0,0,0-2-1.51,5.49,5.49,0,0,0-2.44-.56,5.6,5.6,0,0,0-2.45.56,6.44,6.44,0,0,0-2,1.52,7.68,7.68,0,0,0-1.36,2.25A7.29,7.29,0,0,0,1316.9,517.09Z" transform="translate(-87.07 -105.32)"/><path d="M1342.44,510.33a6.35,6.35,0,0,0-6.07,4.65v10.08h-1.55V508.94h1.48v4a7.86,7.86,0,0,1,2.22-2.78,5.68,5.68,0,0,1,3-1.22l.56,0h.4Z" transform="translate(-87.07 -105.32)"/><path d="M193.51,521.62a9.65,9.65,0,0,1-7.41,3.59,9.07,9.07,0,0,1-4.14-1,10.59,10.59,0,0,1-3.27-2.54,12.13,12.13,0,0,1-2.14-3.59,11.29,11.29,0,0,1-.77-4.1,11.68,11.68,0,0,1,.76-4.18,11.48,11.48,0,0,1,2.1-3.57,10.19,10.19,0,0,1,3.21-2.46,9.06,9.06,0,0,1,4.06-.92,11.22,11.22,0,0,1,3,.36,9.15,9.15,0,0,1,2.36,1,7.81,7.81,0,0,1,1.8,1.52,9.73,9.73,0,0,1,1.28,1.94l-1.3.77a7.07,7.07,0,0,0-3-3.14,8.79,8.79,0,0,0-4.17-1,7.39,7.39,0,0,0-3.53.84,8.63,8.63,0,0,0-2.7,2.2,9.83,9.83,0,0,0-1.7,3.1,10.81,10.81,0,0,0-.59,3.56,10.18,10.18,0,0,0,2.55,6.79,9.29,9.29,0,0,0,2.81,2.13,7.85,7.85,0,0,0,3.47.79,8.3,8.3,0,0,0,3.83-.93,11.52,11.52,0,0,0,3.49-3v-4.25h-5v-1.27h6.35v10.7h-1.36Z" transform="translate(-87.07 -105.32)"/><path d="M199.89,530.51a2,2,0,0,0,.47,0,3.44,3.44,0,0,0,.57,0,1.5,1.5,0,0,0,.51-.15,1.06,1.06,0,0,0,.34-.26,4,4,0,0,0,.44-.7c.18-.35.42-.87.71-1.55l1.18-2.79-7.19-16.12h1.61l6.42,14.6,6-14.6h1.52l-8.84,21.2a2.67,2.67,0,0,1-1.1,1.35,3.81,3.81,0,0,1-2.06.48h-.26l-.3,0Z" transform="translate(-87.07 -105.32)"/><path d="M223.17,510.33A6.35,6.35,0,0,0,217.1,515v10.08h-1.55V508.94H217v4a7.73,7.73,0,0,1,2.21-2.78,5.68,5.68,0,0,1,3-1.22l.56,0h.4Z" transform="translate(-87.07 -105.32)"/><path d="M232.07,525.37a7.36,7.36,0,0,1-3.15-.67,7.75,7.75,0,0,1-2.49-1.81,8.36,8.36,0,0,1-1.64-2.67,8.56,8.56,0,0,1-.59-3.19,8.68,8.68,0,0,1,2.26-5.89,7.64,7.64,0,0,1,2.5-1.81,7.24,7.24,0,0,1,3.11-.67,7.13,7.13,0,0,1,3.1.67,8,8,0,0,1,2.5,1.81,8.32,8.32,0,0,1,1.67,2.67,8.74,8.74,0,0,1-1.66,9.08,7.75,7.75,0,0,1-2.49,1.81A7.26,7.26,0,0,1,232.07,525.37Zm-6.32-8.28a7.21,7.21,0,0,0,.49,2.68,7,7,0,0,0,1.35,2.19,6.44,6.44,0,0,0,2,1.47,5.83,5.83,0,0,0,4.9,0,6.27,6.27,0,0,0,2-1.5,7.2,7.2,0,0,0,1.37-2.22,7.33,7.33,0,0,0,.49-2.71,7.21,7.21,0,0,0-.49-2.68,7,7,0,0,0-1.37-2.2,6.56,6.56,0,0,0-2-1.51,5.42,5.42,0,0,0-2.43-.56,5.57,5.57,0,0,0-2.45.56,6.44,6.44,0,0,0-2,1.52,7.47,7.47,0,0,0-1.36,2.25A7.29,7.29,0,0,0,225.75,517.09Z" transform="translate(-87.07 -105.32)"/><path d="M248.78,525.37a10.37,10.37,0,0,1-3.56-.62,8.3,8.3,0,0,1-3-1.86l.77-1.06a9,9,0,0,0,2.7,1.74,8.22,8.22,0,0,0,3.07.56,6,6,0,0,0,3.4-.88,2.85,2.85,0,0,0,1.28-2.47,2.34,2.34,0,0,0-.32-1.25,2.54,2.54,0,0,0-1-.87,8,8,0,0,0-1.61-.64c-.64-.18-1.39-.38-2.23-.59s-1.7-.41-2.38-.62a6,6,0,0,1-1.65-.74,2.83,2.83,0,0,1-1-1.06,3.34,3.34,0,0,1-.33-1.58,4.52,4.52,0,0,1,.47-2.1,4.19,4.19,0,0,1,1.28-1.49,6.05,6.05,0,0,1,1.9-.89,8.77,8.77,0,0,1,2.27-.29,8.34,8.34,0,0,1,3.35.63,6,6,0,0,1,2.27,1.63l-.87.84a4.87,4.87,0,0,0-2.09-1.39,7.83,7.83,0,0,0-2.75-.47,7.06,7.06,0,0,0-1.69.19,4.19,4.19,0,0,0-1.38.58,3,3,0,0,0-.93,1,3.15,3.15,0,0,0-.34,1.51,2.48,2.48,0,0,0,.23,1.14,2.07,2.07,0,0,0,.75.75,5.54,5.54,0,0,0,1.32.54c.53.15,1.17.33,1.92.51,1,.25,1.91.49,2.69.71a7.72,7.72,0,0,1,2,.84,3.7,3.7,0,0,1,1.21,1.18,3.24,3.24,0,0,1,.42,1.73,4.12,4.12,0,0,1-1.69,3.46A7.25,7.25,0,0,1,248.78,525.37Z" transform="translate(-87.07 -105.32)"/><path d="M257.46,516.94a8.94,8.94,0,0,1,.59-3.23,8,8,0,0,1,1.64-2.63,7.62,7.62,0,0,1,2.51-1.77,7.82,7.82,0,0,1,3.2-.65,7.48,7.48,0,0,1,3.87,1,6.21,6.21,0,0,1,2.51,2.76l-1.52.5a5.19,5.19,0,0,0-2-2.1,5.76,5.76,0,0,0-2.9-.76,5.9,5.9,0,0,0-2.48.53,6.25,6.25,0,0,0-2,1.46,7.25,7.25,0,0,0-1.84,4.9,7.37,7.37,0,0,0,.51,2.74,7.27,7.27,0,0,0,1.37,2.23,6.52,6.52,0,0,0,2,1.51,5.67,5.67,0,0,0,2.46.55,5.85,5.85,0,0,0,1.66-.24,7.2,7.2,0,0,0,1.52-.66,5,5,0,0,0,1.21-.94,3.06,3.06,0,0,0,.7-1.13l1.52.43a5,5,0,0,1-1,1.57,6.32,6.32,0,0,1-1.5,1.25,7.51,7.51,0,0,1-1.92.82,8,8,0,0,1-2.17.3,7.48,7.48,0,0,1-3.17-.67,7.64,7.64,0,0,1-2.52-1.83,8.62,8.62,0,0,1-2.28-5.93Z" transform="translate(-87.07 -105.32)"/><path d="M282.07,525.37a7.31,7.31,0,0,1-3.14-.67,7.79,7.79,0,0,1-2.5-1.81,8.36,8.36,0,0,1-1.64-2.67,8.77,8.77,0,0,1-.59-3.19,8.81,8.81,0,0,1,2.26-5.89,7.75,7.75,0,0,1,2.5-1.81,7.24,7.24,0,0,1,3.11-.67,7.13,7.13,0,0,1,3.1.67,7.75,7.75,0,0,1,2.5,1.81,8.32,8.32,0,0,1,1.67,2.67,8.72,8.72,0,0,1,0,6.41,8.56,8.56,0,0,1-1.65,2.67,7.9,7.9,0,0,1-2.5,1.81A7.26,7.26,0,0,1,282.07,525.37Zm-6.32-8.28a7.22,7.22,0,0,0,.5,2.68,7.12,7.12,0,0,0,1.34,2.19,6.44,6.44,0,0,0,2,1.47A5.73,5.73,0,0,0,282,524a5.66,5.66,0,0,0,2.45-.54,6.3,6.3,0,0,0,2-1.5,7.17,7.17,0,0,0,1.36-2.22,7.33,7.33,0,0,0,.5-2.71,7.22,7.22,0,0,0-.5-2.68,7,7,0,0,0-1.36-2.2,6.81,6.81,0,0,0-2-1.51,5.6,5.6,0,0,0-4.88,0,6.21,6.21,0,0,0-2,1.52,7.5,7.5,0,0,0-1.37,2.25A7.29,7.29,0,0,0,275.75,517.09Z" transform="translate(-87.07 -105.32)"/><path d="M301.54,525.37a6.47,6.47,0,0,1-3.7-1.1,8.91,8.91,0,0,1-2.62-2.68v10.07h-1.55V508.94h1.42v3.22a8,8,0,0,1,2.62-2.52,6.61,6.61,0,0,1,3.49-1,6.89,6.89,0,0,1,3.1.71,8,8,0,0,1,2.45,1.88,8.85,8.85,0,0,1,2.17,5.78,9.66,9.66,0,0,1-.53,3.19,8.21,8.21,0,0,1-1.5,2.67,7.15,7.15,0,0,1-2.34,1.81A6.68,6.68,0,0,1,301.54,525.37Zm-.37-1.4a5.37,5.37,0,0,0,2.54-.59,6.1,6.1,0,0,0,2-1.56,7.13,7.13,0,0,0,1.23-2.23,7.79,7.79,0,0,0,.44-2.56,7.17,7.17,0,0,0-.5-2.65,7,7,0,0,0-1.38-2.22,6.75,6.75,0,0,0-2.06-1.53,5.67,5.67,0,0,0-2.51-.58,5,5,0,0,0-1.78.36,7.66,7.66,0,0,0-1.78,1,7,7,0,0,0-1.43,1.38,3.3,3.3,0,0,0-.68,1.64v5.31a8.21,8.21,0,0,0,1,1.67,7.51,7.51,0,0,0,1.4,1.36,6.06,6.06,0,0,0,1.67.92A5.35,5.35,0,0,0,301.17,524Z" transform="translate(-87.07 -105.32)"/><path d="M319.49,525.37a7.4,7.4,0,0,1-3.16-.67,7.78,7.78,0,0,1-2.53-1.83,8.48,8.48,0,0,1-1.67-2.68,8.78,8.78,0,0,1-.61-3.25,8.57,8.57,0,0,1,.61-3.21,8.38,8.38,0,0,1,1.66-2.64,7.67,7.67,0,0,1,2.49-1.78,7.55,7.55,0,0,1,3.12-.65,7.43,7.43,0,0,1,3.16.67,7.82,7.82,0,0,1,2.51,1.79,8.33,8.33,0,0,1,1.64,2.64,8.48,8.48,0,0,1,.59,3.18v.38a.88.88,0,0,1,0,.3H313.14a7.21,7.21,0,0,0,.65,2.59,7.37,7.37,0,0,0,1.41,2.06,6.26,6.26,0,0,0,2,1.36,5.8,5.8,0,0,0,2.38.5,6.14,6.14,0,0,0,1.65-.23,7.13,7.13,0,0,0,1.5-.64,5.36,5.36,0,0,0,1.24-1,4.47,4.47,0,0,0,.85-1.25l1.37.37a5.33,5.33,0,0,1-1,1.6,7,7,0,0,1-1.55,1.25,8.21,8.21,0,0,1-4.11,1.12Zm6.32-9a7.36,7.36,0,0,0-.63-2.61,7,7,0,0,0-1.4-2,6.3,6.3,0,0,0-2-1.33,6.19,6.19,0,0,0-4.78,0,6.46,6.46,0,0,0-2,1.33,6.39,6.39,0,0,0-1.36,2,8.12,8.12,0,0,0-.61,2.59Z" transform="translate(-87.07 -105.32)"/></svg>