<svg id="Layer_1" data-name="Layer 1" xmlns="http://www.w3.org/2000/svg" viewBox="0 0 1532.48 467.14"><defs><style>.cls-1{fill:#232021;}.cls-2{fill:#6d6d6e;}.cls-3{fill:#c8c9cb;}.cls-4{fill:#cccecf;}.cls-5{fill:#cccdcf;}.cls-6{fill:#c9cacc;}.cls-7{fill:#cccccf;}.cls-8{fill:#cecfd0;}.cls-9{fill:#ced0d1;}.cls-10{fill:#cfcfd1;}.cls-11{fill:#cfd0d2;}.cls-12{fill:#d1d2d3;}.cls-13{fill:#cbccce;}.cls-14{fill:#cdced0;}.cls-15{fill:#b3b3b3;}.cls-16,.cls-17{fill:none;stroke:#000;stroke-miterlimit:10;}.cls-17{stroke-width:2px;}.cls-18{fill:#fff;}</style></defs><title>uniwheelapp-how-it-works</title><path class="cls-1" d="M728.54,343.13c-4.36,0-8.73-.05-13.09,0-1.45,0-1.9-.47-1.79-1.86a28.58,28.58,0,0,0,0-4.24c-.09-1.31.43-1.63,1.67-1.62,8.56,0,17.12,0,25.68.05,1.38,0,1.9-.29,1.84-1.76-.12-2.49-.12-5,0-7.48.06-1.46-.32-1.94-1.87-1.93-8.45.08-16.9,0-25.34.08-1.6,0-2.1-.45-2-2a31,31,0,0,0,0-4.42c-.09-1.24.42-1.5,1.56-1.49,8.51,0,17,0,25.51.07,1.81,0,2.2-.54,2.1-2.19a70.85,70.85,0,0,1,0-7.14c.06-1.36-.41-1.73-1.73-1.72-8.5.05-17,0-25.51.06-1.65,0-2.05-.52-1.94-2a26.47,26.47,0,0,0,0-4.08c-.11-1.35.36-1.75,1.71-1.74,8.39,0,16.78,0,25.17,0,2.26,0,2.26,0,2.26-2.33s-.07-4.77,0-7.15c.06-1.33-.35-1.72-1.7-1.71-8.51.06-17,0-25.51.07-1.57,0-2.12-.43-2-2a23.16,23.16,0,0,0,0-4.08c-.11-1.36.39-1.75,1.73-1.74,7.37.05,14.74,0,22.11,0,1.36,0,2.72,0,4.08,0,.85,0,1.23-.3,1.22-1.19,0-2.89,0-5.78,0-8.67,0-1.11-.56-1.16-1.38-1.16-4.31,0-8.62,0-12.93,0s-8.73-.06-13.09,0c-1.48,0-1.87-.48-1.77-1.84a27.41,27.41,0,0,0,0-4.25c-.12-1.42.36-1.84,1.79-1.83,8.45.06,16.89,0,25.34.06,1.67,0,2.13-.47,2-2.09-.13-2.43-.1-4.88,0-7.31,0-1.34-.37-1.75-1.72-1.74-8.22.05-16.44,0-24.66,0-3.11,0-2.74.4-2.77-2.85a28.37,28.37,0,0,0,0-3.06c-.17-1.48.48-1.79,1.84-1.79,8.39,0,16.78,0,25.17.06,1.72,0,2.29-.41,2.18-2.16a68.56,68.56,0,0,1,0-7.31c0-1.33-.33-1.74-1.7-1.73-8.5.06-17,0-25.51.07-1.59,0-2.1-.45-2-2a27.41,27.41,0,0,0,0-4.25c-.08-1.26.37-1.64,1.64-1.64,8.51.05,17,0,25.51.06,1.67,0,2.13-.46,2-2.08-.14-2.49-.09-5,0-7.48,0-1.3-.43-1.63-1.67-1.62-8.51,0-17,0-25.51.06-1.57,0-2.15-.43-2-2a25.26,25.26,0,0,0,0-4.08c-.08-1.26.38-1.66,1.65-1.65,6,.06,11.9,0,17.86,0,2.77,0,5.55,0,8.33,0a3.24,3.24,0,0,0,2.57-1q5.37-5.44,10.82-10.82a3,3,0,0,0,.87-2.43c0-8.68,0-17.35,0-26,0-1.28.26-1.85,1.67-1.73a27.18,27.18,0,0,0,4.42,0c1.39-.11,1.7.46,1.69,1.75,0,8.45,0,16.89-.06,25.34,0,1.52.34,2.12,2,2,2.49-.12,5-.1,7.48,0,1.37.05,1.72-.44,1.71-1.76-.05-8.56,0-17.12,0-25.68,0-1.25.28-1.75,1.59-1.67a35.15,35.15,0,0,0,4.59,0c1.3-.09,1.61.39,1.61,1.65-.06,8.44,0,16.89-.08,25.34,0,1.79.51,2.22,2.19,2.12a70.65,70.65,0,0,1,7.13,0c1.48.07,1.94-.36,1.93-1.9-.08-8.44,0-16.89-.08-25.34,0-1.5.39-2,1.89-1.87a19.47,19.47,0,0,0,3.74,0c1.67-.18,2.24.32,2.22,2.12-.1,8.33,0,16.66-.08,25,0,1.54.4,2.08,2,2a68,68,0,0,1,7.14,0c1.55.08,2-.4,2-2-.08-8.34,0-16.67-.09-25,0-1.76.49-2.33,2.19-2.15a18.7,18.7,0,0,0,3.74,0c1.46-.13,1.93.29,1.92,1.86-.09,8.38,0,16.78-.08,25.16,0,1.65.43,2.19,2.08,2.1,2.49-.13,5-.1,7.48,0,1.31.05,1.61-.43,1.6-1.67,0-8.5,0-17,0-25.51,0-1.45.3-2.07,1.86-1.93a25.13,25.13,0,0,0,4.25,0c1.31-.09,1.61.41,1.6,1.66,0,8.45,0,16.89,0,25.34,0,1.59.36,2.22,2.06,2.13a68.56,68.56,0,0,1,7.31,0c1.4.06,1.83-.34,1.82-1.78-.06-8.44,0-16.89-.06-25.34,0-1.47.26-2.18,1.91-2a23.2,23.2,0,0,0,4.25,0c1.3-.09,1.74.27,1.73,1.67-.07,8.5,0,17-.07,25.51,0,1.63.5,2,2,1.94a68,68,0,0,1,7.14,0c1.57.09,1.92-.51,1.91-1.95-.05-8.39,0-16.78-.06-25.17,0-1.49.31-2.19,2-2a17,17,0,0,0,3.9,0c1.72-.2,2,.54,2,2.1-.07,8.22,0,16.44,0,24.66,0,2.33,0,2.33,2.31,2.33s4.54-.08,6.8,0c1.52.08,2-.36,2-2-.08-8.39,0-16.78-.07-25.17,0-1.51.35-2.15,2-2a20.6,20.6,0,0,0,4.08,0c1.47-.13,1.79.48,1.78,1.85,0,8.5,0,17-.06,25.5a4.64,4.64,0,0,0,1.53,3.72c3.23,3.1,6.41,6.25,9.49,9.5a4.63,4.63,0,0,0,3.75,1.47c8.33,0,16.67,0,25-.07,1.7,0,2.38.41,2.14,2.18a15.52,15.52,0,0,0,0,3.73c.17,1.6-.54,1.86-2,1.85-8.22-.05-16.44,0-24.66,0-2.46,0-2.47,0-2.47,2.47s.08,4.65,0,7c-.07,1.39.43,1.71,1.73,1.71,8.51-.05,17,0,25.51-.06,1.48,0,2,.33,1.89,1.87a24.17,24.17,0,0,0,0,4.42c.11,1.32-.4,1.6-1.63,1.59-8.33,0-16.67,0-25,0-2.84,0-2.44-.19-2.45,2.45,0,2.33.07,4.65,0,7-.07,1.39.45,1.74,1.76,1.73,8.39-.05,16.78,0,25.17-.06,1.65,0,2.4.33,2.18,2.13a18.25,18.25,0,0,0,0,3.91c.12,1.38-.44,1.71-1.73,1.71-8.22-.05-16.44,0-24.66,0-3.07,0-2.68-.17-2.69,2.61,0,2.26.07,4.53,0,6.8-.07,1.39.46,1.7,1.77,1.69,8.44,0,16.89,0,25.34-.06,1.69,0,2.17.51,2,2.11a17,17,0,0,0,0,3.9c.2,1.67-.54,1.93-2,1.92-8.28-.06-16.55-.05-24.83,0-2.38,0-2.24-.49-2.25,2.28,0,2.27.08,4.54,0,6.8-.07,1.47.37,1.94,1.9,1.93,8.5-.07,17,0,25.51-.06,1.4,0,1.79.43,1.7,1.74a28.35,28.35,0,0,0,0,4.42c.13,1.47-.55,1.65-1.78,1.64-6.8,0-13.61,0-20.41,0-1.81,0-3.63.06-5.44,0-1.13-.05-1.49.35-1.47,1.45,0,2.72.07,5.44,0,8.16,0,1.32.48,1.61,1.7,1.6,8.5,0,17,0,25.51,0,1.47,0,2,.32,1.9,1.86a24.13,24.13,0,0,0,0,4.25c.11,1.4-.46,1.72-1.76,1.71-8.33-.05-16.67,0-25,0-2.32,0-2.32,0-2.33,2.27s.07,4.76,0,7.14c-.06,1.31.42,1.6,1.66,1.59,8.5,0,17,0,25.51-.07,1.6,0,2.07.46,1.94,2a28.35,28.35,0,0,0,0,4.42c.08,1.22-.4,1.51-1.56,1.5-8.5,0-17,0-25.51-.05-1.5,0-2.13.32-2,2,.13,2.54.09,5.1,0,7.65,0,1.19.37,1.54,1.55,1.53,8.51,0,17,0,25.51-.05,1.67,0,2.2.49,2,2.11a21.28,21.28,0,0,0,0,3.91c.11,1.36-.37,1.73-1.72,1.72-8.5-.06-17,0-25.51-.05a4.32,4.32,0,0,0-3.43,1.41c-3.23,3.35-6.49,6.66-9.84,9.89a4.51,4.51,0,0,0-1.39,3.61c0,8.33,0,16.66,0,25,0,1.58-.34,2.31-2,2.13a20.43,20.43,0,0,0-3.91,0c-1.56.16-1.87-.5-1.86-1.94.06-8.33,0-16.67.06-25,0-1.51-.32-2.13-2-2-2.49.14-5,.11-7.48,0-1.38-.05-1.72.46-1.71,1.76,0,8.33,0,16.67,0,25,0,2.18,0,2.18-2.24,2.19-1.2,0-2.39-.09-3.57,0-1.53.14-2-.35-2-2,.08-8.28,0-16.56.08-24.83,0-1.72-.4-2.31-2.15-2.19-2.2.16-4.42,0-6.63,0s-2.24,0-2.24,2.16c0,8.28,0,16.56,0,24.83,0,1.44-.27,2.09-1.85,1.95a27.18,27.18,0,0,0-4.42,0c-1.28.09-1.62-.38-1.61-1.64,0-8.22,0-16.44,0-24.66,0-.51,0-1,0-1.53,0-.81-.29-1.11-1.09-1.1-2.95,0-5.9,0-8.84,0-1.36,0-1.19.91-1.19,1.75,0,8.33-.05,16.67,0,25,0,1.69-.37,2.41-2.15,2.2a15.14,15.14,0,0,0-3.56,0c-1.73.21-2.06-.53-2-2.11.07-8.33,0-16.66.07-25,0-1.57-.51-1.91-1.93-1.86-2.44.1-4.88.11-7.31,0-1.49-.07-1.94.38-1.93,1.9.07,8.39,0,16.78.07,25.17,0,1.5-.38,2-1.9,1.89a29.65,29.65,0,0,0-4.42,0c-1.21.07-1.51-.41-1.51-1.58.05-8.39,0-16.78,0-25.17,0-2.19,0-2.19-2.23-2.19-2.38,0-4.77.07-7.15,0-1.34-.05-1.73.39-1.72,1.73.06,8.39,0,16.78.07,25.17,0,1.64-.4,2.25-2.06,2.08a22.24,22.24,0,0,0-4.08,0c-1.39.11-1.71-.44-1.7-1.75,0-8.39,0-16.78.07-25.17,0-1.68-.52-2.12-2.12-2-2.49.12-5,.08-7.48,0-1.26,0-1.63.36-1.63,1.64.06,8.5,0,17,.06,25.51,0,1.39-.32,1.95-1.78,1.82a23.17,23.17,0,0,0-4.08,0c-1.48.13-2-.34-1.94-1.87.06-8.34,0-16.67.06-25,0-1.65-.44-2.18-2.08-2.09a64.82,64.82,0,0,1-7,0c-1.59-.08-2.13.36-2.11,2,.09,8.22,0,16.44,0,24.66,0,2.24,0,2.24-2.23,2.25-1.31,0-2.62-.08-3.91,0s-1.63-.4-1.62-1.65c0-7.77-.12-15.54.1-23.3a8.42,8.42,0,0,0-3-7.2c-3.09-2.74-5.91-5.79-8.8-8.75a3.44,3.44,0,0,0-2.7-1.11c-4.25.05-8.5,0-12.76,0Zm51.7-17.72a7.37,7.37,0,0,0-7.39-7.61,7.45,7.45,0,0,0-7.59,7.29,7.61,7.61,0,0,0,7.35,7.74A7.45,7.45,0,0,0,780.24,325.41ZM928.78,204.67h-3.57c-3.9,0-3.84,0-3.84,3.92,0,1.2.46,1.39,1.49,1.38,3.11-.05,6.23,0,9.34,0,3.85,0,3.81,0,3.78-3.84,0-1.08-.26-1.52-1.43-1.46C932.63,204.74,930.7,204.67,928.78,204.67ZM875.27,376.54V373c0-3.92,0-3.88-3.91-3.79-1,0-1.24.37-1.23,1.29,0,3.21,0,6.43,0,9.65,0,3.83,0,3.78,3.87,3.73,1.12,0,1.31-.43,1.28-1.39C875.23,380.49,875.27,378.51,875.27,376.54ZM799.89,170.19h0v-3.56c0-4.08,0-4-4-3.87-.8,0-1.1.25-1.1,1.05,0,4.18-.15,8.37.08,12.54.12,2.28,2.12.61,3.21,1,.63.21,1.91.62,1.87-1C799.85,174.26,799.89,172.22,799.89,170.19Zm37.74-.06h0v-3.56c0-3.93,0-3.89-3.94-3.82-1,0-1.21.36-1.2,1.28,0,3.16,0,6.33,0,9.49,0,4.06,0,4,4,3.88.89,0,1.17-.27,1.14-1.17C837.59,174.2,837.63,172.17,837.63,170.13Zm-5.12,206.41v3.57c0,4,0,4,4,3.74.8-.05,1.11-.26,1.11-1.07,0-4.2.21-8.41-.1-12.58-.16-2.18-2.29-.54-3.45-.93-.61-.2-1.71-.41-1.58,1,0,.34,0,.68,0,1Zm42.76-206.39v-3.74c0-3.73,0-3.68-3.76-3.66-1.19,0-1.4.45-1.39,1.5.06,3.11,0,6.23,0,9.35,0,3.94,0,3.89,4,3.81,1,0,1.2-.42,1.18-1.31C875.24,174.12,875.27,172.14,875.27,170.15Zm-80.5,206.39h0v3.56c0,3.84,0,3.8,3.81,3.76,1,0,1.36-.33,1.34-1.36,0-3.16,0-6.32,0-9.48,0-4,0-4-4.08-3.82-.81,0-1.06.28-1,1.07C794.8,372.36,794.77,374.45,794.77,376.54ZM722.25,210h3.56c3.88,0,3.84,0,3.79-4,0-1-.31-1.34-1.35-1.32-3.11.06-6.22,0-9.33,0-4.19,0-4.16,0-4,4.14,0,.91.34,1.17,1.2,1.15C718.18,209.91,720.21,209.94,722.25,210Zm0,37.62h3.55c3.93,0,3.89,0,3.8-3.93,0-1-.37-1.24-1.28-1.22-3.16,0-6.32,0-9.49,0-4.09,0-4.05,0-3.89,4,0,.93.39,1.13,1.21,1.11C718.18,247.55,720.21,247.57,722.25,247.57Zm206.48-5.14h-3.56c-3.9,0-3.86,0-3.79,3.95,0,1,.37,1.22,1.28,1.21,3.22,0,6.44,0,9.66,0,3.73,0,3.73,0,3.63-3.76,0-.11,0-.23,0-.34.09-.84-.35-1.06-1.11-1.05C932.8,242.45,930.77,242.43,928.73,242.43ZM722.29,285.32h3.57c3.83,0,3.78,0,3.74-3.83,0-1.09-.38-1.32-1.38-1.31-3.17.05-6.34,0-9.52,0-3.85,0-3.8,0-3.76,3.86,0,1.14.44,1.31,1.4,1.28C718.32,285.28,720.3,285.32,722.29,285.32Zm206.27,0h3.73c3.85,0,3.82,0,3.68-3.9,0-1-.33-1.27-1.29-1.25-3.16,0-6.32,0-9.48,0-4.05,0-4,0-3.81,4.1,0,.8.27,1.07,1.07,1C924.49,285.3,926.53,285.33,928.56,285.33ZM722.25,336.79H718.7c-3.85,0-3.8,0-3.76,3.82,0,1.05.33,1.35,1.36,1.33,3.16-.06,6.32,0,9.48,0,4.05,0,4,0,3.81-4.08-.05-.8-.27-1.07-1.07-1.06C726.43,336.83,724.34,336.8,722.25,336.79Zm206.34,5.13h3.73c3.73,0,3.67,0,3.66-3.77,0-1.21-.47-1.39-1.49-1.37-3.11,0-6.22,0-9.33,0-4,0-4,0-3.77,4.11,0,.83.32,1.05,1.1,1C924.52,341.89,926.56,341.92,928.59,341.92Zm0-37.7h3.72c3.79,0,3.75,0,3.69-3.87,0-1.05-.34-1.34-1.36-1.32-3.1.05-6.21,0-9.31,0-4.15,0-4.13,0-3.91,4.14,0,.79.25,1.08,1.07,1.06C924.49,304.19,926.52,304.22,928.56,304.22Zm-166.37-134h0V166.5c0-3.84,0-3.78-3.84-3.75-1.14,0-1.26.45-1.25,1.4,0,3.17,0,6.34,0,9.51,0,3.85,0,3.8,3.82,3.75,1.12,0,1.3-.45,1.27-1.4C762.15,174.08,762.19,172.16,762.19,170.23Zm13.67-.17v3.57c0,3.89,0,3.85,4,3.77.95,0,1.26-.26,1.24-1.24,0-3.17,0-6.34,0-9.51,0-4.08,0-4.05-4-3.89-.89,0-1.18.31-1.16,1.19C775.89,166,775.86,168,775.86,170.06Zm37.76-.16v3.74c0,3.82,0,3.77,3.79,3.77,1.09,0,1.32-.35,1.3-1.36-.06-3.17,0-6.34,0-9.51,0-4,0-3.92-4-3.79-.92,0-1.14.35-1.12,1.2C813.65,165.93,813.62,167.92,813.62,169.9Zm42.79.16V166.5c0-3.84,0-3.8-3.85-3.74-1,0-1.26.27-1.24,1.24,0,3.23,0,6.45,0,9.68,0,3.83,0,3.77,3.81,3.73,1.13,0,1.31-.44,1.28-1.4C856.37,174,856.41,172,856.41,170.06Zm32.69,0h0c0,2,0,4.08,0,6.12,0,.43-.28,1.13.55,1.16,1.3,0,2.6,0,3.9,0,.69,0,.6-.53.61-1q0-6.28,0-12.57c0-.37.13-.93-.41-1a37.48,37.48,0,0,0-4.24,0c-.64,0-.39.71-.4,1.11C889.09,166,889.1,168,889.1,170.08Zm-70.42,206.6h0v-3.74c0-3.93,0-3.9-4-3.74-.93,0-1.12.36-1.11,1.2,0,3.23,0,6.46,0,9.69,0,3.85,0,3.82,3.83,3.76.94,0,1.29-.23,1.25-1.23C818.63,380.64,818.68,378.66,818.68,376.68ZM928.56,228.74h3.73c3.82,0,3.78,0,3.68-3.89,0-.95-.31-1.25-1.27-1.24-3.16.06-6.33,0-9.5,0-4,0-4,0-3.81,4.06,0,.8.25,1.08,1.06,1.06C924.48,228.71,926.52,228.74,928.56,228.74ZM762.19,376.49v-3.57c0-3.81,0-3.77-3.86-3.72-.94,0-1.25.25-1.23,1.22,0,3.23,0,6.46,0,9.68,0,3.88,0,3.84,3.83,3.75.94,0,1.29-.27,1.25-1.25C762.14,380.57,762.18,378.53,762.19,376.49Zm-40-72.27h3.57c3.82,0,3.78,0,3.79-3.77,0-1.08-.25-1.47-1.39-1.44-3.12.08-6.23,0-9.34,0-4.1,0-4.07,0-3.91,4,0,.87.26,1.19,1.17,1.16C718.15,304.18,720.19,304.22,722.23,304.22ZM781,376.37h0V373c0-3.91,0-3.87-4-3.77-1,0-1.24.31-1.23,1.26,0,3.17,0,6.34,0,9.51,0,4.09,0,4,4,3.87.91,0,1.16-.34,1.15-1.19C781,380.56,781,378.46,781,376.37ZM722.32,323h3.57c3.81,0,3.75,0,3.71-3.83,0-1.15-.48-1.26-1.41-1.25-3.18,0-6.35,0-9.52,0-3.95,0-3.92,0-3.72,4,0,.83.29,1.06,1.08,1.05C718.13,322.94,720.22,323,722.32,323ZM889.1,376.58v3.57c0,3.85,0,3.81,3.87,3.7,1,0,1.23-.38,1.22-1.3,0-3.17,0-6.34,0-9.51,0-4.07,0-4-4.07-3.84-.85,0-1,.33-1,1.1C889.12,372.39,889.1,374.49,889.1,376.58ZM722.24,228.74h3.56c3.89,0,3.86,0,3.79-3.91,0-1-.29-1.23-1.25-1.21-3.16.06-6.33,0-9.5,0-4.06,0-4,0-3.9,4,0,.94.35,1.15,1.19,1.13C718.17,228.71,720.2,228.74,722.24,228.74ZM928.6,323h3.73c3.76,0,3.72,0,3.64-3.79,0-1.07-.38-1.33-1.39-1.31-3.11.06-6.23,0-9.34,0-4.08,0-4,0-3.85,4.05,0,.84.3,1.06,1.09,1C924.52,322.94,926.56,323,928.6,323Zm0-61.58c-2,0-4.08.07-6.12,0-1.16-.05-1.29.63-1,1.36.4,1.23-1.21,3.44.89,3.63,4.16.38,8.38.12,12.57.11.38,0,.92.1,1-.44a37.48,37.48,0,0,0,0-4.24c0-.6-.73-.37-1.14-.38C932.7,261.38,930.66,261.4,928.62,261.39Zm-206.37,5.08h3.57c3.92,0,3.89,0,3.77-4,0-.92-.31-1.12-1.17-1.11-3.23,0-6.46,0-9.68,0-4,0-4,0-3.79,3.94,0,.91.32,1.17,1.19,1.15C718.17,266.44,720.21,266.47,722.25,266.47Zm129.09,109.9v3.74c0,3.87,0,3.82,3.82,3.74,1.11,0,1.29-.45,1.27-1.41,0-3.17,0-6.34,0-9.52,0-3.82,0-3.79-3.84-3.72-.94,0-1.28.24-1.25,1.22C851.39,372.4,851.34,374.39,851.34,376.37ZM736.89,210h2c4.07,0,4.05,0,3.84-4.13,0-.89-.33-1.18-1.2-1.16-2.15,0-4.3,0-6.46,0-4.12,0-4.1,0-3.87,4.21,0,.8.25,1.11,1.07,1.08C733.84,209.91,735.37,210,736.89,210Zm177.05,0h1.86c4.14,0,4.11,0,4-4.15,0-.89-.31-1.17-1.18-1.15-2.21,0-4.42,0-6.62,0-3.85,0-3.85,0-3.71,3.88,0,.12,0,.23,0,.34-.08.84.34,1.08,1.12,1.06C910.88,209.92,912.41,209.94,913.94,209.94Zm-81.42-25.18h0V187c0,3.89,0,3.86,4,3.62.86-.06,1.2-.31,1.18-1.2,0-2.14,0-4.28,0-6.43,0-4,0-4-4-3.9-.88,0-1.2.24-1.16,1.14C832.57,181.71,832.52,183.24,832.52,184.76Zm42.75,0h0v-2c0-3.89,0-3.86-4-3.72-.85,0-1.18.25-1.17,1.15,0,3,0,6.09,0,9.14,0,.42-.14,1.07.45,1.12a33,33,0,0,0,4.22,0c.61,0,.43-.7.44-1.12C875.28,187.85,875.27,186.33,875.27,184.8ZM736.82,247.57c1.58,0,3.17,0,4.75,0,.41,0,1.07.18,1.1-.45a37.13,37.13,0,0,0,0-4.22c0-.51-.58-.45-1-.45h-9.49c-.37,0-.9-.08-.92.48,0,1.41,0,2.82,0,4.23,0,.57.59.42.94.42C733.77,247.58,735.3,247.57,736.82,247.57Zm.11,56.65c1.58,0,3.17-.05,4.75,0,1.36.06,1.2-.94,1-1.6-.34-1.19,1.17-3.26-.91-3.5a86.76,86.76,0,0,0-9.68-.08c-.51,0-.77.14-.86.75-.6,4-.23,4.42,3.65,4.42Zm177.05,0c1.58,0,3.16-.06,4.74,0,1.06.06,1.17-.59,1-1.26-.37-1.3,1.08-3.52-.86-3.81-3.15-.47-6.41-.12-9.63-.15-.92,0-1.08.55-.94,1.19.28,1.33-.77,2.89.66,4,.18.14.55,0,.83,0Zm0,32.57h-2c-3.87,0-3.84,0-3.7,3.91,0,.94.32,1.28,1.28,1.25,2.15-.06,4.29,0,6.44,0,4,0,4,0,3.81-4.07,0-.8-.24-1.1-1.06-1.08C917.1,336.83,915.52,336.79,913.94,336.79Zm.09-51.46h4.74c.56,0,1-.06,1-.8,0-1.19,0-2.37,0-3.56,0-.58-.27-.78-.83-.78-3.21,0-6.45-.21-9.64.08-2.14.19-.65,2.17-1,3.3-.17.63-.5,1.84,1,1.76.28,0,.56,0,.85,0ZM736.9,341.92h2c4.14,0,4.11,0,3.83-4.1-.06-.84-.37-1.05-1.12-1-2.2,0-4.41,0-6.61,0-4,0-4,0-3.79,4.09,0,.81.29,1.07,1.09,1.05C733.85,341.89,735.37,341.92,736.9,341.92Zm-.08-56.59c1.58,0,3.16,0,4.74,0,.42,0,1.07.17,1.11-.45.08-1.41.06-2.82,0-4.23,0-.53-.57-.44-.95-.44-3.16,0-6.32,0-9.48,0-.37,0-.91-.1-.93.46,0,1.4-.06,2.82,0,4.22,0,.56.59.42,1,.42C733.77,285.33,735.3,285.32,736.82,285.33Zm39-100.59v2c0,4.14,0,4.11,4.15,3.79.84-.07,1-.38,1-1.14,0-2.15,0-4.3,0-6.45,0-4.2,0-4.18-4.15-3.93-.82,0-1.08.3-1.06,1.1C775.89,181.68,775.86,183.21,775.86,184.74Zm24,.12v-2c0-3.89,0-3.85-3.94-3.79-1,0-1.21.39-1.19,1.28,0,2.43,0,4.85,0,7.28,0,3,0,2.89,3.07,3,1.57.05,2.29-.31,2.08-2A32.94,32.94,0,0,1,799.88,184.86Zm114,62.71h2c3.92,0,3.87,0,3.82-3.9,0-1.13-.44-1.29-1.4-1.26-2.15.06-4.29,0-6.44,0-4,0-3.95,0-3.69,4.08,0,.81.3,1.09,1.1,1.07C910.84,247.54,912.37,247.57,913.89,247.57ZM837.65,361.84h0c0-1.52,0-3,0-4.58,0-.66-.13-1.21-.91-1.05-1.4.28-3-.75-4.21.58-.09.09,0,.33,0,.5,0,3.06,0,6.12,0,9.17,0,.78.22,1.05,1,1.09,4.09.21,4.09.24,4.09-3.84C837.64,363.09,837.65,362.47,837.65,361.84Zm37.62,0v-2c0-3.82,0-3.78-3.88-3.67-.95,0-1.28.29-1.26,1.26,0,2.66.11,5.33,0,8-.09,1.64.28,2.26,2.09,2.16,3.06-.18,3.07-.05,3.07-3.15Zm-80.51-.12h0c0,1.59,0,3.18,0,4.76,0,1,.58,1.2,1.28,1,1.26-.39,3.45,1.12,3.73-.8.46-3.17.11-6.44.13-9.67,0-1-.73-.94-1.3-.82-1.27.26-2.76-.77-3.8.64-.14.18,0,.55,0,.84ZM737,223.64h-2c-3.87,0-3.83,0-3.75,3.93,0,1,.37,1.21,1.28,1.19,2.15-.06,4.3,0,6.44,0,4,0,3.94,0,3.8-4,0-.85-.23-1.21-1.15-1.17C740.08,223.68,738.56,223.64,737,223.64ZM894.17,184.7v-1.87c0-3.93,0-3.89-4-3.78-.91,0-1.15.28-1.13,1.16.06,2.21,0,4.42,0,6.63,0,4.06,0,4,4,3.74.81-.06,1.08-.33,1.06-1.12C894.14,187.87,894.17,186.28,894.17,184.7Zm-37.76.15v-2c0-3.82,0-3.76-3.81-3.76-1.12,0-1.31.37-1.28,1.36.07,2.27,0,4.54,0,6.81,0,3.38,0,3.33,3.37,3.38,1.27,0,1.88-.23,1.74-1.67S856.42,186.21,856.41,184.85ZM914,261.39h-2.21c-3.67,0-3.63,0-3.6,3.64,0,1.07.25,1.51,1.41,1.47,2.15-.09,4.31,0,6.46,0,3.7,0,3.67,0,3.65-3.75,0-1-.18-1.43-1.29-1.35C917,261.47,915.51,261.39,914,261.39Zm-95.34-76.54v-2c0-3.93,0-3.89-4-3.76-.92,0-1.15.31-1.13,1.18,0,2.32,0,4.64,0,7,0,3.39,0,3.35,3.37,3.38,1.25,0,1.88-.21,1.73-1.66A39.43,39.43,0,0,1,818.69,184.85ZM737,261.39c-1.58,0-3.17,0-4.76,0-.71,0-1.15.19-1,.94.34,1.36-.84,3,.66,4.13,0,0,.11,0,.17,0,3.23,0,6.46,0,9.69,0,1,0,1-.6.92-1.22-.27-1.28.76-2.78-.63-3.84-.18-.14-.55,0-.84,0Zm25.19-76.7v-1.87c0-3.92,0-3.88-4-3.77-.92,0-1.14.32-1.12,1.17,0,2.21,0,4.42,0,6.63,0,4.07,0,4,4,3.72.8-.07,1.09-.31,1.06-1.12C762.15,187.87,762.19,186.28,762.19,184.69Zm151.86,38.95h-2c-4,0-3.93,0-3.8,3.94,0,1,.44,1.19,1.32,1.18,2.21,0,4.41,0,6.62,0,3.59,0,3.54,0,3.58-3.61,0-1.13-.19-1.62-1.45-1.52S915.47,223.64,914.05,223.64ZM913.86,323h0c1.64,0,3.29,0,4.93,0,1.31,0,1.06-1,.88-1.5-.37-1.18,1.19-3.25-.86-3.49a84.22,84.22,0,0,0-9.67-.09c-.34,0-.8,0-.82.4-.05,1.41-.09,2.83,0,4.24,0,.61.7.42,1.12.42C910.91,323,912.39,323,913.86,323Zm-176.73-5.08h-2c-4.08,0-4.05,0-3.85,4.05,0,.84.31,1.05,1.09,1,3.12,0,6.24,0,9.35,0,.43,0,1,.14,1-.56,0-1.3,0-2.6,0-3.91,0-.65-.54-.6-1-.61Zm20,43.85c0,1.59,0,3.17,0,4.75-.05,1,.49,1.24,1.23,1,1.26-.39,3.45,1.1,3.72-.78a34.59,34.59,0,0,0,0-9.64c-.28-2.05-2.45-.43-3.69-.85-.64-.22-1.41-.15-1.27.93a5.17,5.17,0,0,1,0,.68C757.12,359.14,757.12,360.44,757.11,361.74Zm56.51.16v1.87c0,3.91,0,3.88,3.93,3.78.86,0,1.19-.21,1.16-1.13-.07-2.2,0-4.41,0-6.61,0-3.83,0-3.8-3.9-3.65-.84,0-1.22.25-1.19,1.17C813.67,358.85,813.62,360.38,813.62,361.9Zm37.72-.06v1.86c0,4.06,0,4.06,4,3.83h.16c.65.07.91-.21.91-.87q0-4.74,0-9.5c0-.59-.14-.88-.82-1-3.94-.56-4.26-.31-4.26,3.62Zm-75.48.07v1.87c0,4,0,4,4.12,3.77.81,0,1.08-.28,1.07-1.08,0-2.14,0-4.29,0-6.43,0-4.07,0-4-4-3.86-.86,0-1.2.27-1.17,1.16C775.9,358.86,775.86,360.39,775.86,361.91Zm118.3-.13c0-1.52,0-3,0-4.57,0-.37.13-.92-.42-.95q-2.12-.09-4.23,0c-.57,0-.4.59-.4.95,0,3.11,0,6.21,0,9.32,0,.36-.17.92.4,1,1.41,0,2.82,0,4.23,0,.57,0,.42-.58.42-.94C894.17,365,894.17,363.37,894.16,361.78Z" transform="translate(-72.47 -61.52)"/><path class="cls-2" d="M780.24,325.41a7.45,7.45,0,0,1-7.63,7.42,7.61,7.61,0,0,1-7.35-7.74,7.45,7.45,0,0,1,7.59-7.29A7.37,7.37,0,0,1,780.24,325.41Z" transform="translate(-72.47 -61.52)"/><path class="cls-3" d="M928.78,204.67c1.92,0,3.85.07,5.77,0,1.17-.06,1.42.38,1.43,1.46,0,3.84.07,3.84-3.78,3.84-3.11,0-6.23,0-9.34,0-1,0-1.48-.18-1.49-1.38,0-3.92-.06-3.92,3.84-3.92Z" transform="translate(-72.47 -61.52)"/><path class="cls-4" d="M875.27,376.54c0,2,0,3.95,0,5.93,0,1-.16,1.38-1.28,1.39-3.87.05-3.87.1-3.87-3.73,0-3.22,0-6.44,0-9.65,0-.92.23-1.26,1.23-1.29,3.91-.09,3.91-.13,3.91,3.79Z" transform="translate(-72.47 -61.52)"/><path class="cls-5" d="M799.89,170.19c0,2,0,4.07,0,6.1,0,1.64-1.24,1.23-1.87,1-1.09-.35-3.09,1.32-3.21-1-.23-4.17-.06-8.36-.08-12.54,0-.8.3-1,1.1-1.05,4-.18,4-.21,4,3.87v3.56Z" transform="translate(-72.47 -61.52)"/><path class="cls-5" d="M837.63,170.13c0,2,0,4.07,0,6.1,0,.9-.25,1.14-1.14,1.17-4,.15-4,.18-4-3.88,0-3.16,0-6.33,0-9.49,0-.92.2-1.26,1.2-1.28,3.94-.07,3.94-.11,3.94,3.82v3.56Z" transform="translate(-72.47 -61.52)"/><path class="cls-5" d="M832.51,376.54v-5.27c0-.34,0-.68,0-1-.13-1.39,1-1.18,1.58-1,1.16.39,3.29-1.25,3.45.93.31,4.17.08,8.38.1,12.58,0,.81-.31,1-1.11,1.07-4,.22-4,.24-4-3.74Z" transform="translate(-72.47 -61.52)"/><path class="cls-4" d="M875.27,170.15c0,2,0,4,0,5.95,0,.89-.14,1.29-1.18,1.31-4,.08-4,.13-4-3.81,0-3.12,0-6.24,0-9.35,0-1.05.2-1.49,1.39-1.5,3.76,0,3.76-.07,3.76,3.66Z" transform="translate(-72.47 -61.52)"/><path class="cls-5" d="M794.77,376.54c0-2.09,0-4.18,0-6.27,0-.79.23-1,1-1.07,4.08-.2,4.08-.23,4.08,3.82,0,3.16,0,6.32,0,9.48,0,1-.29,1.34-1.34,1.36-3.81,0-3.81.08-3.81-3.76v-3.56Z" transform="translate(-72.47 -61.52)"/><path class="cls-6" d="M722.25,210c-2,0-4.07,0-6.11,0-.86,0-1.16-.24-1.2-1.15-.18-4.14-.21-4.14,4-4.14,3.11,0,6.22.05,9.33,0,1,0,1.33.28,1.35,1.32,0,4,.09,4-3.79,4Z" transform="translate(-72.47 -61.52)"/><path class="cls-5" d="M722.25,247.57c-2,0-4.07,0-6.1,0-.82,0-1.18-.18-1.21-1.11-.16-4-.2-4,3.89-4,3.17,0,6.33,0,9.49,0,.91,0,1.25.23,1.28,1.22.09,3.93.13,3.93-3.8,3.93Z" transform="translate(-72.47 -61.52)"/><path class="cls-7" d="M928.73,242.43c2,0,4.07,0,6.11,0,.76,0,1.2.21,1.11,1.05,0,.11,0,.23,0,.34.1,3.76.1,3.76-3.63,3.76-3.22,0-6.44,0-9.66,0-.91,0-1.26-.21-1.28-1.21-.07-3.95-.11-3.95,3.79-3.95Z" transform="translate(-72.47 -61.52)"/><path class="cls-4" d="M722.29,285.32c-2,0-4,0-5.95,0-1,0-1.39-.14-1.4-1.28,0-3.86-.09-3.86,3.76-3.86,3.18,0,6.35,0,9.52,0,1,0,1.37.22,1.38,1.31,0,3.83.09,3.83-3.74,3.83Z" transform="translate(-72.47 -61.52)"/><path class="cls-7" d="M928.56,285.33c-2,0-4.07,0-6.1,0-.8,0-1-.25-1.07-1-.21-4.1-.24-4.1,3.81-4.1,3.16,0,6.32,0,9.48,0,1,0,1.26.29,1.29,1.25.14,3.9.17,3.9-3.68,3.9Z" transform="translate(-72.47 -61.52)"/><path class="cls-5" d="M722.25,336.8c2.09,0,4.18,0,6.27,0,.8,0,1,.26,1.07,1.06.22,4.08.24,4.08-3.81,4.08-3.16,0-6.32,0-9.48,0-1,0-1.35-.28-1.36-1.33,0-3.82-.09-3.82,3.76-3.82Z" transform="translate(-72.47 -61.52)"/><path class="cls-7" d="M928.59,341.92c-2,0-4.07,0-6.1,0-.78,0-1.06-.2-1.1-1-.24-4.11-.27-4.1,3.77-4.11,3.11,0,6.22,0,9.33,0,1,0,1.49.16,1.49,1.37,0,3.77.07,3.77-3.66,3.77Z" transform="translate(-72.47 -61.52)"/><path class="cls-8" d="M928.56,304.22c-2,0-4.07,0-6.1,0-.82,0-1-.27-1.07-1.06-.22-4.14-.24-4.14,3.91-4.14,3.1,0,6.21,0,9.31,0,1,0,1.35.27,1.36,1.32.06,3.87.1,3.87-3.69,3.87Z" transform="translate(-72.47 -61.52)"/><path class="cls-9" d="M762.19,170.23c0,1.93,0,3.85,0,5.78,0,1-.15,1.39-1.27,1.4-3.82.05-3.82.1-3.82-3.75,0-3.17,0-6.34,0-9.51,0-1,.11-1.39,1.25-1.4,3.84,0,3.84-.09,3.84,3.75v3.73Z" transform="translate(-72.47 -61.52)"/><path class="cls-9" d="M775.86,170.06c0-2,0-4.08,0-6.11,0-.88.27-1.15,1.16-1.19,4-.16,4-.19,4,3.89,0,3.17,0,6.34,0,9.51,0,1-.29,1.22-1.24,1.24-4,.08-4,.12-4-3.77Z" transform="translate(-72.47 -61.52)"/><path class="cls-10" d="M813.62,169.9c0-2,0-4,0-6,0-.85.2-1.17,1.12-1.2,4-.13,4-.17,4,3.79,0,3.17,0,6.34,0,9.51,0,1-.21,1.36-1.3,1.36-3.79,0-3.79.05-3.79-3.77Z" transform="translate(-72.47 -61.52)"/><path class="cls-9" d="M856.41,170.06c0,2,0,4,0,5.95,0,1-.15,1.39-1.28,1.4-3.81,0-3.81.1-3.81-3.73,0-3.23,0-6.45,0-9.68,0-1,.28-1.22,1.24-1.24,3.85-.06,3.85-.1,3.85,3.74Z" transform="translate(-72.47 -61.52)"/><path class="cls-9" d="M889.1,170.08c0-2,0-4.08,0-6.12,0-.4-.24-1.08.4-1.11a37.48,37.48,0,0,1,4.24,0c.54,0,.41.59.41,1q0,6.28,0,12.57c0,.45.08,1-.61,1-1.3,0-2.6,0-3.9,0-.83,0-.55-.73-.55-1.16,0-2,0-4.08,0-6.12Z" transform="translate(-72.47 -61.52)"/><path class="cls-10" d="M818.68,376.68c0,2,0,4,0,5.94,0,1-.31,1.21-1.25,1.23-3.83.06-3.83.09-3.83-3.76,0-3.23,0-6.46,0-9.69,0-.84.18-1.16,1.11-1.2,4-.16,4-.19,4,3.74v3.74Z" transform="translate(-72.47 -61.52)"/><path class="cls-11" d="M928.56,228.74c-2,0-4.08,0-6.11,0-.81,0-1-.26-1.06-1.06-.18-4.06-.21-4.06,3.81-4.06,3.17,0,6.34,0,9.5,0,1,0,1.24.29,1.27,1.24.1,3.89.14,3.89-3.68,3.89Z" transform="translate(-72.47 -61.52)"/><path class="cls-9" d="M762.18,376.49c0,2,0,4.08,0,6.11,0,1-.31,1.23-1.25,1.25-3.83.09-3.83.13-3.83-3.75,0-3.22,0-6.45,0-9.68,0-1,.29-1.21,1.23-1.22,3.86-.05,3.86-.09,3.86,3.72C762.19,374.11,762.19,375.3,762.18,376.49Z" transform="translate(-72.47 -61.52)"/><path class="cls-10" d="M722.23,304.22c-2,0-4.08,0-6.11,0-.91,0-1.14-.29-1.17-1.16-.16-4-.19-4,3.91-4,3.11,0,6.22,0,9.34,0,1.14,0,1.4.36,1.39,1.44,0,3.77,0,3.77-3.79,3.77Z" transform="translate(-72.47 -61.52)"/><path class="cls-9" d="M781,376.37c0,2.09,0,4.19,0,6.28,0,.85-.24,1.15-1.15,1.19-4,.18-4,.22-4-3.87,0-3.17,0-6.34,0-9.51,0-.95.26-1.23,1.23-1.26,4-.1,4-.14,4,3.77v3.4Z" transform="translate(-72.47 -61.52)"/><path class="cls-9" d="M722.32,323c-2.1,0-4.19,0-6.29,0-.79,0-1-.22-1.08-1.05-.2-4-.23-4,3.72-4,3.17,0,6.34,0,9.52,0,.93,0,1.39.1,1.41,1.25,0,3.84.1,3.83-3.71,3.83Z" transform="translate(-72.47 -61.52)"/><path class="cls-9" d="M889.1,376.58c0-2.09,0-4.19,0-6.28,0-.77.17-1.06,1-1.1,4.07-.2,4.07-.23,4.07,3.84,0,3.17,0,6.34,0,9.51,0,.92-.22,1.27-1.22,1.3-3.87.11-3.87.15-3.87-3.7Z" transform="translate(-72.47 -61.52)"/><path class="cls-12" d="M722.24,228.74c-2,0-4.07,0-6.11,0-.84,0-1.16-.19-1.19-1.13-.12-4-.16-4,3.9-4,3.17,0,6.34,0,9.5,0,1,0,1.23.24,1.25,1.21.07,3.91.1,3.91-3.79,3.91Z" transform="translate(-72.47 -61.52)"/><path class="cls-8" d="M928.6,323c-2,0-4.08,0-6.12,0-.79,0-1.05-.2-1.09-1-.2-4.05-.23-4.05,3.85-4.05,3.11,0,6.23,0,9.34,0,1,0,1.37.24,1.39,1.31.08,3.79.12,3.79-3.64,3.79Z" transform="translate(-72.47 -61.52)"/><path class="cls-8" d="M928.62,261.39c2,0,4.08,0,6.12,0,.41,0,1.1-.22,1.14.38a37.48,37.48,0,0,1,0,4.24c0,.54-.57.44-1,.44-4.19,0-8.41.27-12.57-.11-2.1-.19-.49-2.4-.89-3.63-.24-.73-.11-1.41,1-1.36C924.54,261.46,926.58,261.39,928.62,261.39Z" transform="translate(-72.47 -61.52)"/><path class="cls-10" d="M722.25,266.47c-2,0-4.08,0-6.11,0-.87,0-1.16-.24-1.19-1.15-.16-3.94-.19-3.94,3.79-3.94,3.22,0,6.45,0,9.68,0,.86,0,1.15.19,1.17,1.11.12,4,.15,4-3.77,4Z" transform="translate(-72.47 -61.52)"/><path class="cls-9" d="M851.34,376.37c0-2,0-4,0-5.95,0-1,.31-1.21,1.25-1.22,3.84-.07,3.84-.1,3.84,3.72,0,3.18,0,6.35,0,9.52,0,1-.16,1.39-1.27,1.41-3.82.08-3.82.13-3.82-3.74Z" transform="translate(-72.47 -61.52)"/><path class="cls-3" d="M736.89,210c-1.52,0-3,0-4.58,0-.82,0-1-.28-1.07-1.08-.23-4.21-.25-4.21,3.87-4.21,2.16,0,4.31,0,6.46,0,.87,0,1.15.27,1.2,1.16C743,210,743,210,738.93,210Z" transform="translate(-72.47 -61.52)"/><path class="cls-3" d="M913.94,209.94c-1.53,0-3.06,0-4.58,0-.78,0-1.2-.22-1.12-1.06,0-.11,0-.22,0-.34-.14-3.88-.14-3.88,3.71-3.88,2.2,0,4.41,0,6.62,0,.87,0,1.14.26,1.18,1.15.16,4.15.19,4.15-4,4.15h-1.86Z" transform="translate(-72.47 -61.52)"/><path class="cls-7" d="M832.52,184.76c0-1.52.05-3,0-4.57,0-.9.28-1.12,1.16-1.14,4-.12,4-.15,4,3.9,0,2.15,0,4.29,0,6.43,0,.89-.32,1.14-1.18,1.2-4,.24-4,.27-4-3.62v-2.2Z" transform="translate(-72.47 -61.52)"/><path class="cls-13" d="M875.27,184.8c0,1.53,0,3,0,4.57,0,.42.17,1.08-.44,1.12a33,33,0,0,1-4.22,0c-.59-.05-.45-.7-.45-1.12,0-3.05,0-6.1,0-9.14,0-.9.32-1.12,1.17-1.15,4-.14,4-.17,4,3.72v2Z" transform="translate(-72.47 -61.52)"/><path class="cls-13" d="M736.82,247.57c-1.52,0-3.05,0-4.58,0-.35,0-.92.15-.94-.42,0-1.41,0-2.82,0-4.23,0-.56.55-.48.92-.48h9.49c.38,0,.94-.06,1,.45a37.13,37.13,0,0,1,0,4.22c0,.63-.69.45-1.1.45C740,247.58,738.4,247.57,736.82,247.57Z" transform="translate(-72.47 -61.52)"/><path class="cls-14" d="M736.93,304.22h-2c-3.88,0-4.25-.46-3.65-4.42.09-.61.35-.75.86-.75a86.76,86.76,0,0,1,9.68.08c2.08.24.57,2.31.91,3.5.19.66.35,1.66-1,1.6C740.1,304.17,738.51,304.22,736.93,304.22Z" transform="translate(-72.47 -61.52)"/><path class="cls-14" d="M914,304.22h-4.23c-.28,0-.65.12-.83,0-1.43-1.1-.38-2.66-.66-4-.14-.64,0-1.2.94-1.19,3.22,0,6.48-.32,9.63.15,1.94.29.49,2.51.86,3.81.2.67.09,1.32-1,1.26C917.14,304.16,915.56,304.22,914,304.22Z" transform="translate(-72.47 -61.52)"/><path class="cls-7" d="M913.94,336.79c1.58,0,3.16,0,4.74,0,.82,0,1,.28,1.06,1.08.2,4.07.22,4.07-3.81,4.07-2.15,0-4.29,0-6.44,0-1,0-1.24-.31-1.28-1.25-.14-3.91-.17-3.91,3.7-3.91Z" transform="translate(-72.47 -61.52)"/><path class="cls-13" d="M914,285.33h-3.89c-.29,0-.57,0-.85,0-1.5.08-1.17-1.13-1-1.76.31-1.13-1.18-3.11,1-3.3,3.19-.29,6.43-.07,9.64-.08.56,0,.84.2.83.78,0,1.19,0,2.37,0,3.56,0,.74-.4.81-1,.8Z" transform="translate(-72.47 -61.52)"/><path class="cls-13" d="M736.9,341.92c-1.53,0-3,0-4.57,0-.8,0-1-.24-1.09-1.05-.23-4.09-.26-4.09,3.79-4.09,2.2,0,4.41,0,6.61,0,.75,0,1.06.2,1.12,1,.28,4.11.31,4.1-3.83,4.1Z" transform="translate(-72.47 -61.52)"/><path class="cls-13" d="M736.82,285.32c-1.52,0-3.05,0-4.57,0-.36,0-.92.14-1-.42,0-1.4,0-2.82,0-4.22,0-.56.56-.46.93-.46,3.16,0,6.32,0,9.48,0,.38,0,.93-.09.95.44.06,1.41.08,2.82,0,4.23,0,.62-.69.44-1.11.45C740,285.34,738.4,285.33,736.82,285.32Z" transform="translate(-72.47 -61.52)"/><path class="cls-14" d="M775.86,184.74c0-1.53,0-3.06,0-4.59,0-.8.24-1.05,1.06-1.1,4.15-.25,4.15-.27,4.15,3.93,0,2.15,0,4.3,0,6.45,0,.76-.21,1.07-1,1.14-4.16.32-4.15.35-4.15-3.79Z" transform="translate(-72.47 -61.52)"/><path class="cls-13" d="M799.88,184.86a32.94,32.94,0,0,0,0,3.72c.21,1.71-.51,2.07-2.08,2-3.06-.11-3.07,0-3.07-3,0-2.43,0-4.85,0-7.28,0-.89.17-1.26,1.19-1.28,3.95-.06,3.94-.1,3.94,3.79Z" transform="translate(-72.47 -61.52)"/><path class="cls-13" d="M913.89,247.57c-1.52,0-3,0-4.57,0-.8,0-1.05-.26-1.1-1.07-.26-4.08-.29-4.08,3.69-4.08,2.15,0,4.29,0,6.44,0,1,0,1.39.13,1.4,1.26,0,3.9.1,3.9-3.82,3.9Z" transform="translate(-72.47 -61.52)"/><path class="cls-14" d="M837.65,361.84c0,.63,0,1.25,0,1.87,0,4.08,0,4.05-4.09,3.84-.83,0-1.06-.31-1-1.09,0-3,0-6.11,0-9.17,0-.17-.07-.41,0-.5,1.23-1.33,2.81-.3,4.21-.58.78-.16.92.39.91,1.05,0,1.53,0,3.06,0,4.58Z" transform="translate(-72.47 -61.52)"/><path class="cls-14" d="M875.27,361.88v2.55c0,3.1,0,3-3.07,3.15-1.81.1-2.18-.52-2.09-2.16.13-2.66.07-5.33,0-8,0-1,.31-1.23,1.26-1.26,3.88-.11,3.88-.15,3.88,3.67Z" transform="translate(-72.47 -61.52)"/><path class="cls-5" d="M794.76,361.76v-4.07c0-.29-.11-.66,0-.84,1-1.41,2.53-.38,3.8-.64.57-.12,1.3-.19,1.3.82,0,3.23.33,6.5-.13,9.67-.28,1.92-2.47.41-3.73.8-.7.22-1.32.05-1.28-1,.06-1.58,0-3.17,0-4.76Z" transform="translate(-72.47 -61.52)"/><path class="cls-11" d="M737,223.64c1.53,0,3.05,0,4.58,0,.92,0,1.11.32,1.15,1.17.14,4,.16,4-3.8,4-2.14,0-4.29,0-6.44,0-.91,0-1.26-.17-1.28-1.19-.08-3.93-.12-3.93,3.75-3.93Z" transform="translate(-72.47 -61.52)"/><path class="cls-14" d="M894.17,184.7c0,1.58,0,3.17,0,4.76,0,.79-.25,1.06-1.06,1.12-4,.3-4,.32-4-3.74,0-2.21,0-4.42,0-6.63,0-.88.22-1.14,1.13-1.16,4-.11,4-.15,4,3.78Z" transform="translate(-72.47 -61.52)"/><path class="cls-14" d="M856.41,184.85c0,1.36-.1,2.73,0,4.07s-.47,1.68-1.74,1.67c-3.37-.05-3.37,0-3.37-3.38,0-2.27,0-4.54,0-6.81,0-1,.16-1.35,1.28-1.36,3.81,0,3.81-.06,3.81,3.76Z" transform="translate(-72.47 -61.52)"/><path class="cls-8" d="M914,261.39c1.48,0,3,.08,4.42,0,1.11-.08,1.29.35,1.29,1.35,0,3.75,0,3.75-3.65,3.75-2.15,0-4.31-.06-6.46,0-1.16,0-1.41-.4-1.41-1.47,0-3.64-.07-3.64,3.6-3.64Z" transform="translate(-72.47 -61.52)"/><path class="cls-14" d="M818.69,184.85a39.43,39.43,0,0,0,0,4.07c.15,1.45-.48,1.68-1.73,1.66-3.37,0-3.37,0-3.37-3.38,0-2.33,0-4.65,0-7,0-.87.21-1.15,1.13-1.18,4-.13,4-.17,4,3.76Z" transform="translate(-72.47 -61.52)"/><path class="cls-8" d="M737,261.39h4.25c.29,0,.66-.11.84,0,1.39,1.06.36,2.56.63,3.84.12.62,0,1.23-.92,1.22-3.23,0-6.46,0-9.69,0-.06,0-.13,0-.17,0-1.5-1.16-.32-2.77-.66-4.13-.19-.75.25-1,1-.94C733.83,261.42,735.42,261.39,737,261.39Z" transform="translate(-72.47 -61.52)"/><path class="cls-14" d="M762.19,184.69c0,1.59,0,3.18,0,4.76,0,.81-.26,1.05-1.06,1.12-4,.32-4,.35-4-3.72,0-2.21,0-4.42,0-6.63,0-.85.2-1.15,1.12-1.17,4-.11,4-.15,4,3.77Z" transform="translate(-72.47 -61.52)"/><path class="cls-11" d="M914.05,223.64c1.42,0,2.84.09,4.24,0s1.47.39,1.45,1.52c0,3.61,0,3.61-3.58,3.61-2.21,0-4.41,0-6.62,0-.88,0-1.28-.14-1.32-1.18-.13-3.94-.18-3.94,3.8-3.94Z" transform="translate(-72.47 -61.52)"/><path class="cls-14" d="M913.86,323c-1.47,0-3,0-4.42,0-.42,0-1.08.19-1.12-.42-.09-1.41-.05-2.83,0-4.24,0-.41.48-.4.82-.4a84.22,84.22,0,0,1,9.67.09c2.05.24.49,2.31.86,3.49.18.55.43,1.55-.88,1.5-1.64-.06-3.29,0-4.93,0Z" transform="translate(-72.47 -61.52)"/><path class="cls-14" d="M737.13,317.89h4.59c.45,0,1,0,1,.61,0,1.31,0,2.61,0,3.91,0,.7-.59.56-1,.56-3.11,0-6.23,0-9.35,0-.78,0-1.05-.2-1.09-1-.2-4.05-.23-4.05,3.85-4.05Z" transform="translate(-72.47 -61.52)"/><path class="cls-11" d="M757.12,361.74v-3.9a5.17,5.17,0,0,0,0-.68c-.14-1.08.63-1.15,1.27-.93,1.24.42,3.41-1.2,3.69.85a34.59,34.59,0,0,1,0,9.64c-.27,1.88-2.46.39-3.72.78-.74.23-1.28,0-1.23-1C757.16,364.91,757.11,363.33,757.12,361.74Z" transform="translate(-72.47 -61.52)"/><path class="cls-11" d="M813.62,361.9c0-1.52,0-3,0-4.57,0-.92.35-1.13,1.19-1.17,3.9-.15,3.9-.18,3.9,3.65,0,2.2-.05,4.41,0,6.61,0,.92-.3,1.11-1.16,1.13-3.93.1-3.93.13-3.93-3.78Z" transform="translate(-72.47 -61.52)"/><path class="cls-11" d="M851.34,361.84v-2c0-3.93.32-4.18,4.26-3.62.68.1.82.39.82,1q0,4.75,0,9.5c0,.66-.26.94-.91.87h-.16c-4,.23-4,.23-4-3.83Z" transform="translate(-72.47 -61.52)"/><path class="cls-11" d="M775.86,361.91c0-1.52,0-3.05,0-4.57,0-.89.31-1.13,1.17-1.16,4-.18,4-.21,4,3.86,0,2.14,0,4.29,0,6.43,0,.8-.26,1-1.07,1.08-4.12.22-4.12.25-4.12-3.77Z" transform="translate(-72.47 -61.52)"/><path class="cls-11" d="M894.16,361.78c0,1.59,0,3.17,0,4.75,0,.36.15.92-.42.94-1.41.06-2.82.06-4.23,0-.57,0-.4-.59-.4-1,0-3.11,0-6.21,0-9.32,0-.36-.17-.93.4-.95q2.12-.09,4.23,0c.55,0,.42.58.42.95C894.17,358.73,894.16,360.26,894.16,361.78Z" transform="translate(-72.47 -61.52)"/><path class="cls-15" d="M407.17,272.77c3.26-.24,6.51-.57,9.77-.73,3.26.09,6.51,0,9.77,0h117.2c3.26,0,6.51,0,9.77,0,3.25.2,6.51.5,9.76.74v2.6c-3.25.25-6.51.55-9.76.75-3.26-.08-6.51,0-9.77-.05H426.71c-3.26,0-6.51,0-9.77.05-3.26-.16-6.51-.48-9.77-.72Z" transform="translate(-72.47 -61.52)"/><path class="cls-15" d="M408.78,274.09c4.18-4.18,6.17-12.44,6.34-18.18-5.73,7.7-13.18,14.42-22.19,18.18,9,3.61,16.13,10.73,22.19,18.18C414.63,286.13,413.13,278.68,408.78,274.09Z" transform="translate(-72.47 -61.52)"/><path class="cls-15" d="M561.83,274.09c-4.17-4.18-6.17-12.44-6.33-18.18,5.73,7.7,13.18,14.42,22.19,18.18-9,3.61-16.13,10.73-22.19,18.18C556,286.13,557.49,278.68,561.83,274.09Z" transform="translate(-72.47 -61.52)"/><path class="cls-15" d="M1073.09,246.3c7.11-.76,14.21-1.33,21.32-1.89.88-.06,1.77-.16,2.66-.17s1.78,0,2.67,0h122.55c3.55,0,7.11,0,10.66,0a23.65,23.65,0,0,1,2.66.1l2.67.22,5.33.42v2.6l-5.33.42-2.67.21a21.52,21.52,0,0,1-2.66.11c-3.55-.08-7.11,0-10.66,0H1099.74c-.89,0-1.78.06-2.67,0s-1.78-.1-2.66-.17C1087.3,247.63,1080.2,247.06,1073.09,246.3Z" transform="translate(-72.47 -61.52)"/><path class="cls-15" d="M1242,246.3c-4.18-4.18-6.18-12.45-6.34-18.18,5.73,7.7,13.18,14.41,22.19,18.18-9,3.6-16.13,10.72-22.19,18.18C1236.15,258.34,1237.65,250.88,1242,246.3Z" transform="translate(-72.47 -61.52)"/><path d="M745.23,522.06V503l-8.68,14.85h-1L726.88,503v19h-1.59v-22h1.59l9.17,15.75,9.18-15.75h1.58v22Z" transform="translate(-72.47 -61.52)"/><path d="M752.11,502.28v-2.85h1.55v2.85Zm0,19.78V505.94h1.55v16.12Z" transform="translate(-72.47 -61.52)"/><path d="M757.41,513.94a8.94,8.94,0,0,1,.59-3.23,8,8,0,0,1,1.64-2.63,7.62,7.62,0,0,1,2.51-1.77,7.82,7.82,0,0,1,3.2-.65,7.48,7.48,0,0,1,3.87,1,6.21,6.21,0,0,1,2.51,2.76l-1.52.5a5.19,5.19,0,0,0-2-2.1,5.76,5.76,0,0,0-2.9-.76,5.94,5.94,0,0,0-2.48.53,6.25,6.25,0,0,0-2,1.46,7.19,7.19,0,0,0-1.34,2.18,7.63,7.63,0,0,0,0,5.46,7.27,7.27,0,0,0,1.37,2.23,6.52,6.52,0,0,0,2,1.51,5.67,5.67,0,0,0,2.46.55,5.85,5.85,0,0,0,1.66-.24,7.2,7.2,0,0,0,1.52-.66,5,5,0,0,0,1.21-.94,3.06,3.06,0,0,0,.7-1.13l1.52.43A5,5,0,0,1,771,520a6.32,6.32,0,0,1-1.5,1.25,7.51,7.51,0,0,1-1.92.82,8,8,0,0,1-2.17.3,7.48,7.48,0,0,1-3.17-.67,7.64,7.64,0,0,1-2.52-1.83,8.62,8.62,0,0,1-2.28-5.93Z" transform="translate(-72.47 -61.52)"/><path d="M783.05,507.33A6.35,6.35,0,0,0,777,512v10.08h-1.55V505.94h1.49v4a7.86,7.86,0,0,1,2.22-2.78,5.61,5.61,0,0,1,3-1.22l.55,0h.41Z" transform="translate(-72.47 -61.52)"/><path d="M791.94,522.37a7.31,7.31,0,0,1-3.14-.67,7.79,7.79,0,0,1-2.5-1.81,8.36,8.36,0,0,1-1.64-2.67,8.77,8.77,0,0,1-.59-3.19,8.68,8.68,0,0,1,2.26-5.89,7.75,7.75,0,0,1,2.5-1.81,7.24,7.24,0,0,1,3.11-.67,7.13,7.13,0,0,1,3.1.67,7.86,7.86,0,0,1,2.5,1.81,8.32,8.32,0,0,1,1.67,2.67,8.72,8.72,0,0,1,0,6.41,8.56,8.56,0,0,1-1.65,2.67,7.9,7.9,0,0,1-2.5,1.81A7.26,7.26,0,0,1,791.94,522.37Zm-6.32-8.28a7.22,7.22,0,0,0,.5,2.68,7.12,7.12,0,0,0,1.34,2.19,6.44,6.44,0,0,0,2,1.47,5.83,5.83,0,0,0,4.9,0,6.3,6.3,0,0,0,2-1.5,7.17,7.17,0,0,0,1.36-2.22,7.33,7.33,0,0,0,.5-2.71,7.22,7.22,0,0,0-.5-2.68,7,7,0,0,0-1.36-2.2,6.81,6.81,0,0,0-2-1.51,5.6,5.6,0,0,0-4.88,0,6.21,6.21,0,0,0-2,1.52,7.5,7.5,0,0,0-1.37,2.25A7.29,7.29,0,0,0,785.62,514.09Z" transform="translate(-72.47 -61.52)"/><path d="M802.42,513.94a8.94,8.94,0,0,1,.59-3.23,8,8,0,0,1,1.64-2.63,7.72,7.72,0,0,1,2.51-1.77,7.86,7.86,0,0,1,3.2-.65,7.45,7.45,0,0,1,3.87,1,6.16,6.16,0,0,1,2.51,2.76l-1.52.5a5.19,5.19,0,0,0-2-2.1,5.72,5.72,0,0,0-2.89-.76,5.87,5.87,0,0,0-2.48.53,6,6,0,0,0-2,1.46,7,7,0,0,0-1.35,2.18,7.63,7.63,0,0,0,0,5.46,7.27,7.27,0,0,0,1.37,2.23,6.64,6.64,0,0,0,2,1.51,5.68,5.68,0,0,0,2.47.55,6,6,0,0,0,1.66-.24,7.34,7.34,0,0,0,1.51-.66,5,5,0,0,0,1.21-.94,2.93,2.93,0,0,0,.7-1.13l1.52.43A5,5,0,0,1,816,520a6.32,6.32,0,0,1-1.5,1.25,7.51,7.51,0,0,1-1.92.82,7.9,7.9,0,0,1-2.17.3,7.4,7.4,0,0,1-3.16-.67,7.57,7.57,0,0,1-2.53-1.83,8.48,8.48,0,0,1-1.67-2.68A8.58,8.58,0,0,1,802.42,513.94Z" transform="translate(-72.47 -61.52)"/><path d="M827,522.37a7.33,7.33,0,0,1-3.15-.67,7.9,7.9,0,0,1-2.5-1.81,8.36,8.36,0,0,1-1.64-2.67,8.77,8.77,0,0,1-.59-3.19,8.81,8.81,0,0,1,2.26-5.89,7.75,7.75,0,0,1,2.5-1.81,7.26,7.26,0,0,1,3.12-.67,7.17,7.17,0,0,1,3.1.67,7.82,7.82,0,0,1,2.49,1.81,8.53,8.53,0,0,1,1.68,2.67,8.86,8.86,0,0,1,0,6.41,8.78,8.78,0,0,1-1.66,2.67,7.9,7.9,0,0,1-2.5,1.81A7.24,7.24,0,0,1,827,522.37Zm-6.33-8.28a7.22,7.22,0,0,0,.5,2.68,7,7,0,0,0,1.35,2.19,6.21,6.21,0,0,0,2,1.47,5.81,5.81,0,0,0,4.89,0,6.3,6.3,0,0,0,2-1.5,7.17,7.17,0,0,0,1.36-2.22,7.33,7.33,0,0,0,.5-2.71,7.22,7.22,0,0,0-.5-2.68,7,7,0,0,0-1.36-2.2,6.81,6.81,0,0,0-2-1.51,5.6,5.6,0,0,0-4.88,0,6.32,6.32,0,0,0-2,1.52,7.5,7.5,0,0,0-1.37,2.25A7.29,7.29,0,0,0,820.71,514.09Z" transform="translate(-72.47 -61.52)"/><path d="M851.8,522.06h-1.55v-9a9,9,0,0,0-.88-4.56,3,3,0,0,0-2.8-1.42,5.73,5.73,0,0,0-2,.37,7,7,0,0,0-1.88,1.05,7.7,7.7,0,0,0-1.52,1.6,6.67,6.67,0,0,0-1,2v10h-1.55V505.94h1.46v3.84a7.82,7.82,0,0,1,1.22-1.69,8,8,0,0,1,1.64-1.3,8.56,8.56,0,0,1,1.94-.84,7.84,7.84,0,0,1,2.11-.29,4,4,0,0,1,3.72,1.84,10.6,10.6,0,0,1,1.08,5.29Z" transform="translate(-72.47 -61.52)"/><path d="M863.52,521.28l-.42.24a4.08,4.08,0,0,1-.74.32,7.69,7.69,0,0,1-1,.28,5.7,5.7,0,0,1-1.21.12,4,4,0,0,1-1.22-.18,3,3,0,0,1-1-.56,2.62,2.62,0,0,1-.68-.9,2.8,2.8,0,0,1-.25-1.24V507.21h-2.26v-1.27H857v-5.52h1.55v5.52h3.75v1.27h-3.75V519a1.57,1.57,0,0,0,.62,1.35,2.32,2.32,0,0,0,1.4.45,3.87,3.87,0,0,0,1.66-.33,9.26,9.26,0,0,0,.85-.42Z" transform="translate(-72.47 -61.52)"/><path d="M873.88,507.33A6.35,6.35,0,0,0,867.8,512v10.08h-1.55V505.94h1.49v4a7.86,7.86,0,0,1,2.22-2.78,5.61,5.61,0,0,1,3-1.22l.55,0h.41Z" transform="translate(-72.47 -61.52)"/><path d="M882.77,522.37a7.31,7.31,0,0,1-3.14-.67,7.79,7.79,0,0,1-2.5-1.81,8.36,8.36,0,0,1-1.64-2.67,8.77,8.77,0,0,1-.59-3.19,8.68,8.68,0,0,1,2.26-5.89,7.75,7.75,0,0,1,2.5-1.81,7.24,7.24,0,0,1,3.11-.67,7.13,7.13,0,0,1,3.1.67,7.86,7.86,0,0,1,2.5,1.81,8.32,8.32,0,0,1,1.67,2.67,8.74,8.74,0,0,1-1.66,9.08,7.75,7.75,0,0,1-2.49,1.81A7.26,7.26,0,0,1,882.77,522.37Zm-6.32-8.28a7,7,0,0,0,.5,2.68,7.12,7.12,0,0,0,1.34,2.19,6.44,6.44,0,0,0,2,1.47,5.83,5.83,0,0,0,4.9,0,6.3,6.3,0,0,0,2-1.5,7.17,7.17,0,0,0,1.36-2.22,7.33,7.33,0,0,0,.5-2.71,7.22,7.22,0,0,0-.5-2.68,7,7,0,0,0-1.36-2.2,6.81,6.81,0,0,0-2-1.51,5.49,5.49,0,0,0-2.44-.56,5.6,5.6,0,0,0-2.45.56,6.28,6.28,0,0,0-2,1.52,7.5,7.5,0,0,0-1.37,2.25A7.29,7.29,0,0,0,876.45,514.09Z" transform="translate(-72.47 -61.52)"/><path d="M894.49,499.43h1.58v19.44a2,2,0,0,0,.51,1.42,1.91,1.91,0,0,0,1.41.53,5.6,5.6,0,0,0,.83-.08,4.53,4.53,0,0,0,.88-.23l.31,1.24a7.43,7.43,0,0,1-1.3.36,7.9,7.9,0,0,1-1.34.13,2.83,2.83,0,0,1-2.09-.79,2.88,2.88,0,0,1-.79-2.12Z" transform="translate(-72.47 -61.52)"/><path d="M902.52,499.43h1.58v19.44a2,2,0,0,0,.51,1.42,1.88,1.88,0,0,0,1.41.53,5.48,5.48,0,0,0,.82-.08,4.63,4.63,0,0,0,.89-.23l.31,1.24a7.43,7.43,0,0,1-1.3.36,8,8,0,0,1-1.34.13,2.72,2.72,0,0,1-2.88-2.91Z" transform="translate(-72.47 -61.52)"/><path d="M917.28,522.37a7.45,7.45,0,0,1-3.17-.67,7.64,7.64,0,0,1-2.52-1.83,8.51,8.51,0,0,1-1.68-2.68,8.77,8.77,0,0,1-.6-3.25,8.56,8.56,0,0,1,.6-3.21,8.75,8.75,0,0,1,1.66-2.64,7.71,7.71,0,0,1,2.5-1.78,7.53,7.53,0,0,1,3.11-.65,7.4,7.4,0,0,1,3.16.67,7.86,7.86,0,0,1,2.52,1.79,8.33,8.33,0,0,1,1.64,2.64,8.68,8.68,0,0,1,.59,3.18v.38a.88.88,0,0,1,0,.3H910.92a7.21,7.21,0,0,0,.65,2.59,7.37,7.37,0,0,0,1.41,2.06,6.38,6.38,0,0,0,2,1.36,5.82,5.82,0,0,0,2.39.5,6.07,6.07,0,0,0,1.64-.23,6.71,6.71,0,0,0,1.5-.64,5.16,5.16,0,0,0,1.24-1,4.51,4.51,0,0,0,.86-1.25l1.36.37a5.14,5.14,0,0,1-1,1.6,6.8,6.8,0,0,1-1.55,1.25,7.74,7.74,0,0,1-1.93.82A8,8,0,0,1,917.28,522.37Zm6.32-9a7.16,7.16,0,0,0-.64-2.61,7,7,0,0,0-1.39-2,6.46,6.46,0,0,0-2-1.33,6.17,6.17,0,0,0-4.77,0,6.34,6.34,0,0,0-2,1.33,6.58,6.58,0,0,0-1.37,2.05,7.85,7.85,0,0,0-.6,2.59Z" transform="translate(-72.47 -61.52)"/><path d="M936.12,507.33a6.35,6.35,0,0,0-6.07,4.65v10.08H928.5V505.94H930v4a7.73,7.73,0,0,1,2.21-2.78,5.68,5.68,0,0,1,3-1.22l.56,0h.4Z" transform="translate(-72.47 -61.52)"/><path d="M95.29,522.06v-22h9.06a5.71,5.71,0,0,1,2.57.59,6.6,6.6,0,0,1,2,1.56,7.48,7.48,0,0,1,1.33,2.2,6.74,6.74,0,0,1,.48,2.47,7.43,7.43,0,0,1-.45,2.57,7,7,0,0,1-1.27,2.2,6.22,6.22,0,0,1-2,1.54,5.61,5.61,0,0,1-2.54.57H96.88v8.31Zm1.59-9.77h7.59a4.18,4.18,0,0,0,2-.45,4.56,4.56,0,0,0,1.48-1.21,5.64,5.64,0,0,0,.93-1.73,6.58,6.58,0,0,0,.32-2,5.73,5.73,0,0,0-1.44-3.78,5,5,0,0,0-1.55-1.18,4.19,4.19,0,0,0-1.88-.44h-7.4Z" transform="translate(-72.47 -61.52)"/><path d="M127.25,522.06h-1.54v-9c0-4-1.34-6-4-6a5.19,5.19,0,0,0-1.94.37,6.67,6.67,0,0,0-1.77,1.05,7.59,7.59,0,0,0-1.44,1.6,7.12,7.12,0,0,0-.93,2v10h-1.55V499.43h1.55v10.35a7.78,7.78,0,0,1,2.74-3,6.86,6.86,0,0,1,3.77-1.12,4.93,4.93,0,0,1,2.29.5,4.27,4.27,0,0,1,1.6,1.42,6.57,6.57,0,0,1,.93,2.25,13.38,13.38,0,0,1,.29,3Z" transform="translate(-72.47 -61.52)"/><path d="M138.69,522.37a7.31,7.31,0,0,1-3.14-.67,7.79,7.79,0,0,1-2.5-1.81,8.36,8.36,0,0,1-1.64-2.67,8.77,8.77,0,0,1-.59-3.19,8.68,8.68,0,0,1,2.26-5.89,7.75,7.75,0,0,1,2.5-1.81,7.24,7.24,0,0,1,3.11-.67,7.13,7.13,0,0,1,3.1.67,7.86,7.86,0,0,1,2.5,1.81,8.32,8.32,0,0,1,1.67,2.67,8.72,8.72,0,0,1,0,6.41,8.56,8.56,0,0,1-1.65,2.67,7.9,7.9,0,0,1-2.5,1.81A7.26,7.26,0,0,1,138.69,522.37Zm-6.32-8.28a7.22,7.22,0,0,0,.5,2.68,7.12,7.12,0,0,0,1.34,2.19,6.44,6.44,0,0,0,2,1.47,5.83,5.83,0,0,0,4.9,0,6.3,6.3,0,0,0,2-1.5,7.17,7.17,0,0,0,1.36-2.22A7.33,7.33,0,0,0,145,514a7.22,7.22,0,0,0-.5-2.68,7,7,0,0,0-1.36-2.2,6.81,6.81,0,0,0-2-1.51,5.6,5.6,0,0,0-4.88,0,6.21,6.21,0,0,0-2,1.52,7.5,7.5,0,0,0-1.37,2.25A7.29,7.29,0,0,0,132.37,514.09Z" transform="translate(-72.47 -61.52)"/><path d="M163.46,522.06h-1.55v-9a9,9,0,0,0-.88-4.56,3.06,3.06,0,0,0-2.81-1.42,5.77,5.77,0,0,0-2,.37,7.06,7.06,0,0,0-1.87,1.05,7.7,7.7,0,0,0-1.52,1.6,6.22,6.22,0,0,0-1,2v10h-1.55V505.94h1.45v3.84a7.86,7.86,0,0,1,1.23-1.69,7.7,7.7,0,0,1,1.64-1.3,8.56,8.56,0,0,1,1.94-.84,7.79,7.79,0,0,1,2.11-.29,4,4,0,0,1,3.72,1.84,10.6,10.6,0,0,1,1.08,5.29Z" transform="translate(-72.47 -61.52)"/><path d="M175,522.37a7.43,7.43,0,0,1-3.16-.67,7.64,7.64,0,0,1-2.52-1.83,8.51,8.51,0,0,1-1.68-2.68,8.77,8.77,0,0,1-.6-3.25,8.56,8.56,0,0,1,.6-3.21,8.75,8.75,0,0,1,1.66-2.64,7.71,7.71,0,0,1,2.5-1.78,7.53,7.53,0,0,1,3.11-.65,7.4,7.4,0,0,1,3.16.67,7.82,7.82,0,0,1,2.51,1.79,8.35,8.35,0,0,1,1.65,2.64,8.68,8.68,0,0,1,.59,3.18v.38a.88.88,0,0,1,0,.3H168.64a7.21,7.21,0,0,0,.65,2.59,7.37,7.37,0,0,0,1.41,2.06,6.38,6.38,0,0,0,2,1.36,5.82,5.82,0,0,0,2.39.5,6.13,6.13,0,0,0,1.64-.23,6.71,6.71,0,0,0,1.5-.64,5.16,5.16,0,0,0,1.24-1,4.73,4.73,0,0,0,.86-1.25l1.36.37a5.14,5.14,0,0,1-1,1.6,6.8,6.8,0,0,1-1.55,1.25,7.65,7.65,0,0,1-1.94.82A7.84,7.84,0,0,1,175,522.37Zm6.33-9a7.36,7.36,0,0,0-.64-2.61,7,7,0,0,0-1.39-2,6.46,6.46,0,0,0-2-1.33,6.17,6.17,0,0,0-4.77,0,6.34,6.34,0,0,0-2,1.33,6.41,6.41,0,0,0-1.37,2.05,7.85,7.85,0,0,0-.6,2.59Z" transform="translate(-72.47 -61.52)"/><path d="M200.6,500.05H202l9.3,22h-1.67l-3.07-7.26H196l-3.07,7.26h-1.7Zm5.49,13.45L201.28,502l-4.9,11.53Z" transform="translate(-72.47 -61.52)"/><path d="M222,522.37a6.47,6.47,0,0,1-3.7-1.1,8.91,8.91,0,0,1-2.62-2.68v10.07h-1.55V505.94h1.42v3.22a7.9,7.9,0,0,1,2.62-2.52,6.61,6.61,0,0,1,3.49-1,6.89,6.89,0,0,1,3.1.71,8,8,0,0,1,2.45,1.88A8.85,8.85,0,0,1,229.4,514a9.66,9.66,0,0,1-.53,3.19,8.21,8.21,0,0,1-1.5,2.67A7.15,7.15,0,0,1,225,521.7,6.68,6.68,0,0,1,222,522.37Zm-.37-1.4a5.37,5.37,0,0,0,2.54-.59,6,6,0,0,0,1.95-1.56,7.15,7.15,0,0,0,1.24-2.23,7.79,7.79,0,0,0,.44-2.56,7.17,7.17,0,0,0-.5-2.65,7,7,0,0,0-1.38-2.22,6.75,6.75,0,0,0-2.06-1.53,5.71,5.71,0,0,0-2.51-.58,5,5,0,0,0-1.78.36,7.93,7.93,0,0,0-1.79,1,7.17,7.17,0,0,0-1.42,1.38,3.3,3.3,0,0,0-.68,1.64v5.31a7.89,7.89,0,0,0,2.41,3,6.27,6.27,0,0,0,1.68.92A5.35,5.35,0,0,0,221.65,521Z" transform="translate(-72.47 -61.52)"/><path d="M241,522.37a6.47,6.47,0,0,1-3.7-1.1,8.91,8.91,0,0,1-2.62-2.68v10.07h-1.55V505.94h1.42v3.22a8,8,0,0,1,2.62-2.52,6.61,6.61,0,0,1,3.49-1,6.89,6.89,0,0,1,3.1.71,8,8,0,0,1,2.45,1.88,8.85,8.85,0,0,1,2.17,5.78,9.66,9.66,0,0,1-.53,3.19,8.21,8.21,0,0,1-1.5,2.67A7.15,7.15,0,0,1,244,521.7,6.68,6.68,0,0,1,241,522.37Zm-.37-1.4a5.37,5.37,0,0,0,2.54-.59,6.1,6.1,0,0,0,2-1.56,7.36,7.36,0,0,0,1.24-2.23,7.77,7.77,0,0,0,.43-2.56,7.17,7.17,0,0,0-.5-2.65,7,7,0,0,0-1.38-2.22,6.64,6.64,0,0,0-2.06-1.53,5.67,5.67,0,0,0-2.51-.58,5,5,0,0,0-1.78.36,7.66,7.66,0,0,0-1.78,1,7,7,0,0,0-1.43,1.38,3.3,3.3,0,0,0-.68,1.64v5.31a8.21,8.21,0,0,0,1,1.67,7.51,7.51,0,0,0,1.4,1.36,6.06,6.06,0,0,0,1.67.92A5.35,5.35,0,0,0,240.62,521Z" transform="translate(-72.47 -61.52)"/><path d="M1382.1,503.71a7.71,7.71,0,0,0-6-2.39,7.32,7.32,0,0,0-4.69,1.22,4.1,4.1,0,0,0-1.48,3.31,3.68,3.68,0,0,0,.38,1.75,3.13,3.13,0,0,0,1.16,1.19,7.81,7.81,0,0,0,2,.84c.8.23,1.78.46,2.91.71s2.25.52,3.21.82a9.44,9.44,0,0,1,2.45,1.13,4.86,4.86,0,0,1,1.55,1.68,5.07,5.07,0,0,1,.54,2.45,5.38,5.38,0,0,1-.57,2.54,5.07,5.07,0,0,1-1.61,1.81,7.6,7.6,0,0,1-2.48,1.1,12.75,12.75,0,0,1-3.21.37,12.37,12.37,0,0,1-8.71-3.28l.83-1.27a10.18,10.18,0,0,0,3.41,2.31,11.54,11.54,0,0,0,4.53.85,8.18,8.18,0,0,0,4.51-1.06,3.52,3.52,0,0,0,1.63-3.19,3.63,3.63,0,0,0-.44-1.84,3.83,3.83,0,0,0-1.28-1.32,8.73,8.73,0,0,0-2.16-1c-.87-.27-1.88-.53-3-.77s-2.21-.52-3.11-.8a8.32,8.32,0,0,1-2.26-1.05,4.18,4.18,0,0,1-1.38-1.53,4.93,4.93,0,0,1-.47-2.27,5.69,5.69,0,0,1,.58-2.63,5.53,5.53,0,0,1,1.59-1.94,7.09,7.09,0,0,1,2.45-1.19,11.52,11.52,0,0,1,3.16-.41,10.81,10.81,0,0,1,3.82.64,9,9,0,0,1,3,1.94Z" transform="translate(-72.47 -61.52)"/><path d="M1394.44,522.37a7.45,7.45,0,0,1-3.17-.67,7.64,7.64,0,0,1-2.52-1.83,8.51,8.51,0,0,1-1.68-2.68,8.77,8.77,0,0,1-.6-3.25,8.56,8.56,0,0,1,.6-3.21,8.75,8.75,0,0,1,1.66-2.64,7.71,7.71,0,0,1,2.5-1.78,7.53,7.53,0,0,1,3.11-.65,7.4,7.4,0,0,1,3.16.67,7.86,7.86,0,0,1,2.52,1.79,8.33,8.33,0,0,1,1.64,2.64,8.68,8.68,0,0,1,.59,3.18v.38a.88.88,0,0,1,0,.3h-14.14a7.21,7.21,0,0,0,.65,2.59,7.37,7.37,0,0,0,1.41,2.06,6.38,6.38,0,0,0,2,1.36,5.82,5.82,0,0,0,2.39.5,6.07,6.07,0,0,0,1.64-.23,6.71,6.71,0,0,0,1.5-.64,5.16,5.16,0,0,0,1.24-1,4.51,4.51,0,0,0,.86-1.25l1.36.37a5.14,5.14,0,0,1-1,1.6,6.8,6.8,0,0,1-1.55,1.25,7.74,7.74,0,0,1-1.93.82A8,8,0,0,1,1394.44,522.37Zm6.32-9a7.16,7.16,0,0,0-.64-2.61,7,7,0,0,0-1.39-2,6.46,6.46,0,0,0-2-1.33,6.17,6.17,0,0,0-4.77,0,6.34,6.34,0,0,0-2,1.33,6.58,6.58,0,0,0-1.37,2.05,7.85,7.85,0,0,0-.6,2.59Z" transform="translate(-72.47 -61.52)"/><path d="M1418.83,522.06h-1.55v-9a9,9,0,0,0-.88-4.56,3.05,3.05,0,0,0-2.81-1.42,5.77,5.77,0,0,0-2,.37,7.06,7.06,0,0,0-1.87,1.05,7.7,7.7,0,0,0-1.52,1.6,6.22,6.22,0,0,0-1,2v10h-1.55V505.94h1.45v3.84a7.86,7.86,0,0,1,1.23-1.69,7.7,7.7,0,0,1,1.64-1.3,8.56,8.56,0,0,1,1.94-.84,7.79,7.79,0,0,1,2.11-.29,4,4,0,0,1,3.72,1.84,10.6,10.6,0,0,1,1.08,5.29Z" transform="translate(-72.47 -61.52)"/><path d="M1428.63,522.37a10.47,10.47,0,0,1-3.57-.62,8.26,8.26,0,0,1-3-1.86l.77-1.06a9,9,0,0,0,2.7,1.74,8.22,8.22,0,0,0,3.07.56,6,6,0,0,0,3.39-.88,2.84,2.84,0,0,0,1.29-2.47,2.26,2.26,0,0,0-.33-1.25,2.43,2.43,0,0,0-1-.87,8.15,8.15,0,0,0-1.62-.64c-.64-.18-1.38-.38-2.23-.59s-1.7-.41-2.37-.62a6.26,6.26,0,0,1-1.66-.74,2.8,2.8,0,0,1-1-1.06,3.34,3.34,0,0,1-.33-1.58,4.52,4.52,0,0,1,.47-2.1,4.09,4.09,0,0,1,1.28-1.49,6.1,6.1,0,0,1,1.89-.89,8.9,8.9,0,0,1,2.28-.29,8.38,8.38,0,0,1,3.35.63,5.89,5.89,0,0,1,2.26,1.63l-.87.84a4.76,4.76,0,0,0-2.09-1.39,7.77,7.77,0,0,0-2.74-.47,7.06,7.06,0,0,0-1.69.19,4.1,4.1,0,0,0-1.38.58,3,3,0,0,0-.93,1,3.15,3.15,0,0,0-.34,1.51,2.48,2.48,0,0,0,.23,1.14,2,2,0,0,0,.74.75,5.91,5.91,0,0,0,1.32.54c.54.15,1.18.33,1.93.51,1,.25,1.91.49,2.69.71a7.88,7.88,0,0,1,2,.84,3.7,3.7,0,0,1,1.21,1.18,3.24,3.24,0,0,1,.42,1.73,4.14,4.14,0,0,1-1.69,3.46A7.25,7.25,0,0,1,1428.63,522.37Z" transform="translate(-72.47 -61.52)"/><path d="M1445.18,522.37a7.28,7.28,0,0,1-3.14-.67,7.68,7.68,0,0,1-2.5-1.81,8.36,8.36,0,0,1-1.64-2.67,8.56,8.56,0,0,1-.59-3.19,8.65,8.65,0,0,1,.6-3.22,8.48,8.48,0,0,1,1.66-2.67,7.64,7.64,0,0,1,2.5-1.81,7.24,7.24,0,0,1,3.11-.67,7.13,7.13,0,0,1,3.1.67,8,8,0,0,1,2.5,1.81,8.32,8.32,0,0,1,1.67,2.67,8.74,8.74,0,0,1-1.66,9.08,7.75,7.75,0,0,1-2.49,1.81A7.26,7.26,0,0,1,1445.18,522.37Zm-6.32-8.28a7.21,7.21,0,0,0,.49,2.68,7,7,0,0,0,1.35,2.19,6.44,6.44,0,0,0,2,1.47,5.83,5.83,0,0,0,4.9,0,6.27,6.27,0,0,0,2-1.5,7.2,7.2,0,0,0,1.37-2.22,7.33,7.33,0,0,0,.49-2.71,7.21,7.21,0,0,0-.49-2.68,7,7,0,0,0-1.37-2.2,6.64,6.64,0,0,0-2-1.51,5.49,5.49,0,0,0-2.44-.56,5.57,5.57,0,0,0-2.45.56,6.44,6.44,0,0,0-2,1.52,7.47,7.47,0,0,0-1.36,2.25A7.29,7.29,0,0,0,1438.86,514.09Z" transform="translate(-72.47 -61.52)"/><path d="M1464.4,507.33a6.32,6.32,0,0,0-6.07,4.65v10.08h-1.55V505.94h1.48v4a7.86,7.86,0,0,1,2.22-2.78,5.68,5.68,0,0,1,3-1.22l.56,0h.4Z" transform="translate(-72.47 -61.52)"/><path d="M1472.46,522.37a10.37,10.37,0,0,1-3.56-.62,8.3,8.3,0,0,1-3-1.86l.78-1.06a8.82,8.82,0,0,0,2.69,1.74,8.26,8.26,0,0,0,3.07.56,6,6,0,0,0,3.4-.88,2.85,2.85,0,0,0,1.28-2.47,2.34,2.34,0,0,0-.32-1.25,2.54,2.54,0,0,0-1-.87,8,8,0,0,0-1.61-.64c-.64-.18-1.39-.38-2.23-.59s-1.7-.41-2.37-.62a6,6,0,0,1-1.66-.74,2.83,2.83,0,0,1-1-1.06,3.34,3.34,0,0,1-.33-1.58,4.52,4.52,0,0,1,.47-2.1,4.12,4.12,0,0,1,1.29-1.49,5.89,5.89,0,0,1,1.89-.89,8.79,8.79,0,0,1,2.28-.29,8.33,8.33,0,0,1,3.34.63,6,6,0,0,1,2.27,1.63l-.87.84a4.87,4.87,0,0,0-2.09-1.39,7.83,7.83,0,0,0-2.75-.47,7.06,7.06,0,0,0-1.69.19,4.28,4.28,0,0,0-1.38.58,3,3,0,0,0-.93,1,3.26,3.26,0,0,0-.34,1.51,2.48,2.48,0,0,0,.23,1.14,2.07,2.07,0,0,0,.75.75,5.54,5.54,0,0,0,1.32.54c.53.15,1.17.33,1.92.51,1,.25,1.91.49,2.7.71a7.8,7.8,0,0,1,2,.84,3.7,3.7,0,0,1,1.21,1.18,3.24,3.24,0,0,1,.42,1.73,4.12,4.12,0,0,1-1.69,3.46A7.23,7.23,0,0,1,1472.46,522.37Z" transform="translate(-72.47 -61.52)"/><path d="M1497,522.37a7.36,7.36,0,0,1-3.15-.67,7.75,7.75,0,0,1-2.49-1.81,8.36,8.36,0,0,1-1.64-2.67,8.56,8.56,0,0,1-.59-3.19,8.68,8.68,0,0,1,2.26-5.89,7.54,7.54,0,0,1,2.5-1.81,7.24,7.24,0,0,1,3.11-.67,7.13,7.13,0,0,1,3.1.67,8,8,0,0,1,2.5,1.81,8.32,8.32,0,0,1,1.67,2.67,8.74,8.74,0,0,1-1.66,9.08,7.75,7.75,0,0,1-2.49,1.81A7.26,7.26,0,0,1,1497,522.37Zm-6.32-8.28a7.21,7.21,0,0,0,.49,2.68,7,7,0,0,0,1.35,2.19,6.44,6.44,0,0,0,2,1.47,5.83,5.83,0,0,0,4.9,0,6.27,6.27,0,0,0,2-1.5,7.2,7.2,0,0,0,1.37-2.22,7.33,7.33,0,0,0,.49-2.71,7.21,7.21,0,0,0-.49-2.68,7,7,0,0,0-1.37-2.2,6.56,6.56,0,0,0-2-1.51,5.42,5.42,0,0,0-2.43-.56,5.57,5.57,0,0,0-2.45.56,6.44,6.44,0,0,0-2,1.52,7.47,7.47,0,0,0-1.36,2.25A7.29,7.29,0,0,0,1490.66,514.09Z" transform="translate(-72.47 -61.52)"/><path d="M1521.75,522.06h-1.55v-9a9,9,0,0,0-.88-4.56,3.06,3.06,0,0,0-2.81-1.42,5.77,5.77,0,0,0-2,.37,6.91,6.91,0,0,0-1.87,1.05,7.7,7.7,0,0,0-1.52,1.6,6.22,6.22,0,0,0-1,2v10h-1.55V505.94H1510v3.84a7.54,7.54,0,0,1,1.23-1.69,7.7,7.7,0,0,1,1.64-1.3,8.56,8.56,0,0,1,1.94-.84,7.79,7.79,0,0,1,2.11-.29,4,4,0,0,1,3.72,1.84,10.6,10.6,0,0,1,1.08,5.29Z" transform="translate(-72.47 -61.52)"/><path d="M1534,522.37a6.73,6.73,0,0,1-3.53-1,7.38,7.38,0,0,1-2.57-2.55v3.23h-1.43V499.43H1528v10a10.5,10.5,0,0,1,2.71-2.73,6.35,6.35,0,0,1,3.61-1,6.47,6.47,0,0,1,3.09.73,7.09,7.09,0,0,1,2.32,1.92,8.91,8.91,0,0,1,1.46,2.7,9.43,9.43,0,0,1,.51,3,8.48,8.48,0,0,1-.59,3.18,8.3,8.3,0,0,1-1.62,2.63,8.16,8.16,0,0,1-2.45,1.82A7,7,0,0,1,1534,522.37Zm-.31-1.4a5.69,5.69,0,0,0,2.61-.59,6.6,6.6,0,0,0,2-1.56,7.33,7.33,0,0,0,1.33-2.22,6.94,6.94,0,0,0,.48-2.54,7.72,7.72,0,0,0-.45-2.62,7.11,7.11,0,0,0-1.27-2.23,6.59,6.59,0,0,0-2-1.57,5.39,5.39,0,0,0-2.5-.59,5.12,5.12,0,0,0-1.92.36,6.68,6.68,0,0,0-1.66.95,7.61,7.61,0,0,0-1.36,1.36,8.63,8.63,0,0,0-1,1.61v5.33a3.35,3.35,0,0,0,.68,1.69,6.11,6.11,0,0,0,1.41,1.37,7.19,7.19,0,0,0,1.79.91A5.31,5.31,0,0,0,1533.65,521Z" transform="translate(-72.47 -61.52)"/><path d="M1552.16,522.37a7.36,7.36,0,0,1-3.15-.67,7.75,7.75,0,0,1-2.49-1.81,8.36,8.36,0,0,1-1.64-2.67,8.56,8.56,0,0,1-.59-3.19,8.65,8.65,0,0,1,.6-3.22,8.48,8.48,0,0,1,1.66-2.67,7.6,7.6,0,0,1,2.49-1.81,7.29,7.29,0,0,1,3.12-.67,7.13,7.13,0,0,1,3.1.67,8,8,0,0,1,2.5,1.81,8.32,8.32,0,0,1,1.67,2.67,8.74,8.74,0,0,1-1.66,9.08,7.75,7.75,0,0,1-2.49,1.81A7.26,7.26,0,0,1,1552.16,522.37Zm-6.32-8.28a7.21,7.21,0,0,0,.49,2.68,7,7,0,0,0,1.35,2.19,6.44,6.44,0,0,0,2,1.47,5.83,5.83,0,0,0,4.9,0,6.27,6.27,0,0,0,2-1.5,7.2,7.2,0,0,0,1.37-2.22,7.33,7.33,0,0,0,.49-2.71,7.21,7.21,0,0,0-.49-2.68,7,7,0,0,0-1.37-2.2,6.56,6.56,0,0,0-2-1.51,5.42,5.42,0,0,0-2.43-.56,5.57,5.57,0,0,0-2.45.56,6.44,6.44,0,0,0-2,1.52,7.47,7.47,0,0,0-1.36,2.25A7.29,7.29,0,0,0,1545.84,514.09Z" transform="translate(-72.47 -61.52)"/><path d="M1567.72,522.37a5.57,5.57,0,0,1-3.76-1.44,4.7,4.7,0,0,1-1.14-1.58,5,5,0,0,1-.4-2,3.79,3.79,0,0,1,.5-1.92,4.81,4.81,0,0,1,1.38-1.51,6.93,6.93,0,0,1,2.12-1,9.8,9.8,0,0,1,2.73-.36,14.59,14.59,0,0,1,2.62.24,12.36,12.36,0,0,1,2.37.63v-1.58a5,5,0,0,0-1.3-3.64,4.69,4.69,0,0,0-3.54-1.35,7.12,7.12,0,0,0-2.49.5,12.68,12.68,0,0,0-2.68,1.42l-.59-1.05a10.53,10.53,0,0,1,5.89-2.11,6.17,6.17,0,0,1,4.59,1.69,6.36,6.36,0,0,1,1.67,4.66v7.88c0,.52.23.77.68.77v1.4l-.32.05h-.3a1.26,1.26,0,0,1-1-.42,1.72,1.72,0,0,1-.43-1v-1.34a7.25,7.25,0,0,1-2.86,2.23A9,9,0,0,1,1567.72,522.37Zm.31-1.24a8,8,0,0,0,3.3-.68,5.62,5.62,0,0,0,2.31-1.8,2.11,2.11,0,0,0,.5-1.24v-2.85a12,12,0,0,0-2.33-.65,13.63,13.63,0,0,0-2.51-.22,8.85,8.85,0,0,0-2.2.26,5.89,5.89,0,0,0-1.7.73,3.29,3.29,0,0,0-1.1,1.13,2.9,2.9,0,0,0-.39,1.48,3.68,3.68,0,0,0,.31,1.51,3.49,3.49,0,0,0,.87,1.23,4,4,0,0,0,1.31.8A4.41,4.41,0,0,0,1568,521.13Z" transform="translate(-72.47 -61.52)"/><path d="M1588,507.33A6.35,6.35,0,0,0,1582,512v10.08h-1.55V505.94h1.49v4a7.86,7.86,0,0,1,2.22-2.78,5.65,5.65,0,0,1,3-1.22l.56,0h.4Z" transform="translate(-72.47 -61.52)"/><path d="M1596.8,522.37a6.88,6.88,0,0,1-3.1-.7,7.77,7.77,0,0,1-2.46-1.86,8.42,8.42,0,0,1-1.62-2.67,8.7,8.7,0,0,1-.57-3.11,9.19,9.19,0,0,1,.56-3.19,8.51,8.51,0,0,1,1.55-2.67,7.73,7.73,0,0,1,2.34-1.83,6.51,6.51,0,0,1,3-.68,6.13,6.13,0,0,1,2,.31,8.16,8.16,0,0,1,1.74.82,8,8,0,0,1,1.46,1.19,8.94,8.94,0,0,1,1.11,1.46v-10h1.55v20.46c0,.52.22.77.65.77v1.4l-.31.05h-.25a1.37,1.37,0,0,1-1.05-.48,1.49,1.49,0,0,1-.43-1v-1.8a7.44,7.44,0,0,1-2.65,2.58A6.83,6.83,0,0,1,1596.8,522.37Zm.28-1.4a5.32,5.32,0,0,0,1.8-.34,6.75,6.75,0,0,0,1.78-.94,7.11,7.11,0,0,0,1.41-1.38,3.32,3.32,0,0,0,.68-1.68v-5.3a6.54,6.54,0,0,0-1-1.66,7.46,7.46,0,0,0-1.45-1.36,7,7,0,0,0-1.73-.91,5.17,5.17,0,0,0-1.8-.35,5.38,5.38,0,0,0-2.54.61,6.3,6.3,0,0,0-2,1.58,7.24,7.24,0,0,0-1.24,2.23,8.13,8.13,0,0,0-.43,2.59,7.08,7.08,0,0,0,.5,2.64,7.18,7.18,0,0,0,1.38,2.2,6.89,6.89,0,0,0,2,1.52A5.81,5.81,0,0,0,1597.08,521Z" transform="translate(-72.47 -61.52)"/><path d="M273.2,159.38c.11,2,.32,3.9.33,5.85.05,5.75.07,11.51,0,17.26a9.46,9.46,0,0,1-.85,2.36,7.82,7.82,0,0,0-.52,2.25c0,8.81-.06,17.62,0,26.43,0,1.12.62,2.24,1.08,3.77.08,1.84.27,4.15.28,6.46q0,20.64,0,41.26c0,1.21.16,2.37-1.05,3.42-.58.5-.37,2-.37,3.08q0,50.57,0,101.13,0,32.76,0,65.53a30.53,30.53,0,0,1-7.59,20.8,27.9,27.9,0,0,1-21.34,9.91c-7.1.08-14.21-.15-21.3.12-25.49,1-51,1.35-76.47.57-15.25-.47-30.5-.2-45.74-.72-11.18-.38-21.88-9.08-25.58-20.51a38.46,38.46,0,0,1-1.61-12q0-100.18,0-200.37,0-70.65,0-141.31a54.92,54.92,0,0,1,1.12-11.23C76.23,71.4,84.17,64,96.37,62.08a43.06,43.06,0,0,1,6.71-.53q69.3,0,138.61,0a39.63,39.63,0,0,1,7.76.75c12.47,2.51,20.24,10.75,22,23.7a112.1,112.1,0,0,1,.68,14.79c.06,18.16,0,36.31,0,54.47a19.34,19.34,0,0,0,.81,3.9Zm-4.94,106q0-80.12,0-160.22c0-5.92.08-11.88-.5-17.76-.92-9.18-5.08-16.43-14-20.14a28.67,28.67,0,0,0-11.33-2.12q-9.3.07-18.6.08c-40.82,0-81.64-.09-122.46,0a30,30,0,0,0-10.47,2.11c-9.15,3.57-13.16,11.13-14,20.38-.58,6.14-.47,12.37-.47,18.55q0,164.67,0,329.34a46.6,46.6,0,0,0,1.39,10.63A23.81,23.81,0,0,0,97.66,464a90,90,0,0,0,11,.41q66.76,0,133.52,0c8.1,0,14.91-2.85,20.11-9.2,4.31-5.26,5.92-11.46,5.92-18.08Q268.3,351.27,268.26,265.36Z" transform="translate(-72.47 -61.52)"/><path d="M173.85,96.69c-1.67,0-3.35.09-5,0a3.54,3.54,0,0,1-3.55-3.35,3.47,3.47,0,0,1,3.36-3.85,93.16,93.16,0,0,1,10.7,0,3.6,3.6,0,0,1-.14,7.2C177.43,96.79,175.63,96.69,173.85,96.69Z" transform="translate(-72.47 -61.52)"/><path d="M106.9,73.62a4.07,4.07,0,1,1,.11,8.14,4,4,0,0,1-4-3.87A4.06,4.06,0,0,1,106.9,73.62Z" transform="translate(-72.47 -61.52)"/><rect class="cls-16" x="10.5" y="40.96" width="178.51" height="318.16"/><rect class="cls-17" x="1305.45" y="43.35" width="219.08" height="310.65"/><path class="cls-18" d="M1570.13,347.67h-163.5V184.17h163.5Zm-80.91-143c-16.06,0-32.12-.06-48.18,0-10.93.06-13.89,2.79-13.93,13.39q-.16,47.77,0,95.55c0,10.15,3.18,13.54,13.06,13.59q48.18.24,96.37,0c9.89-.05,13.08-3.43,13.12-13.53q.15-47.78,0-95.55c0-10.62-3-13.39-13.89-13.45C1520.26,204.65,1504.74,204.71,1489.22,204.71Z" transform="translate(-72.47 -61.52)"/><path d="M1489.22,204.71c15.52,0,31-.06,46.55,0,10.88.06,13.85,2.83,13.89,13.45q.16,47.77,0,95.55c0,10.1-3.23,13.48-13.12,13.53q-48.19.23-96.37,0c-9.88-.05-13-3.44-13.06-13.59q-.16-47.78,0-95.55c0-10.6,3-13.33,13.93-13.39C1457.1,204.65,1473.16,204.71,1489.22,204.71Zm56.39,62q0-23.3,0-46.59c0-10.46-.94-11.44-11-11.45q-46.18,0-92.36,0c-9.89,0-11,1.09-11,10.62,0,31.06.14,62.12-.12,93.17-.06,7.58,2.34,10.84,10.33,10.77q47-.43,94,0c8,.07,10.52-3.16,10.34-10.75C1545.36,297.26,1545.61,282,1545.61,266.74Z" transform="translate(-72.47 -61.52)"/><path class="cls-18" d="M1545.61,266.74c0,15.25-.25,30.52.1,45.77.18,7.59-2.37,10.82-10.34,10.75q-47-.43-94,0c-8,.07-10.39-3.19-10.33-10.77.26-31.05.09-62.11.12-93.17,0-9.53,1.15-10.61,11-10.62q46.17,0,92.36,0c10.09,0,11,1,11,11.45Q1545.65,243.45,1545.61,266.74Zm-61.68-35.16-3.13-.06-9.33,37.21-7-13.3-12.3,10.94.92,1.91,10.79-4.44c2.23,4.23,4.86,9.24,7.49,14.25l2.17-.51,7.16-28.4,1.41,0,6.66,46.91,2.85.3c2.91-9.72,5.81-19.44,9.06-30.28l5.86,13.44c3.93-6.92,5.8-15.07,15-10.25.31.17,2.64-2.29,2.93-3.75.17-.88-2-3.28-2.74-3.12-5.11,1.09-10.11,2.67-15.67,4.25-1.13-2.77-2.8-6.86-4.46-11l-2.1.1-7.63,24.25-1.28-.44Q1487.27,255.62,1483.93,231.58Z" transform="translate(-72.47 -61.52)"/><path d="M1483.93,231.58q3.33,24,6.67,48.1l1.28.44,7.63-24.25,2.1-.1c1.66,4.09,3.33,8.18,4.46,11,5.56-1.58,10.56-3.16,15.67-4.25.73-.16,2.91,2.24,2.74,3.12-.29,1.46-2.62,3.92-2.93,3.75-9.17-4.82-11,3.33-15,10.25l-5.86-13.44c-3.25,10.84-6.15,20.56-9.06,30.28l-2.85-.3-6.66-46.91-1.41,0-7.16,28.4-2.17.51c-2.63-5-5.26-10-7.49-14.25l-10.79,4.44-.92-1.91,12.3-10.94,7,13.3,9.33-37.21Z" transform="translate(-72.47 -61.52)"/><path class="cls-15" d="M1249.67,305.16c-7.1.76-14.21,1.33-21.31,1.88-.89.07-1.78.16-2.67.17s-1.77,0-2.66,0H1100.47c-3.55,0-7.1,0-10.65,0a21.68,21.68,0,0,1-2.67-.11l-2.66-.21-5.33-.42v-2.6l5.33-.42,2.66-.22a23.83,23.83,0,0,1,2.67-.1c3.55.08,7.1,0,10.65,0H1223c.89,0,1.78,0,2.66,0s1.78.11,2.67.17C1235.46,303.83,1242.57,304.4,1249.67,305.16Z" transform="translate(-72.47 -61.52)"/><path class="cls-15" d="M1080.77,305.16c4.18,4.18,6.17,12.44,6.33,18.18-5.73-7.7-13.17-14.42-22.18-18.18,9-3.61,16.13-10.73,22.18-18.18C1086.61,293.12,1085.11,300.57,1080.77,305.16Z" transform="translate(-72.47 -61.52)"/><path class="cls-9" d="M176.28,195c17.95,0,37,7.4,53.33,21.85,5.08,4.5,6,8.89,2.54,12.42-4.45,4.49-8.54,2.54-12.71-.95-29.11-24.41-65.61-24.45-94.44-.11-4.12,3.48-8.19,5.59-12.73,1.19-3.72-3.6-2.66-8,2.82-12.84C131.49,202.19,150.57,194.91,176.28,195Z" transform="translate(-72.47 -61.52)"/><path class="cls-9" d="M171.81,220.39c16,0,29.73,5.56,41.5,16.09,3.93,3.51,5.86,7.59,2.07,12s-8,3-12.1-.38c-20.45-17-41.52-16.91-62.49.21-3.91,3.19-7.95,4.41-11.63.41-3.93-4.27-2.35-8.43,1.6-12C142.48,226.12,156.13,220.48,171.81,220.39Z" transform="translate(-72.47 -61.52)"/><path class="cls-9" d="M193.52,271a78.6,78.6,0,0,1-7.17-4.49c-9.19-7.32-19.28-7.53-28.16-.05-4.23,3.57-8.52,5.42-12.57.68s-1.33-8.91,2.64-12.45c13.89-12.41,36.6-12,48.93,1.35,2,2.14,2.81,6.31,2.41,9.3C199.33,267.35,195.93,268.92,193.52,271Z" transform="translate(-72.47 -61.52)"/><path class="cls-9" d="M172.06,290.44a9.16,9.16,0,1,1,9.26-9.25A9.45,9.45,0,0,1,172.06,290.44Z" transform="translate(-72.47 -61.52)"/></svg>